<svg xmlns="http://www.w3.org/2000/svg" xmlns:xlink="http://www.w3.org/1999/xlink" width="15" height="15" viewBox="0 0 15 15" fill="none">
<path d="M7.5 0C3.35833 0 0 3.35833 0 7.5C0 11.6417 3.35833 15 7.5 15C11.6417 15 15 11.6417 15 7.5C15 3.35833 11.6417 0 7.5 0ZM9.85833 7.25833L9.85833 8.01667L8 8.01667L8 9.06667L9.85833 9.06667L9.85833 9.84167L8 9.84167L8 11.3667L7.04167 11.3667L7.04167 9.84167L5.10833 9.84167L5.10833 9.06667L7.03333 9.06667L7.03333 8.01667L5.10833 8.01667L5.10833 7.25833L6.75 7.25833L4.75 3.81667L5.825 3.81667C6.76667 5.525 7.33333 6.61667 7.53333 7.075L7.55 7.075C7.61667 6.88333 7.80833 6.50833 8.10833 5.93333L9.25833 3.81667L10.275 3.81667L8.25 7.26667L9.85833 7.26667L9.85833 7.25833Z"   fill="#FFFFFF" >
</path>
</svg>
