<svg xmlns="http://www.w3.org/2000/svg" xmlns:xlink="http://www.w3.org/1999/xlink" width="15.9993896484375" height="12.504150390625" viewBox="0 0 15.9993896484375 12.504150390625" fill="none">
<path d="M1.58939 0.161861C1.58125 0.168743 1.57329 0.175811 1.56551 0.183068C1.55786 0.190203 1.5504 0.197518 1.54312 0.205017C1.53585 0.212516 1.52878 0.220186 1.5219 0.228027C1.51503 0.235868 1.50836 0.243878 1.50191 0.252053C1.49545 0.260219 1.48921 0.268541 1.48318 0.277019C1.47715 0.285487 1.47135 0.294102 1.46577 0.302863C1.46019 0.311625 1.45484 0.320512 1.44972 0.329527C1.4446 0.338541 1.43972 0.347676 1.43508 0.356933Q1.42811 0.370832 1.42187 0.385036C1.41772 0.394506 1.41381 0.40407 1.41014 0.413731C1.40648 0.423402 1.40307 0.433149 1.39992 0.442971C1.39676 0.452804 1.39386 0.462707 1.39122 0.472681C1.38858 0.482645 1.38619 0.492675 1.38407 0.50277C1.38195 0.512855 1.38009 0.522987 1.3785 0.533163C1.3769 0.543338 1.37557 0.55355 1.3745 0.563797C1.37343 0.574034 1.37263 0.584296 1.3721 0.594584C1.37157 0.604861 1.3713 0.615149 1.3713 0.625446C1.3713 0.635743 1.37157 0.646031 1.3721 0.656308C1.37263 0.666596 1.37343 0.676863 1.3745 0.68711C1.37557 0.697346 1.3769 0.707554 1.3785 0.717729C1.38009 0.727916 1.38195 0.738052 1.38407 0.748137C1.38619 0.758222 1.38858 0.768252 1.39122 0.778226C1.39386 0.78819 1.39676 0.798088 1.39992 0.807921C1.40307 0.817754 1.40648 0.827501 1.41014 0.837161C1.41381 0.846822 1.41772 0.856387 1.42187 0.865856C1.42603 0.875334 1.43043 0.884702 1.43508 0.893959C1.43972 0.903216 1.4446 0.912351 1.44972 0.921365C1.45484 0.930389 1.46019 0.939278 1.46577 0.948029C1.47135 0.95679 1.47715 0.965411 1.48318 0.973889C1.48921 0.982358 1.49545 0.990673 1.50191 0.998839C1.50836 1.00701 1.51503 1.01502 1.5219 1.02287C1.52878 1.03071 1.53585 1.03838 1.54312 1.04588C1.5504 1.05337 1.55786 1.06069 1.56551 1.06782L13.5042 12.3286C13.512 12.3357 13.52 12.3426 13.5282 12.3492C13.5363 12.3559 13.5446 12.3624 13.5531 12.3687C13.5616 12.375 13.5702 12.3811 13.579 12.387C13.5878 12.3929 13.5967 12.3986 13.6057 12.4041C13.6148 12.4096 13.624 12.4149 13.6333 12.42C13.6426 12.4251 13.652 12.4299 13.6615 12.4346C13.6711 12.4392 13.6807 12.4436 13.6905 12.4478C13.7003 12.452 13.7101 12.456 13.7201 12.4597C13.73 12.4635 13.7401 12.467 13.7502 12.4703C13.7603 12.4736 13.7705 12.4766 13.7808 12.4794C13.7911 12.4822 13.8014 12.4848 13.8118 12.4872C13.8222 12.4895 13.8327 12.4916 13.8432 12.4935C13.8537 12.4953 13.8642 12.4969 13.8748 12.4983C13.8854 12.4997 13.896 12.5008 13.9067 12.5017C13.9173 12.5026 13.928 12.5033 13.9386 12.5037C13.9493 12.5041 13.96 12.5042 13.9707 12.5041C13.9813 12.5041 13.992 12.5037 14.0027 12.5031C14.0133 12.5026 14.024 12.5017 14.0346 12.5007C14.0452 12.4996 14.0558 12.4983 14.0664 12.4967C14.0769 12.4952 14.0874 12.4934 14.0979 12.4914C14.1084 12.4893 14.1188 12.487 14.1292 12.4845C14.1395 12.482 14.1498 12.4793 14.16 12.4763C14.1703 12.4733 14.1804 12.4701 14.1905 12.4666C14.2005 12.4632 14.2105 12.4595 14.2204 12.4556C14.2303 12.4517 14.2401 12.4475 14.2498 12.4431C14.2595 12.4388 14.269 12.4342 14.2785 12.4294C14.288 12.4246 14.2973 12.4196 14.3065 12.4144C14.3157 12.4091 14.3248 12.4037 14.3338 12.3981C14.3427 12.3924 14.3515 12.3865 14.3602 12.3805C14.3689 12.3745 14.3774 12.3682 14.3858 12.3618C14.3941 12.3553 14.4023 12.3487 14.4103 12.3419C14.4184 12.3351 14.4263 12.3281 14.434 12.3209C14.69 12.0799 14.6935 11.6896 14.442 11.4439L2.50329 0.183068C2.4955 0.175811 2.48754 0.168743 2.47942 0.161861C2.47128 0.154979 2.46298 0.14829 2.45451 0.141792C2.44605 0.135294 2.43744 0.128993 2.42867 0.122889C2.41989 0.116796 2.41097 0.110904 2.4019 0.105215C2.39284 0.0995256 2.38364 0.0940534 2.37431 0.0887985C2.36498 0.0835438 2.35552 0.0785061 2.34593 0.0736858C2.33635 0.0688654 2.32666 0.0642725 2.31686 0.0599069C2.30704 0.0555313 2.29713 0.051388 2.28712 0.0474772C2.2771 0.0435765 2.267 0.039903 2.25681 0.0364571C2.24661 0.0330213 2.23634 0.0298178 2.22598 0.0268468C2.21564 0.0238859 2.20522 0.0211674 2.19473 0.0186916C2.18424 0.0162057 2.1737 0.0139673 2.16311 0.0119765C2.15251 0.00998785 2.14187 0.00824457 2.13118 0.00674692C2.12051 0.00525032 2.10979 0.00400178 2.09904 0.0030013C2.0883 0.00200187 2.07754 0.00125155 2.06676 0.000750326C2.05598 0.000250147 2.0452 0 2.0344 0C2.02361 0 2.01283 0.000250147 2.00204 0.000750326C1.99126 0.00125155 1.9805 0.00200187 1.96975 0.0030013C1.95901 0.00400178 1.94829 0.00525032 1.93761 0.00674692C1.92693 0.00824457 1.91629 0.00998785 1.90568 0.0119765C1.89509 0.0139673 1.88455 0.0162057 1.87406 0.0186916C1.86358 0.0211674 1.85316 0.0238859 1.84281 0.0268468C1.83245 0.0298178 1.82218 0.0330213 1.812 0.0364571C1.8018 0.039903 1.7917 0.0435765 1.78168 0.0474772C1.77166 0.051388 1.76175 0.0555313 1.75195 0.0599069C1.74214 0.0642725 1.73244 0.0688654 1.72286 0.0736858C1.71327 0.0785061 1.70381 0.0835438 1.69448 0.0887985C1.68515 0.0940534 1.67595 0.0995256 1.66689 0.105215C1.65782 0.110904 1.64891 0.116796 1.64014 0.122889C1.63136 0.128993 1.62274 0.135294 1.61428 0.141792C1.60582 0.14829 1.59752 0.154979 1.58939 0.161861ZM7.09933 2.60136C7.38733 2.5604 7.68733 2.53885 7.99977 2.53885C10.2211 2.53885 11.8895 3.65038 13.034 4.82662C13.1096 4.90464 13.1839 4.98379 13.257 5.06409C13.33 5.14437 13.4017 5.22573 13.4722 5.30818C13.5426 5.39063 13.6117 5.47413 13.6794 5.55869C13.7471 5.64322 13.8135 5.72878 13.8785 5.81533C13.9435 5.90188 14.0071 5.98941 14.0693 6.07789C14.1314 6.16636 14.1921 6.25577 14.2515 6.34608C14.3107 6.43641 14.3686 6.5276 14.4249 6.61967C14.4813 6.71174 14.5362 6.80465 14.5895 6.89837C14.5097 7.03836 14.4265 7.17649 14.3401 7.31275C14.2537 7.44903 14.164 7.58328 14.0712 7.71554C13.9784 7.84779 13.8825 7.97791 13.7835 8.10586C13.6845 8.23383 13.5825 8.35952 13.4775 8.48292C13.471 8.49084 13.4646 8.49891 13.4584 8.50715C13.4522 8.51538 13.4462 8.52376 13.4405 8.53228C13.4348 8.5408 13.4293 8.54945 13.424 8.55826C13.4187 8.56705 13.4136 8.57596 13.4088 8.585C13.404 8.59405 13.3994 8.60319 13.395 8.61245C13.3907 8.62171 13.3865 8.63108 13.3827 8.64054C13.3788 8.65001 13.3752 8.65956 13.3718 8.6692C13.3684 8.67884 13.3653 8.68856 13.3624 8.69835C13.3596 8.70814 13.3569 8.718 13.3546 8.72791C13.3522 8.73784 13.3501 8.74781 13.3483 8.75783C13.3464 8.76785 13.3448 8.77792 13.3435 8.78801C13.3422 8.79812 13.3411 8.80825 13.3403 8.81839C13.3395 8.82855 13.339 8.83872 13.3387 8.84889C13.3385 8.85906 13.3385 8.86925 13.3387 8.87942C13.339 8.88959 13.3395 8.89976 13.3403 8.90992C13.3411 8.92007 13.3421 8.9302 13.3434 8.94029C13.3447 8.9504 13.3463 8.96047 13.3481 8.97049C13.35 8.98051 13.352 8.99048 13.3544 9.00041C13.3567 9.01034 13.3593 9.02019 13.3622 9.03C13.365 9.03979 13.3682 9.04951 13.3715 9.05915C13.3749 9.0688 13.3785 9.07835 13.3824 9.08783C13.3862 9.0973 13.3903 9.10667 13.3947 9.11593C13.399 9.12519 13.4036 9.13435 13.4084 9.1434C13.4132 9.15245 13.4183 9.16136 13.4235 9.17017C13.4288 9.17898 13.4343 9.18763 13.44 9.19616C13.4458 9.2047 13.4517 9.21308 13.4579 9.22133C13.464 9.22956 13.4704 9.23765 13.477 9.24558C13.4836 9.25351 13.4904 9.26128 13.4973 9.26888C13.5043 9.27647 13.5115 9.2839 13.5189 9.29115C13.5262 9.29839 13.5338 9.30546 13.5415 9.31234C13.5493 9.31922 13.5572 9.3259 13.5653 9.33241C13.5733 9.33891 13.5816 9.3452 13.59 9.35129C13.5985 9.3576 13.6072 9.36371 13.6161 9.36961C13.6249 9.37552 13.6339 9.38122 13.643 9.38672C13.6521 9.39222 13.6614 9.39751 13.6708 9.40259C13.6801 9.40767 13.6896 9.41252 13.6993 9.41717C13.7089 9.42181 13.7186 9.42624 13.7284 9.43043C13.7382 9.43463 13.7482 9.43861 13.7582 9.44235C13.7682 9.44609 13.7783 9.44961 13.7885 9.4529C13.7987 9.45619 13.809 9.45924 13.8193 9.46205C13.8296 9.46487 13.84 9.46745 13.8505 9.46978C13.861 9.47213 13.8715 9.47423 13.882 9.47609C13.8926 9.47796 13.9032 9.47958 13.9139 9.48096C13.9245 9.48234 13.9352 9.48346 13.9459 9.48435C13.9566 9.48525 13.9673 9.48588 13.978 9.48629C13.9887 9.48669 13.9995 9.48684 14.0102 9.48675C14.021 9.48666 14.0317 9.48632 14.0424 9.48575C14.0531 9.48517 14.0638 9.48435 14.0745 9.48328C14.0852 9.4822 14.0958 9.4809 14.1065 9.47933C14.1171 9.47777 14.1277 9.47599 14.1382 9.47395C14.1487 9.47191 14.1592 9.46963 14.1696 9.46712C14.18 9.4646 14.1904 9.46184 14.2007 9.45886C14.211 9.45587 14.2212 9.45266 14.2313 9.4492C14.2414 9.44574 14.2515 9.44206 14.2614 9.43815C14.2714 9.43422 14.2812 9.43009 14.291 9.42574C14.3007 9.42137 14.3104 9.41679 14.3199 9.41199C14.3294 9.40718 14.3388 9.40215 14.3481 9.39692Q14.362 9.38908 14.3756 9.3806C14.3846 9.37494 14.3935 9.36909 14.4022 9.36304C14.411 9.35698 14.4195 9.35072 14.428 9.34428C14.4364 9.33783 14.4447 9.33119 14.4528 9.32437C14.4609 9.31754 14.4689 9.31053 14.4766 9.30335C14.4844 9.29615 14.492 9.2888 14.4994 9.28126C14.5068 9.27373 14.514 9.26603 14.5211 9.25816C14.7167 9.02853 14.9029 8.79197 15.0799 8.54851C15.2568 8.30506 15.4239 8.05539 15.5811 7.79951C15.707 7.59344 15.8248 7.38303 15.9344 7.16828L15.9397 7.15708L15.9411 7.15362L15.9423 7.15191L15.942 7.15175C15.9468 7.1419 15.9513 7.13194 15.9553 7.12186C15.9594 7.11174 15.9633 7.10151 15.9669 7.09117C15.9705 7.08085 15.9738 7.07042 15.9767 7.05991C15.9798 7.04941 15.9825 7.03883 15.9848 7.02817C15.9873 7.01752 15.9895 7.00681 15.9913 6.99607C15.9931 6.9853 15.9945 6.9745 15.9958 6.96366C15.997 6.95282 15.998 6.94195 15.9986 6.93107C15.9992 6.92017 15.9994 6.90927 15.9994 6.89837C15.9994 6.88747 15.9992 6.87657 15.9986 6.86569C15.998 6.85479 15.997 6.84394 15.9958 6.8331C15.9945 6.82226 15.9931 6.81145 15.9913 6.80069C15.9895 6.78993 15.9873 6.77923 15.9848 6.76857C15.9825 6.75793 15.9798 6.74735 15.9767 6.73685C15.9738 6.72634 15.9705 6.71591 15.9669 6.70559C15.9633 6.69525 15.9594 6.68502 15.9553 6.67489C15.9513 6.66475 15.9467 6.65475 15.9419 6.64485L15.3331 6.89837L15.6272 7.02087L15.3327 6.89837L15.9414 6.64485L15.9411 6.64441L15.9411 6.64312L15.9383 6.63795L15.9317 6.62372C15.8939 6.5487 15.8548 6.47453 15.8148 6.4008C15.7539 6.29144 15.6911 6.18307 15.6266 6.07567C15.562 5.96828 15.4956 5.86193 15.4275 5.75661C15.3594 5.6513 15.2895 5.54707 15.218 5.44395C15.1464 5.34083 15.0731 5.23886 14.9981 5.13803C14.9231 5.03721 14.8464 4.93759 14.7681 4.83917C14.6898 4.74075 14.6099 4.64358 14.5283 4.54768C14.4468 4.45177 14.3636 4.35715 14.2789 4.26385C14.1942 4.17055 14.108 4.07859 14.0202 3.98799C12.7398 2.67294 10.7402 1.2932 7.99977 1.2932C7.62066 1.2932 7.25398 1.3195 6.90066 1.36951C6.5362 1.42039 6.28555 1.73773 6.34066 2.07791C6.39533 2.41811 6.73488 2.65223 7.09933 2.60136ZM15.6272 7.02087L15.9419 7.15191L15.942 7.15175L15.6272 7.02087ZM8.00374 3.39613C7.63752 3.39613 7.34063 3.67639 7.34063 4.02176C7.34063 4.36712 7.63752 4.64738 8.00374 4.64738C9.22552 4.64738 10.2588 5.62441 10.2588 6.88127C10.2589 6.88815 10.259 6.89503 10.2593 6.90191C10.2596 6.90878 10.26 6.91566 10.2605 6.92253C10.261 6.9294 10.2616 6.93625 10.2623 6.9431C10.2631 6.94994 10.2639 6.95677 10.2649 6.96359C10.2659 6.97042 10.267 6.97722 10.2682 6.984C10.2694 6.99079 10.2707 6.99755 10.2721 7.00429C10.2736 7.01104 10.2751 7.01775 10.2768 7.02444C10.2785 7.03112 10.2802 7.03779 10.2821 7.04443C10.284 7.05106 10.286 7.05767 10.2882 7.06423C10.2903 7.07079 10.2925 7.07733 10.2949 7.08383C10.2972 7.09033 10.2997 7.09679 10.3022 7.10322C10.3048 7.10963 10.3075 7.11601 10.3102 7.12233C10.313 7.12867 10.3159 7.13496 10.3189 7.1412C10.3219 7.14743 10.325 7.15363 10.3282 7.15977C10.3314 7.16591 10.3347 7.17199 10.3382 7.17802C10.3416 7.18405 10.3451 7.19003 10.3487 7.19595C10.3523 7.20188 10.356 7.20773 10.3599 7.21354C10.3637 7.21934 10.3676 7.22507 10.3716 7.23074C10.3757 7.23643 10.3798 7.24204 10.384 7.24757C10.3882 7.25312 10.3925 7.25859 10.3969 7.26398C10.4013 7.2694 10.4058 7.27472 10.4104 7.27998C10.4149 7.28524 10.4196 7.29042 10.4244 7.29553Q10.4315 7.30319 10.4389 7.31063C10.4438 7.31558 10.4488 7.32045 10.4539 7.32524C10.459 7.33003 10.4642 7.33474 10.4695 7.33937C10.4747 7.34399 10.48 7.34854 10.4855 7.35298C10.4909 7.35744 10.4963 7.3618 10.5019 7.36608C10.5075 7.37037 10.5131 7.37455 10.5188 7.37864C10.5245 7.38273 10.5303 7.38674 10.5361 7.39065C10.542 7.39456 10.5479 7.39838 10.5538 7.40209C10.5598 7.40581 10.5658 7.40943 10.5719 7.41296C10.578 7.41649 10.5842 7.41992 10.5904 7.42324C10.5967 7.42666 10.6031 7.42998 10.6095 7.4332C10.6159 7.43643 10.6223 7.43955 10.6289 7.44256C10.6354 7.44558 10.6419 7.44851 10.6486 7.45133C10.6552 7.45414 10.6618 7.45686 10.6685 7.45948C10.6752 7.46209 10.682 7.46459 10.6888 7.467C10.6955 7.46941 10.7023 7.4717 10.7092 7.4739C10.7161 7.47609 10.723 7.47819 10.7299 7.48017C10.7368 7.48216 10.7438 7.48402 10.7508 7.48578C10.7577 7.48755 10.7648 7.48921 10.7718 7.49075C10.7788 7.49231 10.7859 7.49375 10.793 7.49507C10.8001 7.49641 10.8072 7.49763 10.8143 7.49874C10.8215 7.49985 10.8286 7.50085 10.8358 7.50174C10.8429 7.50264 10.8501 7.50341 10.8573 7.50408C10.8645 7.50476 10.8717 7.50532 10.8789 7.50576C10.8861 7.5062 10.8933 7.50653 10.9005 7.50676C10.9077 7.50699 10.915 7.50709 10.9222 7.50709C10.9294 7.50709 10.9366 7.50699 10.9438 7.50676C10.9511 7.50653 10.9583 7.5062 10.9655 7.50576C10.9727 7.50532 10.9799 7.50476 10.9871 7.50408C10.9943 7.50341 11.0014 7.50264 11.0086 7.50174C11.0158 7.50085 11.0229 7.49985 11.03 7.49874C11.0372 7.49763 11.0443 7.49641 11.0514 7.49507C11.0585 7.49375 11.0655 7.49231 11.0726 7.49075C11.0796 7.48921 11.0866 7.48755 11.0936 7.48578C11.1006 7.48402 11.1075 7.48216 11.1145 7.48017C11.1214 7.47819 11.1283 7.47609 11.1352 7.4739C11.142 7.4717 11.1488 7.46941 11.1556 7.467C11.1624 7.46459 11.1691 7.46209 11.1758 7.45948C11.1825 7.45686 11.1892 7.45414 11.1958 7.45133C11.2024 7.44851 11.209 7.44558 11.2155 7.44256C11.222 7.43955 11.2285 7.43643 11.2349 7.4332C11.2413 7.42998 11.2476 7.42666 11.254 7.42324C11.4588 7.31114 11.5855 7.10461 11.5855 6.88127C11.5855 4.97851 10.0055 3.39613 8.00374 3.39613ZM3.13844 4.37777C3.12998 4.21306 3.0522 4.05784 2.92109 3.94661L2.92066 3.94661C2.78998 3.83536 2.61709 3.77715 2.44066 3.78534C2.42983 3.78578 2.41902 3.78646 2.40823 3.78738C2.39744 3.78831 2.38667 3.78949 2.37595 3.79092C2.3652 3.79236 2.35452 3.79404 2.34388 3.79596C2.33322 3.79789 2.32263 3.80007 2.31209 3.8025C2.30155 3.80491 2.29106 3.80757 2.28066 3.81049C2.27025 3.8134 2.25992 3.81655 2.24967 3.81994C2.23941 3.82332 2.22923 3.82696 2.21917 3.83083C2.20909 3.83469 2.19913 3.83879 2.18925 3.84311C2.17938 3.84743 2.16961 3.85199 2.15997 3.85678C2.15031 3.86155 2.1408 3.86656 2.13141 3.87179C2.122 3.87702 2.11273 3.88246 2.10361 3.88811Q2.08992 3.89659 2.07666 3.90571C2.06781 3.91179 2.05912 3.91806 2.05059 3.92454C2.04206 3.93102 2.0337 3.93769 2.0255 3.94456C2.0173 3.95143 2.00928 3.95849 2.00144 3.96574C1.99358 3.97297 1.98591 3.98039 1.97844 3.98799C1.84378 4.12704 1.71273 4.26922 1.58533 4.41454C1.45792 4.55986 1.33429 4.70816 1.21444 4.85942C1.0946 5.01068 0.978672 5.16472 0.866675 5.32154C0.754678 5.47835 0.646745 5.63777 0.542873 5.79976C0.381095 6.052 0.229984 6.3107 0.0922072 6.57543L0.0668739 6.62372L0.0602072 6.63795L0.057985 6.64312L0.0575406 6.64443L0.0566517 6.64485L0.0573937 6.64516C0.0527275 6.65496 0.0483352 6.66486 0.0442169 6.67489C0.0400553 6.68502 0.0361795 6.69525 0.0325895 6.70559C0.0289995 6.71591 0.0257006 6.72634 0.0226928 6.73685C0.0196848 6.74735 0.0169723 6.75793 0.0145554 6.76857C0.0121384 6.77923 0.0100204 6.78993 0.00820145 6.80069C0.00638247 6.81145 0.00486517 6.82226 0.00364955 6.8331C0.00243392 6.84394 0.00152176 6.85479 0.000913058 6.86569C0.000304353 6.87657 0 6.88747 0 6.89837C0 6.90927 0.000304352 6.92017 0.000913056 6.93107C0.00152176 6.94195 0.00243392 6.95282 0.00364955 6.96366C0.00486517 6.9745 0.00638247 6.9853 0.00820145 6.99607C0.0100204 7.00681 0.0121384 7.01752 0.0145554 7.02817C0.0169723 7.03883 0.0196848 7.04941 0.0226928 7.05991C0.0257006 7.07042 0.0289995 7.08085 0.0325895 7.09117C0.0361795 7.10151 0.0400553 7.11174 0.0442169 7.12186C0.0483784 7.13199 0.0528197 7.14201 0.0575406 7.15191L0.66643 6.89837L0.463679 6.81395L0.666873 6.89837L0.0579852 7.15191L0.0579852 7.15277L0.0584295 7.15362L0.0610963 7.1588L0.0677628 7.17302C0.105541 7.24806 0.144652 7.32265 0.184652 7.39594C0.245614 7.50531 0.308381 7.61369 0.372956 7.72109C0.437531 7.82848 0.503878 7.93485 0.571998 8.04015C0.640119 8.14547 0.709975 8.24968 0.78157 8.3528C0.853164 8.45593 0.926458 8.55791 1.00145 8.65873C1.07644 8.75955 1.1531 8.85917 1.23141 8.95759C1.30973 9.05601 1.38966 9.15318 1.47121 9.24908C1.55277 9.34499 1.63589 9.4396 1.72061 9.53291C1.8053 9.6262 1.89155 9.71815 1.97933 9.80875C3.25977 11.1238 5.25933 12.5036 7.99977 12.5036C8.10886 12.5038 8.21792 12.5016 8.32694 12.4972C8.43594 12.4928 8.54478 12.4862 8.6535 12.4772C8.7622 12.4682 8.87066 12.4569 8.97888 12.4434C9.08708 12.4299 9.19494 12.414 9.30244 12.396C9.40994 12.3779 9.51697 12.3576 9.62356 12.335C9.73016 12.3124 9.83619 12.2876 9.94167 12.2606C10.0472 12.2335 10.152 12.2043 10.2562 12.1728C10.3603 12.1414 10.4637 12.1078 10.5664 12.072C10.9033 11.9465 11.0709 11.5929 10.9442 11.2756C10.8171 10.9582 10.442 10.7935 10.0998 10.9057C10.0157 10.9349 9.93113 10.9624 9.84591 10.9881C9.76066 11.0138 9.67489 11.0377 9.58859 11.0598C9.50228 11.0819 9.41553 11.1022 9.32831 11.1206C9.24109 11.1391 9.15352 11.1557 9.06556 11.1704C8.97761 11.1852 8.88936 11.1981 8.80083 11.2091C8.7123 11.2202 8.62356 11.2293 8.53463 11.2366C8.44569 11.2439 8.35663 11.2493 8.26744 11.2529C8.17825 11.2565 8.08902 11.2581 7.99977 11.2579C5.77844 11.2579 4.11088 10.1459 2.96509 8.97056C2.8895 8.89251 2.81519 8.81333 2.74214 8.73304C2.66909 8.65274 2.59736 8.57134 2.52694 8.48886C2.4565 8.40639 2.38742 8.32288 2.31969 8.23831C2.25194 8.15375 2.18558 8.06818 2.12059 7.98161C2.05559 7.89504 1.99202 7.8075 1.92986 7.71901C1.86767 7.6305 1.80694 7.54108 1.74764 7.45075Q1.6587 7.31526 1.57416 7.17713C1.51779 7.08505 1.46292 6.99213 1.40954 6.89837C1.46291 6.80462 1.51778 6.71171 1.57414 6.61963C1.6305 6.52754 1.68833 6.43632 1.74762 6.34599Q1.83657 6.21047 1.92983 6.07773C1.992 5.98923 2.05558 5.9017 2.12058 5.81513C2.18556 5.72856 2.25192 5.643 2.31967 5.55843C2.38741 5.47386 2.45648 5.39034 2.52692 5.30786C2.59734 5.22539 2.66908 5.144 2.74214 5.06371C2.81517 4.98342 2.8895 4.90423 2.96509 4.82618C3.0842 4.70417 3.14644 4.5429 3.13844 4.37777ZM0.463679 6.81395L0.0575406 6.64485L0.0573937 6.64516L0.463679 6.81395ZM5.80374 6.38714C5.88063 6.04911 5.65307 5.71668 5.29485 5.64381L5.29485 5.64339C5.12285 5.60846 4.9433 5.63907 4.79574 5.72961C4.64774 5.81972 4.54374 5.96159 4.50685 6.12371C4.4513 6.36731 4.42196 6.6217 4.42196 6.88041C4.42196 8.78314 6.00196 10.3655 8.00374 10.3655C8.07261 10.3657 8.14143 10.3639 8.21019 10.3601C8.27896 10.3564 8.34755 10.3508 8.41599 10.3432C8.48441 10.3357 8.55257 10.3262 8.62044 10.3148C8.6883 10.3034 8.75577 10.2901 8.82285 10.275C9.17885 10.1939 9.39796 9.85589 9.3113 9.52002C9.22552 9.18412 8.86685 8.97759 8.5113 9.05908C8.34863 9.09574 8.17885 9.11514 8.00374 9.11514C6.78196 9.11514 5.74863 8.13811 5.74863 6.88127C5.74853 6.79819 5.7531 6.71535 5.76232 6.63275C5.77153 6.55015 5.78533 6.46828 5.80374 6.38714Z" fill-rule="evenodd"  fill="#949494" >
</path>
</svg>
