<svg xmlns="http://www.w3.org/2000/svg" xmlns:xlink="http://www.w3.org/1999/xlink" width="13.8182373046875" height="15.521728515625" viewBox="0 0 13.8182373046875 15.521728515625" fill="none">
<path d="M6.72716 0C4.32715 0 2.3635 1.90498 2.3635 4.23329L2.3635 5.64401L1.45454 5.64401C0.654544 5.64401 0 6.279 0 7.05511L0 14.1106C0 14.8867 0.654544 15.5217 1.45454 15.5217L12.3636 15.5217C13.1636 15.5217 13.8182 14.8867 13.8182 14.1106L13.8182 7.05511C13.8182 6.279 13.1636 5.64401 12.3636 5.64401L11.0908 5.64401L11.0908 4.23329C11.0908 1.90498 9.12717 0 6.72716 0ZM3.81805 5.64401L9.63625 5.64401L9.63625 4.23329C9.63625 2.68109 8.32717 1.4111 6.72716 1.4111C5.12715 1.4111 3.81805 2.68109 3.81805 4.23329L3.81805 5.64401ZM1.45454 7.05511L2.3635 7.05511L2.3635 7.05549L11.0908 7.05549L11.0908 7.05511L12.3636 7.05511L12.3636 14.1106L1.45454 14.1106L1.45454 7.05511ZM5.4546 9.52491C5.4546 9.548 5.45519 9.57108 5.45635 9.59414Q5.4581 9.62875 5.4616 9.66322C5.46394 9.6862 5.46685 9.70912 5.47035 9.73196C5.47384 9.7548 5.47791 9.77754 5.48256 9.8002C5.4872 9.82285 5.49242 9.84537 5.4982 9.86778C5.50398 9.89018 5.51033 9.91243 5.51724 9.93452C5.52415 9.95662 5.53161 9.97854 5.53964 10.0003C5.54766 10.022 5.55622 10.0436 5.56532 10.0649C5.57444 10.0862 5.58408 10.1074 5.59426 10.1282C5.60444 10.1491 5.61514 10.1697 5.62635 10.1901C5.63757 10.2105 5.6493 10.2305 5.66154 10.2504C5.67378 10.2702 5.68652 10.2897 5.69975 10.3089C5.71296 10.3281 5.72667 10.3469 5.74086 10.3655C5.75503 10.384 5.76967 10.4022 5.78478 10.4201C5.79988 10.4379 5.81542 10.4554 5.8314 10.4725C5.84739 10.4897 5.86381 10.5064 5.88064 10.5227C5.89747 10.539 5.91471 10.555 5.93234 10.5705C5.94998 10.586 5.968 10.601 5.9864 10.6157C6.0048 10.6304 6.02356 10.6446 6.04269 10.6583C6.0618 10.6721 6.08125 10.6854 6.10105 10.6982C6.12085 10.711 6.14096 10.7234 6.16138 10.7352C6.16809 10.7391 6.17483 10.743 6.1816 10.7468L6.1816 12.3471C6.1816 12.7351 6.50887 13.0526 6.90887 13.0526C7.30887 13.0526 7.63613 12.7351 7.63613 12.3471L7.63613 10.7471Q7.64659 10.7413 7.65695 10.7352C7.67737 10.7234 7.69748 10.711 7.71728 10.6982C7.73708 10.6854 7.75653 10.6721 7.77564 10.6583C7.79477 10.6446 7.81353 10.6304 7.83192 10.6157C7.85033 10.601 7.86834 10.586 7.88598 10.5705C7.90363 10.555 7.92086 10.539 7.93769 10.5227C7.95452 10.5064 7.97094 10.4897 7.98692 10.4725C8.00291 10.4554 8.01844 10.4379 8.03355 10.4201C8.04866 10.4022 8.0633 10.384 8.07747 10.3655C8.09166 10.3469 8.10536 10.3281 8.11858 10.3089C8.13181 10.2897 8.14455 10.2702 8.15678 10.2504C8.16902 10.2305 8.18075 10.2105 8.19197 10.1901C8.20319 10.1697 8.21389 10.1491 8.22407 10.1282C8.23424 10.1074 8.24389 10.0862 8.253 10.0649C8.26211 10.0436 8.27068 10.022 8.27869 10.0003C8.28671 9.97854 8.29418 9.95662 8.3011 9.93454C8.308 9.91243 8.31435 9.89018 8.32013 9.86778C8.32591 9.84537 8.33113 9.82285 8.33577 9.8002C8.34041 9.77754 8.34449 9.7548 8.34797 9.73196C8.35147 9.70912 8.35439 9.6862 8.35672 9.66322C8.35905 9.64024 8.3608 9.61721 8.36197 9.59414C8.36314 9.57108 8.36372 9.548 8.36372 9.52491C8.36372 9.50181 8.36314 9.47873 8.36197 9.45567C8.3608 9.4326 8.35905 9.40957 8.35672 9.38659C8.35439 9.36361 8.35147 9.3407 8.34797 9.31785C8.34449 9.29501 8.34041 9.27227 8.33577 9.24962C8.33113 9.22696 8.32591 9.20443 8.32013 9.18203C8.31435 9.15964 8.308 9.13739 8.30108 9.11529C8.29418 9.09319 8.28671 9.07126 8.27869 9.04952C8.27068 9.02778 8.26211 9.00624 8.253 8.9849C8.24389 8.96356 8.23424 8.94246 8.22407 8.92158C8.21389 8.9007 8.20319 8.88008 8.19197 8.85972C8.18075 8.83935 8.16902 8.81925 8.15678 8.79945C8.14455 8.77964 8.13181 8.76014 8.11858 8.74094C8.10536 8.72174 8.09166 8.70286 8.07747 8.68431C8.0633 8.66576 8.04866 8.64756 8.03355 8.62971C8.01844 8.61186 8.00291 8.59438 7.98692 8.57727C7.97094 8.56016 7.95452 8.54343 7.93769 8.5271C7.92086 8.51077 7.90363 8.49485 7.88598 8.47935C7.86834 8.46384 7.85033 8.44876 7.83192 8.4341C7.81353 8.41946 7.79477 8.40526 7.77564 8.39149C7.75653 8.37774 7.73708 8.36445 7.71728 8.35161C7.69748 8.33879 7.67737 8.32644 7.65695 8.31456C7.63653 8.30269 7.61583 8.29131 7.59484 8.28043C7.57384 8.26954 7.55258 8.25916 7.53106 8.24928C7.50954 8.2394 7.48779 8.23005 7.46579 8.22122C7.44381 8.21238 7.42161 8.20407 7.39918 8.19628Q7.36557 8.18463 7.3314 8.17456C7.30862 8.16786 7.28568 8.16171 7.26259 8.1561C7.23951 8.15048 7.21629 8.14542 7.19293 8.14093C7.16959 8.13642 7.14613 8.13247 7.12259 8.12907C7.09904 8.12569 7.07543 8.12286 7.05174 8.1206C7.02804 8.11833 7.00431 8.11664 6.98054 8.11551C6.95676 8.11437 6.93297 8.11381 6.90916 8.11381C6.88536 8.11381 6.86157 8.11437 6.83779 8.11551C6.81402 8.11664 6.79029 8.11833 6.7666 8.1206C6.7429 8.12286 6.71928 8.12569 6.69574 8.12907C6.67219 8.13247 6.64874 8.13641 6.62539 8.14091C6.60205 8.14542 6.57883 8.15048 6.55574 8.1561C6.53264 8.16171 6.50971 8.16786 6.48693 8.17456Q6.45275 8.18463 6.41914 8.19628C6.39673 8.20407 6.37452 8.21238 6.35253 8.22122C6.33053 8.23005 6.30878 8.2394 6.28727 8.24928C6.26575 8.25916 6.24449 8.26954 6.22348 8.28043C6.2025 8.29131 6.18179 8.30269 6.16138 8.31456C6.14096 8.32644 6.12085 8.33879 6.10105 8.35161C6.08125 8.36445 6.0618 8.37774 6.04269 8.39149C6.02356 8.40526 6.0048 8.41946 5.9864 8.4341C5.968 8.44876 5.94998 8.46384 5.93234 8.47935C5.91471 8.49485 5.89747 8.51077 5.88064 8.5271C5.86381 8.54343 5.84739 8.56016 5.8314 8.57727C5.81542 8.59438 5.79988 8.61186 5.78478 8.62971C5.76967 8.64756 5.75503 8.66576 5.74086 8.68431C5.72667 8.70286 5.71296 8.72174 5.69975 8.74094C5.68652 8.76014 5.67378 8.77964 5.66154 8.79945C5.6493 8.81925 5.63757 8.83935 5.62635 8.85972C5.61514 8.88008 5.60444 8.9007 5.59426 8.92158C5.58408 8.94246 5.57444 8.96356 5.56532 8.9849C5.55622 9.00624 5.54766 9.02778 5.53964 9.04952C5.53161 9.07126 5.52415 9.09319 5.51724 9.11529C5.51033 9.13739 5.50398 9.15964 5.4982 9.18203C5.49242 9.20443 5.4872 9.22696 5.48256 9.24962C5.47791 9.27227 5.47384 9.29501 5.47035 9.31785C5.46685 9.3407 5.46394 9.36361 5.4616 9.38659Q5.4581 9.42106 5.45635 9.45567C5.45519 9.47873 5.4546 9.50181 5.4546 9.52491Z" fill-rule="evenodd"  fill="#949494" >
</path>
</svg>
