<svg xmlns="http://www.w3.org/2000/svg" xmlns:xlink="http://www.w3.org/1999/xlink" width="110.756103515625" height="28.602691650390625" viewBox="0 0 110.756103515625 28.602691650390625" fill="none">
<g opacity="0.9">
<path d="M11.7925 14.7282C10.5054 13.9676 9.62779 12.5635 9.62779 10.9836C9.62779 8.58475 11.6172 6.59538 14.016 6.59538C16.4148 6.59538 18.4042 8.58475 18.4042 10.9836C18.4042 12.5635 17.5265 13.9672 16.2394 14.7282C18.9894 15.6646 20.9788 18.2976 20.9788 21.3982C20.9788 21.7493 20.7447 21.9835 20.3935 21.9835C20.0424 21.9835 19.8088 21.7493 19.8088 21.3982C19.8088 18.1805 17.1754 15.5476 13.9577 15.5476C10.7395 15.5476 8.1066 18.1805 8.1066 21.3982C8.1066 21.7493 7.87251 21.9835 7.52136 21.9835C7.17021 21.9835 6.9361 21.7493 6.9361 21.3982C7.05315 18.2976 9.04299 15.6642 11.7925 14.7282ZM25.7764 21.5153C25.6011 21.8081 25.25 21.9252 24.9575 21.7493C24.6647 21.574 24.5481 21.2229 24.7234 20.9305C28.1168 14.8453 25.894 7.18018 19.8088 3.84543C13.7236 0.451925 6.05847 2.67494 2.72372 8.76011C-0.670244 14.8453 1.55323 22.5099 7.63839 25.8452C12.0266 28.3027 17.3512 27.8345 21.33 24.9087C21.564 24.7334 21.9735 24.7922 22.1488 25.0258C22.3246 25.2599 22.2659 25.6698 22.0318 25.8452C17.7023 29.063 11.8508 29.5311 7.11192 26.8981C0.441492 23.2122 -1.95733 14.8453 1.72903 8.23407C5.41494 1.5632 13.7819 -0.836073 20.3935 2.85075C27.064 6.47833 29.4626 14.8448 25.7764 21.5153ZM14.0747 14.2018C15.83 14.2018 17.2924 12.7389 17.2924 10.9836C17.2924 9.22831 15.83 7.76589 14.0747 7.76589C12.3195 7.76589 10.8566 9.22831 10.8566 10.9836C10.8564 11.0363 10.8576 11.089 10.86 11.1416C10.8625 11.1943 10.8662 11.2468 10.8712 11.2993C10.8762 11.3517 10.8826 11.404 10.8902 11.4562C10.8978 11.5083 10.9067 11.5603 10.9169 11.612C10.9271 11.6637 10.9385 11.7151 10.9512 11.7663C10.9639 11.8174 10.9779 11.8682 10.9931 11.9187C11.0083 11.9691 11.0247 12.0192 11.0424 12.0688C11.0601 12.1185 11.0789 12.1677 11.099 12.2164C11.1191 12.2651 11.1404 12.3133 11.1629 12.3609C11.1854 12.4086 11.209 12.4557 11.2338 12.5022C11.2586 12.5487 11.2845 12.5946 11.3116 12.6398C11.3386 12.6851 11.3668 12.7296 11.396 12.7734C11.4253 12.8173 11.4556 12.8604 11.4869 12.9027C11.5183 12.9451 11.5507 12.9866 11.5841 13.0273C11.6175 13.0681 11.6519 13.108 11.6873 13.1471C11.7227 13.1861 11.7591 13.2243 11.7963 13.2615C11.8336 13.2988 11.8718 13.3352 11.9108 13.3705C11.9498 13.4059 11.9898 13.4403 12.0305 13.4737C12.0713 13.5071 12.1128 13.5395 12.1551 13.5709C12.1975 13.6023 12.2406 13.6326 12.2844 13.6619C12.3283 13.6911 12.3728 13.7193 12.418 13.7463C12.4633 13.7734 12.5091 13.7993 12.5556 13.8241C12.6022 13.8489 12.6492 13.8725 12.6969 13.895C12.7446 13.9174 12.7928 13.9387 12.8415 13.9588C12.8902 13.9789 12.9394 13.9978 12.989 14.0155C13.0387 14.0332 13.0887 14.0496 13.1392 14.0648C13.1897 14.08 13.2405 14.094 13.2916 14.1067C13.3428 14.1194 13.3942 14.1308 13.4459 14.141C13.4976 14.1512 13.5495 14.1601 13.6017 14.1677C13.6539 14.1753 13.7062 14.1816 13.7586 14.1866C13.8111 14.1917 13.8636 14.1954 13.9162 14.1978C13.9689 14.2003 14.0216 14.2015 14.0743 14.2013L14.0747 14.2018Z"   fill="#FFFFFF" >
</path>
<g >
<path     fill="#FFFFFF"  d="M40.5023 9.162L40.5023 10.512L55.0643 10.512L55.0643 9.162L40.5023 9.162ZM43.0043 11.79C43.6703 14.184 44.4443 17.37 44.7143 19.422L46.1363 19.062C45.8303 16.992 45.0743 13.914 44.3363 11.484L43.0043 11.79ZM46.4603 6.012C46.8023 6.93 47.1803 8.154 47.3423 8.946L48.7283 8.532C48.5483 7.758 48.1343 6.57 47.7743 5.652L46.4603 6.012ZM51.1943 11.484C50.6003 14.112 49.4843 17.856 48.4943 20.196L39.7283 20.196L39.7283 21.546L55.8023 21.546L55.8023 20.196L49.9523 20.196C50.9063 17.892 51.9863 14.472 52.7243 11.754L51.1943 11.484ZM64.2803 11.502L64.2803 13.986L60.0503 13.986L60.0503 11.502L64.2803 11.502ZM64.2803 10.26L60.0503 10.26L60.0503 7.92L64.2803 7.92L64.2803 10.26ZM62.4263 16.686C62.7683 17.262 63.1283 17.892 63.4883 18.54L60.0503 19.656L60.0503 15.21L65.6303 15.21L65.6303 6.714L58.7003 6.714L58.7003 19.242C58.7003 19.926 58.2323 20.25 57.9263 20.412C58.1423 20.736 58.4123 21.384 58.5023 21.78C58.8803 21.474 59.4743 21.24 64.0463 19.62C64.3883 20.286 64.6763 20.934 64.8743 21.42L66.0983 20.754C65.6123 19.566 64.4963 17.604 63.5603 16.128L62.4263 16.686ZM67.2683 6.822L67.2683 22.32L68.6003 22.32L68.6003 8.082L71.8763 8.082L71.8763 17.19C71.8763 17.442 71.8043 17.514 71.5343 17.514C71.3003 17.532 70.4543 17.532 69.5363 17.496C69.7163 17.874 69.8963 18.432 69.9323 18.792C71.2463 18.81 72.0563 18.792 72.5603 18.558C73.0643 18.342 73.2083 17.946 73.2083 17.208L73.2083 6.822L67.2683 6.822ZM79.8503 14.544L87.3562 14.544L87.3562 16.812L79.8503 16.812L79.8503 14.544ZM78.5003 13.41L78.5003 17.928L88.7962 17.928L88.7962 13.41L78.5003 13.41ZM90.5962 8.028C89.9662 8.694 88.9402 9.558 88.0583 10.224C87.6263 9.792 87.2122 9.342 86.8343 8.856C87.7162 8.244 88.7603 7.416 89.6062 6.642L88.5622 5.904C87.9863 6.552 87.0502 7.398 86.2223 8.028C85.7183 7.326 85.3043 6.57 84.9623 5.796L83.7923 6.192C84.5303 7.866 85.5563 9.45 86.7982 10.782L80.8223 10.782C81.8483 9.648 82.7303 8.316 83.2883 6.84L82.4063 6.39L82.1543 6.444L76.5743 6.444L76.5743 7.578L81.5243 7.578C81.0563 8.478 80.4263 9.324 79.7063 10.098C79.1303 9.486 78.1583 8.784 77.3303 8.316L76.5923 9.054C77.4023 9.558 78.3203 10.296 78.8963 10.89C77.7623 11.916 76.4663 12.762 75.2243 13.284C75.4943 13.536 75.8723 14.004 76.0523 14.31C77.6003 13.572 79.2023 12.474 80.5523 11.07L80.5523 11.934L87.0323 11.934L87.0323 11.034C88.2923 12.348 89.7682 13.428 91.3342 14.148C91.5502 13.788 91.9462 13.266 92.2702 13.014C91.0462 12.528 89.8942 11.808 88.8503 10.944C89.7502 10.314 90.7762 9.504 91.6042 8.748L90.5962 8.028ZM86.4743 18.036C86.1863 18.828 85.6463 19.944 85.1783 20.718L80.9843 20.718L82.1003 20.322C81.9203 19.71 81.4703 18.756 81.0023 18.072L79.7783 18.468C80.2103 19.152 80.6423 20.106 80.8043 20.718L75.8363 20.718L75.8363 21.888L91.6942 21.888L91.6942 20.718L86.5643 20.718C86.9603 20.034 87.3923 19.188 87.7883 18.396L86.4743 18.036ZM95.1682 15.174C96.3382 15.822 97.7602 16.848 98.4442 17.532L99.3982 16.596C98.6782 15.912 97.2202 14.958 96.0862 14.346L95.1682 15.174ZM95.1682 6.768L95.1682 8.01L106.076 8.01L106.004 9.666L95.7082 9.666L95.7082 10.908L105.932 10.908L105.824 12.564L93.9622 12.564L93.9622 13.77L101.054 13.77L101.054 17.064C98.4442 18.144 95.7262 19.242 93.9802 19.908L94.7002 21.114C96.4642 20.358 98.8222 19.35 101.054 18.36L101.054 20.844C101.054 21.096 100.964 21.168 100.676 21.186C100.388 21.204 99.3802 21.204 98.3182 21.168C98.4982 21.51 98.7142 22.014 98.7862 22.356C100.19 22.356 101.108 22.356 101.666 22.158C102.242 21.96 102.422 21.636 102.422 20.862L102.422 16.632C103.97 18.972 106.22 20.718 109.028 21.6C109.208 21.24 109.622 20.718 109.91 20.43C107.966 19.908 106.274 18.954 104.906 17.694C106.058 16.992 107.408 15.984 108.488 15.066L107.336 14.22C106.526 15.03 105.194 16.092 104.078 16.848C103.412 16.092 102.854 15.228 102.422 14.31L102.422 13.77L109.676 13.77L109.676 12.564L107.228 12.564C107.39 10.71 107.516 8.496 107.552 6.768L106.49 6.696L106.256 6.768L95.1682 6.768Z">
</path>
</g>
</g>
</svg>
