<svg xmlns="http://www.w3.org/2000/svg" xmlns:xlink="http://www.w3.org/1999/xlink" width="28" height="32" viewBox="0 0 28 32" fill="none">
<path d="M23.8656 3.5L4.13437 3.5C2.81914 3.5 1.75 4.7375 1.75 6.25938L1.75 20.3125C1.75 21.8344 2.81914 23.0719 4.13437 23.0719L12.2992 23.0719L7.92969 28.5L20.0703 28.5L15.7008 23.0719L23.8656 23.0719C25.1809 23.0719 26.25 21.8344 26.25 20.3125L26.25 6.25938C26.25 4.7375 25.1809 3.5 23.8656 3.5ZM4.13437 5.50625L23.8656 5.50625C24.2238 5.50625 24.5164 5.84375 24.5164 6.25938L24.5164 15.7938L3.48359 15.7938L3.48359 6.25938C3.48359 5.84375 3.77617 5.50625 4.13437 5.50625ZM23.8656 21.0656L4.13437 21.0656C3.77617 21.0656 3.48359 20.7281 3.48359 20.3125L3.48359 17.8031L24.5137 17.8031L24.5137 20.3125C24.5164 20.7281 24.2238 21.0656 23.8656 21.0656Z"   fill="#C4C4C4" >
</path>
</svg>
