<svg xmlns="http://www.w3.org/2000/svg" xmlns:xlink="http://www.w3.org/1999/xlink" width="15" height="15.00006103515625" viewBox="0 0 15 15.00006103515625" fill="none">
<path d="M9.08813 8.11361L9.70219 7.49952L9.08813 6.88543L6.70598 4.50315L6.09192 5.11723L8.46377 7.49952L6.08114 9.88181L6.6952 10.4959L9.08813 8.11361ZM0.00387053 7.25576C-0.133472 11.597 3.40226 15.1335 7.74378 14.9962C11.6719 14.869 14.8687 11.6711 14.9961 7.74281C15.1335 3.40247 11.5978 -0.133922 7.25628 0.0038964C3.3282 0.119214 0.120588 3.32747 0.00387053 7.25576ZM0.967609 8.57956C0.226524 4.13235 4.13304 0.225625 8.58002 0.966749C11.354 1.42192 13.5562 3.63498 14.0221 6.40915C14.7628 10.8559 10.8562 14.7627 6.40973 14.022C3.6357 13.5663 1.43354 11.3641 0.967609 8.57956Z"   fill="#C4C4C4" >
</path>
</svg>
