<svg xmlns="http://www.w3.org/2000/svg" xmlns:xlink="http://www.w3.org/1999/xlink" width="24" height="24" viewBox="0 0 24 24" fill="none">
<path d="M12 24C5.373 24 0 18.627 0 12C0 5.373 5.373 0 12 0C18.627 0 24 5.373 24 12C24 18.627 18.627 24 12 24ZM9.324 16.712C9.33846 16.7265 9.35327 16.7406 9.36844 16.7543C9.3836 16.7681 9.39907 16.7814 9.41489 16.7944C9.43071 16.8074 9.44684 16.82 9.46327 16.8322C9.4797 16.8443 9.49643 16.8561 9.51344 16.8675C9.53044 16.8789 9.54771 16.8898 9.56527 16.9003C9.58282 16.9109 9.60061 16.9209 9.61866 16.9306C9.6367 16.9402 9.65498 16.9494 9.67348 16.9582C9.69197 16.9669 9.71067 16.9752 9.72956 16.983C9.74848 16.9909 9.76755 16.9982 9.78682 17.0051C9.80609 17.012 9.82552 17.0185 9.84509 17.0244C9.86466 17.0303 9.88437 17.0358 9.90422 17.0408C9.92407 17.0457 9.94404 17.0502 9.9641 17.0542C9.98416 17.0582 10.0043 17.0617 10.0245 17.0647C10.0448 17.0677 10.0651 17.0702 10.0855 17.0722C10.1058 17.0742 10.1262 17.0757 10.1467 17.0767C10.1671 17.0777 10.1875 17.0782 10.208 17.0782C10.2285 17.0782 10.2489 17.0777 10.2694 17.0767C10.2898 17.0757 10.3102 17.0742 10.3305 17.0722C10.3509 17.0702 10.3712 17.0677 10.3914 17.0647C10.4117 17.0617 10.4318 17.0582 10.4519 17.0542C10.472 17.0502 10.4919 17.0457 10.5118 17.0408C10.5316 17.0358 10.5514 17.0303 10.5709 17.0244C10.5905 17.0185 10.6099 17.012 10.6292 17.0051C10.6485 16.9982 10.6675 16.9909 10.6864 16.983C10.7053 16.9752 10.724 16.9669 10.7425 16.9582C10.761 16.9494 10.7793 16.9402 10.7973 16.9306C10.8154 16.9209 10.8332 16.9109 10.8507 16.9003C10.8683 16.8898 10.8855 16.8789 10.9026 16.8675C10.9196 16.8561 10.9363 16.8443 10.9527 16.8322C10.9692 16.82 10.9853 16.8074 11.0011 16.7944C11.0169 16.7814 11.0324 16.7681 11.0476 16.7543C11.0627 16.7406 11.0775 16.7265 11.092 16.712L18.67 9.13399C18.6845 9.11953 18.6986 9.10472 18.7123 9.08955C18.726 9.07439 18.7394 9.05892 18.7524 9.0431C18.7654 9.02728 18.778 9.01116 18.7901 8.99473C18.8023 8.9783 18.8141 8.96156 18.8255 8.94455C18.8368 8.92753 18.8478 8.91026 18.8583 8.8927C18.8688 8.87515 18.8789 8.85736 18.8885 8.83931C18.8982 8.82129 18.9074 8.80301 18.9161 8.78452C18.9249 8.76602 18.9332 8.74732 18.941 8.72841C18.9488 8.70952 18.9562 8.69044 18.9631 8.67117C18.97 8.65191 18.9764 8.63248 18.9823 8.61291C18.9883 8.59334 18.9937 8.57362 18.9987 8.55377C19.0037 8.53392 19.0081 8.51395 19.0121 8.49389C19.0161 8.47383 19.0196 8.45367 19.0226 8.43344C19.0256 8.4132 19.0281 8.3929 19.0301 8.37253C19.0321 8.35216 19.0336 8.33177 19.0346 8.31134C19.0357 8.2909 19.0362 8.27046 19.0362 8.25C19.0362 8.22954 19.0357 8.20908 19.0346 8.18866C19.0336 8.16823 19.0321 8.14784 19.0301 8.12747C19.0281 8.1071 19.0256 8.0868 19.0226 8.06656C19.0196 8.04633 19.0161 8.02617 19.0121 8.00611C19.0081 7.98602 19.0037 7.96608 18.9987 7.94623C18.9937 7.92637 18.9883 7.90666 18.9823 7.88709C18.9764 7.86752 18.97 7.84809 18.9631 7.82883C18.9562 7.80956 18.9488 7.79048 18.941 7.77157C18.9332 7.75268 18.9249 7.73398 18.9161 7.71548C18.9074 7.69699 18.8982 7.67871 18.8885 7.66066C18.8789 7.64264 18.8688 7.62483 18.8583 7.60727C18.8478 7.58972 18.8368 7.57245 18.8255 7.55545C18.8141 7.53844 18.8023 7.5217 18.7901 7.50527C18.778 7.48884 18.7654 7.47272 18.7524 7.4569C18.7394 7.44108 18.726 7.42561 18.7123 7.41045C18.6986 7.39528 18.6845 7.38047 18.67 7.36601C18.6555 7.35155 18.6407 7.33744 18.6256 7.32368C18.6104 7.30995 18.5949 7.29659 18.5791 7.2836C18.5633 7.27064 18.5471 7.25805 18.5307 7.24587C18.5143 7.23368 18.4976 7.22189 18.4806 7.21052C18.4635 7.19916 18.4463 7.18821 18.4287 7.17769C18.4112 7.16716 18.3934 7.15709 18.3753 7.14745C18.3573 7.13782 18.339 7.12861 18.3205 7.11987C18.302 7.11112 18.2833 7.10283 18.2644 7.095C18.2455 7.08717 18.2264 7.07981 18.2072 7.07292C18.1879 7.06603 18.1685 7.05961 18.1489 7.05366C18.1293 7.04773 18.1096 7.04227 18.0898 7.0373C18.0699 7.03233 18.05 7.02785 18.0299 7.02387C18.0098 7.01986 17.9897 7.01637 17.9694 7.01337C17.9492 7.01037 17.9289 7.00786 17.9085 7.00584C17.8882 7.00385 17.8678 7.00235 17.8474 7.00134C17.8269 7.00034 17.8065 6.99984 17.786 6.99984C17.7655 6.99984 17.7451 7.00034 17.7247 7.00134C17.7042 7.00235 17.6838 7.00385 17.6635 7.00584C17.6431 7.00786 17.6228 7.01037 17.6026 7.01337C17.5823 7.01637 17.5622 7.01986 17.5421 7.02387C17.522 7.02785 17.5021 7.03233 17.4822 7.0373C17.4624 7.04227 17.4427 7.04773 17.4231 7.05366C17.4035 7.05961 17.3841 7.06603 17.3648 7.07292C17.3456 7.07981 17.3265 7.08717 17.3076 7.095C17.2887 7.10283 17.27 7.11112 17.2515 7.11987C17.233 7.12861 17.2147 7.13782 17.1967 7.14745C17.1786 7.15709 17.1608 7.16716 17.1433 7.17769C17.1257 7.18821 17.1085 7.19916 17.0914 7.21052C17.0744 7.22189 17.0577 7.23368 17.0413 7.24587C17.0249 7.25805 17.0087 7.27064 16.9929 7.2836C16.9771 7.29659 16.9616 7.30995 16.9464 7.32368C16.9313 7.33744 16.9165 7.35155 16.902 7.36601L10.154 14.006L7.134 10.986C7.11954 10.9715 7.10473 10.9574 7.08956 10.9436C7.0744 10.9299 7.05893 10.9165 7.04311 10.9035C7.02729 10.8905 7.01116 10.8779 6.99473 10.8657C6.9783 10.8535 6.96159 10.8417 6.94458 10.8303C6.92756 10.8189 6.91029 10.808 6.89273 10.7974C6.87518 10.7869 6.85737 10.7768 6.83932 10.7671C6.82127 10.7575 6.80299 10.7483 6.7845 10.7395C6.76601 10.7307 6.7473 10.7224 6.72839 10.7146C6.70948 10.7067 6.6904 10.6994 6.67113 10.6925C6.65187 10.6856 6.63244 10.6791 6.61284 10.6732C6.59327 10.6672 6.57354 10.6618 6.55369 10.6568C6.53384 10.6518 6.51389 10.6473 6.4938 10.6433C6.47372 10.6393 6.45356 10.6358 6.43331 10.6328C6.41309 10.6298 6.39277 10.6272 6.3724 10.6252C6.35203 10.6232 6.33162 10.6217 6.31118 10.6207C6.29072 10.6197 6.27026 10.6192 6.2498 10.6192C6.22934 10.6191 6.20887 10.6196 6.18841 10.6206C6.16798 10.6216 6.14756 10.6231 6.1272 10.6251C6.10683 10.6271 6.08651 10.6296 6.06626 10.6326C6.04601 10.6356 6.02585 10.6391 6.00577 10.6431C5.98568 10.6471 5.96573 10.6516 5.94588 10.6565C5.92603 10.6615 5.9063 10.667 5.8867 10.6729C5.86711 10.6788 5.84768 10.6853 5.82841 10.6921C5.80912 10.699 5.79005 10.7064 5.77113 10.7142C5.75222 10.722 5.73349 10.7303 5.715 10.7391C5.69648 10.7478 5.6782 10.757 5.66016 10.7667C5.64209 10.7763 5.6243 10.7864 5.60674 10.7969C5.58919 10.8075 5.57189 10.8184 5.55485 10.8298C5.53784 10.8411 5.5211 10.8529 5.50467 10.8651C5.48822 10.8773 5.47209 10.8899 5.45627 10.9029C5.44045 10.9159 5.42494 10.9292 5.40977 10.943C5.39461 10.9567 5.3798 10.9709 5.36531 10.9853C5.35085 10.9998 5.33674 11.0146 5.32298 11.0298C5.30923 11.0449 5.29587 11.0604 5.28288 11.0763C5.2699 11.0921 5.25731 11.1082 5.24512 11.1247C5.23291 11.1411 5.22115 11.1578 5.20978 11.1749C5.19841 11.1919 5.18747 11.2092 5.17695 11.2267C5.16642 11.2443 5.15632 11.2621 5.14669 11.2801C5.13703 11.2982 5.12784 11.3165 5.1191 11.335C5.11036 11.3535 5.10206 11.3722 5.09423 11.3911C5.08638 11.41 5.07902 11.4291 5.07213 11.4484C5.06524 11.4677 5.05882 11.4871 5.05289 11.5067C5.04696 11.5263 5.0415 11.546 5.03653 11.5659C5.03156 11.5857 5.02709 11.6057 5.0231 11.6258C5.01912 11.6459 5.01562 11.666 5.01262 11.6863C5.00962 11.7065 5.00712 11.7268 5.00513 11.7472C5.00313 11.7676 5.00163 11.788 5.00062 11.8084C4.99964 11.8289 4.99915 11.8493 4.99915 11.8698C4.99917 11.8903 4.99966 11.9107 5.00067 11.9312C5.00168 11.9516 5.0032 11.972 5.00522 11.9924C5.00723 12.0127 5.00974 12.0331 5.01277 12.0533C5.01579 12.0736 5.01928 12.0937 5.02329 12.1138C5.0273 12.1339 5.03177 12.1538 5.03677 12.1737C5.04176 12.1935 5.04722 12.2133 5.05317 12.2329C5.05912 12.2524 5.06555 12.2719 5.07246 12.2911C5.07937 12.3104 5.08673 12.3295 5.09459 12.3484C5.10244 12.3673 5.11073 12.386 5.1195 12.4045C5.12827 12.423 5.13748 12.4413 5.14713 12.4593C5.15681 12.4774 5.16691 12.4952 5.17744 12.5127C5.18796 12.5303 5.19893 12.5476 5.21032 12.5646C5.22169 12.5816 5.23348 12.5983 5.24569 12.6147C5.2579 12.6312 5.27048 12.6473 5.28349 12.6631C5.2965 12.6789 5.30988 12.6944 5.32364 12.7096C5.3374 12.7247 5.35151 12.7395 5.36599 12.754L9.324 16.712Z"   fill="#3CBFFD" >
</path>
</svg>
