<svg xmlns="http://www.w3.org/2000/svg" xmlns:xlink="http://www.w3.org/1999/xlink" width="25" height="25" viewBox="0 0 25 25" fill="none">
<path d="M7.41307 20.3902C8.07492 20.3902 8.72507 20.0702 9.12 19.4778C9.74751 18.5366 9.49307 17.2644 8.5518 16.6369L6.9401 15.5621C7.21561 15.4872 7.50595 15.4459 7.80566 15.4459C9.62029 15.4459 11.0907 16.9163 11.0907 18.7309C11.0907 20.5456 9.61951 22.016 7.80566 22.016C6.03941 22.016 4.59941 20.6228 4.52371 18.8753L6.27902 20.0453C6.62868 20.2778 7.02283 20.3895 7.41385 20.3895L7.41307 20.3902ZM20.8133 0C23.1032 0 24.9756 1.87317 24.9756 4.16312L24.9756 20.8125C24.9756 23.104 23.1032 24.9756 20.8133 24.9756L4.16312 24.9756C1.87317 24.9756 0 23.104 0 20.8125L0 15.8603L2.95961 17.8334C2.67551 19.374 3.12897 21.024 4.32078 22.2158C6.24546 24.1405 9.36507 24.1405 11.2898 22.2158C12.4722 21.0334 12.9272 19.4006 12.6572 17.87L18.7317 12.4316C19.8595 12.27 20.9467 11.7549 21.8146 10.887C23.9485 8.75317 23.9485 5.29405 21.8146 3.16097C19.6808 1.0279 16.2217 1.02712 14.0878 3.16097C13.2199 4.02888 12.7056 5.1161 12.5432 6.2439L7.55044 13.8107C6.77385 13.8505 6.00429 14.073 5.31356 14.4788L1.48866e-06 10.9362L1.48866e-06 4.16312C1.48866e-06 1.87317 1.87317 3.72166e-07 4.16312 3.72166e-07L20.8133 3.72166e-07L20.8133 0ZM21.8537 7.02439C21.8537 4.86946 20.1061 3.12195 17.9512 3.12195C15.7963 3.12195 14.0488 4.86946 14.0488 7.02439C14.0488 9.17932 15.7963 10.9268 17.9512 10.9268C20.1061 10.9268 21.8537 9.17932 21.8537 7.02439ZM15.6098 7.02439C15.6098 5.73112 16.6579 4.68293 17.9512 4.68293C19.2445 4.68293 20.2927 5.73112 20.2927 7.02439C20.2927 8.31766 19.2445 9.36585 17.9512 9.36585C16.6579 9.36585 15.6098 8.31766 15.6098 7.02439Z"   fill="#C4C4C4" >
</path>
</svg>
