<svg xmlns="http://www.w3.org/2000/svg" xmlns:xlink="http://www.w3.org/1999/xlink" width="32" height="33" viewBox="0 0 32 33" fill="none">
<path d="M7.73312 11.55L7.73312 11.5513C7.73531 12.1691 7.97437 12.7608 8.39781 13.1977C8.82125 13.6347 9.39531 13.8809 9.99437 13.8832C11.24 13.8832 12.2572 12.8326 12.2572 11.55C12.2572 10.2674 11.2384 9.21809 9.99437 9.21809C8.75031 9.21809 7.73312 10.2671 7.73312 11.55ZM15.3866 4.125L10.1466 4.125C8.51656 4.125 6.95312 4.79306 5.80031 5.98157C5.76475 6.01825 5.72962 6.05536 5.69494 6.09292C5.66027 6.13047 5.62605 6.16846 5.59228 6.2069C5.55851 6.24531 5.5252 6.28416 5.49234 6.32343C5.45949 6.36268 5.42711 6.40235 5.39519 6.44244C5.36329 6.48253 5.33187 6.52302 5.30094 6.56391C5.27 6.60479 5.23955 6.64606 5.20959 6.68772C5.17964 6.72938 5.15018 6.7714 5.12122 6.81379C5.09226 6.8562 5.0638 6.89897 5.03584 6.94208C5.00791 6.9852 4.98049 7.02867 4.95359 7.07247C4.92668 7.11628 4.90029 7.16043 4.87444 7.20492C4.84858 7.2494 4.82326 7.29419 4.79847 7.33931C4.77368 7.38446 4.74943 7.42987 4.72572 7.4756C4.70203 7.52133 4.67887 7.56738 4.65625 7.61369C4.63365 7.66 4.61159 7.70663 4.59009 7.75352C4.56859 7.80041 4.54765 7.84752 4.52725 7.89493C4.50688 7.94233 4.48706 7.99 4.46781 8.03792C4.44858 8.08584 4.42992 8.13402 4.41181 8.18239C4.39371 8.23076 4.37619 8.27939 4.35925 8.32821C4.34231 8.37704 4.32596 8.42605 4.31019 8.4753C4.2944 8.52454 4.27921 8.57397 4.26463 8.6236C4.25002 8.67323 4.23601 8.72305 4.22259 8.77304C4.20918 8.82302 4.19637 8.87317 4.18416 8.92347C4.17193 8.97378 4.16031 9.02421 4.14931 9.07484C4.13829 9.12543 4.12788 9.17616 4.11806 9.22701C4.10825 9.2779 4.09904 9.32888 4.09044 9.37996C4.08185 9.43107 4.07388 9.48228 4.0665 9.53355C4.05913 9.58486 4.05235 9.63626 4.04619 9.68772C4.04004 9.73919 4.0345 9.79075 4.02956 9.84235C4.02465 9.89394 4.02033 9.9456 4.01663 9.99732C4.01294 10.049 4.00985 10.1008 4.00738 10.1526C4.00492 10.2044 4.00307 10.2562 4.00184 10.3081C4.00062 10.3599 4 10.4118 4 10.4636L4 22.5167C3.99969 23.3494 4.15875 24.1738 4.4675 24.943C4.77625 25.7123 5.22875 26.4113 5.79969 27.0001C6.37062 27.5888 7.04812 28.0558 7.79406 28.3745C7.887 28.4142 7.98084 28.4516 8.07556 28.4865C8.17028 28.5215 8.26578 28.554 8.36206 28.5842C8.45834 28.6143 8.55528 28.642 8.65287 28.6672C8.75047 28.6924 8.84859 28.7151 8.94725 28.7354C9.04594 28.7556 9.14503 28.7734 9.24453 28.7886C9.34406 28.8038 9.44387 28.8165 9.544 28.8267C9.64412 28.8369 9.74444 28.8445 9.84491 28.8496C9.94541 28.8547 10.046 28.8573 10.1466 28.8573L15.3866 28.8573C15.4812 28.8573 15.5572 28.779 15.5572 28.6826L15.5572 4.29967C15.5759 4.20331 15.5 4.125 15.3866 4.125ZM13.6331 26.8731L10.1466 26.8731C9.59156 26.8773 9.04156 26.7658 8.52937 26.545C8.01719 26.3243 7.55375 25.9991 7.16656 25.5889C6.37594 24.7719 5.9225 23.6843 5.9225 22.517L5.9225 10.4636C5.91844 9.89162 6.02656 9.32443 6.24031 8.79624C6.26694 8.73043 6.29516 8.66537 6.32497 8.60101C6.35478 8.53666 6.38614 8.47314 6.41903 8.41042C6.45195 8.34768 6.48637 8.28587 6.52231 8.22493C6.55825 8.16402 6.59565 8.10408 6.6345 8.04507C6.67337 7.9861 6.71366 7.92815 6.75534 7.87127C6.79705 7.81439 6.84012 7.75861 6.88453 7.70395C6.92895 7.64933 6.97468 7.59587 7.02172 7.54356C7.06876 7.49129 7.11704 7.44028 7.16656 7.39052C7.96 6.57519 9.01469 6.10758 10.1466 6.10758L13.6331 6.10758L13.6331 26.8731ZM26.1994 6.00091C26.1638 5.96423 26.1278 5.92801 26.0914 5.89224C26.055 5.85649 26.0182 5.8212 25.9809 5.78638C25.9436 5.75155 25.906 5.7172 25.8679 5.68332C25.8298 5.64944 25.7913 5.61604 25.7525 5.58312C25.7136 5.55023 25.6743 5.51783 25.6347 5.48593C25.595 5.45402 25.555 5.42263 25.5146 5.39173C25.4742 5.36083 25.4335 5.33046 25.3924 5.30059C25.3512 5.27073 25.3098 5.24138 25.268 5.21255C25.2262 5.18374 25.184 5.15547 25.1415 5.12773C25.0991 5.09997 25.0562 5.07276 25.0131 5.0461C24.97 5.01944 24.9265 4.99332 24.8828 4.96776C24.839 4.94219 24.795 4.91718 24.7506 4.89273C24.7063 4.86831 24.6616 4.84443 24.6167 4.82109C24.5718 4.79778 24.5266 4.77504 24.4811 4.75287C24.4357 4.7307 24.3899 4.7091 24.344 4.68806C24.298 4.66705 24.2518 4.64662 24.2053 4.62677C24.1589 4.60694 24.1122 4.58769 24.0652 4.56902C24.0183 4.55035 23.9712 4.53228 23.9238 4.51481C23.8765 4.49735 23.829 4.48048 23.7812 4.46422C23.7334 4.44793 23.6855 4.43227 23.6374 4.41723C23.5893 4.40217 23.541 4.38772 23.4925 4.37389C23.444 4.36005 23.3954 4.34684 23.3466 4.33425C23.2978 4.32164 23.2489 4.30966 23.1998 4.29831C23.1508 4.28695 23.1016 4.27621 23.0523 4.26609C23.0029 4.25597 22.9535 4.24647 22.904 4.2376C22.8544 4.22875 22.8047 4.22052 22.755 4.21291C22.7053 4.20531 22.6554 4.19833 22.6055 4.19197C22.5556 4.18563 22.5056 4.17991 22.4556 4.17482C22.4056 4.16975 22.3554 4.1653 22.3053 4.16148C22.2551 4.15768 22.2049 4.1545 22.1547 4.15194C22.1045 4.14941 22.0542 4.1475 22.004 4.14624C21.9537 4.14497 21.9034 4.14434 21.8531 4.14434L18.1397 4.14434C18.045 4.14434 17.9891 4.22265 17.9891 4.29967L17.9891 28.7003C17.9703 28.7967 18.045 28.875 18.1584 28.875L21.8531 28.875C21.9034 28.875 21.9537 28.8744 22.004 28.8731C22.0542 28.8718 22.1045 28.8699 22.1547 28.8674C22.2049 28.8648 22.2551 28.8616 22.3053 28.8578C22.3554 28.854 22.4056 28.8495 22.4556 28.8444C22.5056 28.8394 22.5556 28.8337 22.6055 28.8273C22.6554 28.821 22.7052 28.814 22.755 28.8064C22.8047 28.7988 22.8544 28.7905 22.9039 28.7817C22.9535 28.7728 23.0029 28.7633 23.0522 28.7532C23.1016 28.7431 23.1507 28.7323 23.1998 28.721C23.2489 28.7096 23.2978 28.6976 23.3466 28.685C23.3954 28.6724 23.444 28.6592 23.4925 28.6454C23.5409 28.6315 23.5892 28.6171 23.6374 28.602C23.6855 28.587 23.7334 28.5713 23.7812 28.5551C23.8289 28.5388 23.8765 28.5219 23.9238 28.5044C23.9712 28.487 24.0183 28.4689 24.0652 28.4502C24.1121 28.4316 24.1588 28.4123 24.2053 28.3925C24.2517 28.3726 24.298 28.3522 24.3439 28.3312C24.3899 28.3101 24.4356 28.2885 24.4811 28.2664C24.5266 28.2442 24.5717 28.2214 24.6167 28.1981C24.6616 28.1748 24.7062 28.151 24.7506 28.1265C24.7949 28.102 24.839 28.077 24.8827 28.0515C24.9265 28.0259 24.9699 27.9998 25.0131 27.9732C25.0562 27.9465 25.099 27.9193 25.1415 27.8915C25.184 27.8638 25.2261 27.8355 25.2679 27.8067C25.3097 27.7779 25.3512 27.7486 25.3923 27.7187C25.4334 27.6888 25.4742 27.6585 25.5146 27.6276C25.555 27.5967 25.595 27.5653 25.6347 27.5334C25.6743 27.5015 25.7136 27.4691 25.7524 27.4361C25.7913 27.4032 25.8298 27.3699 25.8679 27.336C25.9059 27.3021 25.9436 27.2678 25.9809 27.233C26.0182 27.1981 26.055 27.1628 26.0914 27.1271C26.1278 27.0913 26.1638 27.0551 26.1994 27.0184C26.2349 26.9818 26.2701 26.9446 26.3047 26.9071C26.3394 26.8695 26.3736 26.8315 26.4074 26.7931C26.4412 26.7547 26.4745 26.7159 26.5073 26.6766C26.5402 26.6373 26.5726 26.5976 26.6045 26.5576C26.6364 26.5175 26.6678 26.477 26.6987 26.4361C26.7297 26.3952 26.7601 26.3539 26.7901 26.3123C26.8201 26.2706 26.8495 26.2286 26.8785 26.1862C26.9074 26.1438 26.9359 26.101 26.9638 26.0579C26.9918 26.0148 27.0192 25.9713 27.0461 25.9275C27.073 25.8837 27.0994 25.8396 27.1252 25.7951C27.1511 25.7506 27.1764 25.7058 27.2012 25.6607C27.226 25.6155 27.2502 25.5701 27.2739 25.5244C27.2977 25.4787 27.3208 25.4326 27.3434 25.3863C27.366 25.34 27.3881 25.2934 27.4096 25.2465C27.4311 25.1996 27.452 25.1524 27.4724 25.105C27.4928 25.0576 27.5126 25.01 27.5318 24.9621C27.5511 24.9142 27.5698 24.866 27.5879 24.8176C27.606 24.7692 27.6235 24.7206 27.6404 24.6718C27.6574 24.623 27.6737 24.5739 27.6895 24.5247C27.7053 24.4754 27.7205 24.426 27.7351 24.3764C27.7497 24.3268 27.7637 24.2769 27.7771 24.227C27.7905 24.177 27.8033 24.1268 27.8155 24.0765C27.8277 24.0262 27.8393 23.9758 27.8504 23.9252C27.8614 23.8746 27.8718 23.8238 27.8816 23.773C27.8914 23.7221 27.9007 23.6711 27.9092 23.62C27.9178 23.5689 27.9258 23.5177 27.9332 23.4664C27.9406 23.4151 27.9473 23.3637 27.9535 23.3123C27.9597 23.2608 27.9652 23.2092 27.9701 23.1577C27.975 23.1061 27.9793 23.0544 27.9831 23.0026C27.9867 22.9509 27.9898 22.8992 27.9923 22.8474C27.9948 22.7956 27.9966 22.7438 27.9978 22.6919C27.9991 22.6401 27.9997 22.5882 27.9997 22.5364L27.9997 10.483C27.9997 10.4311 27.9991 10.3793 27.9978 10.3274C27.9966 10.2756 27.9947 10.2237 27.9923 10.172C27.9898 10.1202 27.9867 10.0684 27.983 10.0167C27.9793 9.96497 27.975 9.91328 27.9701 9.86168C27.9652 9.81009 27.9596 9.75853 27.9534 9.70706C27.9473 9.65559 27.9405 9.60423 27.9331 9.55292C27.9257 9.50162 27.9178 9.45041 27.9092 9.39933C27.9006 9.34822 27.8914 9.29723 27.8816 9.24638C27.8717 9.19553 27.8613 9.1448 27.8503 9.09418C27.8393 9.04358 27.8277 8.99314 27.8154 8.94284C27.8032 8.89253 27.7904 8.84239 27.777 8.79241C27.7636 8.74242 27.7496 8.6926 27.735 8.64297C27.7204 8.59337 27.7052 8.54394 27.6894 8.49466C27.6737 8.44542 27.6573 8.39641 27.6403 8.34758C27.6234 8.29876 27.6059 8.25013 27.5878 8.20176C27.5697 8.15339 27.551 8.10524 27.5318 8.05732C27.5125 8.0094 27.4927 7.96173 27.4723 7.91433C27.4519 7.86692 27.431 7.81978 27.4095 7.77289C27.388 7.726 27.3659 7.6794 27.3433 7.63309C27.3207 7.58678 27.2976 7.54073 27.2739 7.495C27.2502 7.44927 27.2259 7.40383 27.2011 7.35871C27.1763 7.31357 27.151 7.26877 27.1252 7.22429C27.0993 7.17982 27.0729 7.13567 27.046 7.09184C27.0191 7.04804 26.9917 7.00457 26.9638 6.96145C26.9358 6.91833 26.9074 6.87557 26.8784 6.83316C26.8495 6.79077 26.82 6.74875 26.7901 6.70709C26.7601 6.66543 26.7297 6.62416 26.6987 6.58327C26.6678 6.54239 26.6363 6.5019 26.6044 6.46181C26.5725 6.42172 26.5402 6.38204 26.5073 6.34277C26.4745 6.30352 26.4412 6.26467 26.4074 6.22624C26.3736 6.1878 26.3394 6.1498 26.3047 6.11225C26.2701 6.0747 26.2349 6.03758 26.1994 6.00091ZM22.7212 20.2425C21.3828 20.2425 20.2894 19.1149 20.2894 17.7346C20.2894 16.3543 21.3825 15.2267 22.7212 15.2267C24.0597 15.2267 25.1531 16.3543 25.1531 17.7346C25.1531 19.1149 24.0597 20.2425 22.7212 20.2425Z"   fill="#C4C4C4" >
</path>
</svg>
