<svg xmlns="http://www.w3.org/2000/svg" xmlns:xlink="http://www.w3.org/1999/xlink" width="43" height="44" viewBox="0 0 43 44" fill="none">
<path d="M21.7752 2.82049C27.8083 2.82049 32.9962 7.36047 34.1946 13.4121C33.8279 13.3707 33.4549 13.3495 33.0768 13.3495L31.6986 13.3495L31.6986 33.6572L33.0768 33.6572C33.1728 33.6572 33.2684 33.6558 33.3637 33.6531C33.1195 34.1751 32.7649 34.7295 32.2499 35.2564C30.8279 36.7115 28.5907 37.541 25.7136 37.745C25.0706 36.4513 23.8261 35.5385 22.3267 35.5385C20.1215 35.5385 18.4677 37.5128 18.4677 39.7692C18.4677 42.0257 20.1215 44 22.3267 44C24.2725 44 25.7891 42.4627 26.1188 40.5508C29.8295 40.2823 32.5164 39.1756 34.1794 37.2308C35.5065 35.8728 36.1237 34.2727 36.4107 33.0781C40.2651 31.6879 42.9999 27.9454 42.9999 23.5033C42.9999 19.3356 40.5925 15.7837 37.1116 14.2127C36.2385 6.09881 29.7221 -2.20703e-05 21.7752 -2.20703e-05C13.9265 -2.20703e-05 7.47319 6.18698 6.4737 13.971C2.68021 15.3937 -0.0001 19.1057 -0.0001 23.5033C-0.0001 29.1444 4.41015 33.6572 9.92297 33.6572L11.3011 33.6572L11.3011 13.3495L9.92297 13.3495C9.73576 13.3495 9.54981 13.3547 9.36526 13.365C10.5811 7.33692 15.7578 2.82049 21.7752 2.82049ZM8.54475 16.17C5.23708 16.7341 2.75631 19.8366 2.75631 23.5033C2.75631 27.17 5.23708 29.9905 8.54475 30.8367L8.54475 16.17ZM34.455 16.17L34.455 30.5546C37.7627 29.9905 40.2435 26.888 40.2435 23.2213C40.2435 19.8366 37.7627 17.0161 34.455 16.17ZM22.3267 38.641C21.7754 38.641 21.2241 39.2051 21.2241 40.0513C21.2241 40.8974 21.7754 41.4616 22.3267 41.4616C22.878 41.4616 23.4293 40.8974 23.4293 40.0513C23.4293 39.2051 22.878 38.641 22.3267 38.641Z" fill-rule="evenodd"  fill="url(#linear_fill_21_120)" >
</path>
<defs>
<linearGradient id="linear_fill_21_120" x1="43" y1="21.9998779296875" x2="0" y2="21.9998779296875" gradientUnits="userSpaceOnUse">
<stop offset="0" stop-color="#FCFCFC" stop-opacity="0.3" />
<stop offset="1" stop-color="#FFFFFF"  />
</linearGradient>
</defs>
</svg>
