<svg xmlns="http://www.w3.org/2000/svg" xmlns:xlink="http://www.w3.org/1999/xlink" width="40.330078125" height="44.79998779296875" viewBox="0 0 40.330078125 44.79998779296875" fill="none">
<path d="M10.52 35.64L10.52 23.42L6.89999 23.42C6.50944 25.1765 5.14208 26.47 3.51 26.47C1.5737 26.47 0 24.6481 0 22.4C0 20.1519 1.5737 18.33 3.51 18.33C5.14619 18.33 6.51356 19.6235 6.89999 21.38L10.52 21.38L10.52 9.15999L6.89999 9.15999C6.50944 10.9165 5.14208 12.22 3.51 12.22C1.5737 12.22 0 10.3981 0 8.14999C0 5.90188 1.56959 4.07 3.51 4.07C5.14619 4.07 6.51356 5.37351 6.89999 7.13L10.52 7.13L10.52 3.05C10.52 1.3651 11.6988 0 13.15 0L27.18 0C28.6312 0 29.81 1.3651 29.81 3.05L29.81 7.13L33.43 7.13C33.8205 5.37351 35.1979 4.07 36.83 4.07C38.7663 4.07 40.33 5.89188 40.33 8.13999C40.33 10.3881 38.7663 12.21 36.83 12.21C35.1938 12.21 33.8164 10.9165 33.43 9.15999L29.81 9.15999L29.81 21.38L33.43 21.38C33.8205 19.6235 35.1979 18.32 36.83 18.32C38.7663 18.32 40.33 20.1519 40.33 22.4C40.33 24.6481 38.7663 26.47 36.83 26.47C35.1938 26.47 33.8164 25.1665 33.43 23.41L29.81 23.41L29.81 35.63L33.43 35.63C33.8205 33.8735 35.1979 32.58 36.83 32.58C38.7663 32.58 40.33 34.4019 40.33 36.65C40.33 38.8981 38.7704 40.73 36.83 40.73C35.1938 40.73 33.8264 39.4265 33.44 37.67L29.82 37.67L29.82 41.75C29.82 43.4349 28.6412 44.8 27.19 44.8L13.15 44.8C11.6988 44.8 10.52 43.4349 10.52 41.75L10.52 37.67L6.89999 37.67C6.50944 39.4265 5.14208 40.73 3.51 40.73C1.5737 40.73 0 38.9081 0 36.66C0 34.4119 1.5737 32.59 3.51 32.59C5.14619 32.59 6.51356 33.8835 6.89999 35.64L10.52 35.64ZM28.06 14.43L28.06 3.05C28.06 2.48678 27.671 2.04 27.19 2.04L13.15 2.04C12.6649 2.04 12.28 2.49155 12.28 3.05L12.28 14.43C12.5554 14.3154 12.8458 14.26 13.15 14.26L27.18 14.26C27.4883 14.26 27.7845 14.3154 28.06 14.43ZM28.06 30.37C27.7845 30.4845 27.4942 30.54 27.19 30.54L13.15 30.54C12.8417 30.54 12.5513 30.4798 12.28 30.37L12.28 41.75C12.28 42.3132 12.669 42.76 13.15 42.76L27.18 42.76C27.6651 42.76 28.06 42.3084 28.06 41.75L28.06 30.37ZM13.15 16.29C12.6649 16.29 12.28 16.7515 12.28 17.31L12.28 27.49C12.28 28.0532 12.669 28.5 13.15 28.5L27.18 28.5C27.6651 28.5 28.06 28.0484 28.06 27.49L28.06 17.31C28.06 16.7468 27.661 16.29 27.18 16.29L13.15 16.29ZM17.54 9.15999C17.0549 9.15999 16.66 8.70844 16.66 8.14999C16.66 7.59155 17.0549 7.13 17.54 7.13L22.8 7.13C23.2851 7.13 23.68 7.58155 23.68 8.13999C23.68 8.69844 23.281 9.15999 22.8 9.15999L17.54 9.15999ZM17.54 37.67C17.0549 37.67 16.66 37.2184 16.66 36.66C16.66 36.0968 17.059 35.64 17.54 35.64L22.8 35.64C23.2851 35.64 23.68 36.1015 23.68 36.66C23.68 37.2232 23.281 37.67 22.8 37.67L17.54 37.67ZM17.54 23.42C17.0549 23.42 16.66 22.9584 16.66 22.4C16.66 21.8368 17.059 21.38 17.54 21.38L22.8 21.38C23.2851 21.38 23.68 21.8415 23.68 22.4C23.68 22.9632 23.281 23.42 22.8 23.42L17.54 23.42ZM36.83 24.44C37.8002 24.44 38.59 23.5264 38.59 22.4C38.59 21.2735 37.8002 20.36 36.83 20.36C35.8598 20.36 35.08 21.2735 35.08 22.4C35.08 23.5264 35.8639 24.44 36.83 24.44ZM36.83 10.18C37.8002 10.18 38.59 9.26644 38.59 8.13999C38.59 7.01355 37.8002 6.1 36.83 6.1C35.8598 6.1 35.08 7.01355 35.08 8.13999C35.08 9.26644 35.8639 10.18 36.83 10.18ZM3.51 24.44C4.4802 24.44 5.25999 23.5264 5.25999 22.4C5.25999 21.2735 4.4802 20.36 3.51 20.36C2.53979 20.36 1.75 21.2735 1.75 22.4C1.75 23.5264 2.53979 24.44 3.51 24.44ZM3.51 10.18C4.4802 10.18 5.25999 9.26644 5.25999 8.13999C5.25999 7.01355 4.4802 6.1 3.51 6.1C2.53979 6.1 1.75 7.01832 1.75 8.13999C1.75 9.26167 2.53979 10.18 3.51 10.18ZM36.83 38.69C37.8002 38.69 38.59 37.7764 38.59 36.65C38.59 35.5235 37.8002 34.62 36.83 34.62C35.8598 34.62 35.08 35.5335 35.08 36.66C35.08 37.7864 35.8639 38.69 36.83 38.69ZM3.51 38.69C4.4802 38.69 5.25999 37.7764 5.25999 36.65C5.25999 35.5235 4.47609 34.62 3.51 34.62C2.5439 34.62 1.75 35.5335 1.75 36.66C1.75 37.7864 2.53979 38.69 3.51 38.69Z"   fill="url(#linear_fill_21_139)" >
</path>
<defs>
<linearGradient id="linear_fill_21_139" x1="0" y1="22.4000244140625" x2="40.333251953125" y2="22.4000244140625" gradientUnits="userSpaceOnUse">
<stop offset="0" stop-color="#FFFFFF"  />
<stop offset="1" stop-color="#FCFCFC" stop-opacity="0.2" />
</linearGradient>
</defs>
</svg>
