<svg xmlns="http://www.w3.org/2000/svg" xmlns:xlink="http://www.w3.org/1999/xlink" fill="none" version="1.1" width="16" height="16" viewBox="0 0 16 16"><defs><mask id="master_svg0_86_9616" style="mask-type:alpha" maskUnits="objectBoundingBox"><g><path d="M0 0C0 0 0 0 0 0L16 0C16 0 16 0 16 0L16 16C16 16 16 16 16 16L0 16C0 16 0 16 0 16Z" fill="#FFFFFF" fill-opacity="1"/></g></mask></defs><g mask="url(#master_svg0_86_9616)"><g><path d="M10.40021597454071,1.7786082618560792C10.451105974540711,1.798244261856079,10.50176597454071,1.8184992618560791,10.55216597454071,1.839374261856079C10.55708597454071,1.8415412618560791,10.56196597454071,1.8438272618560791,10.566775974540711,1.846233261856079C10.57158597454071,1.848640261856079,10.57633597454071,1.851161261856079,10.58104597454071,1.853796261856079C10.585725974540711,1.8564212618560791,10.59035597454071,1.8591662618560791,10.59491597454071,1.8620302618560791C10.59946597454071,1.8648852618560792,10.60394597454071,1.8678492618560791,10.60836597454071,1.870921261856079C10.61277597454071,1.8739942618560792,10.617115974540711,1.8771772618560791,10.621385974540711,1.880468261856079C10.625655974540711,1.883749261856079,10.629835974540711,1.887135261856079,10.63393597454071,1.8906242618560791C10.63802597454071,1.8941152618560793,10.64202597454071,1.897697261856079,10.64596597454071,1.9013742618560792C10.64988597454071,1.905052261856079,10.653715974540711,1.908827261856079,10.65746597454071,1.912702261856079C10.66119597454071,1.916568261856079,10.664835974540711,1.920521261856079,10.668405974540711,1.9245612618560792C10.67194597454071,1.928604261856079,10.67540597454071,1.932733261856079,10.67874597454071,1.936952261856079C10.68208597454071,1.9411612618560792,10.68533597454071,1.9454472618560792,10.68849597454071,1.949811261856079C10.69161597454071,1.954177261856079,10.69465597454071,1.9586192618560792,10.69758597454071,1.9631402618560791C10.70051597454071,1.967651261856079,10.70332597454071,1.9722332618560792,10.70604597454071,1.976890261856079C10.70874597454071,1.9815362618560792,10.711335974540711,1.986249261856079,10.713825974540711,1.9910302618560791C10.71629597454071,1.9958022618560791,10.718655974540711,2.000635261856079,10.72090597454071,2.0055302618560793C10.72313597454071,2.010427261856079,10.72526597454071,2.0153692618560792,10.72726597454071,2.020358261856079C10.729265974540711,2.0253492618560793,10.73115597454071,2.030385261856079,10.73291597454071,2.035468261856079C10.734665974540711,2.0405612618560793,10.736305974540711,2.045686261856079,10.73782597454071,2.050843261856079C10.73932597454071,2.056010261856079,10.740715974540711,2.061208261856079,10.741975974540711,2.066436261856079C10.74322597454071,2.0716772618560793,10.744375974540711,2.076936261856079,10.74536597454071,2.082218261856079C10.74637597454071,2.087510261856079,10.74724597454071,2.0928182618560793,10.74799597454071,2.098140261856079C10.74874597454071,2.1034742618560793,10.74935597454071,2.1088182618560793,10.74985597454071,2.114171261856079C10.750335974540711,2.119526261856079,10.75069597454071,2.1248942618560793,10.75093597454071,2.130280261856079C10.75115597454071,2.135655261856079,10.751265974540711,2.1410302618560793,10.751225974540711,2.146405261856079C10.75119597454071,2.1517912618560793,10.75102597454071,2.157166261856079,10.75074597454071,2.1625302618560793C10.75044597454071,2.1679052618560792,10.75002597454071,2.173271261856079,10.74947597454071,2.178624261856079C10.74891597454071,2.183979261856079,10.74824597454071,2.189316261856079,10.74743597454071,2.194640261856079C10.746625974540711,2.199952261856079,10.745685974540711,2.2052492618560793,10.74462597454071,2.2105302618560794C10.74355597454071,2.215802261856079,10.742355974540711,2.2210462618560793,10.741045974540711,2.226265261856079C10.739725974540711,2.231474261856079,10.738275974540711,2.236655261856079,10.73671597454071,2.2418112618560793C10.735135974540711,2.2469582618560793,10.733435974540711,2.2520612618560794,10.731615974540711,2.257124261856079C10.72980597454071,2.262186261856079,10.72786597454071,2.267202261856079,10.72580597454071,2.272171261856079C10.72374597454071,2.277140261856079,10.72155597454071,2.282057261856079,10.719265974540711,2.286921261856079C10.716965974540711,2.291786261856079,10.71455597454071,2.296593261856079,10.71202597454071,2.301343261856079C10.70947597454071,2.306093261856079,10.706835974540711,2.310775261856079,10.70408597454071,2.315390261856079C10.70132597454071,2.320015261856079,10.69844597454071,2.3245682618560792,10.695475974540711,2.329046261856079C10.69249597454071,2.333524261856079,10.68940597454071,2.3379342618560788,10.68621597454071,2.342264261856079C10.68302597454071,2.346594261856079,10.67972597454071,2.350854261856079,10.67632597454071,2.355014261856079C10.672915974540711,2.359194261856079,10.669435974540711,2.363284261856079,10.66583597454071,2.367284261856079C10.66224597454071,2.371284261856079,10.65854597454071,2.375194261856079,10.65476597454071,2.379014261856079C10.65097597454071,2.382834261856079,10.647105974540711,2.386564261856079,10.64313597454071,2.390204261856079C10.63916597454071,2.393834261856079,10.63510597454071,2.397374261856079,10.63097597454071,2.400814261856079C10.626835974540711,2.404264261856079,10.62262597454071,2.407594261856079,10.61832597454071,2.410824261856079C10.61401597454071,2.414064261856079,10.60963597454071,2.4171942618560793,10.60519597454071,2.420214261856079C10.60072597454071,2.423244261856079,10.59621597454071,2.4261542618560794,10.59163597454071,2.428954261856079C10.587045974540711,2.4317642618560793,10.58236597454071,2.434454261856079,10.577655974540711,2.437034261856079C10.57293597454071,2.4396142618560788,10.56815597454071,2.442074261856079,10.563305974540711,2.444424261856079C10.558465974540711,2.446764261856079,10.55355597454071,2.448994261856079,10.54862597454071,2.451104261856079C10.54366597454071,2.453224261856079,10.538665974540711,2.455214261856079,10.53363597454071,2.457074261856079C10.528575974540711,2.458944261856079,10.52349597454071,2.460684261856079,10.51836597454071,2.462314261856079C10.51322597454071,2.463934261856079,10.50805597454071,2.465434261856079,10.50285597454071,2.466794261856079C10.497655974540711,2.4681742618560794,10.49241597454071,2.469414261856079,10.48716597454071,2.470534261856079C10.48188597454071,2.471654261856079,10.47660597454071,2.472644261856079,10.47130597454071,2.473494261856079C10.46599597454071,2.474364261856079,10.46065597454071,2.4750942618560794,10.45530597454071,2.4757042618560794C10.44996597454071,2.476304261856079,10.44460597454071,2.4767842618560794,10.439245974540711,2.477124261856079C10.43387597454071,2.4774642618560794,10.428495974540711,2.477684261856079,10.42312597454071,2.477764261856079C10.41772597454071,2.477844261856079,10.412355974540711,2.477804261856079,10.40697597454071,2.477624261856079C10.401605974540711,2.4774442618560792,10.39622597454071,2.477144261856079,10.390865974540711,2.4767142618560793C10.38549597454071,2.476284261856079,10.38015597454071,2.475714261856079,10.37482597454071,2.475014261856079C10.36947597454071,2.474314261856079,10.36415597454071,2.473494261856079,10.35887597454071,2.472544261856079C10.35357597454071,2.471584261856079,10.348305974540711,2.470504261856079,10.343055974540711,2.469294261856079C10.33780597454071,2.468084261856079,10.33260597454071,2.466754261856079,10.32743597454071,2.465294261856079C10.32224597454071,2.4638342618560793,10.317105974540711,2.462254261856079,10.31201597454071,2.460544261856079C10.30690597454071,2.458834261856079,10.30183597454071,2.457004261856079,10.296835974540711,2.455044261856079C9.57516597454071,2.156046261856079,8.798835974540712,2.0000462618560793,8.00016597454071,2.0000462618560793C4.68649597454071,2.0000462618560793,2.0001629745407103,4.686374261856079,2.0001629745407103,8.000044261856079C2.0001629745407103,11.313714261856079,4.68649597454071,14.00007426185608,8.00016597454071,14.00007426185608C11.31383597454071,14.00007426185608,14.000195974540711,11.313714261856079,14.000195974540711,8.000044261856079C14.000195974540711,7.950954261856079,13.99969597454071,7.901854261856079,13.998595974540711,7.852784261856079C13.99739597454071,7.803704261856079,13.99569597454071,7.754644261856079,13.993295974540711,7.7055942618560795C13.990995974540711,7.656544261856079,13.987995974540711,7.607544261856079,13.98449597454071,7.558574261856079C13.98089597454071,7.509604261856079,13.97679597454071,7.460684261856079,13.971995974540711,7.411824261856079C13.96719597454071,7.362964261856079,13.96189597454071,7.314154261856079,13.955895974540711,7.265424261856079C13.94999597454071,7.216684261856079,13.94339597454071,7.168044261856079,13.93629597454071,7.119464261856079C13.92909597454071,7.070894261856079,13.92129597454071,7.022424261856079,13.91299597454071,6.974044261856079C13.90459597454071,6.925654261856079,13.895695974540711,6.877394261856079,13.88619597454071,6.8292342618560795C13.876595974540711,6.781064261856079,13.86649597454071,6.733034261856079,13.85579597454071,6.685124261856079C13.84499597454071,6.637204261856079,13.83369597454071,6.589434261856079,13.821795974540711,6.5418142618560795C13.80989597454071,6.494174261856079,13.797395974540711,6.4467042618560795,13.784395974540711,6.399374261856079C13.77129597454071,6.352044261856079,13.75759597454071,6.304894261856079,13.74339597454071,6.257904261856079C13.72919597454071,6.210924261856079,13.714395974540711,6.164104261856079,13.698995974540711,6.117484261856079C13.68359597454071,6.070854261856079,13.66759597454071,6.024434261856079,13.651095974540711,5.978204261856079C13.63459597454071,5.931964261856079,13.617495974540711,5.885954261856079,13.59979597454071,5.8401442618560795C13.58219597454071,5.7943242618560795,13.56399597454071,5.748734261856079,13.545195974540711,5.703374261856079C13.54319597454071,5.698354261856079,13.54139597454071,5.693314261856079,13.539695974540711,5.688204261856079C13.53799597454071,5.683094261856079,13.53639597454071,5.677954261856079,13.53489597454071,5.672784261856079C13.53349597454071,5.667604261856079,13.532095974540711,5.662394261856079,13.53089597454071,5.657154261856079C13.52969597454071,5.651904261856079,13.52859597454071,5.646644261856079,13.52769597454071,5.641344261856079C13.52669597454071,5.636044261856079,13.52589597454071,5.630734261856079,13.525195974540711,5.625394261856079C13.524495974540711,5.620064261856079,13.52389597454071,5.614704261856079,13.52349597454071,5.609344261856079C13.52309597454071,5.603984261856079,13.52269597454071,5.598604261856079,13.52259597454071,5.593234261856079C13.52239597454071,5.587854261856079,13.52239597454071,5.582484261856079,13.52249597454071,5.577094261856079C13.52249597454071,5.571714261856079,13.52269597454071,5.566344261856079,13.52309597454071,5.560964261856079C13.52339597454071,5.555604261856079,13.52389597454071,5.550254261856079,13.524495974540711,5.544904261856079C13.52509597454071,5.539544261856079,13.52579597454071,5.5342142618560795,13.52669597454071,5.528904261856079C13.527595974540711,5.523594261856079,13.52859597454071,5.518314261856079,13.52969597454071,5.513044261856079C13.53079597454071,5.507784261856079,13.53199597454071,5.502544261856079,13.53339597454071,5.497344261856079C13.53479597454071,5.492144261856079,13.53629597454071,5.486984261856079,13.53789597454071,5.481844261856079C13.53949597454071,5.476714261856079,13.541295974540711,5.471624261856079,13.54309597454071,5.4665742618560795C13.54499597454071,5.461534261856079,13.54699597454071,5.456544261856079,13.54909597454071,5.451594261856079C13.551195974540711,5.446644261856079,13.553395974540711,5.441734261856079,13.555795974540711,5.436904261856079C13.558095974540711,5.4320642618560795,13.56059597454071,5.427284261856079,13.56319597454071,5.422544261856079Q13.56699597454071,5.415464261856079,13.57129597454071,5.408574261856079C13.573995974540711,5.403984261856079,13.57699597454071,5.399464261856079,13.57999597454071,5.395014261856079C13.58299597454071,5.390564261856079,13.58609597454071,5.386184261856079,13.589395974540711,5.381894261856079C13.59259597454071,5.377594261856079,13.59599597454071,5.373374261856079,13.59939597454071,5.369234261856079C13.60279597454071,5.365094261856079,13.60639597454071,5.361044261856079,13.60999597454071,5.357074261856079C13.61359597454071,5.353104261856079,13.61739597454071,5.349234261856079,13.62119597454071,5.345454261856079C13.62499597454071,5.341654261856079,13.628895974540711,5.337964261856079,13.63289597454071,5.334374261856079C13.63689597454071,5.3307842618560795,13.64099597454071,5.327284261856079,13.64519597454071,5.323874261856079C13.64939597454071,5.320484261856079,13.65359597454071,5.317184261856079,13.657995974540711,5.313994261856079C13.66229597454071,5.3107942618560795,13.66669597454071,5.307714261856079,13.67119597454071,5.304734261856079C13.67559597454071,5.301744261856079,13.68019597454071,5.298894261856079,13.68479597454071,5.296124261856079C13.68939597454071,5.293354261856079,13.69409597454071,5.290714261856079,13.69889597454071,5.288184261856079C13.703595974540711,5.285654261856079,13.70839597454071,5.283234261856079,13.71329597454071,5.280934261856079C13.718195974540711,5.278644261856079,13.72309597454071,5.276464261856079,13.727995974540711,5.274404261856079C13.73299597454071,5.2723442618560785,13.737995974540711,5.270404261856079,13.74309597454071,5.268574261856079C13.74819597454071,5.266764261856079,13.75329597454071,5.265074261856079,13.75839597454071,5.26349426185608C13.76349597454071,5.261924261856079,13.76869597454071,5.260484261856079,13.77399597454071,5.259154261856079C13.77919597454071,5.257844261856079,13.784395974540711,5.256654261856079,13.789695974540711,5.255574261856079C13.79499597454071,5.2545142618560785,13.80029597454071,5.253574261856079,13.80559597454071,5.252764261856079C13.81089597454071,5.2519542618560795,13.81619597454071,5.251264261856079,13.82159597454071,5.2507142618560785C13.82689597454071,5.250174261856079,13.83229597454071,5.249764261856079,13.837695974540711,5.24946426185608C13.84299597454071,5.249174261856079,13.848395974540711,5.249014261856079,13.853795974540711,5.248984261856079C13.859195974540711,5.248954261856079,13.86459597454071,5.2490442618560795,13.86989597454071,5.249284261856079C13.87529597454071,5.2495142618560795,13.88069597454071,5.249874261856079,13.88599597454071,5.25035426185608C13.89139597454071,5.250844261856079,13.89669597454071,5.2514642618560785,13.90209597454071,5.252204261856079C13.90739597454071,5.252954261856079,13.91269597454071,5.25382426185608,13.91799597454071,5.2548442618560784C13.92329597454071,5.25584426185608,13.928495974540711,5.256964261856079,13.933795974540711,5.258234261856079C13.93899597454071,5.25950426185608,13.94419597454071,5.260874261856079,13.94939597454071,5.262394261856079C13.954495974540711,5.263904261856079,13.95959597454071,5.265534261856079,13.96469597454071,5.26729426185608C13.96979597454071,5.269064261856079,13.974895974540711,5.270934261856079,13.97989597454071,5.272934261856079C13.984795974540711,5.274954261856079,13.98979597454071,5.277074261856079,13.99469597454071,5.279314261856079C13.99959597454071,5.281544261856079,14.00439597454071,5.28390426185608,14.009195974540711,5.2863942618560795C14.01399597454071,5.288874261856079,14.01869597454071,5.291464261856079,14.02329597454071,5.294174261856079C14.02799597454071,5.296874261856079,14.03259597454071,5.299684261856079,14.03709597454071,5.302604261856079C14.04159597454071,5.30553426185608,14.04599597454071,5.308574261856079,14.050395974540711,5.311714261856079C14.05479597454071,5.314854261856079,14.05899597454071,5.318104261856079,14.06329597454071,5.321454261856079C14.06749597454071,5.324814261856079,14.07159597454071,5.328264261856079,14.07569597454071,5.3318142618560795C14.07969597454071,5.335354261856079,14.08359597454071,5.339014261856079,14.08749597454071,5.342754261856079C14.09139597454071,5.346484261856079,14.09519597454071,5.350324261856079,14.09879597454071,5.3542442618560795C14.10249597454071,5.358174261856079,14.106095974540711,5.3621742618560795,14.10959597454071,5.366284261856079C14.11309597454071,5.370374261856079,14.11649597454071,5.374544261856079,14.119795974540711,5.378814261856079C14.12299597454071,5.383074261856079,14.12619597454071,5.387424261856079,14.12929597454071,5.391824261856079C14.13239597454071,5.396244261856079,14.13529597454071,5.400734261856079,14.13819597454071,5.4052942618560795C14.14099597454071,5.409854261856079,14.14379597454071,5.414484261856079,14.146395974540711,5.419174261856079C14.14899597454071,5.423874261856079,14.15159597454071,5.428624261856079,14.15399597454071,5.433434261856079C14.156395974540711,5.438254261856079,14.158695974540711,5.443124261856079,14.16079597454071,5.448044261856079C14.49349597454071,6.250044261856079,14.66679597454071,7.113374261856079,14.66679597454071,8.000044261856079C14.66679597454071,11.682074261856078,11.68219597454071,14.666674261856079,8.00016597454071,14.666674261856079C4.31816597454071,14.666674261856079,1.3334959745407104,11.682074261856078,1.3334959745407104,8.000044261856079C1.3334959745407104,4.318044261856079,4.31816597454071,1.3333792224460792,8.00016597454071,1.3333792224460792C8.05471597454071,1.3333125843560791,8.10926597454071,1.3339173328560792,8.163805974540711,1.335193351856079C8.218335974540711,1.3364693718560792,8.27286597454071,1.3384167618560792,8.327375974540711,1.3410355618560792C8.38185597454071,1.3436542618560792,8.43630597454071,1.346943361856079,8.49072597454071,1.3509027618560792C8.54513597454071,1.3548609618560792,8.59947597454071,1.359489261856079,8.65379597454071,1.3647870618560791C8.708085974540712,1.370084961856079,8.76230597454071,1.376049961856079,8.81646597454071,1.382682361856079C8.870625974540712,1.389314661856079,8.924685974540711,1.396612661856079,8.978655974540711,1.4045760618560792C9.032615974540711,1.412540761856079,9.086475974540711,1.4211677618560792,9.140245974540711,1.430457461856079C9.19399597454071,1.4397472618560792,9.24763597454071,1.449697261856079,9.30116597454071,1.4603092618560791C9.35466597454071,1.4709192618560791,9.40804597454071,1.4821872618560792,9.461295974540711,1.494111261856079C9.51452597454071,1.5060362618560792,9.56760597454071,1.518615261856079,9.620545974540711,1.531846261856079C9.67346597454071,1.5450792618560791,9.726215974540711,1.558958261856079,9.77880597454071,1.573483261856079C9.83138597454071,1.588015261856079,9.88379597454071,1.6031932618560791,9.93601597454071,1.6190152618560791C9.98821597454071,1.634838261856079,10.040215974540711,1.651302261856079,10.09202597454071,1.6684052618560792C10.14383597454071,1.685510261856079,10.19541597454071,1.703244261856079,10.24679597454071,1.721608261856079Q10.323855974540711,1.749171261856079,10.40021597454071,1.7786082618560792ZM7.66683597454071,5.003064261856079C7.66683597454071,4.997614261856079,7.666965974540711,4.992164261856079,7.6672259745407105,4.9867042618560795C7.66749597454071,4.981254261856079,7.6679059745407105,4.97581426185608,7.66843597454071,4.970394261856079C7.66896597454071,4.96497426185608,7.669635974540711,4.959554261856079,7.67044597454071,4.954164261856079C7.67122597454071,4.948774261856079,7.67216597454071,4.9433942618560796,7.673245974540711,4.938034261856079C7.674305974540711,4.932674261856079,7.67549597454071,4.927364261856079,7.67682597454071,4.922064261856079C7.6781359745407105,4.916774261856079,7.679585974540711,4.911524261856079,7.6811859745407105,4.906304261856079C7.68276597454071,4.901084261856079,7.68447597454071,4.895914261856079,7.68632597454071,4.8907742618560786C7.68815597454071,4.8856342618560795,7.690115974540711,4.880554261856079,7.69221597454071,4.875504261856079C7.694295974540711,4.870454261856079,7.696495974540711,4.865474261856079,7.69883597454071,4.860554261856079C7.701165974540711,4.855614261856079,7.7036159745407105,4.850734261856079,7.7061959745407105,4.845944261856079Q7.71004597454071,4.838724261856079,7.7142659745407105,4.831694261856079C7.717055974540711,4.82702426185608,7.71997597454071,4.822414261856079,7.7230159745407105,4.817884261856079C7.72604597454071,4.813334261856079,7.7291859745407105,4.808884261856079,7.73243597454071,4.80450426185608C7.7356859745407105,4.800114261856079,7.73902597454071,4.795814261856079,7.74249597454071,4.791594261856079C7.74594597454071,4.787384261856079,7.74951597454071,4.783254261856079,7.753185974540711,4.779204261856079C7.75683597454071,4.775164261856079,7.76060597454071,4.771224261856079,7.764465974540711,4.767364261856079C7.76830597454071,4.763504261856079,7.77226597454071,4.759754261856079,7.77630597454071,4.7560842618560795C7.78033597454071,4.752414261856079,7.784475974540711,4.748844261856079,7.78869597454071,4.745394261856079C7.79291597454071,4.741944261856079,7.797215974540711,4.738584261856079,7.801605974540711,4.735334261856079C7.8059759745407105,4.7320842618560786,7.81043597454071,4.728944261856079,7.814975974540711,4.725914261856079C7.81951597454071,4.722884261856079,7.824105974540711,4.7199542618560795,7.828795974540711,4.7171642618560785C7.83347597454071,4.71436426185608,7.838225974540711,4.7116742618560785,7.84304597454071,4.7090942618560785C7.84783597454071,4.706524261856079,7.85271597454071,4.704064261856079,7.857655974540711,4.701734261856079C7.862575974540711,4.699414261856079,7.867555974540711,4.69719426185608,7.87260597454071,4.695114261856079C7.87763597454071,4.693024261856079,7.88272597454071,4.691054261856079,7.88786597454071,4.689224261856079C7.89299597454071,4.68738426185608,7.89818597454071,4.685664261856079,7.903405974540711,4.6840842618560785C7.9086159745407105,4.68250426185608,7.913865974540711,4.6810542618560795,7.919165974540711,4.679724261856079C7.924445974540711,4.678394261856079,7.929775974540711,4.67720426185608,7.93513597454071,4.676144261856079C7.9404759745407105,4.675064261856079,7.94585597454071,4.674144261856079,7.951265974540711,4.673344261856079C7.956655974540711,4.672554261856079,7.962055974540711,4.6718842618560785,7.967495974540711,4.671334261856079C7.972915974540711,4.6708042618560786,7.978355974540711,4.670394261856079,7.983805974540711,4.670134261856079C7.989245974540711,4.669864261856079,7.9946959745407105,4.669734261856079,8.00016597454071,4.669734261856079C8.00561597454071,4.669734261856079,8.01107597454071,4.669864261856079,8.01652597454071,4.670134261856079C8.02196597454071,4.670394261856079,8.02740597454071,4.6708042618560786,8.03283597454071,4.671334261856079C8.03826597454071,4.6718842618560785,8.04366597454071,4.672554261856079,8.04907597454071,4.673344261856079C8.054465974540712,4.674144261856079,8.05983597454071,4.675064261856079,8.06519597454071,4.676144261856079C8.07054597454071,4.67720426185608,8.075865974540712,4.678394261856079,8.08116597454071,4.679724261856079C8.08644597454071,4.6810542618560795,8.09171597454071,4.68250426185608,8.09693597454071,4.6840842618560785C8.102155974540711,4.685664261856079,8.10732597454071,4.68738426185608,8.112465974540711,4.689224261856079C8.11758597454071,4.691054261856079,8.12268597454071,4.693024261856079,8.12772597454071,4.695114261856079C8.13276597454071,4.69719426185608,8.13774597454071,4.699414261856079,8.142685974540711,4.701734261856079C8.14760597454071,4.704064261856079,8.15247597454071,4.706524261856079,8.15729597454071,4.7090942618560785C8.162105974540712,4.7116742618560785,8.16683597454071,4.71436426185608,8.17152597454071,4.7171642618560785C8.17621597454071,4.7199542618560795,8.18082597454071,4.722884261856079,8.18535597454071,4.725914261856079C8.189885974540712,4.728944261856079,8.19433597454071,4.7320842618560786,8.19872597454071,4.735334261856079C8.20310597454071,4.738584261856079,8.20741597454071,4.741944261856079,8.21163597454071,4.745394261856079C8.21585597454071,4.748844261856079,8.21997597454071,4.752414261856079,8.22402597454071,4.7560842618560795C8.22805597454071,4.759754261856079,8.232015974540712,4.763504261856079,8.235865974540712,4.767364261856079C8.239715974540712,4.771224261856079,8.243475974540711,4.775164261856079,8.24715597454071,4.779204261856079C8.250805974540711,4.783254261856079,8.254365974540711,4.787384261856079,8.257835974540711,4.791594261856079C8.261295974540712,4.795814261856079,8.26465597454071,4.800114261856079,8.26790597454071,4.80450426185608C8.271155974540711,4.808884261856079,8.27429597454071,4.813334261856079,8.27732597454071,4.817884261856079C8.280355974540711,4.822414261856079,8.283265974540711,4.82702426185608,8.286075974540712,4.831694261856079Q8.29026597454071,4.838724261856079,8.29413597454071,4.845944261856079C8.296695974540711,4.850734261856079,8.29915597454071,4.855614261856079,8.30149597454071,4.860554261856079C8.303825974540711,4.865474261856079,8.30602597454071,4.870454261856079,8.30811597454071,4.875504261856079C8.31021597454071,4.880554261856079,8.312165974540711,4.8856342618560795,8.31401597454071,4.8907742618560786C8.31585597454071,4.895914261856079,8.31755597454071,4.901084261856079,8.31915597454071,4.906304261856079C8.32072597454071,4.911524261856079,8.32218597454071,4.916774261856079,8.323515974540712,4.922064261856079C8.32482597454071,4.927364261856079,8.32602597454071,4.932674261856079,8.327085974540712,4.938034261856079C8.32815597454071,4.9433942618560796,8.32908597454071,4.948774261856079,8.32988597454071,4.954164261856079C8.33068597454071,4.959554261856079,8.33135597454071,4.96497426185608,8.33190597454071,4.970394261856079C8.332435974540711,4.97581426185608,8.332825974540711,4.981254261856079,8.333105974540711,4.9867042618560795C8.33335597454071,4.992164261856079,8.33349597454071,4.997614261856079,8.33349597454071,5.003064261856079L8.33349597454071,5.663734261856079C8.33349597454071,5.669194261856079,8.33335597454071,5.674634261856079,8.333105974540711,5.680084261856079C8.332825974540711,5.685534261856079,8.332435974540711,5.690974261856079,8.33190597454071,5.696414261856079C8.33135597454071,5.701834261856079,8.33068597454071,5.707254261856079,8.32988597454071,5.712644261856079C8.32908597454071,5.718034261856079,8.32815597454071,5.723414261856079,8.327085974540712,5.7287742618560795C8.32602597454071,5.734114261856079,8.32482597454071,5.739424261856079,8.323515974540712,5.744724261856079C8.32218597454071,5.750024261856079,8.32072597454071,5.755274261856079,8.31915597454071,5.760484261856079C8.31755597454071,5.765724261856079,8.31585597454071,5.770894261856079,8.31401597454071,5.776034261856079C8.312165974540711,5.781174261856079,8.31021597454071,5.7862542618560795,8.30811597454071,5.791284261856079C8.30602597454071,5.796334261856079,8.303825974540711,5.801314261856079,8.30149597454071,5.806254261856079C8.29915597454071,5.811174261856079,8.296695974540711,5.816054261856079,8.29413597454071,5.820864261856079C8.29155597454071,5.825674261856079,8.28886597454071,5.830424261856079,8.286075974540712,5.835094261856079C8.283265974540711,5.839774261856079,8.280355974540711,5.844384261856079,8.27732597454071,5.848924261856079C8.27429597454071,5.853454261856079,8.271155974540711,5.857914261856079,8.26790597454071,5.862304261856079C8.26465597454071,5.866694261856079,8.261295974540712,5.870984261856079,8.257835974540711,5.8751942618560795C8.254365974540711,5.879414261856079,8.250805974540711,5.883534261856079,8.24715597454071,5.887584261856079C8.243475974540711,5.891634261856079,8.239715974540712,5.895584261856079,8.235865974540712,5.899444261856079C8.232015974540712,5.903304261856079,8.22805597454071,5.9070542618560795,8.22402597454071,5.910724261856079C8.21997597454071,5.914384261856079,8.21585597454071,5.917944261856079,8.21163597454071,5.921414261856079C8.20741597454071,5.924864261856079,8.20310597454071,5.928224261856079,8.19872597454071,5.931474261856079C8.19435597454071,5.934724261856079,8.189885974540712,5.937864261856079,8.18535597454071,5.940894261856079C8.18082597454071,5.943924261856079,8.17621597454071,5.9468442618560795,8.17152597454071,5.949644261856079C8.16683597454071,5.952444261856079,8.162105974540712,5.955134261856079,8.15729597454071,5.957704261856079C8.15247597454071,5.960284261856079,8.14761597454071,5.962734261856079,8.142685974540711,5.965064261856079C8.13774597454071,5.967394261856079,8.13276597454071,5.969614261856079,8.12772597454071,5.971694261856079C8.12268597454071,5.973774261856079,8.11758597454071,5.975734261856079,8.112465974540711,5.977584261856079C8.10732597454071,5.979414261856079,8.102155974540711,5.981134261856079,8.09693597454071,5.982704261856079C8.09171597454071,5.984284261856079,8.08644597454071,5.985754261856079,8.08116597454071,5.987084261856079C8.075865974540712,5.988414261856079,8.07054597454071,5.989594261856079,8.06519597454071,5.990664261856079C8.05983597454071,5.9917242618560795,8.054465974540712,5.9926642618560795,8.04907597454071,5.993454261856079C8.04366597454071,5.994254261856079,8.03826597454071,5.994924261856079,8.03283597454071,5.995454261856079C8.02740597454071,5.996004261856079,8.02196597454071,5.9963942618560795,8.01652597454071,5.996664261856079C8.01107597454071,5.996924261856079,8.00561597454071,5.997064261856079,8.00016597454071,5.997064261856079C7.9946959745407105,5.997064261856079,7.989245974540711,5.996924261856079,7.983805974540711,5.996664261856079C7.978355974540711,5.9963942618560795,7.972915974540711,5.996004261856079,7.967495974540711,5.995454261856079C7.962055974540711,5.994924261856079,7.956655974540711,5.994254261856079,7.951265974540711,5.993454261856079C7.94585597454071,5.9926642618560795,7.9404759745407105,5.9917242618560795,7.93513597454071,5.990664261856079C7.929775974540711,5.989594261856079,7.924445974540711,5.988414261856079,7.919165974540711,5.987084261856079C7.913865974540711,5.985754261856079,7.9086159745407105,5.984284261856079,7.903405974540711,5.982704261856079C7.89818597454071,5.981134261856079,7.89299597454071,5.979414261856079,7.88786597454071,5.977584261856079C7.88272597454071,5.975734261856079,7.87763597454071,5.973774261856079,7.87260597454071,5.971694261856079C7.867555974540711,5.969614261856079,7.862575974540711,5.967394261856079,7.857655974540711,5.965064261856079C7.85271597454071,5.962734261856079,7.84783597454071,5.960284261856079,7.84304597454071,5.957704261856079C7.838225974540711,5.955134261856079,7.83347597454071,5.952444261856079,7.828795974540711,5.949644261856079C7.824105974540711,5.9468442618560795,7.81951597454071,5.943924261856079,7.814975974540711,5.940894261856079C7.81043597454071,5.937864261856079,7.8059759745407105,5.934724261856079,7.801605974540711,5.931474261856079C7.797215974540711,5.928224261856079,7.79291597454071,5.924864261856079,7.78869597454071,5.921414261856079C7.784475974540711,5.917944261856079,7.78033597454071,5.914384261856079,7.77630597454071,5.910724261856079C7.77226597454071,5.9070542618560795,7.76830597454071,5.903304261856079,7.764465974540711,5.899444261856079C7.76060597454071,5.895584261856079,7.75683597454071,5.891634261856079,7.753185974540711,5.887584261856079C7.74951597454071,5.883534261856079,7.74594597454071,5.879414261856079,7.74249597454071,5.8751942618560795C7.73902597454071,5.870984261856079,7.7356859745407105,5.866694261856079,7.73243597454071,5.862304261856079C7.7291859745407105,5.857914261856079,7.72604597454071,5.853454261856079,7.7230159745407105,5.848924261856079C7.71997597454071,5.844384261856079,7.717055974540711,5.839774261856079,7.7142659745407105,5.835094261856079C7.711445974540711,5.830424261856079,7.708765974540711,5.825674261856079,7.7061959745407105,5.820864261856079C7.7036159745407105,5.816054261856079,7.701165974540711,5.811174261856079,7.69883597454071,5.806254261856079C7.696495974540711,5.801314261856079,7.694295974540711,5.796334261856079,7.69221597454071,5.791284261856079C7.690115974540711,5.7862542618560795,7.68815597454071,5.781174261856079,7.68632597454071,5.776034261856079C7.68447597454071,5.770894261856079,7.68276597454071,5.765724261856079,7.6811859745407105,5.760484261856079C7.679585974540711,5.755274261856079,7.6781359745407105,5.750024261856079,7.67682597454071,5.744724261856079C7.67549597454071,5.739424261856079,7.674305974540711,5.734114261856079,7.673245974540711,5.7287742618560795C7.67216597454071,5.723414261856079,7.67122597454071,5.718034261856079,7.67044597454071,5.712644261856079C7.669635974540711,5.707254261856079,7.66896597454071,5.701834261856079,7.66843597454071,5.696414261856079C7.6679059745407105,5.690974261856079,7.66749597454071,5.685534261856079,7.6672259745407105,5.680084261856079C7.666965974540711,5.674634261856079,7.66683597454071,5.669194261856079,7.66683597454071,5.663734261856079L7.66683597454071,5.003064261856079ZM7.66683597454071,7.002404261856079C7.66683597454071,6.817074261856079,7.814835974540711,6.6667442618560795,8.00016597454071,6.6667442618560795C8.184165974540711,6.6667442618560795,8.33349597454071,6.816744261856079,8.33349597454071,7.002404261856079L8.33349597454071,10.997744261856079C8.33349597454071,11.18340426185608,8.18549597454071,11.333374261856079,8.00016597454071,11.333374261856079C7.81616597454071,11.333374261856079,7.66683597454071,11.18340426185608,7.66683597454071,10.997744261856079L7.66683597454071,7.002404261856079Z" fill-rule="evenodd" fill="#F26A16" fill-opacity="1"/></g></g></svg>