<svg xmlns="http://www.w3.org/2000/svg" xmlns:xlink="http://www.w3.org/1999/xlink" width="64" height="59.7333984375" viewBox="0 0 64 59.7333984375" fill="none">
<path d="M46.1694 22.9854L50.6238 22.9854L50.6238 30.8582L54.5406 30.8582L54.5406 34.5378L46.1438 34.5378L46.1438 23.069C46.1438 23.0332 46.1438 22.9973 46.1694 22.9854ZM29.0686 22.2925C30.0158 22.8779 30.9758 23.4394 31.859 24.0725C29.8621 25.2433 27.891 26.4619 25.8942 27.6446C26.2014 27.8597 26.547 28.0389 26.8414 28.2539C28.8638 27.0592 30.8734 25.8765 32.8701 24.6818C33.7661 25.1955 34.6621 25.7331 35.4814 26.3185C33.4718 27.5013 31.539 28.7437 29.5421 29.9384C29.8366 30.1653 30.2078 30.3326 30.5278 30.5237C32.5886 29.353 34.5854 28.1344 36.6078 26.9278L36.6078 22.9854L41.0621 22.9854L41.0621 30.8344C42.3166 30.8941 43.7118 30.8344 45.0174 30.8582L45.0174 34.5378L36.6078 34.5378L36.6078 30.7985C34.1501 32.2082 31.6158 33.7852 29.1326 35.2666C26.547 33.7016 24.051 32.041 21.4782 30.476C20.723 32.6861 18.9438 34.3467 16.0126 34.5378C14.1822 34.6693 12.0958 34.4542 9.9851 34.5378L9.9851 22.9854C12.6244 23.1526 15.5262 22.6629 17.6126 23.2721C19.4686 23.7978 20.7742 25.1836 21.3886 26.892C23.9614 25.3867 26.5086 23.8336 29.0686 22.2925ZM14.2334 26.7008L14.2334 30.8582C15.2958 30.8582 16.1022 30.918 16.7294 30.476C17.651 29.795 17.843 28.1464 17.0238 27.2623C16.4734 26.665 15.539 26.5455 14.259 26.6172C14.2206 26.6291 14.2334 26.665 14.2334 26.7008ZM30.8861 1.84937L32.7294 1.84937C41.6766 2.32007 48.0638 5.4931 52.7869 9.93967C57.5229 14.3838 61.0174 20.2496 61.4909 28.6362L61.4909 30.3087C61.0301 38.8267 57.4718 44.4536 52.7869 49.0291C47.8718 53.3777 41.8301 56.675 32.691 57.0931L30.8861 57.0931C21.9262 56.6272 15.5518 53.4494 10.8158 49.0053C6.0836 44.5611 2.58536 38.6953 2.11816 30.3087L2.11816 28.6362C2.1412 28.6362 2.15273 28.6242 2.1476 28.5884C2.5956 20.2257 6.11304 14.3002 10.8158 9.91214C15.539 5.50146 21.9902 2.30573 30.8861 1.84937L30.8861 1.84937ZM25.0622 5.81089C23.2958 6.25173 21.7214 6.81202 20.2878 7.47387C15.923 9.48805 12.3236 12.3648 9.80716 16.0683C7.35082 19.6642 5.22344 24.3115 5.53192 30.3923C5.72648 34.2272 6.66345 37.4409 8.14439 40.2005C11.068 45.6243 15.5262 49.6265 21.683 52.0517C24.7294 53.2582 28.5054 54.0945 32.755 53.9153C36.8381 53.7242 40.371 52.876 43.2894 51.5021C49.0238 48.8021 53.5549 44.6566 56.0638 38.9222C57.3309 36.0192 58.2781 32.6741 58.0734 28.6123C57.6894 20.9306 54.3358 15.7099 49.907 11.74C47.7309 9.7736 45.0941 8.10106 41.9838 6.89205C38.9758 5.7189 35.059 4.84918 30.8606 5.03555C28.787 5.12754 26.8414 5.36647 25.0622 5.81089Z"   fill="#FFFFFF" >
</path>
</svg>
