<svg xmlns="http://www.w3.org/2000/svg" xmlns:xlink="http://www.w3.org/1999/xlink" width="13.7960205078125" height="14.9677734375" viewBox="0 0 13.7960205078125 14.9677734375" fill="none">
<path d="M8.8459 9.16039C9.07588 9.25033 9.30004 9.35295 9.51836 9.46828C9.78875 9.61109 9.89219 9.94607 9.74937 10.2165C9.60656 10.4869 9.27158 10.5903 9.00117 10.4475C8.22334 10.0367 7.35555 9.819 6.45519 9.819C3.82902 9.819 1.58887 11.6867 1.09749 14.232C1.03952 14.5322 0.749107 14.7287 0.448853 14.6707C0.14858 14.6127 -0.0478262 14.3223 0.0101426 14.0221C0.444459 11.7724 2.01228 9.96354 4.06539 9.16088C2.5709 8.32361 1.56085 6.72537 1.56085 4.89131C1.56085 2.18982 3.75221 0 6.45521 0C9.15818 0 11.3495 2.18984 11.3495 4.89131C11.3495 6.72502 10.3399 8.32299 8.8459 9.16039ZM10.2421 4.89131C10.2421 2.80162 8.54674 1.10742 6.45521 1.10742C4.36365 1.10742 2.66826 2.8016 2.66826 4.89131C2.66826 6.981 4.36365 8.67518 6.45521 8.67518C8.54674 8.67518 10.2421 6.98098 10.2421 4.89131ZM10.4901 11.6642L10.4901 10.0035C10.49 9.99129 10.4904 9.97908 10.4912 9.96689C10.492 9.95469 10.4932 9.94254 10.4948 9.93041C10.4964 9.9183 10.4984 9.90625 10.5008 9.89426C10.5032 9.88229 10.506 9.87039 10.5092 9.85859C10.5124 9.84678 10.5159 9.8351 10.5199 9.82353C10.5239 9.81197 10.5282 9.80057 10.5329 9.7893C10.5376 9.77803 10.5427 9.76691 10.5482 9.75598C10.5537 9.74504 10.5595 9.7343 10.5656 9.72375C10.5776 9.7033 10.5909 9.68369 10.6053 9.66492C10.6199 9.64615 10.6355 9.6284 10.6522 9.61164C10.669 9.59486 10.6868 9.57924 10.7055 9.56475C10.7243 9.55025 10.7439 9.53701 10.7644 9.52504C10.7749 9.51887 10.7857 9.51305 10.7966 9.5076C10.8075 9.50213 10.8186 9.49703 10.8299 9.49232C10.8412 9.4876 10.8526 9.48324 10.8642 9.47928C10.8757 9.47531 10.8874 9.47174 10.8992 9.46855C10.911 9.46537 10.9229 9.46258 10.9349 9.46018C10.9469 9.45777 10.9589 9.45578 10.971 9.45418C10.9832 9.4526 10.9953 9.45141 11.0075 9.45061C11.0197 9.4498 11.0319 9.44943 11.0441 9.44945C11.0564 9.44943 11.0686 9.4498 11.0808 9.45061C11.093 9.45141 11.1051 9.4526 11.1172 9.45418C11.1294 9.45578 11.1414 9.45777 11.1534 9.46018C11.1654 9.46258 11.1773 9.46537 11.1891 9.46855C11.2009 9.47174 11.2126 9.47531 11.2241 9.47928C11.2357 9.48324 11.2471 9.4876 11.2584 9.4923C11.2696 9.49703 11.2807 9.50213 11.2917 9.5076C11.3026 9.51305 11.3134 9.51887 11.3239 9.52504C11.3444 9.53701 11.364 9.55025 11.3827 9.56475C11.4015 9.57924 11.4193 9.59486 11.436 9.61164C11.4528 9.6284 11.4684 9.64615 11.4829 9.66492C11.4974 9.68369 11.5106 9.7033 11.5226 9.72375C11.5288 9.7343 11.5346 9.74504 11.5401 9.75598C11.5455 9.76691 11.5506 9.77803 11.5553 9.7893C11.5601 9.80057 11.5644 9.81197 11.5684 9.82353C11.5723 9.8351 11.5759 9.84678 11.5791 9.85859C11.5823 9.87039 11.5851 9.88229 11.5875 9.89426C11.5899 9.90625 11.5919 9.9183 11.5935 9.93041C11.5951 9.94254 11.5963 9.95469 11.597 9.96689C11.5978 9.97908 11.5982 9.99129 11.5982 10.0035L11.5982 11.6642L13.2423 11.6642C13.5481 11.6642 13.796 11.9121 13.796 12.2179C13.796 12.5236 13.5481 12.7715 13.2423 12.7715L11.5982 12.7715L11.5982 14.4137C11.5982 14.4259 11.5978 14.4381 11.597 14.4504C11.5962 14.4625 11.5951 14.4747 11.5935 14.4868C11.5919 14.4989 11.5899 14.511 11.5875 14.523C11.5851 14.5349 11.5823 14.5468 11.5791 14.5587C11.5759 14.5704 11.5723 14.5821 11.5684 14.5937C11.5644 14.6053 11.56 14.6167 11.5553 14.6279C11.5506 14.6392 11.5455 14.6503 11.54 14.6613C11.5346 14.6722 11.5288 14.6829 11.5226 14.6935C11.5106 14.7139 11.4974 14.7335 11.4829 14.7523C11.4684 14.7711 11.4528 14.7888 11.436 14.8056C11.4193 14.8224 11.4015 14.838 11.3827 14.8525C11.364 14.867 11.3444 14.8802 11.3239 14.8922C11.3134 14.8984 11.3026 14.9042 11.2917 14.9096C11.2807 14.9151 11.2696 14.9202 11.2584 14.9249C11.2471 14.9296 11.2357 14.934 11.2241 14.9379C11.2126 14.9419 11.2009 14.9455 11.1891 14.9487C11.1773 14.9519 11.1654 14.9546 11.1534 14.9571C11.1414 14.9595 11.1294 14.9614 11.1172 14.963C11.1051 14.9646 11.093 14.9658 11.0808 14.9666C11.0686 14.9674 11.0564 14.9678 11.0441 14.9678C11.0319 14.9678 11.0197 14.9674 11.0075 14.9666C10.9953 14.9658 10.9832 14.9646 10.971 14.963C10.9589 14.9614 10.9469 14.9595 10.9349 14.9571C10.9229 14.9546 10.911 14.9519 10.8992 14.9487C10.8874 14.9455 10.8757 14.9419 10.8642 14.9379C10.8526 14.934 10.8412 14.9296 10.8299 14.9249C10.8186 14.9202 10.8075 14.9151 10.7966 14.9096C10.7857 14.9042 10.7749 14.8984 10.7644 14.8922C10.7439 14.8802 10.7243 14.867 10.7055 14.8525C10.6868 14.838 10.669 14.8224 10.6522 14.8056C10.6355 14.7888 10.6199 14.7711 10.6054 14.7523C10.5909 14.7335 10.5776 14.7139 10.5656 14.6935C10.5595 14.6829 10.5537 14.6722 10.5482 14.6613C10.5427 14.6503 10.5377 14.6392 10.5329 14.6279C10.5282 14.6167 10.5239 14.6053 10.5199 14.5937C10.5159 14.5821 10.5124 14.5704 10.5092 14.5587C10.506 14.5468 10.5032 14.5349 10.5008 14.523C10.4984 14.511 10.4964 14.4989 10.4948 14.4868C10.4932 14.4747 10.492 14.4625 10.4912 14.4504C10.4904 14.4381 10.49 14.4259 10.4901 14.4137L10.4901 12.7715L8.82748 12.7715C8.5217 12.7715 8.27381 12.5236 8.27381 12.2179C8.27381 11.9121 8.5217 11.6642 8.82748 11.6642L10.4901 11.6642Z"   fill="#FFFFFF" >
</path>
</svg>
