<svg xmlns="http://www.w3.org/2000/svg" xmlns:xlink="http://www.w3.org/1999/xlink" fill="none" version="1.1" width="21.9876708984375" height="19.21246337890625" viewBox="0 0 21.9876708984375 19.21246337890625"><g><g><path d="M10.9938790625,6.03821C11.4055690625,6.03821,11.8172690625,5.90098,12.2289690625,5.76374C12.0917290625,5.48928,11.9544990625,5.07758,11.9544990625,4.52866L11.9544990625,3.56803C11.9544990625,2.60741,12.7778890625,1.78402,13.7385190625,1.78402L17.4437790625,1.78402L17.4437790625,0L13.3268190625,0C11.5428090625,0,10.0332530625,1.50955,10.0332530625,3.29357L10.0332530625,4.52866C10.0332530625,5.07758,9.8960210625,5.48928,9.7587890625,5.76374C10.1704850625,6.03821,10.5821810625,6.03821,10.9938790625,6.03821Z" fill="#FFFFFF" fill-opacity="1" style="mix-blend-mode:passthrough"/></g><g><path d="M17.7182,5.62650038671875C13.8757,4.80310838671875,13.8757,7.41051638671875,10.9938,7.41051638671875C8.11194,7.41051638671875,8.11194,4.66587538671875,4.26944,5.62649938671875C0.426943,6.58712638671875,-1.4943,19.21244638671875,1.38757,19.21244638671875C4.26944,19.21244638671875,6.19069,15.64444638671875,10.9938,15.64444638671875C15.7969,15.64444638671875,17.7182,19.21244638671875,20.6,19.21244638671875C23.4819,19.21244638671875,21.5607,6.58712638671875,17.7182,5.62650038671875ZM8.24917,12.762566386718749L6.46515,12.762566386718749L6.46515,14.54657638671875L4.5439,14.54657638671875L4.5439,12.762566386718749L2.75989,12.762566386718749L2.75989,10.978546386718751L4.5439,10.978546386718751L4.5439,9.19453638671875L6.32792,9.19453638671875L6.32792,10.978546386718751L8.24917,10.978546386718751L8.24917,12.762566386718749ZM16.4831,14.13488638671875C15.248,14.13488638671875,14.1501,13.17425638671875,14.1501,11.80193638671875C14.1501,10.429616386718749,15.248,9.606226386718749,16.4831,9.606226386718749C17.7182,9.606226386718749,18.816,10.566846386718751,18.816,11.93916638671875C18.816,13.31148638671875,17.7182,14.13488638671875,16.4831,14.13488638671875Z" fill="#FFFFFF" fill-opacity="1" style="mix-blend-mode:passthrough"/></g></g></svg>