<svg xmlns="http://www.w3.org/2000/svg" xmlns:xlink="http://www.w3.org/1999/xlink" width="44" height="40.2354736328125" viewBox="0 0 44 40.2354736328125" fill="none">
<path d="M43.9995 20.1128C43.9995 20.9096 43.2928 21.5559 42.4214 21.5559L39.3426 21.5559L39.3426 27.335L42.4219 27.335C43.2933 27.335 44 27.9813 44 28.7782C44 29.575 43.2933 30.2213 42.4219 30.2213L39.2449 30.2213C38.7301 33.1205 36.2199 35.4151 33.0488 35.8845L33.0488 38.7924C33.0488 39.5892 32.3421 40.2355 31.4707 40.2355C30.5993 40.2355 29.8926 39.5892 29.8926 38.7924L29.8926 35.9734L23.5835 35.9734L23.5835 38.7924C23.5835 39.5892 22.8768 40.2355 22.0054 40.2355C21.134 40.2355 20.4273 39.5892 20.4273 38.7924L20.4273 35.9734L14.1079 35.9734L14.1079 38.7924C14.1079 39.5892 13.4012 40.2355 12.5298 40.2355C11.6584 40.2355 10.9517 39.5892 10.9517 38.7924L10.9517 35.8854C7.77718 35.4182 5.26353 33.1223 4.74817 30.2208L1.57812 30.2208C0.706703 30.2208 0 29.5746 0 28.7777C0 27.9808 0.706703 27.3346 1.57812 27.3346L4.65053 27.3346L4.65053 21.5559L1.57812 21.5559C0.706703 21.5559 0 20.9096 0 20.1128C0 19.3159 0.706703 18.6697 1.57812 18.6697L4.65053 18.6697L4.65053 12.9004L1.57812 12.9004C0.706703 12.9004 0 12.2542 0 11.4573C0 10.6605 0.706703 10.0142 1.57812 10.0142L4.74571 10.0142C5.25564 7.10637 7.77225 4.80417 10.9512 4.33652L10.9512 1.4431C10.9512 0.646239 11.6579 0 12.5293 0C13.4007 0 14.1074 0.646239 14.1074 1.4431L14.1074 4.24903L20.4268 4.24903L20.4268 1.4431C20.4268 0.646239 21.1335 0 22.0049 0C22.8764 0 23.5831 0.646239 23.5831 1.4431L23.5831 4.24903L29.8921 4.24903L29.8921 1.4431C29.8921 0.646239 30.5988 0 31.4702 0C32.3416 0 33.0483 0.646239 33.0483 1.4431L33.0483 4.33787C36.2238 4.80778 38.737 7.10863 39.2469 10.0142L42.4214 10.0142C43.2928 10.0142 43.9995 10.6605 43.9995 11.4573C43.9995 12.2542 43.2928 12.9004 42.4214 12.9004L39.3421 12.9004L39.3421 18.6697L42.4214 18.6697C43.2928 18.6697 43.9995 19.3159 43.9995 20.1128ZM31.846 33.0867C34.2388 33.0867 36.1858 31.3063 36.1858 29.1182L36.1863 29.1182L36.1863 11.1038C36.1863 8.91566 34.2393 7.13523 31.8465 7.13523L12.1466 7.13523C9.75378 7.13523 7.80677 8.91566 7.80677 11.1038L7.80677 29.1182C7.80677 31.3063 9.75378 33.0867 12.1466 33.0867L31.846 33.0867ZM18.8623 12.916L25.1826 12.916C27.7929 12.916 29.917 14.8583 29.9165 17.2453L29.9165 23.0245C29.9165 25.4114 27.7924 27.3537 25.1821 27.3537L18.8623 27.3537C16.2519 27.3537 14.1279 25.4114 14.1279 23.0245L14.1279 17.2453C14.1279 14.8583 16.2519 12.916 18.8623 12.916ZM25.1826 24.4675C26.0526 24.4675 26.7607 23.82 26.7607 23.0245L26.7602 23.0245L26.7602 17.2453C26.7602 16.4493 26.0521 15.8022 25.1821 15.8022L18.8623 15.8022C17.9918 15.8022 17.2841 16.4493 17.2841 17.2453L17.2841 23.0245C17.2841 23.82 17.9918 24.4675 18.8623 24.4675L25.1826 24.4675Z" fill-rule="evenodd"  fill="url(#linear_fill_21_152)" >
</path>
<defs>
<linearGradient id="linear_fill_21_152" x1="0" y1="20.11767578125" x2="44" y2="20.11767578125" gradientUnits="userSpaceOnUse">
<stop offset="0" stop-color="#FFFFFF"  />
<stop offset="1" stop-color="#FFFFFF" stop-opacity="0.2" />
</linearGradient>
</defs>
</svg>
