<svg xmlns="http://www.w3.org/2000/svg" xmlns:xlink="http://www.w3.org/1999/xlink" width="119" height="37.061767578125" viewBox="0 0 119 37.061767578125" fill="none">
<path d="M15.2841 28.7494C19.7649 28.7494 23.137 27.3553 25.7802 24.7255C28.5012 22.125 29.3502 18.4848 29.3502 15.5395C29.3502 14.6249 29.274 13.7817 29.1271 13.0775L15.2841 13.0775L15.2841 17.0043L25.1202 17.0043C24.8263 19.2133 24.0501 20.8239 22.8796 21.9459C21.4448 23.3104 19.2152 24.8226 15.2841 24.8226C9.22478 24.8226 4.48109 20.1602 4.48109 14.3747C4.48109 8.58928 9.22478 3.92679 15.2841 3.92679C18.5504 3.92679 20.9338 5.15504 22.6937 6.7329L25.6036 3.96208C23.141 1.72097 19.8751 0 15.2841 0C6.98192 0 0 6.44751 0 14.3747C0 22.299 6.98192 28.7494 15.2841 28.7494ZM40.553 28.7494C45.9123 28.7494 50.2775 24.8253 50.2775 19.4928C50.2775 14.131 45.9123 10.2361 40.553 10.2361C35.1845 10.2361 30.8098 14.131 30.8098 19.4928C30.8098 24.8253 35.1845 28.7494 40.553 28.7494ZM40.553 25.105C37.6116 25.105 35.0678 22.7916 35.0678 19.4928C35.0678 16.1647 37.6116 13.8894 40.553 13.8894C43.4882 13.8894 46.0195 16.1647 46.0195 19.4928C46.0195 22.7916 43.4882 25.105 40.553 25.105ZM61.7777 28.7494C67.1403 28.7494 71.5116 24.8253 71.5116 19.4928C71.5116 14.131 67.1403 10.2361 61.7777 10.2361C56.4126 10.2361 52.0439 14.131 52.0439 19.4928C52.0439 24.8253 56.4126 28.7494 61.7777 28.7494ZM61.7777 25.105C58.8393 25.105 56.3019 22.7916 56.3019 19.4928C56.3019 16.1647 58.8393 13.8894 61.7777 13.8894C64.7161 13.8894 67.2536 16.1647 67.2536 19.4928C67.2536 22.7916 64.7161 25.105 61.7777 25.105ZM82.6399 37.0618C87.6319 37.0618 91.8624 34.2572 91.8624 27.4169L91.8624 10.8009L87.8183 10.8009L87.8183 12.3098L87.6695 12.3098C86.7117 11.2229 84.8732 10.2361 82.5655 10.2361C77.7141 10.2361 73.278 14.3036 73.278 19.528C73.278 24.7203 77.7141 28.7494 82.5655 28.7494C84.8732 28.7494 86.7117 27.7712 87.6695 26.6492L87.8183 26.6492L87.8183 27.9817C87.8183 31.526 85.8354 33.4174 82.6399 33.4174C80.0353 33.4174 78.4142 31.6307 77.7498 30.1171L74.0403 31.5908C75.1085 34.0482 77.9387 37.0618 82.6399 37.0618ZM82.9281 25.105C79.9933 25.105 77.5266 22.7568 77.5266 19.528C77.5266 16.2672 79.9933 13.8894 82.9281 13.8894C85.8328 13.8894 88.1158 16.2672 88.1158 19.528C88.1158 22.7568 85.8328 25.105 82.9281 25.105ZM99.0582 0.979491L94.8002 0.979491L94.8002 28.1935L99.0582 28.1935L99.0582 0.979491ZM110.735 28.7494C115.176 28.7494 117.749 26.1568 118.814 24.6461L115.504 22.5459C114.405 24.0829 112.902 25.105 110.735 25.105C108.568 25.105 107.019 24.1572 106.031 22.2989L119 17.1808L118.563 16.1307C117.755 14.062 115.29 10.2361 110.261 10.2361C105.266 10.2361 101.113 13.9937 101.113 19.4928C101.113 24.6851 105.226 28.7494 110.735 28.7494ZM105.334 19.2104C105.223 15.6368 108.243 13.8188 110.41 13.8188C112.099 13.8188 113.527 14.6206 114.008 15.7777L105.334 19.2104Z"   fill="#FFFFFF" >
</path>
</svg>
