<svg xmlns="http://www.w3.org/2000/svg" xmlns:xlink="http://www.w3.org/1999/xlink" fill="none" version="1.1" width="26" height="26" viewBox="0 0 26 26"><g><g><ellipse cx="13" cy="13" rx="12.5" ry="12.5" fill-opacity="0" stroke-opacity="0.800000011920929" stroke="#FFFFFF" fill="none" stroke-width="1"/></g><g><path d="M18.52934782180786,12.272000162506103Q18.40584782180786,12.257950162506104,18.308747821807863,12.131470162506105Q18.21174782180786,12.005000162506104,18.15874782180786,11.667750162506103Q18.070547821807864,11.119710162506102,17.70874782180786,10.859740162506103Q17.347047821807863,10.599780162506104,16.58824782180786,10.487360162506103Q15.794087821807862,10.360890162506104,15.18526782180786,9.974450162506104Q14.57644782180786,9.588010162506103,14.170557821807861,9.250760162506104Q13.782327821807861,8.955660162506103,13.570557821807862,9.039970162506103Q13.358797821807862,9.124290162506103,13.358797821807862,9.349120162506104L13.358797821807862,9.953370162506104L13.358797821807862,11.274290162506103Q13.358797821807862,12.061210162506104,13.349977821807862,12.974610162506103Q13.341147821807862,13.888010162506102,13.341147821807862,14.703040162506104L13.341147821807862,16.136380162506104L13.341147821807862,16.9374001625061Q13.358797821807862,17.274600162506104,13.208797821807861,17.689200162506104Q13.058797821807861,18.1037001625061,12.644087821807862,18.469100162506102Q12.229387821807862,18.834400162506103,11.541147821807861,19.094400162506105Q10.85291782180786,19.354300162506103,9.829387821807861,19.396500162506104Q8.78820782180786,19.4387001625061,7.949977821807861,19.101400162506103Q7.1117378218078615,18.764200162506103,6.652913821807862,18.2512001625061Q6.194090331807861,17.738300162506103,6.202914276807861,17.127100162506103Q6.211738221807861,16.515790162506104,6.864678821807861,15.981800162506104Q7.517617821807861,15.447810162506103,8.276447821807862,15.237030162506104Q9.035267821807862,15.026250162506104,9.74114782180786,15.005170162506104Q10.447027821807861,14.984090162506103,11.002917821807861,15.082460162506104Q11.558797821807861,15.180820162506103,11.823507821807862,15.265140162506103L11.823507821807862,11.288340162506103Q11.823507821807862,9.630170162506104,11.841147821807862,7.550430162506103Q11.841147821807862,7.142914162506104,12.105857821807861,6.882946162506103Q12.37055782180786,6.622979162506104,12.811737821807862,6.5808222625061035Q13.182327821807862,6.538665362506103,13.420557821807861,6.700267162506104Q13.658797821807863,6.861868162506104,13.90585782180786,7.149940162506104Q14.152917821807861,7.438012162506103,14.514677821807862,7.803370162506104Q14.876437821807862,8.168730162506103,15.494087821807861,8.520040162506103Q16.02349782180786,8.843240162506103,16.42054782180786,8.983760162506103Q16.81764782180786,9.124290162506103,17.16174782180786,9.243730162506104Q17.505847821807862,9.363180162506104,17.841147821807862,9.531800162506103Q18.176447821807862,9.700430162506104,18.58234782180786,10.079840162506104Q18.98824782180786,10.445200162506104,19.07644782180786,10.838670162506103Q19.16464782180786,11.232130162506103,19.08524782180786,11.555330162506102Q19.005847821807862,11.878540162506104,18.82934782180786,12.082290162506103Q18.652947821807864,12.286050162506104,18.52934782180786,12.272000162506103Z" fill="#FFFFFF" fill-opacity="0.800000011920929" style="mix-blend-mode:passthrough"/></g></g></svg>