<svg xmlns="http://www.w3.org/2000/svg" xmlns:xlink="http://www.w3.org/1999/xlink" width="16" height="16" viewBox="0 0 16 16" fill="none">
<g  clip-path="url(#clip-path-113_528)">
<path d="M8.00005 3.89786C10.9556 3.89786 13.6472 6.76897 14.6752 8.00008C13.6472 9.23119 10.9556 12.1023 8.00005 12.1023C5.04448 12.1023 2.35294 9.23119 1.32493 8.00008C2.35294 6.76897 5.04448 3.89786 8.00005 3.89786ZM8.00005 2.66675C4.33248 2.66675 1.22493 6.1663 0.176934 7.49564C0.169844 7.5045 0.162942 7.51351 0.156231 7.52267C0.149519 7.53183 0.143004 7.54112 0.136684 7.55054C0.130365 7.55997 0.124247 7.56953 0.11833 7.57923C0.112414 7.58892 0.106704 7.59873 0.101202 7.60865C0.0956991 7.61858 0.0904081 7.62862 0.0853289 7.63878C0.0802498 7.64894 0.0753869 7.65919 0.0707403 7.66954C0.0660938 7.6799 0.0616675 7.69036 0.0574616 7.7009C0.0532558 7.71145 0.0492741 7.72208 0.0455166 7.73279C0.0417591 7.7435 0.0382289 7.75429 0.0349263 7.76515C0.0316238 7.77601 0.0285514 7.78694 0.0257095 7.79794C0.0228678 7.80892 0.0202589 7.81997 0.017883 7.83106C0.0155071 7.84217 0.0133663 7.85331 0.0114605 7.86451C0.00955462 7.8757 0.00788555 7.88692 0.0064532 7.89819C0.00502086 7.90945 0.00382653 7.92073 0.00287022 7.93204C0.00191391 7.94336 0.00119645 7.95469 0.000717873 7.96603C0.000239291 7.97737 0 7.98872 0 8.00008C0 8.01144 0.000239291 8.02278 0.000717873 8.03412C0.00119645 8.04547 0.00191391 8.0568 0.00287022 8.06811C0.00382653 8.07942 0.00502086 8.0907 0.0064532 8.10197C0.00788555 8.11323 0.00955462 8.12445 0.0114605 8.13564C0.0133663 8.14684 0.0155071 8.15798 0.017883 8.16908C0.0202589 8.18019 0.0228678 8.19123 0.0257095 8.20222C0.0285514 8.2132 0.0316238 8.22414 0.0349263 8.235C0.0382289 8.24586 0.0417591 8.25665 0.0455166 8.26736C0.0492741 8.27808 0.0532558 8.2887 0.0574616 8.29925C0.0616675 8.3098 0.0660938 8.32025 0.0707403 8.33061C0.0753869 8.34097 0.0802498 8.35122 0.0853289 8.36137C0.0904081 8.37153 0.0956991 8.38158 0.101202 8.3915C0.106704 8.40142 0.112414 8.41123 0.11833 8.42092C0.124247 8.43062 0.130365 8.44019 0.136684 8.44961C0.143004 8.45903 0.149519 8.46833 0.156231 8.47748C0.162942 8.48664 0.169844 8.49565 0.176934 8.50451C1.22493 9.83386 4.33248 13.3334 8.00005 13.3334C11.6676 13.3334 14.7752 9.83386 15.8231 8.50451C15.8302 8.49565 15.8372 8.48664 15.8439 8.47748C15.8506 8.46833 15.857 8.45903 15.8634 8.44961C15.8697 8.44019 15.8758 8.43062 15.8817 8.42092C15.8877 8.41123 15.8934 8.40142 15.8989 8.3915C15.9044 8.38158 15.9097 8.37153 15.9147 8.36137C15.9198 8.35122 15.9247 8.34097 15.9294 8.33061C15.9339 8.32025 15.9384 8.3098 15.9427 8.29925C15.9469 8.2887 15.9508 8.27808 15.9545 8.26736C15.9583 8.25665 15.9619 8.24586 15.9652 8.235C15.9684 8.22414 15.9716 8.2132 15.9744 8.20222C15.9772 8.19123 15.9798 8.18019 15.9822 8.16908C15.9845 8.15798 15.9867 8.14684 15.9886 8.13564C15.9906 8.12445 15.9922 8.11323 15.9936 8.10197C15.995 8.0907 15.9963 8.07942 15.9972 8.06811C15.9981 8.0568 15.9989 8.04547 15.9994 8.03412C15.9998 8.02278 16.0002 8.01144 16.0002 8.00008C16.0002 7.98872 15.9998 7.97737 15.9994 7.96603C15.9989 7.95469 15.9981 7.94336 15.9972 7.93204C15.9963 7.92073 15.995 7.90945 15.9936 7.89819C15.9922 7.88692 15.9906 7.8757 15.9886 7.86451C15.9867 7.85331 15.9845 7.84217 15.9822 7.83108C15.9798 7.81997 15.9772 7.80892 15.9744 7.79794C15.9716 7.78694 15.9684 7.77601 15.9652 7.76515C15.9619 7.75429 15.9583 7.7435 15.9545 7.73279C15.9508 7.72208 15.9469 7.71145 15.9427 7.7009C15.9384 7.69036 15.9339 7.6799 15.9294 7.66954C15.9247 7.65919 15.9198 7.64894 15.9147 7.63878C15.9097 7.62862 15.9044 7.61858 15.8989 7.60865C15.8934 7.59873 15.8877 7.58892 15.8817 7.57923C15.8758 7.56953 15.8697 7.55997 15.8634 7.55054C15.857 7.54112 15.8506 7.53183 15.8439 7.52267C15.8372 7.51351 15.8302 7.5045 15.8231 7.49564C14.7752 6.1663 11.6676 2.66675 8.00005 2.66675ZM8.00005 6.76897C8.66272 6.76897 9.20005 7.32008 9.20005 8.00008C9.20005 8.68008 8.66272 9.23119 8.00005 9.23119C7.33738 9.23119 6.80005 8.68008 6.80005 8.00008C6.80005 7.32008 7.33738 6.76897 8.00005 6.76897ZM8.00005 5.53875C7.02938 5.53875 6.15427 6.1383 5.78316 7.05829C5.41159 7.97829 5.61694 9.03651 6.30316 9.74051C6.32367 9.7618 6.34459 9.78269 6.36589 9.80317C6.3872 9.82365 6.40889 9.84373 6.43095 9.8634C6.45302 9.88308 6.47544 9.90233 6.49823 9.92115C6.52102 9.93998 6.54414 9.95839 6.56763 9.97634C6.59111 9.9943 6.61492 10.0118 6.63906 10.0289C6.6632 10.0459 6.68766 10.0625 6.71242 10.0787C6.73719 10.0948 6.76223 10.1105 6.78759 10.1257C6.81295 10.1409 6.83858 10.1556 6.86448 10.1698C6.89039 10.184 6.91656 10.1978 6.94298 10.211C6.96941 10.2243 6.99608 10.237 7.02298 10.2493C7.04989 10.2615 7.07702 10.2732 7.10436 10.2845C7.1317 10.2957 7.15925 10.3064 7.187 10.3166C7.21475 10.3268 7.24269 10.3364 7.2708 10.3455C7.29891 10.3547 7.32719 10.3633 7.35563 10.3714C7.38406 10.3794 7.41264 10.387 7.44136 10.394C7.47008 10.4009 7.49892 10.4074 7.52789 10.4133C7.55684 10.4192 7.58591 10.4246 7.61508 10.4294C7.64425 10.4342 7.67348 10.4385 7.70281 10.4422C7.73214 10.4459 7.76153 10.449 7.79097 10.4516C7.82042 10.4542 7.84991 10.4563 7.87942 10.4578C7.90894 10.4593 7.93848 10.4602 7.96805 10.4606C7.99759 10.461 8.02716 10.4608 8.0567 10.4601C8.08625 10.4594 8.11578 10.4581 8.14528 10.4562C8.17478 10.4544 8.20423 10.452 8.23366 10.449C8.26308 10.4461 8.29242 10.4426 8.32169 10.4385C8.35097 10.4345 8.38017 10.4299 8.40928 10.4247C8.43839 10.4196 8.46739 10.4139 8.49628 10.4076C8.52517 10.4014 8.55392 10.3946 8.58256 10.3873C8.6112 10.3799 8.6397 10.3721 8.66803 10.3637C8.69637 10.3553 8.72455 10.3463 8.75255 10.3369C8.78056 10.3274 8.80838 10.3174 8.836 10.3069C8.86364 10.2964 8.89106 10.2854 8.91827 10.2739C9.81516 9.8934 10.4 8.99564 10.4 8.00008C10.4 6.64051 9.32583 5.53875 8.00048 5.53875L8.00005 5.53875Z"   fill="#999999" >
</path>
</g>
<defs>
<clipPath id="clip-path-113_528">
<path d="M0 16L16 16L16 0L0 0L0 16Z" fill="white"/>
</clipPath>
</defs>
</svg>
