<svg xmlns="http://www.w3.org/2000/svg" xmlns:xlink="http://www.w3.org/1999/xlink" width="13.8182373046875" height="17.185302734375" viewBox="0 0 13.8182373046875 17.185302734375" fill="none">
<path d="M6.72695 2.20707e-05C4.32695 2.20707e-05 2.36331 2.1091 2.36331 4.68685L2.36331 6.2493L1.45457 6.2493C0.654566 6.2493 2.20707e-05 6.95233 2.20707e-05 7.81159L2.20707e-05 15.623C2.20707e-05 16.4823 0.654566 17.1853 1.45457 17.1853L12.3637 17.1853C13.1637 17.1853 13.8182 16.4823 13.8182 15.623L13.8182 7.81159C13.8182 6.95233 13.1637 6.2493 12.3637 6.2493L11.0906 6.2493L11.0906 4.68685C11.0906 2.1091 9.12695 2.20707e-05 6.72695 2.20707e-05ZM6.72695 1.5623C8.32695 1.5623 9.63603 2.96835 9.63603 4.68685L9.63603 6.24912L3.81786 6.24912L3.81786 4.68685C3.81786 2.96835 5.12695 1.5623 6.72695 1.5623ZM12.3637 7.81159L12.3637 15.623L1.45457 15.623L1.45457 7.81159L12.3637 7.81159ZM5.4546 10.5459C5.4546 10.5715 5.45518 10.5971 5.45635 10.6226C5.45752 10.6481 5.45927 10.6736 5.4616 10.6991C5.46393 10.7245 5.46685 10.7499 5.47035 10.7752C5.47384 10.8005 5.47791 10.8256 5.48255 10.8507C5.4872 10.8758 5.49241 10.9007 5.49819 10.9255C5.50398 10.9503 5.51032 10.975 5.51724 10.9994C5.52415 11.0239 5.53161 11.0482 5.53963 11.0722C5.54765 11.0963 5.55621 11.1202 5.56532 11.1438C5.57443 11.1674 5.58408 11.1908 5.59425 11.2139C5.60443 11.237 5.61513 11.2598 5.62635 11.2824C5.63757 11.3049 5.6493 11.3272 5.66154 11.3491C5.67377 11.371 5.68651 11.3926 5.69974 11.4139C5.71296 11.4351 5.72666 11.456 5.74085 11.4766C5.75502 11.4971 5.76966 11.5172 5.78477 11.537C5.79987 11.5568 5.81541 11.5761 5.83139 11.5951C5.84738 11.614 5.86379 11.6325 5.88063 11.6506C5.89746 11.6687 5.91469 11.6863 5.93233 11.7035C5.94996 11.7206 5.96798 11.7373 5.98639 11.7536C6.00478 11.7698 6.02355 11.7855 6.04267 11.8007C6.06179 11.816 6.08124 11.8307 6.10103 11.8449C6.12083 11.8591 6.14094 11.8728 6.16136 11.8859C6.16811 11.8903 6.17489 11.8945 6.1817 11.8988L6.1817 13.6702C6.1817 14.0998 6.50898 14.4513 6.90899 14.4513C7.30901 14.4513 7.63628 14.0998 7.63628 13.6702L7.63628 11.8989C7.64318 11.8947 7.65006 11.8903 7.65689 11.8859C7.67732 11.8728 7.69742 11.8591 7.71722 11.8449C7.73702 11.8307 7.75647 11.816 7.77558 11.8007C7.7947 11.7855 7.81347 11.7698 7.83186 11.7536C7.85027 11.7373 7.86828 11.7206 7.88592 11.7035C7.90356 11.6863 7.9208 11.6687 7.93762 11.6506C7.95445 11.6325 7.97087 11.614 7.98686 11.5951C8.00284 11.5761 8.01837 11.5568 8.03348 11.537C8.04859 11.5172 8.06323 11.4971 8.0774 11.4766C8.09159 11.456 8.10529 11.4351 8.11851 11.4139C8.13175 11.3926 8.14448 11.371 8.15671 11.3491C8.16895 11.3272 8.18068 11.3049 8.1919 11.2824C8.20312 11.2598 8.21382 11.237 8.22399 11.2139C8.23417 11.1908 8.24382 11.1674 8.25293 11.1438C8.26204 11.1202 8.2706 11.0963 8.27862 11.0722C8.28663 11.0482 8.2941 11.0239 8.30102 10.9994C8.30793 10.975 8.31427 10.9503 8.32006 10.9255C8.32584 10.9007 8.33106 10.8758 8.3357 10.8507C8.34034 10.8256 8.34441 10.8005 8.3479 10.7752C8.3514 10.7499 8.35432 10.7245 8.35665 10.6991C8.35898 10.6736 8.36073 10.6481 8.3619 10.6226C8.36307 10.5971 8.36365 10.5715 8.36365 10.5459C8.36365 10.5204 8.36307 10.4948 8.3619 10.4693C8.36073 10.4437 8.35898 10.4182 8.35665 10.3928C8.35432 10.3674 8.3514 10.342 8.3479 10.3167C8.34441 10.2914 8.34034 10.2662 8.3357 10.2412C8.33106 10.2161 8.32584 10.1911 8.32006 10.1663C8.31427 10.1415 8.30793 10.1169 8.30101 10.0924C8.2941 10.068 8.28663 10.0437 8.27862 10.0196C8.2706 9.99556 8.26204 9.97171 8.25293 9.94808C8.24382 9.92447 8.23417 9.9011 8.22399 9.87799C8.21382 9.85487 8.20312 9.83204 8.1919 9.8095C8.18068 9.78694 8.16895 9.7647 8.15671 9.74277C8.14448 9.72084 8.13175 9.69925 8.11851 9.678C8.10529 9.65674 8.09159 9.63584 8.0774 9.6153C8.06323 9.59477 8.04859 9.57462 8.03348 9.55485C8.01837 9.53509 8.00284 9.51574 7.98686 9.4968C7.97087 9.47785 7.95445 9.45933 7.93762 9.44125C7.9208 9.42317 7.90356 9.40555 7.88592 9.38839C7.86828 9.37122 7.85027 9.35452 7.83186 9.33829C7.81347 9.32208 7.7947 9.30636 7.77558 9.29112C7.75647 9.27589 7.73702 9.26118 7.71722 9.24697C7.69742 9.23277 7.67732 9.2191 7.65689 9.20595C7.63647 9.1928 7.61577 9.18021 7.59479 9.16816C7.57379 9.15611 7.55252 9.14461 7.53101 9.13367C7.50949 9.12274 7.48774 9.11239 7.46574 9.10261C7.44376 9.09282 7.42155 9.08362 7.39913 9.075C7.37673 9.0664 7.35413 9.05838 7.33135 9.05095C7.30857 9.04354 7.28563 9.03672 7.26254 9.03051C7.23946 9.02429 7.21624 9.01869 7.19289 9.01371C7.16954 9.00872 7.14609 9.00435 7.12254 9.00059C7.099 8.99684 7.07539 8.99372 7.0517 8.99121C7.028 8.9887 7.00427 8.98682 6.9805 8.98557C6.95672 8.98432 6.93293 8.98369 6.90912 8.98369C6.88532 8.98369 6.86153 8.98432 6.83775 8.98557C6.81398 8.98682 6.79025 8.9887 6.76656 8.99121C6.74287 8.99372 6.71925 8.99684 6.69571 9.00059C6.67216 9.00435 6.64871 9.00872 6.62536 9.0137C6.60202 9.01869 6.5788 9.02429 6.55571 9.03051C6.53262 9.03672 6.50968 9.04354 6.4869 9.05095C6.46412 9.05838 6.44152 9.0664 6.41912 9.075C6.3967 9.08362 6.3745 9.09282 6.35251 9.10261C6.33051 9.11239 6.30875 9.12274 6.28724 9.13367C6.26572 9.14461 6.24446 9.15611 6.22346 9.16816C6.20248 9.18021 6.18177 9.1928 6.16136 9.20595C6.14094 9.2191 6.12083 9.23277 6.10103 9.24697C6.08124 9.26118 6.06179 9.27589 6.04267 9.29112C6.02355 9.30636 6.00478 9.32208 5.98639 9.33829C5.96798 9.35452 5.94996 9.37122 5.93233 9.38839C5.91469 9.40555 5.89746 9.42317 5.88063 9.44125C5.86379 9.45933 5.84738 9.47785 5.83139 9.4968C5.81541 9.51574 5.79987 9.53509 5.78477 9.55485C5.76966 9.57462 5.75502 9.59477 5.74085 9.6153C5.72666 9.63584 5.71296 9.65674 5.69974 9.678C5.68651 9.69925 5.67377 9.72084 5.66154 9.74277C5.6493 9.7647 5.63757 9.78694 5.62635 9.8095C5.61513 9.83204 5.60443 9.85487 5.59425 9.87799C5.58408 9.9011 5.57443 9.92447 5.56532 9.94808C5.55621 9.97171 5.54765 9.99556 5.53963 10.0196C5.53161 10.0437 5.52415 10.068 5.51724 10.0924C5.51032 10.1169 5.50398 10.1415 5.49819 10.1663C5.49241 10.1911 5.4872 10.2161 5.48255 10.2412C5.47791 10.2662 5.47384 10.2914 5.47035 10.3167C5.46685 10.342 5.46393 10.3674 5.4616 10.3928C5.45927 10.4182 5.45752 10.4437 5.45635 10.4693C5.45518 10.4948 5.4546 10.5204 5.4546 10.5459Z" fill-rule="evenodd"  fill="#949494" >
</path>
</svg>
