<svg xmlns="http://www.w3.org/2000/svg" xmlns:xlink="http://www.w3.org/1999/xlink" width="15" height="15" viewBox="0 0 15 15" fill="none">
<path d="M13.5407 7.55895C13.5407 8.36542 14.1798 9.02153 14.9778 9.05228C14.771 10.0552 14.366 10.9864 13.8055 11.8049C13.2177 11.282 12.3189 11.3025 11.7567 11.8647C11.2013 12.42 11.174 13.3033 11.6763 13.8911C10.8561 14.4276 9.92652 14.8103 8.92857 15C8.86022 14.238 8.22112 13.6399 7.44019 13.6399C6.66781 13.6399 6.03213 14.226 5.95352 14.9778C4.97608 14.7762 4.06699 14.3883 3.26555 13.8535C3.72522 13.2675 3.68421 12.4166 3.14422 11.8766C2.60253 11.335 1.74983 11.2957 1.1637 11.7587C0.620301 10.9506 0.225562 10.033 0.0222129 9.04716C0.774094 8.96856 1.36022 8.33295 1.36022 7.56066C1.36022 6.77982 0.762133 6.14079 0 6.07245C0.18797 5.07461 0.572454 4.14512 1.10731 3.32669C1.69515 3.83757 2.58544 3.81365 3.14422 3.25493C3.70984 2.68937 3.72693 1.78209 3.19549 1.19433C4.0123 0.635608 4.94361 0.230664 5.94668 0.0239205C5.97744 0.823556 6.63363 1.46087 7.44019 1.46087C8.25359 1.46087 8.91661 0.809887 8.9337 0C9.9607 0.194783 10.9142 0.596309 11.7498 1.15674C11.1722 1.74109 11.174 2.68254 11.755 3.26518C12.336 3.84611 13.2741 3.84782 13.8585 3.27372C14.4122 4.10411 14.8069 5.04898 15 6.06561C14.1917 6.0827 13.5407 6.74393 13.5407 7.55895ZM7.4607 4.16562C5.67498 4.16562 4.22932 5.61283 4.22932 7.39663C4.22932 9.18214 5.67669 10.6276 7.4607 10.6276C9.24641 10.6276 10.6921 9.18043 10.6921 7.39663C10.6921 5.61283 9.24641 4.16562 7.4607 4.16562Z"   fill="#FFFFFF" >
</path>
</svg>
