<svg xmlns="http://www.w3.org/2000/svg" xmlns:xlink="http://www.w3.org/1999/xlink" width="26.25" height="26.25" viewBox="0 0 26.25 26.25" fill="none">
<path d="M13.125 0C12.9102 0 12.6955 0.00527007 12.481 0.0158102C12.2664 0.0263502 12.0523 0.0421468 11.8385 0.0631996C11.6248 0.0842543 11.4116 0.110541 11.1992 0.142059C10.9867 0.173575 10.7751 0.210287 10.5644 0.252194C10.3538 0.294098 10.1443 0.341149 9.93587 0.39334C9.72751 0.445531 9.52055 0.502805 9.315 0.565157C9.10946 0.627512 8.90556 0.69487 8.70332 0.767233C8.50106 0.839598 8.30071 0.91688 8.10228 0.99908C7.90385 1.08128 7.70752 1.1683 7.51335 1.26014C7.31918 1.35198 7.12737 1.44853 6.93793 1.54978C6.74849 1.65104 6.56165 1.75688 6.37741 1.8673C6.19317 1.97774 6.01174 2.09263 5.83313 2.21197C5.65455 2.3313 5.47898 2.45494 5.30644 2.58289C5.13392 2.71086 4.96464 2.84298 4.79858 2.97924C4.63255 3.11549 4.46996 3.25577 4.3108 3.4C4.15163 3.54427 3.99612 3.69234 3.84423 3.84423C3.69234 3.99612 3.54427 4.15163 3.4 4.3108C3.25577 4.46996 3.11549 4.63255 2.97924 4.79858C2.84298 4.96464 2.71086 5.13392 2.58289 5.30644C2.45494 5.47898 2.3313 5.65455 2.21197 5.83313C2.09263 6.01174 1.97774 6.19317 1.8673 6.37741C1.75688 6.56165 1.65104 6.74849 1.54978 6.93793C1.44853 7.12737 1.35198 7.31918 1.26014 7.51335C1.1683 7.70752 1.08128 7.90385 0.99908 8.10228C0.91688 8.30071 0.839598 8.50106 0.767233 8.70332C0.69487 8.90556 0.627512 9.10946 0.565157 9.315C0.502805 9.52055 0.445531 9.72751 0.39334 9.9359C0.341149 10.1443 0.294098 10.3538 0.252194 10.5644C0.210287 10.7751 0.173575 10.9867 0.142059 11.1992C0.110541 11.4116 0.0842543 11.6248 0.0631996 11.8385C0.0421468 12.0523 0.0263502 12.2664 0.0158102 12.481C0.00527007 12.6955 0 12.9102 0 13.125C0 13.3398 0.00527007 13.5545 0.0158102 13.769C0.0263502 13.9836 0.0421468 14.1977 0.0631996 14.4115C0.0842543 14.6252 0.110541 14.8384 0.142059 15.0508C0.173575 15.2633 0.210287 15.4749 0.252194 15.6855C0.294098 15.8962 0.341149 16.1057 0.39334 16.3141C0.445531 16.5225 0.502805 16.7295 0.565157 16.935C0.627512 17.1405 0.69487 17.3444 0.767233 17.5467C0.839598 17.7489 0.91688 17.9493 0.99908 18.1477C1.08128 18.3461 1.1683 18.5425 1.26014 18.7366C1.35198 18.9308 1.44853 19.1226 1.54978 19.3121C1.65104 19.5015 1.75688 19.6883 1.8673 19.8726C1.97774 20.0568 2.09263 20.2383 2.21197 20.4169C2.3313 20.5954 2.45494 20.771 2.58289 20.9436C2.71086 21.1161 2.84298 21.2854 2.97924 21.4514C3.11549 21.6174 3.25577 21.78 3.4 21.9392C3.54427 22.0984 3.69234 22.2539 3.84423 22.4058C3.99612 22.5577 4.15163 22.7057 4.3108 22.85C4.46996 22.9942 4.63255 23.1345 4.79858 23.2708C4.96464 23.407 5.13392 23.5391 5.30644 23.6671C5.47898 23.795 5.65455 23.9187 5.83313 24.038C6.01174 24.1574 6.19317 24.2723 6.37741 24.3827C6.56165 24.4931 6.74849 24.599 6.93793 24.7002C7.12737 24.8015 7.31918 24.898 7.51335 24.9899C7.70752 25.0817 7.90385 25.1687 8.10228 25.2509C8.30071 25.3331 8.50106 25.4104 8.70332 25.4828C8.90556 25.5551 9.10946 25.6225 9.315 25.6848C9.52055 25.7472 9.72751 25.8045 9.9359 25.8567C10.1443 25.9089 10.3538 25.9559 10.5644 25.9978C10.7751 26.0397 10.9867 26.0764 11.1992 26.1079C11.4116 26.1395 11.6248 26.1658 11.8385 26.1868C12.0523 26.2079 12.2664 26.2237 12.481 26.2342C12.6955 26.2447 12.9102 26.25 13.125 26.25C13.3398 26.25 13.5545 26.2447 13.769 26.2342C13.9836 26.2237 14.1977 26.2079 14.4115 26.1868C14.6252 26.1658 14.8384 26.1395 15.0508 26.1079C15.2633 26.0764 15.4749 26.0397 15.6855 25.9978C15.8962 25.9559 16.1057 25.9089 16.3141 25.8567C16.5225 25.8045 16.7295 25.7472 16.935 25.6848C17.1405 25.6225 17.3444 25.5551 17.5467 25.4828C17.7489 25.4104 17.9493 25.3331 18.1477 25.2509C18.3461 25.1687 18.5425 25.0817 18.7366 24.9899C18.9308 24.898 19.1226 24.8015 19.3121 24.7002C19.5015 24.599 19.6883 24.4931 19.8726 24.3827C20.0568 24.2723 20.2383 24.1574 20.4169 24.038C20.5954 23.9187 20.771 23.795 20.9436 23.6671C21.1161 23.5391 21.2854 23.407 21.4514 23.2708C21.6174 23.1345 21.78 22.9942 21.9392 22.85C22.0984 22.7057 22.2539 22.5577 22.4058 22.4058C22.5577 22.2539 22.7057 22.0984 22.85 21.9392C22.9942 21.78 23.1345 21.6174 23.2708 21.4514C23.407 21.2854 23.5391 21.1161 23.6671 20.9436C23.795 20.771 23.9187 20.5954 24.038 20.4169C24.1574 20.2383 24.2723 20.0568 24.3827 19.8726C24.4931 19.6883 24.599 19.5015 24.7002 19.3121C24.8015 19.1226 24.898 18.9308 24.9899 18.7366C25.0817 18.5425 25.1687 18.3461 25.2509 18.1477C25.3331 17.9493 25.4104 17.7489 25.4828 17.5467C25.5551 17.3444 25.6225 17.1405 25.6848 16.935C25.7472 16.7295 25.8045 16.5225 25.8567 16.3141C25.9089 16.1057 25.9559 15.8962 25.9978 15.6855C26.0397 15.4749 26.0764 15.2633 26.1079 15.0508C26.1395 14.8384 26.1658 14.6252 26.1868 14.4115C26.2079 14.1977 26.2237 13.9836 26.2342 13.769C26.2447 13.5545 26.25 13.3398 26.25 13.125C26.25 12.9102 26.2447 12.6955 26.2342 12.481C26.2237 12.2664 26.2079 12.0523 26.1868 11.8385C26.1658 11.6248 26.1395 11.4116 26.1079 11.1992C26.0764 10.9867 26.0397 10.7751 25.9978 10.5644C25.9559 10.3538 25.9089 10.1443 25.8567 9.93587C25.8045 9.72751 25.7472 9.52055 25.6848 9.315C25.6225 9.10946 25.5551 8.90556 25.4828 8.70332C25.4104 8.50106 25.3331 8.30071 25.2509 8.10228C25.1687 7.90385 25.0817 7.70752 24.9899 7.51335C24.898 7.31918 24.8015 7.12737 24.7002 6.93793C24.599 6.74849 24.4931 6.56165 24.3827 6.37741C24.2723 6.19317 24.1574 6.01174 24.038 5.83313C23.9187 5.65455 23.795 5.47898 23.6671 5.30644C23.5391 5.13392 23.407 4.96464 23.2708 4.79858C23.1345 4.63255 22.9942 4.46996 22.85 4.3108C22.7057 4.15163 22.5577 3.99612 22.4058 3.84423C22.2539 3.69234 22.0984 3.54427 21.9392 3.4C21.78 3.25577 21.6174 3.11549 21.4514 2.97924C21.2854 2.84298 21.1161 2.71086 20.9436 2.58289C20.771 2.45494 20.5954 2.3313 20.4169 2.21197C20.2383 2.09263 20.0568 1.97774 19.8726 1.8673C19.6883 1.75688 19.5015 1.65104 19.3121 1.54978C19.1226 1.44853 18.9308 1.35198 18.7366 1.26014C18.5425 1.1683 18.3461 1.08128 18.1477 0.99908C17.9493 0.91688 17.7489 0.839598 17.5467 0.767233C17.3444 0.69487 17.1405 0.627512 16.935 0.565157C16.7295 0.502805 16.5225 0.445531 16.3141 0.39334C16.1057 0.341149 15.8962 0.294098 15.6855 0.252194C15.4749 0.210289 15.2633 0.173577 15.0508 0.142059C14.8384 0.110541 14.6252 0.0842543 14.4115 0.0631996C14.1977 0.0421468 13.9836 0.0263502 13.769 0.0158102C13.5545 0.00527007 13.3398 0 13.125 0ZM13.041 4.599C13.1057 4.59897 13.1704 4.60053 13.2351 4.60367C13.2998 4.60682 13.3643 4.61155 13.4288 4.61787C13.4932 4.62418 13.5575 4.63209 13.6215 4.64155C13.6856 4.65103 13.7493 4.66205 13.8129 4.67466C13.8764 4.68726 13.9395 4.70143 14.0023 4.71712C14.0652 4.73285 14.1275 4.75007 14.1895 4.76883C14.2515 4.78762 14.3129 4.80788 14.3739 4.82967C14.4349 4.85146 14.4953 4.87476 14.5551 4.89951C14.6149 4.92425 14.6741 4.95048 14.7326 4.97812C14.7912 5.00579 14.849 5.03489 14.9061 5.06537C14.9633 5.09586 15.0196 5.12775 15.0751 5.16102C15.1307 5.1943 15.1854 5.22892 15.2392 5.26487C15.2931 5.30083 15.346 5.33807 15.398 5.37663C15.45 5.41518 15.5011 5.455 15.5511 5.49607C15.6012 5.53711 15.6502 5.57938 15.6982 5.62286C15.7462 5.66631 15.7931 5.71093 15.8389 5.75671C15.8847 5.80248 15.9293 5.84935 15.9728 5.89731C16.0163 5.94527 16.0585 5.99427 16.0996 6.04431C16.1407 6.09437 16.1806 6.1454 16.2191 6.19738C16.2577 6.24936 16.295 6.30227 16.331 6.35611C16.367 6.40995 16.4016 6.46461 16.4349 6.52014C16.4682 6.57568 16.5001 6.63201 16.5306 6.6891C16.5612 6.74619 16.5903 6.804 16.618 6.86251C16.6457 6.92106 16.6719 6.98023 16.6967 7.04003C16.7215 7.09986 16.7448 7.16026 16.7666 7.22121C16.7884 7.28216 16.8087 7.34363 16.8275 7.40559C16.8463 7.46752 16.8636 7.52992 16.8793 7.59273C16.8951 7.65554 16.9093 7.71867 16.9219 7.78217C16.9345 7.84569 16.9456 7.90945 16.9551 7.97349C16.9646 8.03756 16.9725 8.10179 16.9789 8.16621C16.9852 8.23066 16.99 8.29522 16.9932 8.35989C16.9964 8.42455 16.9979 8.48925 16.9979 8.554C16.9979 8.61875 16.9964 8.68344 16.9932 8.74811C16.99 8.81278 16.9852 8.87734 16.9789 8.94179C16.9725 9.00621 16.9646 9.07044 16.9551 9.13451C16.9456 9.19855 16.9345 9.26231 16.9219 9.32583C16.9093 9.38932 16.8951 9.45246 16.8793 9.51527C16.8636 9.57808 16.8463 9.64048 16.8275 9.70241C16.8087 9.76437 16.7884 9.82584 16.7666 9.88679C16.7448 9.94774 16.7215 10.0081 16.6967 10.068C16.6719 10.1278 16.6457 10.1869 16.618 10.2455C16.5903 10.304 16.5612 10.3618 16.5306 10.4189C16.5001 10.476 16.4682 10.5323 16.4349 10.5879C16.4016 10.6434 16.367 10.698 16.331 10.7519C16.295 10.8057 16.2577 10.8586 16.2191 10.9106C16.1806 10.9626 16.1407 11.0136 16.0996 11.0637C16.0585 11.1137 16.0163 11.1627 15.9728 11.2107C15.9293 11.2587 15.8847 11.3055 15.8389 11.3513C15.7931 11.3971 15.7462 11.4417 15.6982 11.4851C15.6502 11.5286 15.6012 11.5709 15.5511 11.6119C15.5011 11.653 15.45 11.6928 15.398 11.7314C15.346 11.7699 15.2931 11.8072 15.2392 11.8431C15.1854 11.8791 15.1307 11.9137 15.0751 11.947C15.0196 11.9803 14.9633 12.0121 14.9061 12.0426C14.849 12.0731 14.7912 12.1022 14.7326 12.1299C14.6741 12.1575 14.6149 12.1837 14.5551 12.2085C14.4953 12.2332 14.4349 12.2565 14.3739 12.2783C14.3129 12.3001 14.2515 12.3204 14.1895 12.3391C14.1275 12.3579 14.0651 12.3752 14.0023 12.3909C13.9395 12.4066 13.8764 12.4207 13.8129 12.4333C13.7493 12.4459 13.6856 12.457 13.6215 12.4665C13.5575 12.4759 13.4932 12.4838 13.4288 12.4901C13.3643 12.4964 13.2998 12.5012 13.2351 12.5043C13.1704 12.5075 13.1057 12.509 13.041 12.509C12.9763 12.509 12.9116 12.5074 12.847 12.5042C12.7824 12.501 12.7178 12.4962 12.6534 12.4898C12.589 12.4835 12.5248 12.4755 12.4608 12.466C12.3968 12.4565 12.3331 12.4454 12.2696 12.4328C12.2061 12.4201 12.143 12.4059 12.0802 12.3902C12.0175 12.3744 11.9552 12.3572 11.8932 12.3384C11.8313 12.3196 11.7699 12.2993 11.7089 12.2775C11.648 12.2556 11.5877 12.2323 11.5279 12.2076C11.4681 12.1828 11.409 12.1565 11.3505 12.1289C11.292 12.1012 11.2342 12.0721 11.1772 12.0416C11.1201 12.011 11.0638 11.9791 11.0083 11.9459C10.9528 11.9126 10.8982 11.8779 10.8444 11.842C10.7906 11.806 10.7377 11.7688 10.6857 11.7302C10.6337 11.6916 10.5828 11.6518 10.5328 11.6108C10.4827 11.5697 10.4337 11.5274 10.3858 11.484C10.3379 11.4405 10.291 11.3959 10.2453 11.3501C10.1995 11.3044 10.1549 11.2575 10.1115 11.2095C10.068 11.1616 10.0258 11.1126 9.98473 11.0626C9.94369 11.0125 9.90388 10.9615 9.86535 10.9096C9.82682 10.8576 9.78958 10.8047 9.75362 10.7508C9.71767 10.697 9.68308 10.6424 9.6498 10.5869C9.61655 10.5314 9.58467 10.4751 9.55418 10.418C9.52366 10.3609 9.49457 10.3031 9.46692 10.2446C9.43925 10.1861 9.41303 10.127 9.38828 10.0672C9.36354 10.0074 9.34024 9.94705 9.31845 9.8861C9.29665 9.82518 9.27637 9.76377 9.25758 9.70183C9.2388 9.6399 9.22157 9.57756 9.20585 9.51478C9.19012 9.45199 9.17593 9.38889 9.16333 9.32542C9.15072 9.26196 9.13965 9.19819 9.13016 9.13418C9.12067 9.07017 9.11274 9.00596 9.1064 8.94157C9.10005 8.87717 9.0953 8.81264 9.09212 8.74803C9.08895 8.68339 9.08737 8.61872 9.08737 8.554C9.08737 8.48928 9.08895 8.42461 9.09212 8.35997C9.0953 8.29535 9.10005 8.23082 9.1064 8.16643C9.11274 8.10203 9.12067 8.0378 9.13016 7.97379C9.13965 7.90978 9.15072 7.84604 9.16333 7.78258C9.17593 7.71911 9.19012 7.65598 9.20585 7.59322C9.22157 7.53044 9.2388 7.4681 9.25758 7.40616C9.27637 7.34423 9.29665 7.28282 9.31845 7.22189C9.34024 7.16094 9.36354 7.1006 9.38828 7.0408C9.41303 6.981 9.43925 6.92185 9.46692 6.86336C9.49457 6.80487 9.52366 6.74707 9.55418 6.69C9.58467 6.63294 9.61655 6.57664 9.6498 6.52113C9.68308 6.46562 9.71767 6.41096 9.75362 6.35715C9.78958 6.30334 9.82682 6.25042 9.86535 6.19844C9.90388 6.14646 9.94369 6.09547 9.98473 6.04543C10.0258 5.99542 10.068 5.94642 10.1115 5.89846C10.1549 5.8505 10.1995 5.80363 10.2453 5.75788C10.291 5.71211 10.3379 5.66748 10.3858 5.62403C10.4337 5.58056 10.4827 5.53828 10.5328 5.49724C10.5828 5.45617 10.6337 5.41636 10.6857 5.3778C10.7377 5.33922 10.7906 5.30198 10.8444 5.26602C10.8982 5.23007 10.9528 5.19542 11.0083 5.16214C11.0638 5.12887 11.1201 5.09696 11.1772 5.06644C11.2342 5.03592 11.292 5.00683 11.3505 4.97913C11.409 4.95146 11.4681 4.92524 11.5279 4.90044C11.5877 4.87566 11.648 4.85237 11.7089 4.83055C11.7699 4.80873 11.8313 4.78841 11.8932 4.76962C11.9552 4.75081 12.0175 4.73353 12.0802 4.71781C12.143 4.70206 12.2061 4.68787 12.2696 4.67523C12.3331 4.66257 12.3968 4.6515 12.4608 4.64198C12.5248 4.63247 12.589 4.62454 12.6534 4.61817C12.7178 4.6118 12.7824 4.60704 12.847 4.60384C12.9116 4.60064 12.9763 4.59903 13.041 4.599ZM6.125 20.293C6.08475 16.24 8.06575 13.7235 10.549 12.7347L13.0987 16.989L15.785 12.8327C18.1807 13.8827 20.0847 16.3695 20.1232 20.2965C15.7185 22.043 11.0757 22.169 6.125 20.293Z"   fill="#FFFFFF" >
</path>
</svg>
