<svg xmlns="http://www.w3.org/2000/svg" xmlns:xlink="http://www.w3.org/1999/xlink" width="15.9998779296875" height="15.52203369140625" viewBox="0 0 15.9998779296875 15.52203369140625" fill="none">
<path d="M8 1.28659e-06C7.94325 -4.28694e-05 7.88653 0.00104761 7.82985 0.00327274C7.77316 0.00549798 7.71653 0.00885629 7.65996 0.0133477C7.60339 0.017839 7.54693 0.02346 7.49057 0.0302107C7.43421 0.0369615 7.37801 0.0448369 7.32193 0.053837C7.26586 0.0628369 7.21 0.0729547 7.15432 0.0841907C7.09863 0.0954266 7.04319 0.107772 6.98797 0.121227C6.93273 0.134682 6.87777 0.149236 6.82311 0.16489C6.76843 0.180544 6.71406 0.197285 6.66001 0.215114C6.60596 0.232943 6.55226 0.251847 6.49892 0.271824C6.44557 0.291803 6.39262 0.312841 6.34007 0.334937C6.28751 0.357035 6.23538 0.380174 6.18369 0.404357C6.13199 0.428541 6.08077 0.453747 6.03003 0.479979C5.97926 0.506212 5.92903 0.53345 5.8793 0.561692C5.82956 0.589935 5.78038 0.619162 5.73175 0.649372C5.68311 0.679584 5.63505 0.710757 5.58758 0.74289C5.54011 0.775025 5.49326 0.808096 5.44704 0.842104C5.40079 0.876113 5.35521 0.911034 5.31029 0.946867C5.26535 0.9827 5.22111 1.01942 5.17755 1.05702C5.134 1.09462 5.09118 1.13308 5.04906 1.1724C5.00694 1.21172 4.96556 1.25186 4.92495 1.29283C4.88433 1.33381 4.8445 1.37558 4.80545 1.41814C4.7664 1.46071 4.72816 1.50404 4.69073 1.54814C4.6533 1.59224 4.61671 1.63706 4.58096 1.68263C4.5452 1.72819 4.51031 1.77444 4.47629 1.8214C4.44226 1.86836 4.40913 1.91597 4.37688 1.96425C4.34464 2.01255 4.31331 2.06145 4.2829 2.11099C4.25247 2.16052 4.223 2.21065 4.19447 2.26137C4.16592 2.31209 4.13835 2.36335 4.11174 2.41517C4.08511 2.46699 4.05946 2.51933 4.03481 2.57218C4.01013 2.62502 3.98646 2.67834 3.96381 2.73213C3.94114 2.78592 3.91947 2.84014 3.89884 2.8948C3.8782 2.94946 3.8586 3.00452 3.84001 3.05997C3.82143 3.11542 3.80389 3.1712 3.7874 3.22735C3.7709 3.28349 3.75545 3.33996 3.74107 3.39671C3.72668 3.45348 3.71338 3.5105 3.70114 3.5678C3.68889 3.6251 3.6777 3.68262 3.66761 3.74036C3.65751 3.79811 3.6485 3.85603 3.64057 3.91414C3.63262 3.97225 3.62578 4.03049 3.62003 4.08887C3.61429 4.14724 3.60963 4.20571 3.60607 4.26428C3.60249 4.32285 3.60003 4.38145 3.59865 4.44011C3.59728 4.49878 3.597 4.55745 3.59783 4.61613C3.59865 4.67481 3.60056 4.73344 3.60358 4.79203C3.6066 4.85063 3.6107 4.90915 3.6159 4.96757C3.6211 5.02602 3.62741 5.08432 3.63479 5.1425C3.64216 5.20068 3.65064 5.25869 3.66019 5.31653C3.66975 5.37438 3.68037 5.43201 3.6921 5.48943C3.70379 5.54685 3.71657 5.60401 3.73043 5.66091C3.74427 5.71782 3.75917 5.77443 3.77515 5.83073C3.79111 5.88704 3.80812 5.94301 3.82618 5.99864C3.84423 6.05427 3.86333 6.10952 3.88347 6.16438C3.90359 6.21925 3.92474 6.27369 3.94689 6.32771C3.96905 6.38173 3.99221 6.43529 4.01638 6.48837C4.04054 6.54147 4.06569 6.59406 4.09182 6.64614C4.11795 6.69822 4.14505 6.74978 4.17312 6.80077C4.20117 6.85178 4.23017 6.90219 4.26012 6.95203C4.29007 7.00187 4.32093 7.05109 4.35273 7.09969C4.38451 7.1483 4.41719 7.19626 4.45078 7.24356C4.48435 7.29085 4.51881 7.33746 4.55414 7.38338C4.58946 7.42931 4.62563 7.47449 4.66265 7.51895C4.69966 7.56343 4.73748 7.60714 4.77614 7.6501C4.81479 7.69306 4.85423 7.73523 4.89446 7.77661C4.93467 7.818 4.97566 7.85854 5.01741 7.89829C5.05915 7.93803 5.10162 7.97691 5.14483 8.01495C5.18803 8.05299 5.23193 8.09016 5.27651 8.12644C5.19176 8.15772 5.10755 8.19043 5.02386 8.2246C4.94017 8.25878 4.85705 8.29439 4.77452 8.33144C4.69196 8.36848 4.61004 8.40694 4.52874 8.44681C4.44744 8.48669 4.3668 8.52795 4.28684 8.5706C4.20687 8.61326 4.12761 8.65728 4.04906 8.70266C3.9705 8.74806 3.89271 8.79479 3.81567 8.84286C3.73863 8.89094 3.66239 8.94033 3.58694 8.99103C3.51148 9.04174 3.43687 9.09373 3.36311 9.14701C3.28934 9.20029 3.21644 9.25483 3.14444 9.31061C3.07242 9.36643 3.00133 9.42345 2.93116 9.48169C2.86099 9.53994 2.79177 9.59939 2.72352 9.66003C2.65525 9.72066 2.588 9.78246 2.52174 9.84541C2.45547 9.90838 2.39024 9.97245 2.32605 10.0377C2.26186 10.1029 2.19874 10.1692 2.13669 10.2366C2.07462 10.304 2.01367 10.3724 1.95383 10.4419C1.89398 10.5114 1.83525 10.5819 1.77769 10.6534C1.72012 10.7249 1.66371 10.7974 1.60848 10.8709C1.55324 10.9443 1.49921 11.0187 1.44637 11.0941C1.39354 11.1694 1.34193 11.2456 1.29156 11.3227C1.24118 11.3998 1.19206 11.4778 1.1442 11.5566C1.09634 11.6354 1.04976 11.715 1.00447 11.7954C0.959177 11.8758 0.915193 11.957 0.872519 12.0389C0.829844 12.1209 0.788503 12.2035 0.748495 12.2869C0.708485 12.3702 0.669832 12.4543 0.632535 12.539C0.595237 12.6236 0.559315 12.709 0.524769 12.7949C0.490224 12.8808 0.457073 12.9673 0.425318 13.0544C0.393562 13.1415 0.36322 13.2291 0.33429 13.3172C0.30536 13.4053 0.277859 13.4939 0.251789 13.583C0.225717 13.6721 0.201088 13.7616 0.177905 13.8515C0.15472 13.9414 0.132992 14.0317 0.112721 14.1224C0.0924493 14.213 0.0736455 14.304 0.0563095 14.3953C0.0389733 14.4867 0.0231147 14.5783 0.00873335 14.6701C0.00692 14.682 0.00538821 14.6939 0.00413799 14.7059C0.00288775 14.7178 0.00192058 14.7298 0.00123646 14.7418C0.000552355 14.7538 0.000152119 14.7658 3.57561e-05 14.7778C-8.06068e-05 14.7898 8.70447e-05 14.8018 0.000538711 14.8138C0.000990378 14.8258 0.00172551 14.8378 0.00274412 14.8498C0.00376275 14.8618 0.00506362 14.8737 0.00664674 14.8856C0.00822987 14.8975 0.0100934 14.9094 0.0122372 14.9212C0.0143811 14.933 0.0168027 14.9448 0.0195023 14.9564C0.0222016 14.9681 0.0251757 14.9798 0.0284243 14.9913C0.0316729 15.0028 0.0351922 15.0143 0.0389822 15.0256C0.0427721 15.037 0.0468283 15.0482 0.0511508 15.0594C0.055473 15.0706 0.0600563 15.0816 0.0649008 15.0925C0.069745 15.1034 0.0748445 15.1142 0.0801993 15.1249C0.0855539 15.1356 0.0911574 15.1461 0.0970098 15.1565C0.102862 15.1669 0.108956 15.1771 0.115292 15.1872C0.121628 15.1972 0.128198 15.2071 0.135003 15.2169C0.141807 15.2266 0.148837 15.2362 0.156095 15.2456C0.163351 15.255 0.170825 15.2642 0.178516 15.2732C0.186207 15.2821 0.194108 15.2909 0.202215 15.2995C0.210323 15.3082 0.21863 15.3167 0.227136 15.3249C0.23564 15.333 0.244334 15.3409 0.253216 15.3486C0.262098 15.3564 0.271156 15.364 0.280395 15.3712C0.289631 15.3785 0.299035 15.3856 0.308606 15.3925C0.318176 15.3993 0.327903 15.4058 0.337784 15.4122C0.347665 15.4184 0.35769 15.4244 0.367858 15.4304C0.378026 15.4361 0.388326 15.4417 0.398758 15.447C0.409188 15.4523 0.419737 15.4573 0.430406 15.462C0.441075 15.4667 0.45185 15.4713 0.462732 15.4755C0.473612 15.4798 0.484584 15.4837 0.495652 15.4873C0.506718 15.491 0.517865 15.4943 0.529093 15.4975C0.540319 15.5005 0.551612 15.5033 0.562972 15.5058C0.574331 15.5084 0.585743 15.5107 0.59721 15.5127C0.635315 15.5189 0.673664 15.5221 0.712258 15.5221C0.722687 15.5221 0.733109 15.5218 0.743528 15.5213C0.753945 15.5207 0.764346 15.5199 0.774732 15.519C0.785117 15.518 0.795477 15.5168 0.805811 15.5152C0.816144 15.5139 0.826442 15.5122 0.836704 15.5102C0.846966 15.5083 0.857181 15.5061 0.867352 15.5037C0.877521 15.5014 0.887635 15.4987 0.897694 15.4958C0.907754 15.493 0.917747 15.4899 0.927675 15.4866C0.937602 15.4834 0.947457 15.4799 0.957235 15.4761C0.967013 15.4723 0.976707 15.4682 0.986318 15.4642C0.995928 15.4601 1.00544 15.4557 1.01487 15.451C1.02429 15.4463 1.03361 15.4414 1.04283 15.4364C1.05205 15.4314 1.06115 15.4261 1.07015 15.4207C1.07914 15.4152 1.08801 15.4096 1.09677 15.4037C1.10552 15.3978 1.11415 15.3917 1.12265 15.3855C1.13114 15.3793 1.1395 15.3728 1.14773 15.3662C1.15595 15.3596 1.16403 15.3527 1.17196 15.3458C1.1799 15.3386 1.18768 15.3315 1.19531 15.3242C1.20294 15.3168 1.21041 15.3094 1.21772 15.3017C1.22503 15.2939 1.23217 15.286 1.23915 15.278C1.24612 15.27 1.25293 15.2618 1.25956 15.2535C1.26619 15.2451 1.27264 15.2366 1.27891 15.2281C1.28517 15.2195 1.29126 15.2107 1.29716 15.2018C1.30306 15.193 1.30876 15.1839 1.31428 15.1748C1.31979 15.1655 1.32511 15.1563 1.33023 15.1469C1.33535 15.1375 1.34027 15.128 1.34499 15.1184C1.34971 15.1088 1.35422 15.099 1.35853 15.0892C1.36283 15.0794 1.36692 15.0695 1.37081 15.0594C1.37469 15.0494 1.37836 15.0393 1.38182 15.0292C1.38527 15.019 1.38851 15.0087 1.39153 14.9984C1.39455 14.9881 1.39735 14.9777 1.39993 14.9672C1.40251 14.9568 1.40487 14.9463 1.407 14.9357C1.40913 14.9252 1.41104 14.9146 1.41273 14.9039C1.4281 14.8037 1.44561 14.7039 1.46526 14.6045C1.4849 14.5051 1.50666 14.4062 1.53055 14.3078C1.55444 14.2094 1.58043 14.1116 1.60851 14.0143C1.63657 13.9171 1.66672 13.8206 1.69893 13.7247C1.73114 13.6289 1.76539 13.5339 1.80168 13.4396C1.83797 13.3453 1.87625 13.2519 1.91655 13.1594C1.95682 13.0669 1.99907 12.9754 2.04329 12.8848C2.08749 12.7942 2.13362 12.7047 2.18168 12.6163C2.22972 12.5278 2.27964 12.4405 2.33143 12.3543C2.38321 12.2681 2.43682 12.1832 2.49224 12.0995C2.54767 12.0158 2.60485 11.9334 2.66383 11.8523C2.72277 11.7712 2.78344 11.6915 2.84582 11.6132C2.90819 11.5348 2.97221 11.458 3.03788 11.3826C3.10353 11.3073 3.17079 11.2334 3.23962 11.1611C3.30845 11.0888 3.37878 11.0181 3.45065 10.9491C3.5225 10.88 3.59581 10.8126 3.67055 10.7469C3.74529 10.6812 3.82141 10.6172 3.8989 10.555C3.97638 10.4928 4.05517 10.4324 4.13525 10.3738C4.21532 10.3152 4.29662 10.2584 4.37913 10.2035C4.46162 10.1487 4.54526 10.0957 4.63004 10.0446C4.71481 9.99358 4.80065 9.9445 4.88752 9.89738C4.9744 9.85026 5.06226 9.80517 5.15107 9.76207C5.23988 9.71899 5.32957 9.67797 5.42015 9.63899C5.51072 9.60002 5.60206 9.56314 5.69422 9.52833C5.78637 9.49356 5.87921 9.46089 5.97277 9.43036C6.06632 9.39983 6.16048 9.37146 6.25524 9.34523C6.35 9.31903 6.44529 9.295 6.54109 9.27314C6.63688 9.2513 6.73309 9.23165 6.82973 9.21421C6.92637 9.19678 7.02333 9.18157 7.12063 9.16857C7.21791 9.15559 7.31543 9.14483 7.41318 9.13629C7.51093 9.12777 7.60881 9.1215 7.70684 9.11747C7.80486 9.11343 7.9029 9.11165 8.00101 9.1121C8.0731 9.1121 8.14514 9.11025 8.21715 9.10658C8.28915 9.10291 8.36102 9.09743 8.43277 9.09011C8.5045 9.0828 8.57603 9.07366 8.64734 9.06272C8.71864 9.05177 8.78965 9.03901 8.86036 9.02446C8.93106 9.0099 9.00137 8.99356 9.07131 8.97543C9.14123 8.9573 9.21068 8.93742 9.27966 8.91577C9.34865 8.89412 9.41707 8.87072 9.48496 8.84559C9.55281 8.82047 9.62005 8.79364 9.68666 8.76508C9.75325 8.73656 9.81913 8.70635 9.8843 8.67445C9.94946 8.64256 10.0138 8.60904 10.0774 8.57388C10.141 8.53872 10.2037 8.50198 10.2655 8.46363C10.3273 8.42529 10.3882 8.38541 10.4482 8.34397C10.5081 8.30254 10.567 8.25962 10.6249 8.21519C10.6828 8.17077 10.7396 8.1249 10.7953 8.07759C10.8511 8.03029 10.9056 7.98158 10.959 7.9315C11.0124 7.88143 11.0646 7.83003 11.1156 7.7773C11.1666 7.72457 11.2163 7.67058 11.2647 7.61531C11.3131 7.56006 11.3601 7.50361 11.4059 7.44597C11.4516 7.38833 11.4959 7.32957 11.5389 7.26966C11.5818 7.20977 11.6233 7.14882 11.6633 7.08682C11.7034 7.02482 11.7419 6.96184 11.779 6.89787C11.816 6.83392 11.8515 6.76906 11.8855 6.70329C11.9195 6.63753 11.9519 6.57095 11.9827 6.50353C12.0135 6.43614 12.0427 6.36799 12.0703 6.29909C12.0979 6.23021 12.1238 6.16065 12.1481 6.09044C12.1724 6.02024 12.195 5.94947 12.2159 5.8781C12.2368 5.80675 12.256 5.7349 12.2735 5.66257C12.291 5.59025 12.3068 5.51752 12.3209 5.44438C12.3349 5.37125 12.3472 5.2978 12.3578 5.22404C12.3684 5.15028 12.3772 5.0763 12.3843 5.00209C12.3913 4.92789 12.3966 4.85355 12.4001 4.77908C12.4037 4.70461 12.4054 4.63009 12.4054 4.55553C12.4054 4.48096 12.4036 4.40645 12.4001 4.33197C12.3965 4.2575 12.3912 4.18316 12.3842 4.10895C12.3771 4.03475 12.3682 3.96078 12.3577 3.88702C12.3471 3.81326 12.3347 3.73982 12.3207 3.66669C12.3066 3.59357 12.2908 3.52084 12.2733 3.4485C12.2558 3.37618 12.2365 3.30435 12.2156 3.233C12.1947 3.16165 12.172 3.09088 12.1477 3.02066C12.1234 2.95046 12.0975 2.88092 12.0699 2.81204C12.0423 2.74316 12.0131 2.67501 11.9823 2.60761C11.9514 2.54022 11.919 2.47363 11.885 2.40787C11.851 2.34212 11.8155 2.27727 11.7785 2.21332C11.7414 2.14938 11.7028 2.0864 11.6628 2.0244C11.6227 1.96242 11.5812 1.90148 11.5383 1.84159C11.4953 1.78172 11.451 1.72295 11.4052 1.66532C11.3595 1.60769 11.3124 1.55125 11.264 1.49601C11.2156 1.44076 11.1659 1.38678 11.1149 1.33407C11.0639 1.28135 11.0117 1.22996 10.9583 1.17989C10.9049 1.12982 10.8503 1.08114 10.7946 1.03384C10.7388 0.986548 10.682 0.940694 10.6241 0.896284C10.5662 0.851875 10.5073 0.80896 10.4473 0.767542C10.3874 0.726125 10.3265 0.686252 10.2646 0.647926C10.2028 0.609602 10.1401 0.572869 10.0765 0.537726C10.0129 0.502586 9.94855 0.469078 9.88338 0.437205C9.81821 0.405333 9.75232 0.375135 9.68572 0.346609C9.61911 0.318084 9.55187 0.291264 9.48399 0.266152C9.41611 0.241041 9.34768 0.217667 9.2787 0.196031C9.2097 0.174394 9.14025 0.154522 9.07031 0.136413C9.00038 0.118304 8.93006 0.10198 8.85936 0.0874421C8.78865 0.072904 8.71764 0.0601689 8.64633 0.0492368C8.57502 0.0383045 8.5035 0.0291884 8.43175 0.0218884C8.35999 0.0145885 8.28812 0.00911357 8.21614 0.00546357C8.14412 0.00181346 8.07207 -7.30031e-06 8 1.28659e-06ZM8 7.63676C7.95119 7.63676 7.90244 7.63553 7.85372 7.63305C7.80498 7.63058 7.75634 7.62686 7.7078 7.62192C7.65924 7.61698 7.61084 7.6108 7.56258 7.6034C7.51432 7.596 7.46626 7.58738 7.41841 7.57752C7.37056 7.56769 7.32298 7.55664 7.27565 7.54436C7.22832 7.53211 7.18132 7.51865 7.13464 7.50399C7.08795 7.48935 7.04164 7.47354 6.99571 7.45653C6.94976 7.43952 6.90426 7.42136 6.85919 7.40205C6.81411 7.38276 6.76953 7.36232 6.72542 7.34074C6.6813 7.31917 6.63775 7.29649 6.59473 7.27269C6.5517 7.24891 6.50926 7.22405 6.46742 7.1981C6.42557 7.17216 6.38437 7.14516 6.3438 7.11712C6.30324 7.08909 6.26336 7.06005 6.22417 7.02999C6.18498 6.99993 6.14653 6.96889 6.10882 6.93688C6.07109 6.90486 6.03418 6.87192 5.99804 6.83803C5.96188 6.80415 5.92656 6.76936 5.89206 6.73368C5.85757 6.698 5.82393 6.66146 5.79116 6.62407C5.75839 6.58669 5.72655 6.54849 5.69559 6.50947C5.66464 6.47047 5.63463 6.4307 5.60558 6.39016C5.5765 6.34963 5.54842 6.3084 5.52133 6.26644C5.49421 6.22448 5.46813 6.18187 5.44305 6.13858C5.41796 6.0953 5.39393 6.05141 5.37093 6.0069C5.34792 5.9624 5.326 5.91735 5.30514 5.87172C5.28428 5.82611 5.26452 5.78 5.24585 5.73337C5.22718 5.68674 5.20962 5.63968 5.19319 5.59217C5.17675 5.54466 5.16145 5.49676 5.14729 5.44847C5.13312 5.40018 5.1201 5.35156 5.10826 5.3026C5.09641 5.25367 5.08572 5.20445 5.07621 5.15495C5.06669 5.10547 5.05835 5.05577 5.0512 5.00583C5.04403 4.95593 5.03806 4.90587 5.03329 4.85563C5.02849 4.80543 5.0249 4.75512 5.02251 4.70472C5.02011 4.65431 5.01892 4.60388 5.01892 4.55342C5.01892 4.50296 5.02011 4.45253 5.02251 4.40213C5.0249 4.35173 5.02849 4.30141 5.03329 4.2512C5.03806 4.20099 5.04403 4.15092 5.0512 4.10099C5.05835 4.05109 5.06669 4.00139 5.07621 3.95188C5.08572 3.9024 5.09641 3.85318 5.10826 3.80422C5.1201 3.75528 5.13312 3.70667 5.14729 3.65837C5.16145 3.61008 5.17675 3.56218 5.19319 3.51467C5.20962 3.46716 5.22718 3.4201 5.24585 3.37347C5.26452 3.32684 5.28428 3.28073 5.30514 3.23511C5.326 3.1895 5.34792 3.14445 5.37093 3.09994C5.39393 3.05544 5.41796 3.01155 5.44305 2.96826C5.46813 2.92498 5.49421 2.88236 5.52133 2.8404C5.54842 2.79844 5.5765 2.7572 5.60558 2.71666C5.63463 2.67613 5.66464 2.63637 5.69559 2.59735C5.72655 2.55835 5.75839 2.52015 5.79116 2.48277C5.82393 2.44539 5.85757 2.40884 5.89206 2.37316C5.92656 2.33748 5.96188 2.30269 5.99802 2.2688C6.03416 2.23492 6.07109 2.20196 6.10882 2.16995C6.14653 2.13794 6.18498 2.10691 6.22417 2.07685C6.26336 2.04679 6.30324 2.01775 6.3438 1.9897C6.38437 1.96168 6.42557 1.93469 6.46742 1.90874C6.50926 1.88281 6.5517 1.85795 6.59473 1.83415C6.63775 1.81037 6.6813 1.78769 6.72542 1.7661C6.76953 1.74453 6.81411 1.72409 6.85919 1.70477C6.90426 1.68546 6.94976 1.66732 6.99571 1.65031C7.04164 1.6333 7.08795 1.61748 7.13464 1.60283C7.18132 1.58819 7.22832 1.57473 7.27565 1.56247C7.32298 1.55021 7.37056 1.53915 7.41841 1.52932C7.46626 1.51946 7.51432 1.51085 7.56258 1.50344C7.61084 1.49604 7.65924 1.48986 7.7078 1.48492C7.75634 1.47997 7.80498 1.47626 7.85372 1.47378C7.90244 1.47131 7.95119 1.47007 8 1.47007C8.04877 1.47007 8.09753 1.47131 8.14627 1.47378C8.19499 1.47626 8.24363 1.47997 8.29218 1.48492C8.34074 1.48986 8.38914 1.49604 8.4374 1.50344C8.48566 1.51085 8.53372 1.51946 8.58157 1.52932C8.62942 1.53915 8.677 1.55021 8.72433 1.56247C8.77165 1.57473 8.81866 1.58819 8.86536 1.60283C8.91203 1.61748 8.95834 1.6333 9.00429 1.65031C9.05022 1.66732 9.09572 1.68546 9.1408 1.70477C9.18587 1.72409 9.23045 1.74453 9.27456 1.7661C9.31866 1.78769 9.36223 1.81037 9.40526 1.83415C9.44829 1.85793 9.49072 1.88279 9.53257 1.90874C9.57441 1.93469 9.61563 1.96168 9.65619 1.9897C9.69674 2.01775 9.73662 2.04679 9.77581 2.07685C9.815 2.10691 9.85344 2.13794 9.89116 2.16995C9.92887 2.20196 9.9658 2.23492 10.002 2.2688C10.0381 2.30269 10.0734 2.33748 10.1079 2.37316C10.1424 2.40884 10.176 2.44538 10.2088 2.48276C10.2416 2.52015 10.2734 2.55835 10.3044 2.59735C10.3353 2.63637 10.3653 2.67613 10.3944 2.71666C10.4235 2.7572 10.4515 2.79844 10.4787 2.8404C10.5058 2.88236 10.5319 2.92498 10.5569 2.96826C10.582 3.01155 10.6061 3.05544 10.6291 3.09994C10.6521 3.14445 10.674 3.1895 10.6948 3.23511C10.7157 3.28073 10.7355 3.32684 10.7541 3.37347C10.7728 3.4201 10.7904 3.46716 10.8068 3.51467C10.8232 3.56218 10.8385 3.61008 10.8527 3.65837C10.8669 3.70667 10.8799 3.75528 10.8917 3.80422C10.9036 3.85318 10.9143 3.9024 10.9238 3.95188C10.9333 4.00139 10.9416 4.05109 10.9488 4.10099C10.956 4.15092 10.9619 4.20099 10.9667 4.2512C10.9715 4.30141 10.9751 4.35173 10.9775 4.40213C10.9799 4.45253 10.9811 4.50296 10.9811 4.55342C10.981 4.60387 10.9798 4.65428 10.9773 4.70467C10.9749 4.75506 10.9713 4.80534 10.9664 4.85554C10.9616 4.90574 10.9556 4.95578 10.9484 5.00568C10.9412 5.05558 10.9328 5.10526 10.9233 5.15473C10.9137 5.20421 10.903 5.2534 10.8911 5.30233C10.8792 5.35126 10.8662 5.39984 10.852 5.44811C10.8378 5.49639 10.8225 5.54427 10.806 5.59175C10.7896 5.63924 10.772 5.68627 10.7533 5.73287C10.7346 5.77947 10.7149 5.82556 10.694 5.87116C10.6731 5.91675 10.6512 5.9618 10.6282 6.00628C10.6051 6.05075 10.5811 6.09462 10.556 6.13788C10.5309 6.18114 10.5048 6.22375 10.4777 6.26568C10.4506 6.30763 10.4225 6.34886 10.3935 6.38936C10.3644 6.42989 10.3344 6.46964 10.3035 6.50862C10.2725 6.54763 10.2406 6.58581 10.2079 6.62318C10.1751 6.66056 10.1415 6.69709 10.107 6.73275C10.0725 6.76844 10.0372 6.80321 10.0011 6.83707C9.96495 6.87097 9.92803 6.90391 9.89034 6.93591C9.85265 6.96792 9.81421 6.99896 9.77503 7.02901C9.73586 7.05908 9.696 7.08812 9.65546 7.11615C9.61491 7.14419 9.57373 7.17119 9.5319 7.19714C9.49007 7.22309 9.44766 7.24797 9.40466 7.27175C9.36165 7.29555 9.31811 7.31826 9.27402 7.33984C9.22994 7.36143 9.18537 7.38189 9.14032 7.40122C9.09527 7.42056 9.04978 7.43874 9.00388 7.45574C8.95796 7.47278 8.91167 7.48862 8.865 7.50329C8.81834 7.51797 8.77136 7.53146 8.72406 7.54374C8.67675 7.55605 8.62918 7.56713 8.58136 7.57699C8.53353 7.58688 8.48549 7.59555 8.43726 7.60299C8.38901 7.61043 8.34063 7.61665 8.29209 7.62163C8.24356 7.62664 8.19493 7.63038 8.14623 7.6329C8.09751 7.63543 8.04877 7.63672 8 7.63676ZM15.9913 14.6701C15.9797 14.5959 15.9671 14.5218 15.9536 14.4479C15.9401 14.374 15.9256 14.3002 15.9102 14.2267C15.8948 14.1532 15.8784 14.0799 15.8611 14.0069C15.8437 13.9338 15.8254 13.861 15.8062 13.7885C15.787 13.716 15.7667 13.6437 15.7456 13.5717C15.7245 13.4997 15.7024 13.4281 15.6794 13.3567C15.6564 13.2853 15.6325 13.2143 15.6076 13.1436C15.5828 13.0729 15.557 13.0026 15.5303 12.9326C15.5037 12.8626 15.4761 12.7931 15.4475 12.7238C15.419 12.6546 15.3897 12.5859 15.3593 12.5175C15.329 12.4491 15.2979 12.3811 15.2658 12.3136C15.2337 12.2461 15.2007 12.1791 15.1669 12.1125C15.133 12.0459 15.0985 11.9798 15.0628 11.9142C15.0272 11.8485 14.9909 11.7834 14.9537 11.7188C14.9164 11.6542 14.8783 11.5901 14.8393 11.5266C14.8005 11.463 14.7608 11.4 14.7202 11.3376C14.6796 11.2752 14.6383 11.2133 14.596 11.152C14.5539 11.0908 14.5109 11.0301 14.4671 10.97C14.4234 10.9099 14.3788 10.8505 14.3335 10.7916C14.2882 10.7328 14.2421 10.6746 14.1953 10.6171C14.1484 10.5595 14.1009 10.5026 14.0526 10.4464C14.0042 10.3902 13.9552 10.3347 13.9054 10.2798C13.8556 10.225 13.8052 10.1708 13.754 10.1174C13.7028 10.0639 13.6509 10.0112 13.5984 9.95922C13.5458 9.90723 13.4926 9.85598 13.4387 9.80547C13.3848 9.75496 13.3302 9.70523 13.2751 9.65624C13.2199 9.60725 13.164 9.55904 13.1076 9.51163C13.0511 9.46421 12.9941 9.41757 12.9364 9.37173C12.8787 9.32591 12.8205 9.28089 12.7616 9.23669C12.7028 9.19248 12.6434 9.14912 12.5834 9.10655C12.5234 9.06402 12.4629 9.02232 12.4018 8.98145C12.3408 8.9406 12.2792 8.90061 12.2171 8.86147C12.2072 8.85396 12.1971 8.84669 12.1868 8.83971C12.1765 8.83273 12.1661 8.82602 12.1555 8.81959C12.1449 8.81317 12.1341 8.80703 12.1232 8.80118C12.1123 8.79534 12.1012 8.78979 12.0901 8.78452C12.0789 8.77927 12.0675 8.77431 12.0561 8.76965C12.0447 8.76501 12.0331 8.76066 12.0215 8.75663C12.0098 8.75259 11.9981 8.74886 11.9862 8.74545C11.9744 8.74206 11.9625 8.73897 11.9505 8.73619C11.9385 8.73343 11.9264 8.73098 11.9143 8.72886C11.9022 8.72673 11.89 8.72494 11.8778 8.72346C11.8656 8.72199 11.8534 8.72084 11.8411 8.72002C11.8289 8.7192 11.8166 8.71871 11.8043 8.71855C11.792 8.7184 11.7797 8.71856 11.7674 8.71905C11.7552 8.71955 11.7429 8.72037 11.7307 8.72152C11.7184 8.72267 11.7062 8.72416 11.694 8.72596C11.6819 8.72776 11.6698 8.72989 11.6577 8.73234C11.6456 8.7348 11.6337 8.73757 11.6217 8.74066C11.6098 8.74376 11.598 8.74717 11.5862 8.7509C11.5745 8.75462 11.5628 8.75867 11.5513 8.76302C11.5397 8.76737 11.5283 8.77203 11.517 8.77698C11.5057 8.78195 11.4945 8.78723 11.4834 8.79278C11.4724 8.79834 11.4615 8.80419 11.4507 8.81033C11.44 8.81648 11.4294 8.82291 11.4189 8.82963C11.4085 8.83634 11.3982 8.84333 11.3881 8.85058C11.3781 8.85785 11.3681 8.86537 11.3584 8.87316C11.3487 8.88095 11.3392 8.889 11.3299 8.89729C11.3206 8.9056 11.3115 8.91413 11.3026 8.92293C11.2937 8.93172 11.2851 8.94074 11.2767 8.94998C11.2682 8.95923 11.26 8.9687 11.2521 8.97839C11.2441 8.98809 11.2364 8.99797 11.229 9.00807C11.2215 9.01818 11.2143 9.02847 11.2073 9.03895C11.2004 9.04944 11.1937 9.06011 11.1873 9.07095C11.1809 9.0818 11.1747 9.0928 11.1689 9.10398C11.163 9.11515 11.1574 9.12647 11.1521 9.13793C11.1468 9.14942 11.1418 9.16102 11.1371 9.17275C11.1324 9.1845 11.128 9.19635 11.1239 9.20833C11.1197 9.2203 11.1159 9.23238 11.1124 9.24455C11.1089 9.25674 11.1057 9.269 11.1028 9.28136C11.0999 9.29371 11.0973 9.30613 11.095 9.31862C11.0927 9.33111 11.0907 9.34366 11.0891 9.35624C11.0874 9.36885 11.0861 9.38148 11.085 9.39414C11.084 9.40681 11.0833 9.4195 11.0829 9.4322C11.0825 9.4449 11.0824 9.45762 11.0827 9.47032C11.0829 9.48304 11.0835 9.49573 11.0844 9.5084C11.0853 9.52109 11.0864 9.53373 11.088 9.54634C11.0895 9.55897 11.0913 9.57153 11.0934 9.58405C11.0956 9.59657 11.098 9.60902 11.1008 9.6214C11.1036 9.6338 11.1066 9.6461 11.11 9.65831C11.1134 9.67055 11.1171 9.68267 11.1211 9.69469C11.1251 9.70671 11.1293 9.71863 11.1339 9.73042C11.1385 9.74222 11.1434 9.75389 11.1485 9.76541C11.1537 9.77696 11.1591 9.78834 11.1649 9.79957C11.1706 9.81082 11.1766 9.82192 11.1829 9.83283C11.1892 9.84376 11.1958 9.85451 11.2026 9.86507C11.2094 9.87565 11.2165 9.88602 11.2239 9.89621C11.2312 9.90641 11.2388 9.9164 11.2466 9.92618C11.2545 9.93597 11.2626 9.94553 11.2709 9.95489C11.2792 9.96424 11.2878 9.97336 11.2966 9.98225C11.3053 9.99116 11.3143 9.99981 11.3236 10.0082C11.3328 10.0166 11.3422 10.0248 11.3518 10.0327C11.3614 10.0406 11.3712 10.0483 11.3812 10.0556C11.3912 10.063 11.4014 10.0701 11.4118 10.077C11.4221 10.0838 11.4327 10.0904 11.4434 10.0966C11.454 10.1029 11.4649 10.1089 11.4759 10.1146C11.5271 10.1469 11.5779 10.1798 11.6283 10.2135C11.6786 10.2472 11.7285 10.2816 11.778 10.3166C11.8275 10.3517 11.8765 10.3875 11.925 10.4239C11.9736 10.4603 12.0216 10.4974 12.0692 10.5352C12.1167 10.573 12.1638 10.6115 12.2104 10.6505C12.2569 10.6896 12.303 10.7294 12.3485 10.7697C12.394 10.8101 12.439 10.8511 12.4835 10.8928C12.528 10.9344 12.5719 10.9767 12.6152 11.0195C12.6586 11.0624 12.7014 11.1059 12.7436 11.1499C12.7858 11.194 12.8274 11.2386 12.8685 11.2838C12.9095 11.3291 12.95 11.3748 12.9898 11.4212C13.0297 11.4675 13.069 11.5144 13.1076 11.5619C13.1462 11.6093 13.1842 11.6573 13.2216 11.7058C13.259 11.7543 13.2957 11.8033 13.3318 11.8529C13.3679 11.9024 13.4034 11.9525 13.4382 12.003C13.473 12.0535 13.5071 12.1045 13.5406 12.156C13.574 12.2074 13.6068 12.2594 13.6389 12.3118C13.671 12.3642 13.7025 12.417 13.7332 12.4703C13.7639 12.5235 13.7939 12.5772 13.8233 12.6313C13.8526 12.6855 13.8812 12.74 13.9091 12.7949C13.937 12.8498 13.9642 12.9051 13.9907 12.9607C14.0171 13.0164 14.0429 13.0724 14.0679 13.1288C14.0929 13.1852 14.1171 13.2419 14.1406 13.299C14.1642 13.3561 14.1869 13.4135 14.209 13.4711C14.231 13.5288 14.2522 13.5868 14.2728 13.6451C14.2933 13.7034 14.313 13.762 14.332 13.8208C14.3509 13.8797 14.3692 13.9388 14.3866 13.9981C14.404 14.0575 14.4207 14.1171 14.4366 14.1769C14.4524 14.2367 14.4675 14.2967 14.4818 14.357C14.4961 14.4172 14.5097 14.4777 14.5224 14.5383C14.5351 14.5989 14.5471 14.6597 14.5582 14.7206C14.5694 14.7816 14.5797 14.8427 14.5893 14.9039C14.591 14.9146 14.5929 14.9252 14.595 14.9357C14.5971 14.9463 14.5995 14.9568 14.6021 14.9672C14.6047 14.9777 14.6075 14.9881 14.6105 14.9984C14.6135 15.0087 14.6167 15.019 14.6202 15.0292C14.6237 15.0393 14.6273 15.0494 14.6312 15.0594C14.6351 15.0695 14.6392 15.0794 14.6435 15.0892C14.6478 15.099 14.6523 15.1088 14.657 15.1184C14.6617 15.128 14.6667 15.1375 14.6718 15.1469C14.677 15.1563 14.6822 15.1655 14.6877 15.1748C14.6932 15.1839 14.6989 15.193 14.7048 15.2018C14.7108 15.2107 14.7168 15.2195 14.7231 15.2281C14.7294 15.2366 14.7359 15.2451 14.7425 15.2535C14.7491 15.2618 14.756 15.27 14.7628 15.278C14.7699 15.286 14.7771 15.2939 14.7842 15.3017C14.7916 15.3094 14.799 15.3168 14.8067 15.3242C14.8143 15.3315 14.8221 15.3386 14.8301 15.3458C14.838 15.3527 14.8461 15.3596 14.8543 15.3662C14.8625 15.3728 14.8709 15.3793 14.8794 15.3855C14.8879 15.3917 14.8965 15.3978 14.9053 15.4037C14.9139 15.4096 14.9229 15.4152 14.9318 15.4207C14.9408 15.4261 14.95 15.4314 14.9592 15.4364C14.9685 15.4414 14.9777 15.4463 14.9871 15.451C14.9966 15.4557 15.0061 15.4601 15.0156 15.4642C15.0253 15.4682 15.035 15.4723 15.0448 15.4761C15.0546 15.4799 15.0645 15.4834 15.0743 15.4866C15.0842 15.4899 15.0942 15.493 15.1043 15.4958C15.1144 15.4987 15.1245 15.5014 15.1347 15.5037C15.1448 15.5061 15.155 15.5083 15.1653 15.5102C15.1755 15.5122 15.1858 15.5139 15.1962 15.5152C15.2066 15.5168 15.2169 15.518 15.2273 15.519C15.2377 15.5199 15.2481 15.5207 15.2585 15.5213C15.2689 15.5218 15.2793 15.5221 15.2897 15.5221C15.328 15.5221 15.3661 15.5189 15.4037 15.5127C15.4153 15.5107 15.4267 15.5084 15.438 15.5058C15.4493 15.5033 15.4606 15.5005 15.4719 15.4974C15.483 15.4942 15.4941 15.4908 15.5053 15.4872C15.5163 15.4836 15.5273 15.4796 15.5381 15.4754C15.549 15.4711 15.5597 15.4666 15.5704 15.4619C15.5811 15.4572 15.5916 15.452 15.602 15.4467C15.6124 15.4414 15.6227 15.436 15.6328 15.43C15.6429 15.4241 15.653 15.4181 15.6628 15.4119C15.6727 15.4055 15.6825 15.399 15.692 15.3922C15.7015 15.3853 15.7109 15.3782 15.7201 15.3709C15.7294 15.3637 15.7385 15.3561 15.7474 15.3483C15.7562 15.3406 15.7648 15.3327 15.7733 15.3244C15.7818 15.3162 15.7902 15.3079 15.7982 15.2992C15.8063 15.2906 15.8142 15.2818 15.8218 15.2729C15.8296 15.2639 15.8371 15.2547 15.8443 15.2453C15.8514 15.2359 15.8585 15.2263 15.8654 15.2166C15.8721 15.2068 15.8787 15.1969 15.885 15.1869C15.8913 15.1768 15.8975 15.1666 15.9033 15.1562C15.909 15.1458 15.9146 15.1353 15.92 15.1246C15.9255 15.114 15.9304 15.1032 15.9353 15.0922C15.9401 15.0813 15.9448 15.0703 15.9491 15.0591C15.9533 15.048 15.9574 15.0367 15.9612 15.0254C15.9649 15.014 15.9684 15.0026 15.9716 14.9911C15.975 14.9795 15.9779 14.9679 15.9806 14.9562C15.9833 14.9446 15.9857 14.9328 15.9879 14.921C15.9899 14.9092 15.9918 14.8974 15.9935 14.8855C15.9951 14.8736 15.9962 14.8616 15.9973 14.8497C15.9983 14.8377 15.999 14.8257 15.9995 14.8137C15.9999 14.8017 16.0001 14.7897 15.9999 14.7777C15.9998 14.7657 15.9995 14.7537 15.9987 14.7417C15.998 14.7297 15.9971 14.7178 15.9958 14.7058C15.9945 14.6939 15.993 14.682 15.9913 14.6701Z"   fill="#949494" >
</path>
</svg>
