<svg xmlns="http://www.w3.org/2000/svg" xmlns:xlink="http://www.w3.org/1999/xlink" fill="none" version="1.1" width="27" height="27.000001907348633" viewBox="0 0 27 27.000001907348633"><defs><clipPath id="master_svg0_25_4130"><rect x="0" y="0" width="27" height="27.000001907348633" rx="0"/></clipPath></defs><g clip-path="url(#master_svg0_25_4130)"><g><path d="M20.25,19.35L17.775,16.875L10.35,16.875L7.875,19.35L7.875,21.375L20.25,21.375L20.25,19.35ZM21.375,18.9L21.375,22.5L6.75,22.5L6.75,18.9L9.9,15.75L18.1125,15.75L21.375,18.9ZM19.125,9.5625C19.125,12.375,16.875,14.625,14.0625,14.625C11.25,14.625,9,12.375,9,9.5625C9,6.75,11.25,4.5,14.0625,4.5C16.875,4.5,19.125,6.75,19.125,9.5625ZM18,9.5625C18,7.425,16.2,5.625,14.0625,5.625C11.925,5.625,10.125,7.425,10.125,9.5625C10.125,11.7,11.925,13.5,14.0625,13.5C16.2,13.5,18,11.7,18,9.5625Z" fill="#FFFFFF" fill-opacity="0.800000011920929" style="mix-blend-mode:passthrough"/></g></g></svg>