<svg xmlns="http://www.w3.org/2000/svg" xmlns:xlink="http://www.w3.org/1999/xlink" width="12" height="12" viewBox="0 0 12 12" fill="none">
<path d="M6 8.25C6.09713 8.25 6.18488 8.21212 6.25144 8.15156L6.25219 8.1525L10.3772 4.4025L10.3763 4.40156C10.4518 4.33294 10.5 4.23506 10.5 4.125C10.5 4.11886 10.4998 4.11273 10.4995 4.1066C10.4993 4.10047 10.4988 4.09435 10.4982 4.08824C10.4976 4.08214 10.4968 4.07605 10.4959 4.06998C10.495 4.06391 10.494 4.05786 10.4928 4.05184C10.4916 4.04582 10.4902 4.03984 10.4888 4.03389C10.4873 4.02793 10.4856 4.02202 10.4839 4.01614C10.4821 4.01027 10.4801 4.00444 10.4781 3.99866C10.476 3.99289 10.4738 3.98716 10.4715 3.98149C10.4691 3.97582 10.4666 3.97021 10.464 3.96466C10.4614 3.95912 10.4586 3.95364 10.4557 3.94822C10.4528 3.94281 10.4498 3.93747 10.4466 3.93221C10.4435 3.92695 10.4402 3.92177 10.4368 3.91666C10.4334 3.91156 10.4299 3.90655 10.4262 3.90162C10.4226 3.89669 10.4188 3.89185 10.4149 3.8871C10.411 3.88235 10.407 3.87771 10.4029 3.87316C10.3987 3.86862 10.3945 3.86418 10.3902 3.85984C10.3858 3.8555 10.3814 3.85127 10.3768 3.84715C10.3723 3.84302 10.3676 3.83902 10.3629 3.83513C10.3582 3.83123 10.3533 3.82745 10.3484 3.82379C10.3434 3.82014 10.3384 3.81661 10.3333 3.8132C10.3282 3.80979 10.323 3.80651 10.3178 3.80336C10.3125 3.8002 10.3072 3.79718 10.3018 3.79429C10.2964 3.79139 10.2909 3.78862 10.2853 3.786C10.2798 3.78337 10.2742 3.78089 10.2685 3.77855C10.2628 3.7762 10.2571 3.77399 10.2513 3.77193C10.2456 3.76986 10.2397 3.76793 10.2339 3.76615C10.228 3.76437 10.2221 3.76273 10.2161 3.76124C10.2102 3.75975 10.2042 3.7584 10.1982 3.75721C10.1921 3.75601 10.1861 3.75496 10.18 3.75405C10.1739 3.75316 10.1679 3.75241 10.1618 3.7518C10.1557 3.7512 10.1495 3.75075 10.1434 3.75046C10.1373 3.75015 10.1311 3.75 10.125 3.75C10.0279 3.75 9.94031 3.78787 9.87356 3.84844L9.87263 3.8475L6 7.36819L2.12738 3.8475L2.12644 3.84844C2.1222 3.84454 2.11788 3.84074 2.11346 3.83704C2.10905 3.83334 2.10456 3.82975 2.09998 3.82625C2.0954 3.82276 2.09074 3.81938 2.08601 3.81611C2.08127 3.81283 2.07647 3.80967 2.07158 3.80661C2.0667 3.80356 2.06175 3.80062 2.05673 3.7978C2.05171 3.79498 2.04663 3.79228 2.04149 3.78969C2.03635 3.78711 2.03115 3.78464 2.02589 3.7823C2.02063 3.77995 2.01531 3.77772 2.00995 3.77563C2.00459 3.77353 1.99919 3.77155 1.99373 3.7697C1.98828 3.76786 1.98279 3.76614 1.97726 3.76454C1.97173 3.76295 1.96616 3.76148 1.96056 3.76015C1.95496 3.75881 1.94933 3.75761 1.94367 3.75654C1.93802 3.75546 1.93234 3.75452 1.92663 3.7537C1.92093 3.7529 1.91522 3.75222 1.90949 3.75168C1.90375 3.75113 1.89801 3.75071 1.89226 3.75043C1.88651 3.75016 1.88076 3.75002 1.875 3.75C1.86886 3.75 1.86273 3.75015 1.8566 3.75046C1.85047 3.75075 1.84435 3.7512 1.83824 3.7518C1.83214 3.75241 1.82605 3.75316 1.81998 3.75405C1.81391 3.75496 1.80786 3.75601 1.80184 3.75721C1.79582 3.7584 1.78984 3.75975 1.78389 3.76124C1.77793 3.76273 1.77202 3.76437 1.76614 3.76615C1.76027 3.76793 1.75445 3.76986 1.74867 3.77193C1.74289 3.77399 1.73716 3.7762 1.73149 3.77855C1.72582 3.78089 1.72021 3.78337 1.71466 3.786C1.70912 3.78862 1.70364 3.79139 1.69822 3.79429C1.69282 3.79718 1.68748 3.8002 1.68221 3.80336C1.67695 3.80651 1.67177 3.80979 1.66666 3.8132C1.66156 3.81661 1.65655 3.82014 1.65162 3.82379C1.64669 3.82745 1.64185 3.83123 1.6371 3.83513C1.63236 3.83902 1.62771 3.84302 1.62316 3.84715C1.61862 3.85127 1.61418 3.8555 1.60984 3.85984C1.6055 3.86418 1.60127 3.86862 1.59715 3.87316C1.59302 3.87771 1.58902 3.88235 1.58513 3.8871C1.58123 3.89185 1.57745 3.89669 1.57379 3.90162C1.57014 3.90655 1.56661 3.91156 1.5632 3.91666C1.55979 3.92177 1.55651 3.92695 1.55336 3.93221C1.5502 3.93748 1.54718 3.94282 1.54429 3.94822C1.54139 3.95364 1.53863 3.95912 1.536 3.96466C1.53338 3.97021 1.53089 3.97582 1.52855 3.98149C1.5262 3.98716 1.52399 3.99289 1.52193 3.99867C1.51986 4.00445 1.51793 4.01027 1.51615 4.01614C1.51437 4.02202 1.51273 4.02793 1.51124 4.03389C1.50975 4.03984 1.5084 4.04582 1.50721 4.05184C1.50601 4.05786 1.50496 4.06391 1.50405 4.06998C1.50316 4.07605 1.50241 4.08214 1.5018 4.08824C1.5012 4.09435 1.50075 4.10047 1.50046 4.1066C1.50015 4.11273 1.5 4.11886 1.5 4.125C1.5 4.23488 1.54819 4.33294 1.62356 4.40156L1.62262 4.4025L5.74762 8.1525L5.74856 8.15156C5.81512 8.21212 5.90287 8.25 6 8.25Z"   fill="#C9C9C9" >
</path>
</svg>
