<svg xmlns="http://www.w3.org/2000/svg" xmlns:xlink="http://www.w3.org/1999/xlink" width="13.86328125" height="15.91748046875" viewBox="0 0 13.86328125 15.91748046875" fill="none">
<path d="M13.7534 7.88578C13.7519 7.87679 13.7502 7.86786 13.7483 7.85895C13.7463 7.85005 13.7442 7.8412 13.7419 7.8324C13.7395 7.82361 13.7369 7.81487 13.7341 7.8062C13.7314 7.79753 13.7284 7.78894 13.7252 7.7804C13.722 7.77189 13.7185 7.76345 13.7149 7.75508C13.7113 7.74673 13.7075 7.73847 13.7035 7.7303C13.6994 7.72214 13.6952 7.71408 13.6908 7.70611C13.6864 7.69814 13.6817 7.6903 13.6769 7.68256C13.6721 7.67483 13.6671 7.66722 13.6619 7.65972C13.6568 7.65223 13.6514 7.64487 13.6459 7.63765C13.6403 7.63044 13.6346 7.62334 13.6287 7.61639C13.6228 7.60945 13.6167 7.60267 13.6105 7.59601C13.6043 7.58936 13.5979 7.58287 13.5914 7.57653C13.5848 7.5702 13.5781 7.56403 13.5713 7.55803C13.5644 7.55203 13.5575 7.54619 13.5503 7.54053C13.5432 7.53487 13.5359 7.52939 13.5285 7.52408C13.5211 7.51878 13.5136 7.51365 13.5059 7.50872C13.4983 7.5038 13.4905 7.49906 13.4826 7.4945C13.4747 7.48995 13.4667 7.48559 13.4586 7.48142C13.4505 7.47726 13.4423 7.47331 13.434 7.46954C13.4257 7.4658 13.4173 7.46223 13.4089 7.45889C13.4004 7.45554 13.3919 7.45242 13.3832 7.44948C13.3746 7.44656 13.3659 7.44384 13.3572 7.44134C13.3484 7.43886 13.3396 7.43658 13.3307 7.4345C13.3219 7.43244 13.3129 7.43059 13.304 7.42897C13.295 7.42734 13.286 7.42592 13.277 7.42473C13.268 7.42356 13.2589 7.42259 13.2498 7.42184C13.2407 7.42111 13.2317 7.42059 13.2226 7.4203C13.2135 7.42 13.2044 7.41992 13.1952 7.42008C13.1861 7.42023 13.177 7.42061 13.168 7.4212C13.1589 7.42181 13.1498 7.42264 13.1408 7.42367C13.1317 7.42472 13.1227 7.42598 13.1137 7.42747C13.1047 7.42897 13.0958 7.43067 13.0869 7.43259C13.078 7.43453 13.0691 7.43667 13.0603 7.43901C13.0515 7.44139 13.0428 7.44397 13.0341 7.44675C13.0255 7.44954 13.0169 7.45255 13.0083 7.45575C12.9998 7.45897 12.9914 7.46239 12.983 7.46601C12.9747 7.46964 12.9664 7.47347 12.9583 7.4775C12.9501 7.48153 12.942 7.48576 12.9341 7.49019C12.9261 7.49462 12.9183 7.49923 12.9105 7.50405C12.9028 7.50886 12.8952 7.51386 12.8877 7.51904C12.8802 7.52423 12.8729 7.52961 12.8657 7.53515C12.8584 7.54072 12.8514 7.54644 12.8444 7.55233C12.8375 7.55823 12.8307 7.5643 12.824 7.57051C12.8174 7.57675 12.8109 7.58314 12.8046 7.58969C12.7982 7.59623 12.7921 7.60294 12.7861 7.60978C12.7801 7.61664 12.7742 7.62364 12.7686 7.63076C12.7629 7.6379 12.7575 7.64517 12.7522 7.65258C12.7469 7.65998 12.7417 7.66751 12.7368 7.67517C12.7319 7.68284 12.7272 7.69062 12.7226 7.6985C12.7181 7.7064 12.7137 7.7144 12.7096 7.7225C12.7054 7.73061 12.7015 7.73881 12.6977 7.74709C12.6939 7.7554 12.6904 7.76378 12.6871 7.77225C12.6837 7.78073 12.6806 7.78928 12.6777 7.7979C12.6747 7.80653 12.672 7.81523 12.6695 7.82398C12.6671 7.83275 12.6648 7.84156 12.6627 7.85042C12.6607 7.85929 12.6588 7.86822 12.6572 7.87717C12.6556 7.88614 12.6542 7.89514 12.653 7.90417C12.6518 7.9132 12.6509 7.92225 12.6501 7.93133C12.6494 7.9404 12.6489 7.9495 12.6486 7.95859C12.6483 7.9677 12.6482 7.97681 12.6484 7.9859C12.6485 7.99501 12.6489 8.00411 12.6495 8.0132C12.6501 8.02229 12.651 8.03136 12.652 8.0404C12.6531 8.04945 12.6543 8.05847 12.6558 8.06744C12.6812 8.22131 12.7002 8.37597 12.7128 8.53139C12.7255 8.68683 12.7317 8.84251 12.7315 8.99845C12.7315 9.06962 12.7302 9.14076 12.7275 9.21189C12.7249 9.28301 12.7209 9.35406 12.7157 9.42503C12.7104 9.496 12.7038 9.56686 12.696 9.63759C12.6881 9.70833 12.6789 9.77889 12.6684 9.84928C12.658 9.91968 12.6462 9.98986 12.6332 10.0598C12.6201 10.1298 12.6058 10.1995 12.5901 10.2689C12.5745 10.3383 12.5576 10.4075 12.5395 10.4763C12.5213 10.5451 12.5019 10.6135 12.4812 10.6816C12.4605 10.7497 12.4385 10.8174 12.4154 10.8847C12.3922 10.952 12.3678 11.0188 12.3421 11.0852C12.3165 11.1516 12.2897 11.2175 12.2616 11.2829C12.2335 11.3483 12.2042 11.4132 12.1738 11.4775C12.1433 11.5418 12.1117 11.6056 12.0789 11.6687C12.0461 11.7319 12.0122 11.7944 11.977 11.8563C11.9419 11.9182 11.9057 11.9795 11.8683 12.04C11.831 12.1006 11.7925 12.1605 11.753 12.2196C11.7134 12.2788 11.6727 12.3372 11.631 12.3949C11.5893 12.4525 11.5465 12.5094 11.5027 12.5655C11.4589 12.6216 11.4141 12.6768 11.3682 12.7313C11.3224 12.7857 11.2756 12.8393 11.2277 12.892C11.1799 12.9447 11.1312 12.9965 11.0814 13.0474C11.0317 13.0983 10.9811 13.1483 10.9295 13.1974C10.8779 13.2464 10.8255 13.2945 10.7721 13.3416C10.7188 13.3887 10.6646 13.4348 10.6096 13.48C10.5545 13.5251 10.4987 13.5692 10.442 13.6122C10.3854 13.6553 10.3279 13.6973 10.2697 13.7383C10.2115 13.7792 10.1526 13.8191 10.0929 13.8579C10.0332 13.8967 9.97287 13.9343 9.91181 13.9709C9.85075 14.0075 9.78903 14.0429 9.72667 14.0772C9.66431 14.1114 9.60133 14.1446 9.53773 14.1765C9.47415 14.2085 9.41 14.2393 9.34528 14.2689C9.28056 14.2985 9.21531 14.3269 9.14955 14.3541C9.08378 14.3813 9.01755 14.4073 8.95083 14.432C8.88409 14.4568 8.81694 14.4803 8.74936 14.5026C8.68176 14.5249 8.61378 14.5459 8.54542 14.5657C8.47706 14.5855 8.40836 14.604 8.33931 14.6213C8.27026 14.6385 8.20094 14.6545 8.1313 14.6692C8.06166 14.6839 7.99178 14.6973 7.92166 14.7095C7.85153 14.7216 7.7812 14.7324 7.71067 14.742C7.64016 14.7515 7.56947 14.7597 7.49864 14.7667C7.42781 14.7736 7.35687 14.7793 7.28584 14.7836C7.2148 14.7879 7.1437 14.7909 7.07256 14.7926C7.00142 14.7943 6.93026 14.7947 6.85909 14.7938C6.78792 14.7929 6.7168 14.7907 6.64572 14.7872C6.57464 14.7836 6.50366 14.7788 6.43275 14.7726C6.36184 14.7665 6.29108 14.759 6.22045 14.7503C6.14983 14.7415 6.07939 14.7315 6.00912 14.7201C5.93886 14.7088 5.86884 14.6962 5.79905 14.6822C5.72925 14.6683 5.65973 14.6531 5.5905 14.6366C5.52127 14.6201 5.45236 14.6024 5.38378 14.5833C5.3152 14.5643 5.247 14.544 5.17917 14.5225C5.11134 14.501 5.04392 14.4782 4.97692 14.4542C4.90994 14.4302 4.84341 14.4049 4.77734 14.3784C4.71127 14.352 4.64572 14.3243 4.58067 14.2954C4.51562 14.2666 4.45114 14.2365 4.3872 14.2052C4.32327 14.174 4.25992 14.1416 4.19717 14.108C4.13444 14.0744 4.07233 14.0396 4.01086 14.0038C3.94939 13.9679 3.88861 13.9309 3.8285 13.8928C3.76839 13.8547 3.70902 13.8155 3.65036 13.7752C3.5917 13.7349 3.53381 13.6935 3.47667 13.6511C3.41953 13.6086 3.3632 13.5652 3.30766 13.5207C3.25212 13.4762 3.19742 13.4307 3.14356 13.3841C3.0897 13.3376 3.03672 13.2901 2.98461 13.2416C2.9325 13.1932 2.88131 13.1438 2.83102 13.0934C2.78066 13.0431 2.73123 12.9919 2.68277 12.9398C2.6343 12.8877 2.5868 12.8347 2.54028 12.7808C2.49377 12.727 2.44825 12.6723 2.40373 12.6167C2.35923 12.5612 2.31577 12.5049 2.27333 12.4477C2.23091 12.3906 2.18953 12.3327 2.14923 12.274C2.10894 12.2154 2.06972 12.156 2.03161 12.0959C1.9935 12.0358 1.95652 11.975 1.92064 11.9135C1.88477 11.8521 1.85003 11.79 1.81644 11.7272C1.78286 11.6645 1.75044 11.6011 1.71917 11.5372C1.68792 11.4733 1.65786 11.4088 1.62897 11.3437C1.60009 11.2787 1.57242 11.2131 1.54595 11.1471C1.51949 11.081 1.49425 11.0145 1.47024 10.9475C1.44621 10.8805 1.42344 10.8131 1.40191 10.7452C1.38037 10.6774 1.36008 10.6092 1.34106 10.5406C1.32204 10.472 1.30429 10.4031 1.2878 10.3339C1.27132 10.2647 1.25612 10.1952 1.24219 10.1254C1.22826 10.0556 1.21563 9.98554 1.20428 9.91528C1.19294 9.84503 1.18289 9.77458 1.17413 9.70395C1.16538 9.63333 1.15793 9.56256 1.15178 9.49165C1.14564 9.42075 1.1408 9.34976 1.13727 9.27867C1.13374 9.20761 1.13151 9.13648 1.1306 9.06531C1.12968 8.99415 1.13007 8.923 1.13178 8.85184C1.13349 8.7807 1.13651 8.70961 1.14083 8.63856C1.14515 8.56753 1.15078 8.49661 1.15772 8.42576C1.16466 8.35493 1.1729 8.28426 1.18244 8.21375C1.19198 8.1432 1.20281 8.07287 1.21494 8.00275C1.22707 7.93262 1.24049 7.86275 1.25519 7.79311C1.26989 7.72348 1.28587 7.65414 1.30313 7.58509C1.32038 7.51605 1.3389 7.44734 1.35869 7.37898C1.37847 7.31062 1.39951 7.24264 1.4218 7.17505C1.44409 7.10747 1.46762 7.04031 1.49238 6.97358C1.51714 6.90686 1.54312 6.84062 1.57031 6.77486C1.59752 6.70909 1.62592 6.64384 1.65553 6.57912C1.68514 6.5144 1.71592 6.45026 1.74787 6.38667C1.77984 6.32308 1.81297 6.26011 1.84725 6.19773C1.88155 6.13537 1.91697 6.07365 1.95352 6.01259C1.99008 5.95153 2.02775 5.89117 2.06653 5.83148C2.10531 5.77183 2.14517 5.71289 2.18612 5.65467C2.22708 5.59647 2.26908 5.53903 2.31216 5.48237C2.35522 5.42572 2.39931 5.36986 2.44444 5.31483C2.48956 5.2598 2.53569 5.20561 2.5828 5.15226C2.62991 5.09894 2.678 5.04648 2.72705 4.9949C2.77609 4.94334 2.82608 4.8927 2.877 4.84297C2.92791 4.79325 2.97972 4.74447 3.03244 4.69665C3.08514 4.64884 3.13872 4.602 3.19314 4.55616C3.24758 4.51031 3.30284 4.46548 3.35892 4.42167C3.41502 4.37786 3.47189 4.33509 3.52955 4.29337C3.58722 4.25166 3.64562 4.21101 3.70478 4.17145C3.76394 4.13189 3.8238 4.09344 3.88437 4.05606C3.94495 4.01872 4.00619 3.98248 4.06809 3.94736C4.13 3.91226 4.19253 3.87831 4.25569 3.8455C4.31884 3.8127 4.38258 3.78108 4.44691 3.75061C4.51123 3.72016 4.57609 3.69089 4.6415 3.66283C4.70689 3.63476 4.7728 3.60791 4.83919 3.58226C4.90558 3.55662 4.97241 3.53222 5.0397 3.50903C5.10698 3.48586 5.17467 3.46392 5.24278 3.44323C5.31087 3.42255 5.37933 3.40312 5.44814 3.38495C5.51695 3.3668 5.58608 3.34989 5.6555 3.33426C5.72494 3.31866 5.79464 3.30431 5.86459 3.29125C5.93455 3.2782 6.00473 3.26644 6.07512 3.25597C6.14551 3.2455 6.21608 3.23633 6.28681 3.22845C6.35755 3.22058 6.42841 3.21401 6.49937 3.20875C6.57036 3.2035 6.64141 3.19955 6.71251 3.19689C6.78364 3.19425 6.85478 3.19291 6.92595 3.19287L7.12275 3.19287L5.85869 4.45694C5.84967 4.46228 5.8408 4.46787 5.83209 4.47372C5.82339 4.47956 5.81484 4.48565 5.80648 4.49198C5.79812 4.49833 5.78994 4.50489 5.78195 4.51169C5.77397 4.51848 5.76617 4.5255 5.75859 4.53273C5.751 4.53998 5.74362 4.54744 5.73647 4.55509C5.7293 4.56276 5.72236 4.57062 5.71564 4.57867C5.70892 4.58673 5.70244 4.59498 5.6962 4.6034C5.68995 4.61183 5.68395 4.62042 5.67819 4.62919C5.67244 4.63797 5.66694 4.64689 5.66169 4.65597C5.65644 4.66506 5.65145 4.67428 5.64672 4.68364C5.642 4.69301 5.63755 4.7025 5.63336 4.71211C5.62919 4.72173 5.62528 4.73145 5.62164 4.7413C5.61801 4.75114 5.61467 4.76108 5.61161 4.77111C5.60855 4.78114 5.60576 4.79125 5.60328 4.80144C5.6008 4.81164 5.59859 4.82189 5.59669 4.8322C5.5948 4.84251 5.59319 4.85287 5.59187 4.86328C5.59055 4.87369 5.58953 4.88412 5.58881 4.89459C5.58809 4.90506 5.58767 4.91553 5.58756 4.92601C5.58744 4.93651 5.58761 4.947 5.58808 4.95747C5.58856 4.96795 5.58933 4.9784 5.59041 4.98884C5.59147 4.99928 5.59283 5.00967 5.5945 5.02003C5.59616 5.03039 5.59811 5.04069 5.60036 5.05094C5.60261 5.06119 5.60516 5.07136 5.60798 5.08145C5.61081 5.09155 5.61392 5.10156 5.61731 5.11148C5.62072 5.12142 5.62441 5.13123 5.62836 5.14094C5.63231 5.15065 5.63655 5.16025 5.64105 5.16972C5.64555 5.1792 5.65031 5.18855 5.65536 5.19773C5.66039 5.20694 5.66569 5.21598 5.67123 5.22489C5.67678 5.2338 5.68258 5.24253 5.68862 5.25109C5.69467 5.25967 5.70097 5.26806 5.7075 5.27626C5.71402 5.28448 5.72078 5.2925 5.72776 5.30033C5.73475 5.30816 5.74194 5.31578 5.74936 5.32319C5.75678 5.33061 5.76439 5.33781 5.77222 5.34478C5.78005 5.35178 5.78808 5.35853 5.79628 5.36505C5.80448 5.37158 5.81287 5.37787 5.82145 5.3839C5.83003 5.38997 5.83876 5.39576 5.84766 5.40131C5.85656 5.40687 5.86561 5.41215 5.87481 5.41719C5.88401 5.42223 5.89334 5.427 5.90283 5.4315C5.9123 5.436 5.92189 5.44023 5.93161 5.44419C5.94131 5.44815 5.95114 5.45183 5.96106 5.45522C5.97098 5.45862 5.981 5.46175 5.99109 5.46456C6.0012 5.4674 6.01137 5.46994 6.02161 5.47219C6.03186 5.47444 6.04216 5.47639 6.05251 5.47805C6.06287 5.47972 6.07326 5.48108 6.0837 5.48214C6.09414 5.48322 6.10459 5.484 6.11508 5.48447C6.12556 5.48494 6.13605 5.48511 6.14653 5.48498C6.15701 5.48487 6.1675 5.48445 6.17795 5.48373C6.18842 5.48301 6.19886 5.48198 6.20926 5.48067C6.21967 5.47936 6.23003 5.47776 6.24034 5.47586C6.25066 5.47395 6.26091 5.47176 6.27111 5.46926C6.2813 5.46678 6.29141 5.464 6.30144 5.46094C6.31147 5.45787 6.32141 5.45453 6.33125 5.4509C6.34108 5.44728 6.35081 5.44337 6.36044 5.43919C6.37005 5.435 6.37955 5.43055 6.38891 5.42583C6.39826 5.42111 6.4075 5.41611 6.41658 5.41086C6.42566 5.40561 6.43459 5.40011 6.44336 5.39436C6.45212 5.38861 6.46072 5.38259 6.46914 5.37634C6.47756 5.37011 6.48581 5.36362 6.49387 5.3569C6.50192 5.35019 6.50978 5.34325 6.51745 5.33608C6.52511 5.32892 6.53256 5.32155 6.53981 5.31395C6.54705 5.30637 6.55406 5.29859 6.56086 5.29059C6.56766 5.28261 6.57423 5.27444 6.58056 5.26606C6.58689 5.2577 6.59298 5.24917 6.59883 5.24045C6.60467 5.23175 6.61026 5.22289 6.61561 5.21386L8.71228 3.11719C8.71823 3.11086 8.72403 3.10439 8.72967 3.09778C8.73531 3.09119 8.74081 3.08445 8.74614 3.07759C8.75147 3.07073 8.75662 3.06375 8.76162 3.05664C8.76662 3.04955 8.77145 3.04233 8.77611 3.03498C8.78076 3.02766 8.78525 3.02022 8.78955 3.01267C8.79386 3.00512 8.79798 2.99748 8.80194 2.98973C8.80589 2.982 8.80964 2.97417 8.81322 2.96625C8.8168 2.95834 8.82017 2.95036 8.82337 2.94226C8.82658 2.9342 8.82959 2.92605 8.83241 2.91783C8.83522 2.90961 8.83784 2.90133 8.84026 2.89298C8.84269 2.88464 8.84492 2.87625 8.84695 2.8678C8.84898 2.85936 8.85081 2.85087 8.85244 2.84233C8.85406 2.8338 8.85548 2.82523 8.85672 2.81664C8.85795 2.80805 8.85897 2.79942 8.85978 2.79076C8.86061 2.78211 8.86122 2.77345 8.86162 2.76477C8.86203 2.75609 8.86223 2.74741 8.86223 2.73872C8.86223 2.73003 8.86203 2.72136 8.86162 2.71267C8.86122 2.704 8.86061 2.69534 8.85978 2.68669C8.85897 2.67805 8.85795 2.66942 8.85672 2.66081C8.85548 2.65222 8.85406 2.64366 8.85244 2.63511C8.85081 2.62658 8.84898 2.61809 8.84695 2.60964C8.84492 2.6012 8.84269 2.59281 8.84026 2.58447C8.83784 2.57612 8.83522 2.56784 8.83241 2.55962C8.82959 2.55141 8.82658 2.54326 8.82337 2.53519C8.82017 2.52711 8.8168 2.51911 8.81322 2.51119C8.80964 2.50328 8.80589 2.49545 8.80194 2.4877C8.79798 2.47997 8.79386 2.47233 8.78955 2.46478C8.78525 2.45725 8.78076 2.44981 8.77611 2.44247C8.77145 2.43514 8.76662 2.42792 8.76162 2.42081C8.75662 2.41372 8.75147 2.40673 8.74614 2.39986C8.74081 2.393 8.73531 2.38627 8.72967 2.37967C8.72403 2.37308 8.71823 2.36661 8.71228 2.36027L6.64589 0.271173C6.64055 0.262145 6.63495 0.253278 6.62911 0.244569C6.62326 0.235859 6.61717 0.227325 6.61084 0.218964C6.60451 0.210602 6.59794 0.202427 6.59114 0.194439C6.58434 0.18645 6.57731 0.178661 6.57008 0.171073C6.56284 0.163486 6.55539 0.156109 6.54773 0.148945C6.54006 0.141781 6.5322 0.134841 6.52416 0.128125C6.51609 0.121409 6.50784 0.114927 6.49942 0.10868C6.491 0.102433 6.48241 0.0964309 6.47364 0.0906736C6.46487 0.0849162 6.45594 0.0794131 6.44686 0.074164C6.43778 0.068915 6.42855 0.0639286 6.41919 0.0592047C6.40983 0.0544808 6.40033 0.0500273 6.39072 0.0458441C6.38109 0.0416608 6.37136 0.0377547 6.36151 0.0341256C6.35169 0.0304964 6.34175 0.0271503 6.33172 0.024087C6.32169 0.0210237 6.31158 0.0182484 6.30137 0.0157611C6.29119 0.0132737 6.28094 0.0110783 6.27062 0.00917475C6.26031 0.00727122 6.24995 0.00566272 6.23955 0.00434925C6.22912 0.00303578 6.21869 0.00201945 6.20823 0.00130028C6.19776 0.000581109 6.18728 0.000160258 6.1768 3.77233e-05C6.16631 -8.48111e-05 6.15583 9.11706e-05 6.14536 0.000565669C6.13487 0.00104017 6.12442 0.00181241 6.11398 0.00288241C6.10355 0.0039524 6.09316 0.0053184 6.0828 0.00698044C6.07244 0.00864244 6.06214 0.0105978 6.05189 0.0128465C6.04166 0.0150951 6.03148 0.0176334 6.02137 0.0204614C6.01126 0.0232894 6.00126 0.0264025 5.99134 0.0298008C5.98142 0.0331991 5.97159 0.0368769 5.96187 0.0408342C5.95217 0.0447915 5.94258 0.049022 5.93309 0.0535258C5.92362 0.0580295 5.9143 0.0627992 5.90509 0.0678347C5.89589 0.0728701 5.88683 0.0781634 5.87794 0.0837142C5.86903 0.0892651 5.8603 0.0950648 5.85173 0.101113C5.84316 0.107162 5.83476 0.113449 5.82656 0.119975C5.81834 0.126501 5.81033 0.133256 5.8025 0.140239C5.79467 0.147222 5.78706 0.154422 5.77964 0.161839C5.77222 0.169256 5.76501 0.176878 5.75803 0.184706C5.75105 0.192531 5.7443 0.200552 5.73776 0.208764C5.73125 0.216975 5.72495 0.225366 5.71891 0.233936C5.71286 0.242505 5.70706 0.251241 5.70151 0.260141C5.69597 0.269041 5.69067 0.278091 5.68562 0.287294C5.68059 0.296494 5.67583 0.305831 5.67133 0.315305C5.66681 0.324776 5.66258 0.33437 5.65862 0.344086C5.65467 0.353798 5.65098 0.363617 5.64759 0.373542C5.6442 0.383466 5.64108 0.393478 5.63825 0.403578C5.63542 0.413678 5.63289 0.423851 5.63064 0.434098C5.62839 0.444342 5.62644 0.454644 5.62478 0.465001C5.62311 0.475358 5.62175 0.485753 5.62067 0.496187C5.61961 0.506622 5.61884 0.517078 5.61836 0.527558C5.61789 0.538036 5.61772 0.548519 5.61783 0.559008C5.61795 0.569495 5.61837 0.579972 5.61909 0.590437C5.61981 0.600901 5.62083 0.611337 5.62214 0.621744C5.62345 0.63215 5.62506 0.642511 5.62697 0.652826C5.62887 0.663142 5.63108 0.673394 5.63356 0.683584C5.63605 0.693773 5.63881 0.703884 5.64189 0.713917C5.64495 0.723948 5.6483 0.733886 5.65192 0.743726C5.65555 0.753567 5.65945 0.763298 5.66364 0.772917C5.66783 0.782536 5.67228 0.792028 5.677 0.801394C5.68173 0.810759 5.68672 0.819983 5.69195 0.829064C5.6972 0.838145 5.7027 0.84707 5.70847 0.855839C5.71423 0.864606 5.72023 0.873203 5.72647 0.881629C5.73272 0.890054 5.7392 0.898297 5.74592 0.906354C5.75264 0.914411 5.75958 0.92227 5.76673 0.929933C5.77391 0.937594 5.78128 0.945045 5.78887 0.952287C5.79645 0.959528 5.80425 0.966548 5.81223 0.973347C5.82022 0.980144 5.82841 0.986709 5.83676 0.993044C5.84512 0.999375 5.85366 1.00546 5.86236 1.01131C5.87106 1.01716 5.87994 1.02275 5.88897 1.02809L6.88811 2.0802C6.78942 2.08053 6.69078 2.08297 6.5922 2.08752C6.49362 2.09206 6.39519 2.09872 6.29689 2.10748C6.19859 2.11625 6.10053 2.12711 6.0027 2.14008C5.90487 2.15305 5.80736 2.16811 5.71019 2.18523C5.613 2.20239 5.51622 2.22161 5.41986 2.24289C5.3235 2.26419 5.22764 2.28753 5.13228 2.31292C5.03692 2.33833 4.94214 2.36575 4.84795 2.39519C4.75377 2.42466 4.66025 2.45611 4.56742 2.48958C4.47458 2.52305 4.3825 2.55847 4.29117 2.59587C4.19984 2.63328 4.10937 2.67262 4.01973 2.71391C3.93009 2.75519 3.84139 2.79837 3.75361 2.84345C3.66583 2.88855 3.57905 2.93548 3.49327 2.98428C3.4075 3.03309 3.32281 3.0837 3.2392 3.13612C3.15559 3.18856 3.07316 3.24276 2.99186 3.29872C2.91058 3.35469 2.83053 3.41236 2.75172 3.47175C2.67291 3.53114 2.59541 3.59219 2.5192 3.65489C2.443 3.71761 2.36819 3.78192 2.29473 3.84783C2.2213 3.91375 2.1493 3.98122 2.07875 4.05022C2.0082 4.11922 1.93916 4.1897 1.87161 4.26165C1.80408 4.33362 1.73812 4.40698 1.67373 4.48176C1.60934 4.55655 1.54658 4.63269 1.48545 4.71016C1.42432 4.78762 1.36488 4.86637 1.30713 4.94639C1.24937 5.02642 1.19335 5.10764 1.13908 5.19005C1.0848 5.27247 1.03231 5.35601 0.981626 5.44067C0.930928 5.52534 0.882064 5.61106 0.835033 5.69781C0.788011 5.78459 0.742866 5.87231 0.699595 5.961C0.656334 6.0497 0.614991 6.13928 0.575564 6.22975C0.536126 6.32022 0.49865 6.41148 0.463134 6.50355C0.427616 6.59562 0.394084 6.68842 0.362541 6.78192C0.330997 6.87544 0.301469 6.96958 0.273959 7.06434C0.246448 7.15912 0.22098 7.25444 0.197552 7.3503C0.174123 7.44617 0.15276 7.54248 0.13346 7.63926C0.114159 7.73604 0.0969389 7.8332 0.0817994 7.93072C0.0666609 8.02823 0.0536172 8.12603 0.0426681 8.22411C0.0317192 8.32219 0.0228748 8.42045 0.0161353 8.5189C0.00939572 8.61736 0.00476706 8.7159 0.00224936 8.81456C-0.000268341 8.91322 -0.000672459 9.01189 0.00103688 9.11056C0.00274622 9.20922 0.00656759 9.30781 0.0125009 9.40631C0.0184333 9.50483 0.0264723 9.60315 0.0366181 9.70131C0.0467639 9.79948 0.0590067 9.89739 0.0733462 9.99501C0.0876858 10.0927 0.104109 10.1899 0.122617 10.2869C0.141124 10.3838 0.161698 10.4803 0.184341 10.5764C0.206981 10.6724 0.231667 10.7679 0.258402 10.8629C0.285134 10.9579 0.313889 11.0523 0.344667 11.1461C0.375444 11.2398 0.408214 11.3329 0.442978 11.4252C0.477744 11.5176 0.51447 11.6092 0.553158 11.7C0.591845 11.7908 0.632455 11.8807 0.674986 11.9697C0.717526 12.0588 0.761955 12.1469 0.808267 12.234C0.85458 12.3212 0.902736 12.4073 0.952736 12.4923C1.00274 12.5774 1.05454 12.6614 1.10814 12.7442C1.16174 12.8271 1.21708 12.9088 1.27419 12.9893C1.33128 13.0698 1.39007 13.149 1.45056 13.227C1.51106 13.3049 1.5732 13.3816 1.63697 13.4569C1.70075 13.5322 1.76611 13.6061 1.83305 13.6786C1.89998 13.7511 1.96845 13.8222 2.03844 13.8917C2.10842 13.9613 2.17987 14.0294 2.25277 14.0959C2.32567 14.1624 2.39997 14.2273 2.47564 14.2907C2.55131 14.354 2.62833 14.4157 2.70666 14.4757C2.78498 14.5357 2.86455 14.5941 2.94537 14.6507C3.0262 14.7073 3.10819 14.7622 3.19136 14.8153C3.27453 14.8684 3.35881 14.9197 3.44419 14.9692C3.52956 15.0187 3.61595 15.0664 3.70336 15.1122C3.79078 15.158 3.87912 15.2019 3.96842 15.2439C4.05772 15.2859 4.14786 15.326 4.23887 15.3642C4.34323 15.4086 4.44861 15.4504 4.555 15.4897C4.66141 15.529 4.7687 15.5656 4.87691 15.5996C4.98511 15.6336 5.09409 15.6648 5.20383 15.6934C5.31356 15.722 5.42395 15.748 5.53497 15.7712C5.64598 15.7944 5.75751 15.8148 5.86953 15.8325C5.98155 15.8502 6.09394 15.8652 6.2067 15.8773C6.31947 15.8895 6.43245 15.8989 6.54567 15.9056C6.65889 15.9122 6.7722 15.9161 6.88561 15.9172C6.99901 15.9183 7.11237 15.9164 7.2257 15.9119C7.33903 15.9073 7.45217 15.9002 7.56514 15.89C7.67809 15.8798 7.79075 15.867 7.90308 15.8514C8.0154 15.8358 8.1273 15.8173 8.23872 15.7962C8.35014 15.7752 8.46098 15.7512 8.57125 15.7247C8.6815 15.6981 8.79103 15.6689 8.89984 15.6369C9.00867 15.6049 9.11662 15.5703 9.22373 15.533C9.33084 15.4957 9.43698 15.4558 9.54212 15.4133C9.64728 15.3708 9.75133 15.3258 9.85426 15.2781C9.95719 15.2305 10.0589 15.1804 10.1594 15.1278C10.2598 15.0752 10.359 15.0201 10.4567 14.9626C10.5545 14.9052 10.6508 14.8453 10.7456 14.7831C10.8404 14.7208 10.9336 14.6563 11.0253 14.5895C11.1169 14.5227 11.2069 14.4537 11.2951 14.3824C11.3834 14.3112 11.4698 14.2378 11.5545 14.1624C11.6391 14.0869 11.7218 14.0093 11.8027 13.9298C11.8835 13.8502 11.9623 13.7687 12.0392 13.6853C12.116 13.6019 12.1907 13.5166 12.2633 13.4295C12.336 13.3424 12.4064 13.2535 12.4747 13.163C12.5429 13.0724 12.6089 12.9802 12.6726 12.8864C12.7364 12.7926 12.7977 12.6972 12.8568 12.6004C12.9158 12.5036 12.9724 12.4053 13.0266 12.3057C13.0808 12.2061 13.1326 12.1052 13.1818 12.003C13.2311 11.9009 13.2778 11.7976 13.3219 11.6931C13.3375 11.656 13.3527 11.6188 13.3677 11.5814C13.3826 11.5441 13.3972 11.5066 13.4115 11.469C13.4257 11.4314 13.4397 11.3937 13.4533 11.3558C13.4669 11.318 13.4802 11.28 13.4932 11.2419C13.5062 11.2039 13.5188 11.1657 13.5311 11.1274C13.5434 11.0891 13.5553 11.0507 13.567 11.0122C13.5786 10.9737 13.5899 10.9351 13.6008 10.8964C13.6118 10.8577 13.6224 10.8189 13.6327 10.78C13.643 10.7411 13.6529 10.7021 13.6625 10.663C13.6721 10.624 13.6814 10.5848 13.6903 10.5456C13.6992 10.5064 13.7078 10.4671 13.7161 10.4277C13.7243 10.3884 13.7322 10.3489 13.7398 10.3094C13.7473 10.2699 13.7545 10.2303 13.7614 10.1907C13.7683 10.1511 13.7748 10.1114 13.781 10.0716C13.7872 10.0319 13.793 9.99211 13.7985 9.95225C13.804 9.9124 13.8091 9.87251 13.8139 9.83258C13.8187 9.79264 13.8231 9.75267 13.8272 9.71265C13.8313 9.67264 13.8351 9.63259 13.8385 9.59251C13.8419 9.55243 13.8449 9.51233 13.8476 9.47219C13.8503 9.43206 13.8527 9.39192 13.8547 9.35173C13.8567 9.31156 13.8584 9.27137 13.8597 9.23117C13.861 9.19098 13.8619 9.15076 13.8625 9.11056C13.8631 9.07033 13.8634 9.03011 13.8633 8.98987C13.8632 8.94967 13.8628 8.90944 13.862 8.86922C13.8612 8.829 13.8601 8.78879 13.8586 8.74859C13.8571 8.70842 13.8552 8.66823 13.8531 8.62806C13.8509 8.5879 13.8483 8.54776 13.8455 8.50765C13.8426 8.46751 13.8393 8.42742 13.8357 8.38737C13.8322 8.34729 13.8282 8.30726 13.824 8.26726C13.8197 8.22728 13.815 8.18733 13.8101 8.1474C13.8051 8.1075 13.7998 8.06762 13.7941 8.02779C13.7884 7.98798 13.7824 7.9482 13.7761 7.90848L13.7534 7.88578Z"   fill="#FFFFFF" >
</path>
</svg>
