<svg xmlns="http://www.w3.org/2000/svg" xmlns:xlink="http://www.w3.org/1999/xlink" fill="none" version="1.1" width="20" height="20" viewBox="0 0 20 20"><defs><clipPath id="master_svg0_114_5255"><rect x="0" y="0" width="20" height="20" rx="0"/></clipPath></defs><g clip-path="url(#master_svg0_114_5255)"><g><path d="M18.736328125,9.693359375Q18.736328125,9.908159375,18.725828125,10.122699375Q18.715228125,10.337239375,18.694228125,10.551009375Q18.673128125,10.764769375,18.641628125,10.977259375Q18.610128125,11.189759375,18.568228125,11.400359375Q18.526328125,11.611059375,18.474128125,11.819459375Q18.421928125,12.027759375,18.359528125,12.233359375Q18.297228125,12.438859375,18.224828125,12.641159375Q18.152428125,12.843359375,18.070228125,13.041859375Q17.988028125,13.240259375,17.896228125,13.434459375Q17.804428125,13.628659375,17.703128125,13.818059375Q17.601928125,14.007559375,17.491428125,14.191759375Q17.381028125,14.375959375,17.261728125,14.554559375Q17.142328125,14.733159375,17.014428125000002,14.905759375Q16.886428125000002,15.078259375,16.750128125,15.244259375Q16.613928125,15.410359375,16.469628125,15.569459375Q16.325428125000002,15.728659375,16.173528125,15.880559375Q16.021628125,16.032459375000002,15.862428125,16.176659375Q15.703328125,16.320959375,15.537228125,16.457159375Q15.371228125,16.593459375000002,15.198728125,16.721459375000002Q15.026128125,16.849359375,14.847528125,16.968759375Q14.668928125,17.088059375,14.484728125,17.198459375Q14.300528125,17.308959375,14.111028125,17.410159375Q13.921628125,17.511459375,13.727428125,17.603259375Q13.533228125,17.695059375,13.334828125,17.777259375Q13.136328125,17.859459375,12.934128125,17.931859375Q12.731828125,18.004259375,12.526328125,18.066559375Q12.320728125,18.128959375,12.112428125,18.181159375Q11.904028125,18.233359375,11.693328125,18.275259375Q11.482728125,18.317159375,11.270228125,18.348659375Q11.057748125,18.380159375,10.843978125,18.401259375Q10.630208125,18.422259375,10.415668125,18.432859375Q10.201128125,18.443359375,9.986328125,18.443359375Q9.771528125,18.443359375,9.556988125,18.432859375Q9.342448125,18.422259375,9.128678125,18.401259375Q8.914918125,18.380159375,8.702438125,18.348659375Q8.489958125000001,18.317159375,8.279288125,18.275259375Q8.068618125,18.233359375,7.860248125,18.181159375Q7.651888125,18.128959375,7.446338125,18.066559375Q7.240788125,18.004259375,7.038538125,17.931859375Q6.836298125,17.859459375,6.637848125,17.777259375Q6.439398125,17.695059375,6.245218125,17.603259375Q6.051048125,17.511459375,5.861608125,17.410159375Q5.672168125,17.308959375,5.487928125,17.198459375Q5.303688125,17.088059375,5.1250881249999996,16.968759375Q4.946488125,16.849359375,4.773958125,16.721459375000002Q4.601428125,16.593459375000002,4.435388124999999,16.457159375Q4.2693481250000005,16.320959375,4.1101881250000005,16.176659375Q3.951028125,16.032459375000002,3.799148125,15.880559375Q3.647258125,15.728659375,3.503008125,15.569459375Q3.358758125,15.410359375,3.222488125,15.244259375Q3.0862181250000003,15.078259375,2.958258125,14.905759375Q2.830308125,14.733159375,2.710968125,14.554559375Q2.5916281249999997,14.375959375,2.4811981249999997,14.191759375Q2.370778125,14.007559375,2.2695181250000003,13.818059375Q2.168261125,13.628659375,2.076422125,13.434459375Q1.984583125,13.240259375,1.902382125,13.041859375Q1.820181125,12.843359375,1.747817125,12.641159375Q1.675453125,12.438859375,1.6131001249999999,12.233359375Q1.550747125,12.027759375,1.498555125,11.819459375Q1.446362125,11.611059375,1.404457125,11.400359375Q1.362551125,11.189759375,1.3310336249999999,10.977259375Q1.299515925,10.764769375,1.278461725,10.551009375Q1.257407625,10.337239375,1.246867925,10.122699375Q1.236328125,9.908159375,1.236328125,9.693359375Q1.236328125,9.478559375,1.246867925,9.264019375Q1.257407625,9.049469375,1.278461725,8.835709375Q1.299515925,8.621939375,1.3310336249999999,8.409469375Q1.362551125,8.196989375000001,1.404457125,7.986319375Q1.446362125,7.775649375,1.498555125,7.567279375Q1.550747125,7.358919375,1.6131001249999999,7.153369375Q1.675453125,6.947819375,1.747817125,6.745569375Q1.820181125,6.543329375,1.902382125,6.344879375Q1.984583125,6.146429375,2.076422125,5.952249375Q2.168261125,5.758069375,2.2695181250000003,5.568639375Q2.370778125,5.379199375,2.4811981249999997,5.194959375Q2.5916281249999997,5.010719375,2.710968125,4.8321193749999996Q2.830308125,4.653519375,2.958258125,4.480989375Q3.0862181250000003,4.308459375,3.222488125,4.142419374999999Q3.358758125,3.976379375,3.503008125,3.817219375Q3.647258125,3.658059375,3.799148125,3.506179375Q3.951028125,3.354289375,4.1101881250000005,3.210039375Q4.2693481250000005,3.065789375,4.435388124999999,2.929519375Q4.601428125,2.7932493750000003,4.773958125,2.665289375Q4.946488125,2.537339375,5.1250881249999996,2.417999375Q5.303688125,2.2986593749999997,5.487928125,2.1882293749999997Q5.672168125,2.0777993749999997,5.861608125,1.976549375Q6.051048125,1.875291375,6.245218125,1.783452375Q6.439398125,1.691613375,6.637848125,1.609413375Q6.836298125,1.527212375,7.038538125,1.454848375Q7.240788125,1.382484375,7.446338125,1.3201313749999999Q7.651888125,1.257778375,7.860248125,1.205585375Q8.068618125,1.153393375,8.279288125,1.111488375Q8.489958125000001,1.069582375,8.702438125,1.0380648749999999Q8.914908125,1.006547075,9.128678125,0.985492975Q9.342448125,0.964438875,9.556988125,0.953899175Q9.771528125,0.943359375,9.986328125,0.943359375Q10.201128125,0.943359375,10.415668125,0.953899175Q10.630208125,0.964438875,10.843978125,0.985492975Q11.057748125,1.006547075,11.270228125,1.0380648749999999Q11.482728125,1.069582375,11.693328125,1.111488375Q11.904028125,1.153393375,12.112428125,1.205585375Q12.320728125,1.257778375,12.526328125,1.3201313749999999Q12.731828125,1.382484375,12.934128125,1.454848375Q13.136328125,1.527212375,13.334828125,1.609413375Q13.533228125,1.691613375,13.727428125,1.783452375Q13.921628125,1.875292375,14.111028125,1.976549375Q14.300528125,2.0777993749999997,14.484728125,2.1882293749999997Q14.668928125,2.2986593749999997,14.847528125,2.417999375Q15.026128125,2.537339375,15.198728125,2.665289375Q15.371228125,2.7932493750000003,15.537228125,2.929519375Q15.703328125,3.065789375,15.862428125,3.210039375Q16.021628125,3.354289375,16.173528125,3.506179375Q16.325428125000002,3.658059375,16.469628125,3.817219375Q16.613928125,3.976379375,16.750128125,4.142419374999999Q16.886428125000002,4.308459375,17.014428125000002,4.480989375Q17.142328125,4.653519375,17.261728125,4.8321193749999996Q17.381028125,5.010719375,17.491428125,5.194959375Q17.601928125,5.379199375,17.703128125,5.568639375Q17.804428125,5.758069375,17.896228125,5.952249375Q17.988028125,6.146429375,18.070228125,6.344879375Q18.152428125,6.543329375,18.224828125,6.745569375Q18.297228125,6.947819375,18.359528125,7.153369375Q18.421928125,7.358919375,18.474128125,7.567279375Q18.526328125,7.775649375,18.568228125,7.986319375Q18.610128125,8.196989375000001,18.641628125,8.409469375Q18.673128125,8.621939375,18.694228125,8.835709375Q18.715228125,9.049479375,18.725828125,9.264019375Q18.736328125,9.478559375,18.736328125,9.693359375Z" fill="#FFD96B" fill-opacity="1" style="mix-blend-mode:passthrough"/></g><g><path d="M16.175734374999998,3.509765625L3.802734375,15.884765625C7.220704375,19.298865624999998,12.757814375,19.298865624999998,16.173834375,15.882765625C19.589834375000002,12.464845625,19.591834374999998,6.927735625,16.175734374999998,3.509765625Z" fill="#FDC223" fill-opacity="1" style="mix-blend-mode:passthrough"/></g><g><path d="M16.3477,9.693361249999999Q16.3477,9.849521249999999,16.34,10.00549125Q16.3323,10.16147125,16.317,10.31688125Q16.3017,10.47229125,16.2788,10.626761250000001Q16.2559,10.781231250000001,16.2254,10.934391250000001Q16.195,11.08755125,16.157,11.23903125Q16.1191,11.39052125,16.073700000000002,11.53995125Q16.028399999999998,11.68939125,15.9758,11.83642125Q15.9232,11.98346125,15.8634,12.12773125Q15.8037,12.27201125,15.7369,12.41317125Q15.6701,12.55434125,15.5965,12.69207125Q15.5229,12.82979125,15.4426,12.96373125Q15.3623,13.09768125,15.2756,13.22752125Q15.1888,13.35733125,15.0958,13.48283125Q15.0028,13.60823125,14.9037,13.72893125Q14.8046,13.84963125,14.6998,13.96533125Q14.5949,14.08103125,14.4845,14.19153125Q14.374,14.30193125,14.2583,14.40683125Q14.1426,14.51163125,14.0219,14.61073125Q13.9012,14.70983125,13.7758,14.80283125Q13.6503,14.89583125,13.52049,14.98263125Q13.39065,15.06933125,13.2567,15.14963125Q13.12276,15.22993125,12.98504,15.30353125Q12.84731,15.37713125,12.70615,15.44393125Q12.56498,15.51073125,12.4207,15.57043125Q12.27643,15.63023125,12.12939,15.68283125Q11.98236,15.73543125,11.83292,15.78073125Q11.68349,15.82613125,11.532,15.86403125Q11.38052,15.90203125,11.227360000000001,15.93243125Q11.074200000000001,15.96293125,10.919730000000001,15.98583125Q10.76526,16.00873125,10.60985,16.02403125Q10.45444,16.03933125,10.29846,16.04703125Q10.142489999999999,16.05473125,9.986329999999999,16.05473125Q9.830169999999999,16.05473125,9.67419,16.04703125Q9.51822,16.03933125,9.36281,16.02403125Q9.2074,16.00873125,9.05293,15.98583125Q8.89846,15.96293125,8.74529,15.93243125Q8.592130000000001,15.90203125,8.44065,15.86403125Q8.28917,15.82613125,8.13973,15.78073125Q7.99029,15.73543125,7.84326,15.68283125Q7.69623,15.63023125,7.55195,15.57043125Q7.40768,15.51073125,7.26651,15.44393125Q7.12534,15.37713125,6.98762,15.30353125Q6.8499,15.22993125,6.715949999999999,15.14963125Q6.58201,15.06933125,6.45216,14.98263125Q6.3223199999999995,14.89583125,6.19689,14.80283125Q6.07146,14.70983125,5.95074,14.61073125Q5.83003,14.51163125,5.71432,14.40683125Q5.59861,14.30193125,5.4881899999999995,14.19153125Q5.37777,14.08103125,5.27289,13.96533125Q5.16802,13.84963125,5.06896,13.72893125Q4.9698899999999995,13.60823125,4.87686,13.48283125Q4.78384,13.35733125,4.69708,13.22752125Q4.610318,13.09768125,4.530035,12.96373125Q4.449752,12.82979125,4.376138,12.69207125Q4.302523,12.55434125,4.235756,12.41317125Q4.168988,12.27201125,4.109227,12.12773125Q4.049467,11.98346125,3.996857,11.83642125Q3.944248,11.68939125,3.898917,11.53995125Q3.853585,11.39052125,3.815641,11.23903125Q3.777697,11.08755125,3.747231,10.934391250000001Q3.7167655,10.781231250000001,3.6938518,10.626761250000001Q3.6709381,10.47229125,3.6556315,10.31688125Q3.640325,10.16147125,3.6326625,10.00549125Q3.625,9.849521249999999,3.625,9.693361249999999Q3.625,9.537201249999999,3.6326625,9.38122125Q3.640325,9.22525125,3.6556315,9.06984125Q3.6709381,8.91443125,3.6938518,8.75996125Q3.7167655,8.60549125,3.747231,8.45232125Q3.777697,8.299161250000001,3.815641,8.14768125Q3.853585,7.99620125,3.898917,7.84676125Q3.944248,7.69732125,3.996857,7.55029125Q4.049467,7.40326125,4.109227,7.25898125Q4.168988,7.11471125,4.235756,6.97354125Q4.302523,6.83237125,4.376138,6.69465125Q4.449752,6.55693125,4.530035,6.422981249999999Q4.610318,6.28904125,4.69708,6.15919125Q4.78384,6.0293512499999995,4.87686,5.90392125Q4.9698899999999995,5.77849125,5.06896,5.65777125Q5.16802,5.53706125,5.27289,5.42135125Q5.37777,5.30564125,5.4881899999999995,5.1952212499999995Q5.59861,5.08480125,5.71432,4.97992125Q5.83003,4.87505125,5.95074,4.77598125Q6.07146,4.6769212499999995,6.19689,4.58389125Q6.3223199999999995,4.49087125,6.45216,4.40411125Q6.58201,4.31734925,6.715949999999999,4.23706625Q6.8499,4.15678325,6.98762,4.08316825Q7.12534,4.00955425,7.26651,3.94278625Q7.40768,3.87601925,7.55195,3.81625825Q7.69623,3.75649825,7.84326,3.70388825Q7.99029,3.65127925,8.13973,3.60594825Q8.28917,3.56061625,8.44065,3.52267225Q8.592130000000001,3.48472825,8.74529,3.45426225Q8.89846,3.42379665,9.05293,3.40088295Q9.2074,3.37796935,9.36281,3.36266275Q9.51822,3.34735625,9.67419,3.33969375Q9.830169999999999,3.33203125,9.986329999999999,3.33203125Q10.142489999999999,3.33203125,10.29846,3.33969375Q10.45444,3.34735625,10.60985,3.36266275Q10.76526,3.37796935,10.919730000000001,3.40088295Q11.074200000000001,3.42379665,11.227360000000001,3.45426225Q11.38052,3.48472825,11.532,3.52267225Q11.68349,3.56061625,11.83292,3.60594825Q11.98236,3.65127925,12.12939,3.70388825Q12.27643,3.75649825,12.4207,3.81625825Q12.56498,3.87601925,12.70615,3.94278625Q12.84731,4.00955425,12.98504,4.08316825Q13.12276,4.15678325,13.2567,4.23706625Q13.39065,4.31734925,13.52049,4.40411125Q13.6503,4.49087125,13.7758,4.58389125Q13.9012,4.6769212499999995,14.0219,4.77598125Q14.1426,4.87505125,14.2583,4.97992125Q14.374,5.08480125,14.4845,5.1952212499999995Q14.5949,5.30564125,14.6998,5.42135125Q14.8046,5.53706125,14.9037,5.65777125Q15.0028,5.77849125,15.0958,5.90392125Q15.1888,6.0293512499999995,15.2756,6.15919125Q15.3623,6.28904125,15.4426,6.422981249999999Q15.5229,6.55693125,15.5965,6.69465125Q15.6701,6.83237125,15.7369,6.97354125Q15.8037,7.11471125,15.8634,7.25898125Q15.9232,7.40326125,15.9758,7.55029125Q16.028399999999998,7.69732125,16.073700000000002,7.84676125Q16.1191,7.99620125,16.157,8.14768125Q16.195,8.299161250000001,16.2254,8.45232125Q16.2559,8.60549125,16.2788,8.75996125Q16.3017,8.91443125,16.317,9.06984125Q16.3323,9.22525125,16.34,9.38122125Q16.3477,9.537201249999999,16.3477,9.693361249999999Z" fill="#F9AB10" fill-opacity="1" style="mix-blend-mode:passthrough"/></g><g><path d="M14.34770625,5.0722775C11.85548625,2.7187635,7.92969625,2.7558724999999997,5.48829625,5.1953275C3.0488412499999997,7.6367275,3.01173225,11.5625175,5.36524625,14.0547375L14.34770625,5.0722775Z" fill="#F9B721" fill-opacity="1" style="mix-blend-mode:passthrough"/></g><g><path d="M9.439449375,11.492188125L7.873046375,11.492188125L7.873046375,10.558598125L9.439449375,10.558598125L9.439449375,10.052738125L7.873046375,10.052738125L7.873046375,9.119138125L8.974609375,9.119138125L7.662109375,6.455078125L8.962889375,6.455078125L9.806639375,8.253908125C9.914059375,8.478518125,9.990239375,8.677738125,10.035159375,8.849608125C10.087889375,8.664058125,10.164059375,8.464848125,10.263669375,8.253908125L11.124999375,6.455078125L12.425779375000001,6.455078125L11.095699375,9.119138125L12.214839375,9.119138125L12.214839375,10.052738125L10.626949375,10.052738125L10.626949375,10.558598125L12.214839375,10.558598125L12.214839375,11.492188125L10.626949375,11.492188125L10.626949375,13.468748125000001L9.441409375,13.468748125000001L9.441409375,11.492188125L9.439449375,11.492188125Z" fill="#D3830D" fill-opacity="1" style="mix-blend-mode:passthrough"/></g><g><path d="M11.17187125,8.96484375L8.64453125,11.49218375L9.43945325,11.49218375L9.43945325,13.468753750000001L10.62695125,13.468753750000001L10.62695125,11.49218375L12.21484125,11.49218375L12.21484125,10.55859375L10.62695125,10.55859375L10.62695125,10.05273375L12.21484125,10.05273375L12.21484125,9.11914075L11.09570125,9.11914075L11.17187125,8.96484375Z" fill="#BF790A" fill-opacity="1" style="mix-blend-mode:passthrough"/></g></g></svg>