<svg xmlns="http://www.w3.org/2000/svg" xmlns:xlink="http://www.w3.org/1999/xlink" width="20" height="20" viewBox="0 0 20 20" fill="none">
<g opacity="0.5">
<path d="M9.97269 19.9415C9.78222 19.9415 9.59189 19.9361 9.40172 19.9253C9.21156 19.9144 9.02185 19.8981 8.83263 19.8762C8.64339 19.8544 8.45493 19.8273 8.26727 19.7949C8.07959 19.7622 7.893 19.7244 7.70751 19.6811C7.52201 19.6378 7.3379 19.5895 7.15517 19.5357C6.97246 19.4818 6.79142 19.4228 6.61209 19.3586C6.43273 19.2944 6.25538 19.2251 6.08002 19.1508C5.90464 19.0765 5.73154 18.9972 5.56072 18.9129C5.3899 18.8286 5.22162 18.7395 5.05589 18.6456C4.89018 18.5517 4.72727 18.4532 4.56721 18.3499C4.40714 18.2467 4.25016 18.1389 4.09626 18.0267C3.94236 17.9145 3.79181 17.7979 3.64458 17.677C3.49737 17.5562 3.35374 17.4312 3.21369 17.3021C3.07363 17.173 2.93739 17.04 2.80497 16.9031C2.67254 16.7662 2.54413 16.6256 2.41977 16.4813C2.29538 16.3371 2.17525 16.1893 2.05934 16.0382C1.94344 15.887 1.83196 15.7327 1.7249 15.5751C1.61784 15.4176 1.51538 15.2571 1.41751 15.0937C1.31965 14.9303 1.22655 14.7642 1.1382 14.5955C1.04986 14.4267 0.966419 14.2556 0.887885 14.082C0.809349 13.9085 0.735848 13.7329 0.66738 13.5551C0.59891 13.3774 0.535587 13.1978 0.477411 13.0164C0.419234 12.8351 0.366298 12.6522 0.318602 12.4678C0.270906 12.2834 0.228532 12.0977 0.191474 11.9109C0.154418 11.7241 0.122742 11.5363 0.0964458 11.3477C0.0701497 11.159 0.0492768 10.9697 0.0338272 10.7799C0.0183779 10.5901 0.00837709 10.3999 0.00382498 10.2095C-0.000727145 10.0191 0.000176876 9.82868 0.00653705 9.63831C0.0128972 9.44794 0.0247031 9.25792 0.0419547 9.06823C0.0592064 8.87854 0.0818754 8.6895 0.109962 8.50109C0.138048 8.31269 0.171506 8.12527 0.210335 7.93877C0.249164 7.7523 0.2933 7.5671 0.342745 7.38314C0.392189 7.19918 0.44686 7.0168 0.506756 6.83601C0.566653 6.65519 0.631678 6.47624 0.701832 6.29914C0.771984 6.12205 0.847152 5.94712 0.927331 5.77435C1.00751 5.60158 1.09257 5.43123 1.18251 5.26332C1.27246 5.09542 1.36713 4.93022 1.46654 4.76774C1.56595 4.60526 1.66993 4.44577 1.77849 4.28926C1.88703 4.13275 1.99998 3.97946 2.11731 3.82942C2.23464 3.67938 2.35618 3.53281 2.48193 3.38973C2.60766 3.24665 2.73739 3.10729 2.87111 2.97164C3.00484 2.83599 3.14234 2.70429 3.28361 2.57653C3.42488 2.44875 3.56969 2.32515 3.71805 2.20567C3.86642 2.08622 4.01807 1.97111 4.17302 1.86033C4.32797 1.74956 4.48599 1.64331 4.64702 1.5416C4.80805 1.43988 4.97189 1.34286 5.1385 1.25053C5.30511 1.1582 5.47421 1.07072 5.64583 0.98809C5.81745 0.905454 5.99129 0.827801 6.16735 0.755131C6.34343 0.68246 6.52142 0.614889 6.70137 0.552421C6.88131 0.489951 7.06291 0.432686 7.24612 0.380624C7.42934 0.328561 7.6139 0.281789 7.79981 0.240306C7.98571 0.198821 8.17265 0.162694 8.36063 0.131925C8.5486 0.101155 8.73731 0.0757931 8.92675 0.0558387C9.11616 0.0358842 9.306 0.0213699 9.49628 0.0122961C9.68653 0.00322229 9.8769 -0.000396305 10.0674 0.00144031C10.2578 0.00327693 10.4481 0.0105657 10.6381 0.0233068C10.8282 0.0360479 11.0177 0.0542202 11.2067 0.0778239C11.3957 0.101427 11.5839 0.130424 11.7713 0.164812C11.9586 0.199201 12.1448 0.238926 12.3299 0.283988C12.515 0.329049 12.6986 0.37937 12.8808 0.434957C13.063 0.490542 13.2434 0.551298 13.4221 0.617226C13.6008 0.683152 13.7775 0.754142 13.9521 0.830197C14.1267 0.906249 14.2991 0.98724 14.4691 1.07317C14.6391 1.1591 14.8065 1.24982 14.9712 1.34535C15.136 1.44087 15.298 1.54103 15.457 1.64583C15.6161 1.75064 15.772 1.85991 15.9248 1.97365C16.0776 2.08739 16.227 2.2054 16.373 2.3277C16.519 2.45002 16.6614 2.5764 16.8002 2.70686C16.939 2.83733 17.0739 2.97166 17.205 3.10985C17.3361 3.24805 17.4631 3.38988 17.5861 3.53536C17.709 3.68084 17.8277 3.82973 17.9421 3.98201C18.0565 4.13429 18.1665 4.28971 18.272 4.44829C18.3775 4.60686 18.4784 4.76834 18.5747 4.93271C18.6709 5.09708 18.7624 5.26406 18.8491 5.43367C18.9358 5.60328 19.0175 5.77525 19.0944 5.94953C19.1712 6.12382 19.243 6.30016 19.3097 6.47858C19.3764 6.65698 19.438 6.83716 19.4945 7.01909C19.5509 7.20102 19.6019 7.38443 19.648 7.5693C19.6938 7.75415 19.7343 7.94018 19.7696 8.12737C19.8047 8.31456 19.8345 8.50261 19.8591 8.69152C19.8834 8.88043 19.9025 9.06987 19.9162 9.25986C19.9296 9.44985 19.9378 9.64006 19.9405 9.83053C19.9433 10.021 19.9405 10.2114 19.9324 10.4017C19.924 10.592 19.9103 10.7819 19.8912 10.9714C19.8721 11.1609 19.8476 11.3497 19.8177 11.5378C19.7877 11.7259 19.7524 11.913 19.7119 12.0991C19.6712 12.2852 19.6251 12.47 19.5741 12.6534C19.5226 12.8369 19.4662 13.0187 19.4046 13.1989C19.3429 13.3792 19.2761 13.5575 19.2043 13.7339C19.1324 13.9103 19.0555 14.0844 18.9736 14.2564C18.8918 14.4284 18.805 14.5979 18.7135 14.7649C18.6219 14.932 18.5256 15.0962 18.4246 15.2577C18.3236 15.4192 18.2181 15.5777 18.108 15.7331C17.9979 15.8886 17.8834 16.0407 17.7647 16.1896C17.6458 16.3385 17.5229 16.4839 17.3958 16.6257C17.2686 16.7676 17.1375 16.9057 17.0025 17.04C16.945 17.0976 16.8869 17.1546 16.8281 17.2108C16.7692 17.267 16.7097 17.3225 16.6495 17.3772C16.5893 17.432 16.5284 17.486 16.4668 17.5392C16.4053 17.5925 16.3431 17.645 16.2803 17.6967C16.2175 17.7484 16.154 17.7994 16.0899 17.8496C16.0258 17.8997 15.9612 17.9491 15.8959 17.9977C15.8306 18.0463 15.7647 18.094 15.6982 18.141C15.6318 18.188 15.5647 18.2341 15.4971 18.2794C15.4295 18.3247 15.3614 18.3692 15.2927 18.4128C15.224 18.4565 15.1547 18.4992 15.085 18.5412C15.0152 18.5831 14.945 18.6242 14.8742 18.6644C14.8035 18.7046 14.7322 18.7439 14.6605 18.7824C14.5888 18.8208 14.5166 18.8584 14.4439 18.8951C14.3713 18.9317 14.2982 18.9675 14.2247 19.0024C14.1512 19.0373 14.0772 19.0712 14.0028 19.1043C13.9285 19.1374 13.8537 19.1695 13.7786 19.2008C13.7034 19.232 13.6279 19.2623 13.552 19.2917C13.4761 19.321 13.3998 19.3495 13.3233 19.377C13.2466 19.4045 13.1697 19.431 13.0925 19.4566C13.0152 19.4822 12.9377 19.5068 12.8598 19.5306C12.7819 19.5542 12.7038 19.577 12.6254 19.5988C12.547 19.6207 12.4683 19.6413 12.3894 19.6612C12.3105 19.6811 12.2313 19.7 12.1519 19.7179C12.0725 19.7357 11.9929 19.7526 11.9131 19.7686C11.8333 19.7846 11.7533 19.7994 11.6732 19.8135C11.593 19.8275 11.5126 19.8404 11.4321 19.8524C11.3517 19.8645 11.271 19.8754 11.1903 19.8856C11.1095 19.8955 11.0286 19.9045 10.9476 19.9125C10.8666 19.9205 10.7856 19.9275 10.7044 19.9337C10.6233 19.9396 10.542 19.9446 10.4608 19.9487C10.3795 19.9526 10.2981 19.9558 10.2168 19.9579C10.1354 19.9598 10.0541 19.961 9.97269 19.961L9.97269 19.9415ZM9.97269 1.59778C7.83064 1.59778 5.66912 2.41565 4.03337 4.05139C0.761887 7.34236 0.761887 12.6585 4.03337 15.93C7.30486 19.2015 12.621 19.2015 15.912 15.93C19.1835 12.6585 19.1835 7.34236 15.912 4.05139C14.2763 2.43513 12.1147 1.61725 9.97269 1.61725L9.97269 1.59778Z"   fill="#FFFFFF" >
</path>
<path d="M15.211 10.7698L4.71496 10.7698C4.70221 10.7698 4.68947 10.7695 4.67674 10.7688C4.66401 10.7682 4.6513 10.7673 4.63861 10.766C4.62592 10.7648 4.61328 10.7632 4.60067 10.7613C4.58807 10.7595 4.57551 10.7573 4.56299 10.7548C4.55049 10.7523 4.53806 10.7495 4.5257 10.7464C4.51333 10.7433 4.50105 10.7399 4.48886 10.7362C4.47666 10.7325 4.46455 10.7285 4.45255 10.7242C4.44055 10.7199 4.42866 10.7153 4.41687 10.7105C4.4051 10.7056 4.39345 10.7004 4.38192 10.695C4.37041 10.6895 4.35903 10.6838 4.34779 10.6778C4.33654 10.6718 4.32544 10.6655 4.31451 10.659C4.30359 10.6524 4.29282 10.6456 4.28221 10.6385C4.27161 10.6314 4.2612 10.6241 4.25097 10.6165C4.24073 10.6089 4.23067 10.6011 4.22081 10.593C4.21096 10.5849 4.20131 10.5765 4.19186 10.568C4.18242 10.5594 4.17319 10.5506 4.16418 10.5416C4.15516 10.5326 4.14637 10.5234 4.13781 10.5139C4.12926 10.5045 4.12093 10.4948 4.11284 10.485C4.10475 10.4751 4.09692 10.4651 4.08933 10.4548C4.08173 10.4446 4.07438 10.4342 4.0673 10.4236C4.06022 10.413 4.0534 10.4022 4.04685 10.3913C4.0403 10.3803 4.03402 10.3693 4.028 10.358C4.022 10.3468 4.01628 10.3354 4.01083 10.3239C4.00537 10.3124 4.00021 10.3007 3.99533 10.2889C3.99045 10.2771 3.98586 10.2653 3.98157 10.2533C3.97727 10.2413 3.97327 10.2291 3.96958 10.2169C3.96588 10.2048 3.96248 10.1925 3.95939 10.1801C3.95628 10.1677 3.95349 10.1553 3.95101 10.1428C3.94852 10.1303 3.94635 10.1177 3.94448 10.1051C3.9426 10.0925 3.94104 10.0799 3.9398 10.0672C3.93854 10.0545 3.93759 10.0418 3.93697 10.0291C3.93635 10.0163 3.93604 10.0036 3.93604 9.99084C3.93604 9.97809 3.93635 9.96535 3.93697 9.95262C3.93759 9.93989 3.93854 9.92719 3.9398 9.91449C3.94104 9.9018 3.9426 9.88916 3.94448 9.87655C3.94635 9.86394 3.94852 9.85138 3.95101 9.83887C3.95349 9.82637 3.95628 9.81394 3.95939 9.80158C3.96248 9.78921 3.96588 9.77692 3.96958 9.76472C3.97329 9.75253 3.97728 9.74043 3.98157 9.72843C3.98586 9.71643 3.99045 9.70454 3.99533 9.69275C4.00021 9.68098 4.00537 9.66933 4.01083 9.6578C4.01628 9.64627 4.022 9.63489 4.028 9.62365C4.03402 9.61241 4.0403 9.60132 4.04685 9.59039C4.0534 9.57946 4.06022 9.5687 4.0673 9.55809C4.07438 9.54749 4.08173 9.53707 4.08933 9.52683C4.09692 9.5166 4.10475 9.50655 4.11284 9.49669C4.12093 9.48684 4.12926 9.47719 4.13781 9.46774C4.14637 9.45829 4.15516 9.44907 4.16418 9.44006C4.17319 9.43104 4.18242 9.42225 4.19186 9.41369C4.20131 9.40514 4.21096 9.39681 4.22081 9.38872C4.23067 9.38063 4.24073 9.3728 4.25097 9.36521C4.2612 9.35761 4.27161 9.35026 4.28221 9.34318C4.29282 9.3361 4.30359 9.32928 4.31451 9.32273C4.32544 9.31618 4.33654 9.3099 4.34779 9.30388C4.35903 9.29788 4.37041 9.29215 4.38192 9.28671C4.39345 9.28125 4.4051 9.27609 4.41687 9.27121C4.42866 9.26633 4.44055 9.26174 4.45255 9.25745C4.46455 9.25315 4.47666 9.24915 4.48886 9.24546C4.50105 9.24176 4.51333 9.23836 4.5257 9.23527C4.53806 9.23216 4.55049 9.22937 4.56299 9.22688C4.57551 9.22439 4.58807 9.22221 4.60067 9.22036C4.61328 9.21848 4.62592 9.21692 4.63861 9.21566C4.6513 9.21441 4.66401 9.21347 4.67674 9.21285C4.68947 9.21223 4.70221 9.21191 4.71496 9.21191L15.211 9.21191C15.2237 9.21191 15.2365 9.21223 15.2492 9.21285C15.2619 9.21347 15.2746 9.21441 15.2873 9.21566C15.3 9.21692 15.3127 9.21848 15.3253 9.22036C15.3379 9.22221 15.3505 9.22439 15.363 9.22688C15.3754 9.22937 15.3879 9.23216 15.4003 9.23527C15.4126 9.23836 15.4249 9.24176 15.4371 9.24546C15.4493 9.24915 15.4614 9.25315 15.4734 9.25745C15.4854 9.26174 15.4973 9.26633 15.5091 9.27121C15.5208 9.27609 15.5325 9.28125 15.544 9.28671C15.5555 9.29215 15.5669 9.29788 15.5782 9.30388C15.5894 9.3099 15.6005 9.31618 15.6114 9.32273C15.6224 9.32928 15.6331 9.3361 15.6437 9.34318C15.6543 9.35026 15.6648 9.35761 15.675 9.36521C15.6852 9.3728 15.6953 9.38063 15.7051 9.38872C15.715 9.39681 15.7246 9.40514 15.7341 9.41369C15.7435 9.42225 15.7528 9.43104 15.7618 9.44006C15.7708 9.44907 15.7796 9.45829 15.7881 9.46774C15.7967 9.47719 15.805 9.48684 15.8131 9.49669C15.8212 9.50655 15.829 9.5166 15.8366 9.52683C15.8442 9.53707 15.8516 9.54749 15.8586 9.55809C15.8657 9.56868 15.8725 9.57945 15.8791 9.59039C15.8856 9.60132 15.8919 9.61241 15.8979 9.62365C15.9039 9.63489 15.9097 9.64627 15.9151 9.6578C15.9206 9.66933 15.9257 9.68098 15.9306 9.69275C15.9355 9.70454 15.9401 9.71643 15.9444 9.72843C15.9487 9.74043 15.9527 9.75253 15.9564 9.76472C15.9601 9.77692 15.9635 9.78921 15.9666 9.80158C15.9697 9.81394 15.9725 9.82637 15.9749 9.83887C15.9774 9.85138 15.9796 9.86394 15.9815 9.87655C15.9834 9.88916 15.9849 9.9018 15.9862 9.91449C15.9874 9.92719 15.9884 9.93989 15.989 9.95262C15.9896 9.96535 15.9899 9.97809 15.9899 9.99084C15.9899 10.0036 15.9896 10.0163 15.989 10.0291C15.9884 10.0418 15.9874 10.0545 15.9862 10.0672C15.9849 10.0799 15.9834 10.0925 15.9815 10.1051C15.9796 10.1177 15.9774 10.1303 15.9749 10.1428C15.9725 10.1553 15.9697 10.1677 15.9666 10.1801C15.9635 10.1925 15.9601 10.2048 15.9564 10.2169C15.9527 10.2291 15.9487 10.2413 15.9444 10.2533C15.9401 10.2653 15.9355 10.2771 15.9306 10.2889C15.9257 10.3007 15.9206 10.3124 15.9151 10.3239C15.9097 10.3354 15.9039 10.3468 15.8979 10.358C15.8919 10.3693 15.8856 10.3803 15.8791 10.3913C15.8725 10.4022 15.8657 10.413 15.8586 10.4236C15.8516 10.4342 15.8442 10.4446 15.8366 10.4548C15.829 10.4651 15.8212 10.4751 15.8131 10.485C15.805 10.4948 15.7967 10.5045 15.7881 10.5139C15.7796 10.5234 15.7708 10.5326 15.7618 10.5416C15.7528 10.5506 15.7435 10.5594 15.7341 10.568C15.7246 10.5765 15.715 10.5849 15.7051 10.593C15.6953 10.6011 15.6852 10.6089 15.675 10.6165C15.6648 10.6241 15.6543 10.6314 15.6437 10.6385C15.6331 10.6456 15.6224 10.6524 15.6114 10.659C15.6005 10.6655 15.5894 10.6718 15.5782 10.6778C15.5669 10.6838 15.5555 10.6895 15.544 10.695C15.5325 10.7004 15.5208 10.7056 15.5091 10.7105C15.4973 10.7153 15.4854 10.7199 15.4734 10.7242C15.4614 10.7285 15.4493 10.7325 15.4371 10.7362C15.4249 10.7399 15.4126 10.7433 15.4003 10.7464C15.3879 10.7495 15.3754 10.7523 15.363 10.7548C15.3505 10.7573 15.3379 10.7595 15.3253 10.7613C15.3127 10.7632 15.3 10.7648 15.2873 10.766C15.2746 10.7673 15.2619 10.7682 15.2492 10.7688C15.2365 10.7695 15.2237 10.7698 15.211 10.7698Z"   fill="#FFFFFF" >
</path>
<path d="M9.97278 16.0275C9.96003 16.0275 9.94728 16.0272 9.93455 16.0266C9.92181 16.026 9.90911 16.025 9.89642 16.0238C9.88374 16.0225 9.87109 16.021 9.85849 16.0191C9.84587 16.0172 9.83331 16.015 9.82081 16.0126C9.80831 16.0101 9.79587 16.0073 9.7835 16.0042C9.77114 16.0011 9.75886 15.9977 9.74665 15.994C9.73446 15.9903 9.72237 15.9863 9.71036 15.982C9.69835 15.9777 9.68646 15.9731 9.67469 15.9682C9.66291 15.9633 9.65126 15.9582 9.63973 15.9527C9.62821 15.9473 9.61682 15.9416 9.60558 15.9355C9.59434 15.9295 9.58326 15.9233 9.57233 15.9167C9.56138 15.9101 9.55062 15.9033 9.54003 15.8962C9.52942 15.8892 9.519 15.8818 9.50876 15.8742C9.49852 15.8667 9.48847 15.8588 9.47862 15.8507C9.46877 15.8426 9.45912 15.8343 9.44968 15.8257C9.44023 15.8172 9.43099 15.8084 9.42198 15.7994C9.41297 15.7904 9.40419 15.7811 9.39562 15.7717C9.38706 15.7622 9.37873 15.7526 9.37065 15.7427C9.36257 15.7329 9.35472 15.7228 9.34712 15.7126C9.33953 15.7024 9.3322 15.6919 9.32511 15.6813C9.31803 15.6707 9.31122 15.66 9.30467 15.6491C9.29812 15.6381 9.29183 15.627 9.28582 15.6158C9.27981 15.6045 9.27408 15.5931 9.26862 15.5816C9.26318 15.5701 9.25801 15.5584 9.25313 15.5467C9.24825 15.5349 9.24367 15.523 9.23938 15.511C9.23508 15.499 9.23108 15.4869 9.22738 15.4747C9.22368 15.4625 9.22029 15.4502 9.21718 15.4379C9.21409 15.4255 9.2113 15.413 9.20882 15.4006C9.20632 15.3881 9.20414 15.3755 9.20227 15.3629C9.2004 15.3503 9.19884 15.3376 9.19759 15.3249C9.19634 15.3122 9.19541 15.2995 9.19478 15.2868C9.19416 15.2741 9.19385 15.2613 9.19385 15.2486L9.19385 4.75256C9.19385 4.73981 9.19416 4.72708 9.19478 4.71435C9.19541 4.70162 9.19634 4.68891 9.19759 4.67623C9.19884 4.66353 9.2004 4.65088 9.20227 4.63827C9.20414 4.62567 9.20632 4.61311 9.20882 4.60061C9.2113 4.58811 9.21409 4.57567 9.21718 4.5633C9.22029 4.55093 9.22368 4.53865 9.22738 4.52646C9.23108 4.51426 9.23508 4.50215 9.23938 4.49014C9.24367 4.47815 9.24825 4.46626 9.25313 4.45449C9.25801 4.4427 9.26318 4.43105 9.26862 4.41954C9.27408 4.40801 9.27981 4.39663 9.28582 4.38539C9.29182 4.37415 9.2981 4.36305 9.30467 4.35211C9.31122 4.34118 9.31803 4.33042 9.32511 4.31981C9.3322 4.30922 9.33953 4.2988 9.34712 4.28856C9.35472 4.27832 9.36257 4.26828 9.37065 4.25843C9.37873 4.24856 9.38706 4.23891 9.39562 4.22946C9.40419 4.22003 9.41297 4.2108 9.42198 4.20178C9.43099 4.19276 9.44023 4.18398 9.44968 4.17543C9.45912 4.16686 9.46877 4.15854 9.47862 4.15046C9.48847 4.14236 9.49852 4.13452 9.50876 4.12693C9.519 4.11934 9.52942 4.112 9.54003 4.10492C9.55062 4.09784 9.56138 4.09101 9.57233 4.08445C9.58326 4.0779 9.59434 4.07162 9.60558 4.06562C9.61682 4.0596 9.62821 4.05387 9.63973 4.04843C9.65126 4.04297 9.66291 4.0378 9.67469 4.03293C9.68646 4.02806 9.69835 4.02347 9.71036 4.01917C9.72237 4.01488 9.73446 4.01088 9.74665 4.00718C9.75886 4.00348 9.77114 4.00008 9.7835 3.99699C9.79587 3.99389 9.80831 3.9911 9.82081 3.9886C9.83331 3.98612 9.84587 3.98394 9.85849 3.98207C9.87109 3.9802 9.88374 3.97864 9.89642 3.97739C9.90911 3.97615 9.92181 3.97521 9.93455 3.97457C9.94728 3.97394 9.96003 3.97363 9.97278 3.97363C9.98552 3.97363 9.99826 3.97394 10.011 3.97457C10.0237 3.97521 10.0364 3.97615 10.0491 3.97739C10.0618 3.97864 10.0745 3.9802 10.0871 3.98207C10.0997 3.98394 10.1122 3.98612 10.1247 3.9886C10.1372 3.9911 10.1497 3.99389 10.162 3.99699C10.1744 4.00008 10.1867 4.00348 10.1989 4.00718C10.2111 4.01088 10.2232 4.01488 10.2352 4.01917C10.2472 4.02347 10.2591 4.02806 10.2708 4.03293C10.2826 4.0378 10.2943 4.04297 10.3058 4.04843C10.3173 4.05387 10.3287 4.0596 10.3399 4.06562C10.3512 4.07162 10.3623 4.0779 10.3732 4.08445C10.3842 4.09101 10.3949 4.09784 10.4055 4.10492C10.4161 4.112 10.4265 4.11934 10.4368 4.12693C10.447 4.13452 10.4571 4.14236 10.4669 4.15046C10.4768 4.15854 10.4864 4.16686 10.4959 4.17543C10.5053 4.18398 10.5145 4.19276 10.5236 4.20178C10.5326 4.2108 10.5414 4.22003 10.5499 4.22946C10.5585 4.23891 10.5668 4.24856 10.5749 4.25843C10.583 4.26828 10.5908 4.27832 10.5984 4.28856C10.606 4.2988 10.6133 4.30922 10.6204 4.31981C10.6275 4.33042 10.6343 4.34118 10.6409 4.35211C10.6474 4.36305 10.6537 4.37415 10.6597 4.38539C10.6657 4.39663 10.6715 4.40801 10.6769 4.41954C10.6824 4.43105 10.6875 4.4427 10.6924 4.45449C10.6973 4.46626 10.7019 4.47816 10.7062 4.49016C10.7105 4.50216 10.7145 4.51426 10.7182 4.52646C10.7219 4.53866 10.7253 4.55094 10.7284 4.5633C10.7314 4.57567 10.7342 4.58811 10.7367 4.60061C10.7392 4.61311 10.7414 4.62567 10.7433 4.63827C10.7451 4.65088 10.7467 4.66353 10.7479 4.67623C10.7492 4.68891 10.7501 4.70162 10.7508 4.71435C10.7514 4.72708 10.7517 4.73981 10.7517 4.75256L10.7517 15.2486C10.7517 15.2613 10.7514 15.2741 10.7508 15.2868C10.7501 15.2995 10.7492 15.3122 10.7479 15.3249C10.7467 15.3376 10.7451 15.3503 10.7433 15.3629C10.7414 15.3755 10.7392 15.3881 10.7367 15.4006C10.7342 15.413 10.7314 15.4255 10.7284 15.4379C10.7253 15.4502 10.7219 15.4625 10.7182 15.4747C10.7145 15.4869 10.7105 15.499 10.7062 15.511C10.7019 15.523 10.6973 15.5349 10.6924 15.5467C10.6875 15.5584 10.6824 15.5701 10.6769 15.5816C10.6715 15.5931 10.6657 15.6045 10.6597 15.6158C10.6537 15.627 10.6474 15.6381 10.6409 15.649C10.6343 15.66 10.6275 15.6707 10.6204 15.6813C10.6133 15.6919 10.606 15.7024 10.5984 15.7126C10.5908 15.7228 10.583 15.7329 10.5749 15.7427C10.5668 15.7526 10.5585 15.7622 10.5499 15.7717C10.5414 15.7811 10.5326 15.7904 10.5236 15.7994C10.5145 15.8084 10.5053 15.8172 10.4959 15.8257C10.4864 15.8343 10.4768 15.8426 10.4669 15.8507C10.4571 15.8588 10.447 15.8666 10.4368 15.8742C10.4265 15.8818 10.4161 15.8892 10.4055 15.8962C10.3949 15.9033 10.3842 15.9101 10.3732 15.9167C10.3623 15.9233 10.3512 15.9295 10.3399 15.9355C10.3287 15.9416 10.3173 15.9473 10.3058 15.9527C10.2943 15.9582 10.2826 15.9633 10.2708 15.9682C10.2591 15.9731 10.2472 15.9777 10.2352 15.982C10.2232 15.9863 10.2111 15.9903 10.1989 15.994C10.1867 15.9977 10.1744 16.0011 10.162 16.0042C10.1497 16.0073 10.1372 16.0101 10.1247 16.0126C10.1122 16.015 10.0997 16.0172 10.0871 16.0191C10.0745 16.021 10.0618 16.0225 10.0491 16.0238C10.0364 16.025 10.0237 16.026 10.011 16.0266C9.99826 16.0272 9.98552 16.0275 9.97278 16.0275L9.97278 16.0275Z"   fill="#FFFFFF" >
</path>
</g>
</svg>
