<svg xmlns="http://www.w3.org/2000/svg" xmlns:xlink="http://www.w3.org/1999/xlink" width="156" height="45" viewBox="0 0 156 45" fill="none">
<path d="M61.552 26.3204L69.4814 26.3204L69.4814 18.9123L73.0457 18.9123L73.0457 37.1755L69.4825 37.1755L69.4825 29.5491L61.552 29.5491L61.552 37.1767L57.9949 37.1767L57.9949 18.9111L61.552 18.9111L61.552 26.3204Z"   fill="#FFFFFF" >
</path>
<path d="M79.5067 29.8531C79.5067 33.0875 80.379 34.4341 83.3297 34.4341C86.2699 34.4341 87.1156 33.0875 87.1156 29.8531L87.1156 18.9136L90.6832 18.9136L90.6832 29.9566C90.6832 32.2921 90.4504 33.8941 89.6924 34.865C88.3009 36.6492 86.2699 37.3827 83.3297 37.3827C80.379 37.3827 78.3326 36.6492 76.9363 34.865C76.1621 33.8772 75.9695 32.2685 75.9695 29.9566L75.9695 18.9136L79.5067 18.9136L79.5067 29.8531ZM102.319 18.9136L109.528 37.1769L105.566 37.1769L104.017 32.8332L96.658 32.8332L95.1518 37.1757L91.3814 37.1757L98.5426 18.9136L102.319 18.9136ZM97.8163 29.5786L102.86 29.5786L100.298 22.5541L97.8155 29.5797L97.8163 29.5786ZM111.143 18.9136L115.07 32.9592L118.362 18.9136L122.57 18.9136L126.363 32.9592L130.013 18.9136L133.67 18.9136L128.44 37.1769L124.077 37.1769L120.456 23.5486L117.307 37.1769L112.971 37.1769L107.331 18.9136L111.143 18.9136ZM138.464 26.3408L148.322 26.3408L148.322 29.5246L138.448 29.5246C138.464 32.8141 139.669 33.9987 142.462 33.9987L148.322 33.9987L148.322 37.178L142.302 37.178C140.26 37.178 138.677 37.007 137.024 35.5805C135.284 34.0763 134.432 31.6857 134.432 28.3794C134.432 21.9173 136.953 18.9136 142.408 18.9136L148.32 18.9136L148.32 22.0973L142.462 22.0973C139.908 22.0973 138.609 23.4698 138.464 26.3408Z"   fill="#FFFFFF" >
</path>
<path     fill="#FFFFFF"  d="M151.459 37.1768L155.183 37.1768L155.183 18.9135L151.459 18.9135L151.459 37.1768ZM3.54634 18.3443C3.71294 21.9668 6.04822 24.1155 6.04822 24.1155C9.80686 28.3905 18.914 33.8029 21.0269 35.0257C21.0615 35.037 21.1646 35.0775 21.2291 34.9852C21.2291 34.9852 21.3196 34.9065 21.2725 34.7726L21.2753 34.7726C15.479 19.9811 7.55248 8.77052 7.55248 8.77052C7.55248 8.77052 3.24107 13.5529 3.54634 18.3443ZM4.46603 39.1005C6.11372 42.5272 8.88429 45.1846 11.7676 44.3654C13.761 43.7861 18.2679 40.1119 19.7547 38.8721L19.7499 38.8665C19.8617 38.7461 19.8222 38.6471 19.8222 38.6471C19.7856 38.4874 19.6276 38.4874 19.6276 38.4874L19.6276 38.484L4.46603 39.1005ZM0.844138 31.1524C2.48896 35.2102 5.62646 36.4399 5.62646 36.4399C5.74206 36.4933 5.85856 36.544 5.97589 36.5919C6.09325 36.6399 6.21137 36.6851 6.33028 36.7275C6.44919 36.77 6.56878 36.8096 6.68904 36.8464C6.8093 36.8833 6.93017 36.9173 7.0516 36.9484C7.17303 36.9796 7.29495 37.0079 7.41735 37.0334C7.53976 37.0588 7.66254 37.0814 7.78574 37.1011C7.90894 37.1209 8.0324 37.1376 8.15616 37.1516C8.27989 37.1655 8.40384 37.1765 8.52797 37.1846C8.75428 37.2341 17.5427 37.1869 19.8963 37.1756C19.9965 37.1756 20.0514 37.0575 20.0514 37.0575C20.1255 36.9157 19.9965 36.792 19.9965 36.792L19.9965 36.7897C13.3421 31.5405 0.43197 23.4878 0.43197 23.4878C-0.740012 27.7335 0.844138 31.1535 0.844138 31.1535M18.6175 1.665C14.6036 2.8755 13.658 7.1325 13.658 7.1325C12.9241 9.81 13.6753 12.7462 13.6753 12.7462C15.0148 19.6931 21.6047 31.1029 23.0222 33.4991C23.1253 33.615 23.2071 33.5722 23.2071 33.5722C23.3583 33.5194 23.3468 33.3495 23.3468 33.3495L23.3497 33.3562C25.5261 7.87276 21.0615 1.125 21.0615 1.125C20.4 1.1925 18.6175 1.665 18.6175 1.665ZM25.9613 33.3731C25.9806 33.5295 26.0808 33.5666 26.0808 33.5666C26.2252 33.6341 26.2965 33.4676 26.2965 33.4676L26.3013 33.4676C27.7506 31.0129 34.3068 19.6639 35.6406 12.7451C35.6406 12.7451 36.3628 9.39823 35.6666 7.13136C35.6666 7.13136 34.6747 2.81025 30.6531 1.66612C30.6531 1.66612 29.4975 1.32637 28.2697 1.12612C28.2697 1.12612 23.7753 7.88062 25.9613 33.3731ZM29.6651 38.4986C29.6651 38.4986 29.5332 38.5211 29.4927 38.6347C29.4927 38.6347 29.4619 38.7922 29.5524 38.8744L29.5495 38.8744C31.0056 40.0938 35.4017 43.6815 37.5194 44.3812C37.5194 44.3812 41.4425 45.9417 44.8431 39.1084L29.668 38.493L29.6651 38.4986ZM29.33 36.7785L29.3328 36.7841C29.3328 36.7841 29.2125 36.8707 29.2548 37.0418C29.2548 37.0418 29.3155 37.1756 29.4089 37.1756C31.7991 37.1756 40.8263 37.1902 41.0528 37.1441C41.0528 37.1441 42.2208 37.0912 43.6623 36.4387C43.6623 36.4387 46.876 35.2462 48.5439 30.9859C48.5439 30.9859 50.031 27.5119 48.878 23.4484C48.878 23.4484 35.994 31.5304 29.33 36.7785ZM28.0684 34.7051L28.0713 34.7051C28.0713 34.7051 28.0019 34.8738 28.1127 34.9863C28.1127 34.9863 28.2177 35.0786 28.3188 35.0055C30.4885 33.7455 39.5263 28.3713 43.2696 24.1155C43.2696 24.1155 45.6414 21.8857 45.7655 18.3161C46.0352 13.3594 41.7671 8.77052 41.7671 8.77052C41.7671 8.77052 33.8609 19.9474 28.0684 34.7051Z">
</path>
</svg>
