<svg xmlns="http://www.w3.org/2000/svg" xmlns:xlink="http://www.w3.org/1999/xlink" width="27" height="30" viewBox="0 0 27 30" fill="none">
<path d="M6.74999 2.5L20.25 2.5C21.9586 2.5 23.3437 4.03907 23.3437 5.93752L23.3437 24.0625C23.3437 25.9609 21.9586 27.5 20.25 27.5L6.74999 27.5C5.0414 27.5 3.65625 25.9609 3.65625 24.0625L3.65625 5.93752C3.65625 4.03907 5.0414 2.5 6.74999 2.5ZM6.74999 4.37499C6.72697 4.37499 6.70398 4.37563 6.68099 4.3769C6.658 4.37815 6.63506 4.38002 6.61214 4.38252C6.58923 4.38504 6.5664 4.38817 6.54364 4.39192C6.52089 4.39567 6.49821 4.40004 6.47564 4.40502C6.45307 4.41002 6.43063 4.41563 6.4083 4.42184C6.38597 4.42805 6.36379 4.43486 6.34177 4.44229C6.31976 4.44971 6.2979 4.45773 6.27625 4.46634C6.25458 4.47495 6.23311 4.48415 6.21184 4.49394C6.19058 4.50372 6.16955 4.51408 6.14874 4.52502C6.12794 4.53596 6.1074 4.54745 6.08709 4.5595C6.06679 4.57155 6.04677 4.58415 6.02703 4.5973C6.00729 4.61044 5.98785 4.62412 5.96873 4.63834C5.94959 4.65254 5.93077 4.66726 5.91228 4.68249C5.8938 4.69773 5.87567 4.71345 5.85788 4.72966C5.84009 4.74589 5.82268 4.76259 5.80562 4.77976C5.78856 4.79695 5.77189 4.81457 5.75563 4.83264C5.73936 4.85072 5.72349 4.86924 5.70804 4.88818C5.69257 4.90713 5.67754 4.92648 5.66295 4.94625C5.64834 4.96602 5.63418 4.98617 5.62047 5.00672C5.60676 5.02727 5.59352 5.04817 5.58074 5.06942C5.56796 5.09068 5.55564 5.11228 5.5438 5.13422C5.53197 5.15615 5.52063 5.1784 5.50978 5.20096C5.49894 5.2235 5.48859 5.24633 5.47875 5.26945C5.46891 5.29256 5.45958 5.31593 5.45077 5.33956C5.44197 5.36317 5.43369 5.38702 5.42594 5.4111C5.41818 5.43519 5.41097 5.45945 5.40429 5.48394C5.39761 5.50841 5.39147 5.53305 5.38588 5.55786C5.38029 5.58265 5.37525 5.60761 5.37075 5.63269C5.36627 5.65776 5.36234 5.68293 5.35896 5.70824C5.35559 5.73353 5.35277 5.7589 5.3505 5.78436C5.34825 5.80978 5.34656 5.8353 5.34544 5.86085C5.34431 5.88637 5.34375 5.91191 5.34375 5.93752L5.34375 24.0625C5.34375 24.0881 5.34431 24.1136 5.34544 24.1392C5.34656 24.1647 5.34825 24.1902 5.3505 24.2157C5.35277 24.2411 5.35559 24.2665 5.35896 24.2918C5.36234 24.3171 5.36627 24.3423 5.37075 24.3673C5.37525 24.3924 5.38029 24.4173 5.38588 24.4422C5.39147 24.4669 5.39761 24.4916 5.40429 24.5161C5.41097 24.5405 5.41818 24.5648 5.42594 24.5889C5.43369 24.613 5.44197 24.6368 5.45077 24.6604C5.45958 24.6841 5.46891 24.7074 5.47875 24.7306C5.48859 24.7537 5.49894 24.7765 5.50978 24.7991C5.52063 24.8216 5.53197 24.8438 5.5438 24.8658C5.55564 24.8877 5.56796 24.9093 5.58074 24.9306C5.59352 24.9518 5.60676 24.9727 5.62047 24.9933C5.63418 25.0138 5.64834 25.034 5.66295 25.0538C5.67754 25.0735 5.69257 25.0929 5.70804 25.1118C5.72349 25.1308 5.73936 25.1493 5.75563 25.1674C5.77189 25.1854 5.78856 25.2031 5.80562 25.2203C5.82268 25.2374 5.84009 25.2541 5.85788 25.2703C5.87567 25.2866 5.8938 25.3023 5.91228 25.3175C5.93077 25.3328 5.94959 25.3475 5.96873 25.3617C5.98785 25.3759 6.00729 25.3896 6.02703 25.4027C6.04677 25.4158 6.06679 25.4284 6.08709 25.4405C6.10738 25.4525 6.12793 25.464 6.14874 25.475C6.16955 25.4859 6.19058 25.4963 6.21184 25.5061C6.23311 25.5159 6.25458 25.5251 6.27625 25.5337C6.2979 25.5423 6.31976 25.5503 6.34177 25.5577C6.36379 25.5651 6.38597 25.572 6.4083 25.5782C6.43063 25.5844 6.45307 25.59 6.47564 25.595C6.49821 25.6 6.52089 25.6043 6.54364 25.6081C6.5664 25.6118 6.58923 25.615 6.61214 25.6175C6.63506 25.62 6.658 25.6219 6.68099 25.6231C6.70398 25.6244 6.72697 25.625 6.74999 25.625L20.25 25.625C20.273 25.625 20.296 25.6244 20.319 25.6231C20.342 25.6219 20.3649 25.62 20.3878 25.6175C20.4107 25.615 20.4336 25.6118 20.4563 25.6081C20.4791 25.6043 20.5018 25.6 20.5243 25.595C20.5469 25.59 20.5693 25.5844 20.5917 25.5782C20.614 25.572 20.6362 25.5651 20.6582 25.5577C20.6802 25.5503 20.7021 25.5423 20.7237 25.5337C20.7454 25.5251 20.7669 25.5159 20.7881 25.5061C20.8094 25.4963 20.8304 25.4859 20.8512 25.475C20.872 25.464 20.8926 25.4525 20.9129 25.4405C20.9332 25.4284 20.9532 25.4158 20.9729 25.4027C20.9927 25.3896 21.0121 25.3759 21.0312 25.3617C21.0504 25.3475 21.0692 25.3328 21.0877 25.3175C21.1062 25.3023 21.1243 25.2866 21.1421 25.2703C21.1599 25.2541 21.1773 25.2374 21.1944 25.2203C21.2114 25.2031 21.2281 25.1854 21.2443 25.1674C21.2606 25.1493 21.2765 25.1308 21.2919 25.1118C21.3074 25.0929 21.3224 25.0735 21.337 25.0538C21.3516 25.034 21.3658 25.0138 21.3795 24.9933C21.3932 24.9727 21.4065 24.9518 21.4192 24.9306C21.432 24.9093 21.4443 24.8877 21.4562 24.8658C21.468 24.8438 21.4794 24.8216 21.4902 24.7991C21.501 24.7765 21.5114 24.7537 21.5212 24.7306C21.5311 24.7074 21.5404 24.6841 21.5492 24.6604C21.558 24.6368 21.5663 24.613 21.574 24.5889C21.5818 24.5648 21.589 24.5405 21.5957 24.5161C21.6024 24.4916 21.6085 24.4669 21.6141 24.4422C21.6197 24.4173 21.6247 24.3924 21.6292 24.3673C21.6337 24.3423 21.6376 24.3171 21.641 24.2918C21.6444 24.2665 21.6472 24.2411 21.6495 24.2157C21.6517 24.1902 21.6534 24.1647 21.6545 24.1392C21.6557 24.1136 21.6562 24.0881 21.6562 24.0625L21.6562 5.93752C21.6562 5.91191 21.6557 5.88637 21.6545 5.86085C21.6534 5.8353 21.6517 5.80978 21.6495 5.78436C21.6472 5.7589 21.6444 5.73353 21.641 5.70824C21.6376 5.68293 21.6337 5.65776 21.6292 5.63269C21.6247 5.60761 21.6197 5.58265 21.6141 5.55786C21.6085 5.53305 21.6024 5.50841 21.5957 5.48394C21.589 5.45945 21.5818 5.43519 21.574 5.4111C21.5663 5.38702 21.558 5.36317 21.5492 5.33956C21.5404 5.31593 21.5311 5.29256 21.5212 5.26945C21.5114 5.24633 21.501 5.2235 21.4902 5.20096C21.4794 5.1784 21.468 5.15615 21.4562 5.13422C21.4443 5.11228 21.432 5.09068 21.4192 5.06942C21.4065 5.04817 21.3932 5.02727 21.3795 5.00672C21.3658 4.98617 21.3516 4.96602 21.337 4.94625C21.3224 4.92648 21.3074 4.90713 21.2919 4.88818C21.2765 4.86924 21.2606 4.85072 21.2443 4.83264C21.2281 4.81457 21.2114 4.79695 21.1944 4.77976C21.1773 4.76259 21.1599 4.74589 21.1421 4.72966C21.1243 4.71345 21.1062 4.69773 21.0877 4.68249C21.0692 4.66726 21.0504 4.65254 21.0312 4.63834C21.0121 4.62412 20.9927 4.61044 20.9729 4.5973C20.9532 4.58415 20.9332 4.57155 20.9129 4.5595C20.8926 4.54745 20.872 4.53596 20.8512 4.52502C20.8304 4.51408 20.8094 4.50372 20.7881 4.49394C20.7669 4.48415 20.7454 4.47495 20.7237 4.46634C20.7021 4.45773 20.6802 4.44971 20.6582 4.44229C20.6362 4.43486 20.614 4.42805 20.5917 4.42184C20.5693 4.41563 20.5469 4.41002 20.5243 4.40502C20.5018 4.40004 20.4791 4.39567 20.4563 4.39192C20.4336 4.38817 20.4107 4.38504 20.3878 4.38252C20.3649 4.38002 20.342 4.37815 20.319 4.3769C20.296 4.37563 20.273 4.37499 20.25 4.37499L6.74999 4.37499ZM11.25 22.5C11.2362 22.5 11.2224 22.4996 11.2086 22.4989C11.1948 22.4981 11.181 22.497 11.1673 22.4955C11.1535 22.494 11.1398 22.4921 11.1262 22.4899C11.1125 22.4876 11.0989 22.485 11.0854 22.482C11.0718 22.479 11.0584 22.4756 11.045 22.4719C11.0316 22.4682 11.0183 22.4641 11.0051 22.4596C10.9919 22.4552 10.9787 22.4503 10.9657 22.4452C10.9527 22.44 10.9399 22.4345 10.9271 22.4286C10.9143 22.4228 10.9017 22.4165 10.8892 22.41C10.8768 22.4034 10.8644 22.3965 10.8522 22.3893C10.8401 22.3821 10.828 22.3745 10.8162 22.3666C10.8044 22.3587 10.7927 22.3505 10.7812 22.342C10.7697 22.3335 10.7585 22.3247 10.7474 22.3155C10.7363 22.3064 10.7254 22.2969 10.7147 22.2872C10.704 22.2775 10.6936 22.2674 10.6834 22.2571C10.6731 22.2468 10.6631 22.2362 10.6534 22.2254C10.6436 22.2146 10.6341 22.2035 10.6248 22.1921C10.6156 22.1807 10.6065 22.1691 10.5978 22.1573C10.589 22.1454 10.5805 22.1333 10.5723 22.121C10.5641 22.1086 10.5561 22.0961 10.5484 22.0833C10.5408 22.0706 10.5334 22.0576 10.5263 22.0445C10.5192 22.0313 10.5124 22.018 10.5059 22.0045C10.4994 21.9909 10.4932 21.9772 10.4872 21.9633C10.4813 21.9495 10.4758 21.9355 10.4705 21.9213C10.4652 21.9071 10.4602 21.8928 10.4556 21.8783C10.4509 21.8639 10.4466 21.8493 10.4426 21.8346C10.4386 21.8199 10.4349 21.8052 10.4315 21.7903C10.4282 21.7754 10.4252 21.7604 10.4225 21.7454C10.4197 21.7304 10.4174 21.7152 10.4154 21.7001C10.4133 21.6849 10.4117 21.6696 10.4103 21.6544C10.409 21.6391 10.4079 21.6238 10.4073 21.6085C10.4066 21.5932 10.4062 21.5779 10.4062 21.5625C10.4062 21.5472 10.4066 21.5318 10.4073 21.5165C10.4079 21.5012 10.409 21.4859 10.4103 21.4706C10.4117 21.4553 10.4133 21.4401 10.4154 21.425C10.4174 21.4098 10.4197 21.3947 10.4225 21.3796C10.4252 21.3645 10.4282 21.3496 10.4315 21.3347C10.4349 21.3198 10.4386 21.305 10.4426 21.2904C10.4466 21.2757 10.4509 21.2611 10.4556 21.2467C10.4602 21.2322 10.4652 21.2179 10.4705 21.2037C10.4758 21.1896 10.4813 21.1755 10.4872 21.1617C10.4932 21.1478 10.4994 21.1341 10.5059 21.1206C10.5124 21.107 10.5192 21.0937 10.5263 21.0805C10.5334 21.0674 10.5408 21.0544 10.5484 21.0417C10.5561 21.0289 10.5641 21.0164 10.5723 21.0041C10.5805 20.9917 10.589 20.9796 10.5978 20.9678C10.6065 20.9559 10.6156 20.9443 10.6248 20.9329C10.6341 20.9216 10.6436 20.9104 10.6534 20.8996C10.6631 20.8887 10.6731 20.8782 10.6834 20.8679C10.6936 20.8576 10.704 20.8475 10.7147 20.8378C10.7254 20.8281 10.7363 20.8186 10.7474 20.8095C10.7585 20.8004 10.7697 20.7915 10.7812 20.783C10.7927 20.7745 10.8044 20.7663 10.8162 20.7584C10.828 20.7505 10.8401 20.7429 10.8522 20.7357C10.8644 20.7285 10.8768 20.7216 10.8892 20.715C10.9017 20.7084 10.9143 20.7022 10.9271 20.6964C10.9399 20.6905 10.9527 20.685 10.9657 20.6798C10.9787 20.6746 10.9919 20.6698 11.0051 20.6654C11.0183 20.6609 11.0316 20.6568 11.045 20.6531C11.0584 20.6494 11.0718 20.646 11.0854 20.643C11.0989 20.64 11.1125 20.6374 11.1262 20.6351C11.1398 20.6329 11.1535 20.631 11.1673 20.6295C11.181 20.628 11.1948 20.6269 11.2086 20.6262C11.2224 20.6254 11.2362 20.625 11.25 20.625L15.75 20.625C15.7638 20.625 15.7776 20.6254 15.7914 20.6262C15.8052 20.6269 15.819 20.628 15.8327 20.6295C15.8464 20.631 15.8601 20.6329 15.8738 20.6351C15.8875 20.6374 15.9011 20.64 15.9146 20.643C15.9281 20.646 15.9416 20.6494 15.955 20.6531C15.9684 20.6568 15.9817 20.6609 15.9949 20.6654C16.0081 20.6698 16.0212 20.6746 16.0342 20.6798C16.0472 20.685 16.0601 20.6905 16.0729 20.6964C16.0856 20.7022 16.0983 20.7084 16.1107 20.715C16.1232 20.7216 16.1355 20.7285 16.1477 20.7357C16.1599 20.7429 16.1719 20.7505 16.1838 20.7584C16.1956 20.7663 16.2073 20.7745 16.2188 20.783C16.2302 20.7915 16.2415 20.8004 16.2526 20.8095C16.2637 20.8186 16.2746 20.8281 16.2853 20.8378C16.2959 20.8475 16.3064 20.8576 16.3166 20.8679C16.3268 20.8782 16.3368 20.8887 16.3466 20.8996C16.3564 20.9104 16.3659 20.9216 16.3752 20.9329C16.3844 20.9443 16.3934 20.9559 16.4022 20.9678C16.411 20.9796 16.4195 20.9917 16.4277 21.0041C16.4359 21.0164 16.4439 21.0289 16.4515 21.0417C16.4592 21.0544 16.4666 21.0674 16.4737 21.0805C16.4808 21.0937 16.4876 21.107 16.4941 21.1206C16.5006 21.1341 16.5068 21.1478 16.5127 21.1617C16.5186 21.1755 16.5242 21.1896 16.5295 21.2037C16.5348 21.2179 16.5398 21.2322 16.5444 21.2467C16.5491 21.2611 16.5534 21.2757 16.5574 21.2904C16.5614 21.305 16.5651 21.3198 16.5684 21.3347C16.5718 21.3496 16.5748 21.3645 16.5775 21.3796C16.5802 21.3947 16.5826 21.4098 16.5846 21.425C16.5866 21.4401 16.5883 21.4553 16.5897 21.4706C16.591 21.4859 16.592 21.5012 16.5927 21.5165C16.5934 21.5318 16.5937 21.5472 16.5937 21.5625C16.5937 21.5779 16.5934 21.5932 16.5927 21.6085C16.592 21.6238 16.591 21.6391 16.5897 21.6544C16.5883 21.6696 16.5866 21.6849 16.5846 21.7001C16.5826 21.7152 16.5802 21.7304 16.5775 21.7454C16.5748 21.7604 16.5718 21.7754 16.5684 21.7903C16.5651 21.8052 16.5614 21.8199 16.5574 21.8346C16.5534 21.8493 16.5491 21.8639 16.5444 21.8783C16.5398 21.8928 16.5348 21.9071 16.5295 21.9213C16.5242 21.9355 16.5186 21.9495 16.5127 21.9633C16.5068 21.9772 16.5006 21.9909 16.4941 22.0045C16.4876 22.018 16.4808 22.0313 16.4737 22.0445C16.4666 22.0576 16.4592 22.0706 16.4515 22.0833C16.4439 22.0961 16.4359 22.1086 16.4277 22.121C16.4195 22.1333 16.411 22.1454 16.4022 22.1573C16.3934 22.1691 16.3844 22.1807 16.3752 22.1921C16.3659 22.2035 16.3564 22.2146 16.3466 22.2254C16.3368 22.2362 16.3268 22.2468 16.3166 22.2571C16.3064 22.2674 16.2959 22.2775 16.2853 22.2872C16.2746 22.2969 16.2637 22.3064 16.2526 22.3155C16.2415 22.3247 16.2302 22.3335 16.2188 22.342C16.2073 22.3505 16.1956 22.3587 16.1838 22.3666C16.1719 22.3745 16.1599 22.3821 16.1477 22.3893C16.1355 22.3965 16.1232 22.4034 16.1107 22.41C16.0983 22.4165 16.0856 22.4228 16.0729 22.4286C16.0601 22.4345 16.0472 22.44 16.0342 22.4452C16.0212 22.4503 16.0081 22.4552 15.9949 22.4596C15.9817 22.4641 15.9684 22.4682 15.955 22.4719C15.9416 22.4756 15.9281 22.479 15.9146 22.482C15.9011 22.485 15.8875 22.4876 15.8738 22.4899C15.8601 22.4921 15.8464 22.494 15.8327 22.4955C15.819 22.497 15.8052 22.4981 15.7914 22.4989C15.7776 22.4996 15.7638 22.5 15.75 22.5L11.25 22.5Z"   fill="#C4C4C4" >
</path>
</svg>
