<svg xmlns="http://www.w3.org/2000/svg" xmlns:xlink="http://www.w3.org/1999/xlink" width="16" height="16" viewBox="0 0 16 16" fill="none">
<path d="M13.8659 16L3.19482 16C2.01625 16 1.06067 15.0448 1.06067 13.8666L1.06067 11.7334L2.12774 11.7334L2.12774 13.8666C2.12774 14.4558 2.60558 14.9333 3.19482 14.9333L13.8659 14.9333C14.4552 14.9333 14.9329 14.4557 14.9329 13.8666L14.9329 2.13338C14.9329 1.54424 14.4551 1.06667 13.8659 1.06667L3.19482 1.06667C2.60547 1.06667 2.12774 1.54424 2.12774 2.13338L2.12774 4.26664L1.06067 4.26664L1.06067 2.13338C1.06067 0.955239 2.01625 0 3.19482 0L13.8659 0C15.0444 0 16 0.955218 16 2.13338L16 13.8666C16 15.0448 15.0444 16 13.8659 16ZM8.38314 4.67084C8.17523 4.46251 8.17523 4.12452 8.38314 3.91669C8.59149 3.70834 8.92966 3.70834 9.13809 3.91669L12.8193 7.59636C12.9302 7.70733 12.9776 7.85471 12.9704 7.99999C12.9776 8.14531 12.9302 8.29269 12.8193 8.40422L9.13809 12.0839C8.92963 12.2922 8.59147 12.2922 8.38314 12.0839C8.17523 11.8755 8.17523 11.5375 8.38314 11.3297L11.1806 8.53329L0.533561 8.53329C0.239134 8.53329 0 8.29478 0 7.99997C0 7.70576 0.239134 7.46662 0.533518 7.46662L11.1806 7.46662L8.38314 4.67079L8.38314 4.67084Z"   fill="#FFFFFF" >
</path>
</svg>
