<svg xmlns="http://www.w3.org/2000/svg" xmlns:xlink="http://www.w3.org/1999/xlink" width="44" height="44.0001220703125" viewBox="0 0 44 44.0001220703125" fill="none">
<path d="M8.39411 28.4467C8.39755 28.4503 8.40094 28.4539 8.40423 28.4577C8.41342 28.4679 8.42206 28.4786 8.43012 28.4898C8.54326 28.6461 8.53132 28.8653 8.39126 29.0052L6.72394 30.672C6.57047 30.8254 6.32125 30.8255 6.17053 30.6694L6.14656 30.6445L6.12519 30.6223L6.11153 30.608C5.86934 30.3551 5.63334 30.0966 5.40349 29.8325C5.17363 29.5684 4.9502 29.2989 4.73323 29.0242C4.51625 28.7494 4.30595 28.4695 4.10231 28.1847C3.8987 27.8999 3.702 27.6104 3.51221 27.3162C3.32242 27.0219 3.13975 26.7233 2.96421 26.4205C2.78867 26.1175 2.62046 25.8106 2.45959 25.4996C2.29872 25.1887 2.14535 24.8741 1.99948 24.5558C1.85364 24.2375 1.71547 23.9159 1.58498 23.5911C1.45448 23.2662 1.33181 22.9384 1.21697 22.6077C1.10213 22.277 0.995243 21.9437 0.896318 21.6079C0.797394 21.2721 0.706536 20.9341 0.623749 20.5939C0.540963 20.2538 0.466342 19.9118 0.399888 19.5681C0.333431 19.2244 0.275214 18.8793 0.225237 18.5328Q0.150275 18.0131 0.100202 17.4904C0.0668223 17.1418 0.0417781 16.7927 0.0250689 16.4431C0.00835614 16.0934 0 15.7435 0 15.3935C-3.3732e-06 15.0433 0.00834793 14.6935 0.0250539 14.3438C0.0417631 13.9941 0.0668061 13.645 0.100182 13.2966C0.133562 12.9481 0.175236 12.6006 0.225207 12.2541C0.275181 11.9076 0.333393 11.5625 0.399844 11.2188C0.466298 10.875 0.540918 10.5331 0.6237 10.193C0.706482 9.85282 0.797335 9.51481 0.896259 9.17902C0.995184 8.84317 1.10206 8.50988 1.2169 8.1792Q1.38916 7.68309 1.5849 7.19582C1.71538 6.87093 1.85356 6.54933 1.99943 6.23111C2.14527 5.9128 2.29862 5.59822 2.45949 5.28727C2.62037 4.97628 2.78857 4.66933 2.96411 4.36641C3.13965 4.06348 3.32232 3.76491 3.51211 3.47069C3.7019 3.17647 3.8986 2.88695 4.10221 2.60213C4.30582 2.31731 4.51611 2.0375 4.73308 1.76271C4.9501 1.48792 5.17353 1.21846 5.40334 0.954329C5.6332 0.690202 5.8692 0.431701 6.11139 0.178832L6.12519 0.164492C6.14027 0.148729 6.1554 0.133064 6.17053 0.117349C6.32125 -0.0387621 6.57047 -0.0386147 6.72394 0.114796L8.39126 1.7815C8.53132 1.92151 8.54326 2.14067 8.43012 2.29693C8.41912 2.31212 8.40713 2.32647 8.39411 2.34C8.18611 2.55682 7.98337 2.77848 7.78589 3.00496C7.5885 3.23144 7.39656 3.46252 7.21013 3.6982C7.02375 3.93385 6.84311 4.17382 6.66818 4.41811C6.49329 4.66244 6.3243 4.91077 6.16125 5.16313C5.99825 5.41549 5.84129 5.67163 5.69048 5.93151C5.53971 6.19134 5.39523 6.45465 5.25699 6.72145C5.1188 6.9882 4.98705 7.25814 4.86174 7.53123C4.73644 7.80426 4.61773 8.08015 4.50563 8.35893C4.39352 8.63766 4.28814 8.9189 4.18946 9.20269C4.09078 9.48643 3.99895 9.77238 3.91396 10.0605C3.82897 10.3487 3.75091 10.6387 3.67978 10.9306C3.60868 11.2225 3.54457 11.5159 3.48745 11.8109C3.43037 12.1058 3.38036 12.402 3.33742 12.6993C3.29448 12.9967 3.25867 13.2948 3.22998 13.5939C3.20133 13.893 3.17981 14.1925 3.16543 14.4926Q3.14391 14.9427 3.14391 15.3933C3.14391 15.6938 3.15109 15.994 3.16543 16.2941C3.17981 16.5942 3.20133 16.8938 3.22998 17.1928C3.25867 17.4918 3.29448 17.79 3.33742 18.0874C3.38036 18.3847 3.43037 18.6809 3.48745 18.9758C3.54457 19.2707 3.60868 19.5642 3.67978 19.8561C3.75091 20.148 3.82897 20.438 3.91396 20.7261C3.99895 21.0143 4.09078 21.3002 4.18946 21.584C4.28814 21.8678 4.39352 22.1491 4.50563 22.4278C4.61773 22.7065 4.73644 22.9824 4.86174 23.2555C4.98705 23.5285 5.1188 23.7985 5.25699 24.0653C5.39523 24.332 5.53971 24.5953 5.69048 24.8552C5.84129 25.1151 5.99825 25.3712 6.16125 25.6236C6.3243 25.8759 6.49329 26.1242 6.66818 26.3685C6.84311 26.6129 7.02375 26.8528 7.21013 27.0885C7.39656 27.3242 7.5885 27.5553 7.78589 27.7818C7.98337 28.0082 8.18611 28.2299 8.39411 28.4467ZM35.6006 28.4524C35.599 28.4541 35.5973 28.4558 35.5958 28.4577C35.5865 28.468 35.5779 28.4788 35.5699 28.4898C35.4567 28.6461 35.4687 28.8653 35.6087 29.0052L37.2761 30.672C37.4295 30.8254 37.6787 30.8255 37.8295 30.6694L37.8748 30.6223L37.8885 30.608C38.1306 30.3551 38.3667 30.0966 38.5965 29.8325C38.8264 29.5684 39.0498 29.2989 39.2668 29.0242C39.4838 28.7494 39.6941 28.4695 39.8977 28.1847C40.1013 27.8999 40.298 27.6104 40.4878 27.3162C40.6776 27.022 40.8603 26.7234 41.0358 26.4205C41.2114 26.1175 41.3796 25.8106 41.5404 25.4996C41.7013 25.1887 41.8547 24.8741 42.0005 24.5558C42.1464 24.2375 42.2846 23.9159 42.415 23.5911C42.5455 23.2662 42.6682 22.9384 42.783 22.6077C42.8979 22.277 43.0048 21.9437 43.1037 21.6079C43.2026 21.2721 43.2935 20.9341 43.3762 20.5939C43.4591 20.2538 43.5337 19.9118 43.6001 19.5681C43.6666 19.2244 43.7248 18.8793 43.7747 18.5328C43.8248 18.1863 43.8664 17.8388 43.8998 17.4904C43.9332 17.1418 43.9582 16.7927 43.9749 16.4431C43.9916 16.0934 44 15.7435 44 15.3935Q44 14.8683 43.9749 14.3438C43.9582 13.9941 43.9332 13.6451 43.8998 13.2966C43.8665 12.9481 43.8248 12.6006 43.7748 12.2541C43.7248 11.9076 43.6666 11.5625 43.6002 11.2188C43.5337 10.875 43.4591 10.5331 43.3763 10.193C43.2936 9.85282 43.2027 9.51481 43.1037 9.17902C43.0048 8.84317 42.898 8.50988 42.7831 8.1792C42.6683 7.84846 42.5456 7.52067 42.4151 7.19582C42.2846 6.87093 42.1465 6.54938 42.0006 6.23111C41.8548 5.9128 41.7014 5.59822 41.5405 5.28727C41.3797 4.97628 41.2115 4.66933 41.0359 4.36641C40.8604 4.06348 40.6777 3.76491 40.4879 3.47069C40.2981 3.17647 40.1014 2.88695 39.8978 2.60213C39.6942 2.31731 39.4839 2.0375 39.2669 1.76272Q38.9414 1.35053 38.5967 0.954334C38.3668 0.690206 38.1308 0.431706 37.8886 0.178837L37.8748 0.164497C37.8597 0.148734 37.8446 0.133069 37.8295 0.117354C37.6787 -0.0387573 37.4295 -0.0386098 37.2761 0.114801L35.6087 1.7815C35.4687 1.92151 35.4567 2.14067 35.5699 2.29693C35.578 2.30809 35.5866 2.31881 35.5958 2.3291L35.6005 2.3343C35.8087 2.55109 36.0116 2.77273 36.2091 2.99921C36.4067 3.22569 36.5988 3.45676 36.7853 3.69241C36.9719 3.92805 37.1527 4.16803 37.3277 4.41232C37.5028 4.65661 37.6719 4.90494 37.8351 5.15734Q38.0798 5.53588 38.3062 5.92576C38.4571 6.18564 38.6018 6.44895 38.7401 6.71575C38.8784 6.98255 39.0103 7.25249 39.1358 7.52563C39.2612 7.79871 39.38 8.07465 39.4922 8.35343C39.6045 8.63216 39.71 8.9135 39.8087 9.19733C39.9075 9.48112 39.9994 9.76713 40.0845 10.0554C40.1697 10.3435 40.2478 10.6336 40.319 10.9256C40.3902 11.2176 40.4544 11.511 40.5116 11.8061C40.5688 12.101 40.6189 12.3973 40.6619 12.6947C40.705 12.9921 40.7408 13.2904 40.7696 13.5895C40.7984 13.8886 40.82 14.1882 40.8344 14.4884C40.8488 14.7886 40.8561 15.0889 40.8561 15.3894C40.8562 15.6899 40.8491 15.9902 40.8348 16.2904C40.8205 16.5906 40.799 16.8902 40.7704 17.1894Q40.7274 17.6381 40.6631 18.0842C40.6202 18.3816 40.5702 18.6779 40.5131 18.973C40.4561 19.268 40.392 19.5615 40.3209 19.8534C40.2498 20.1454 40.1717 20.4356 40.0867 20.7238C40.0018 21.012 39.91 21.2981 39.8113 21.582C39.7126 21.8658 39.6073 22.1471 39.4951 22.426C39.383 22.7048 39.2643 22.9808 39.139 23.254C39.0137 23.5271 38.8819 23.7971 38.7437 24.0639C38.6055 24.3308 38.461 24.5942 38.3101 24.8542C38.1593 25.1141 38.0024 25.3703 37.8393 25.6228C37.6762 25.8752 37.5072 26.1236 37.3322 26.368C37.1573 26.6123 36.9766 26.8524 36.7902 27.0881C36.6037 27.3238 36.4117 27.555 36.2143 27.7816C36.0168 28.0081 35.814 28.2299 35.6059 28.4467L35.6046 28.448L35.6035 28.4492L35.6018 28.451L35.6006 28.4524ZM12.0554 23.0381C12.1713 23.1889 12.2906 23.337 12.4132 23.4823C12.5575 23.6533 12.7062 23.8203 12.8593 23.9833C12.8769 24.002 12.8926 24.0221 12.9064 24.0437C13.0058 24.1996 12.9901 24.4082 12.855 24.5432L11.2745 26.1231C11.121 26.2766 10.8718 26.2769 10.7222 26.1196L10.7129 26.1098L10.6839 26.0792L10.6708 26.0653L10.6573 26.0509C10.4555 25.8362 10.26 25.6159 10.0707 25.3901C9.92541 25.2167 9.78398 25.0402 9.64638 24.8607C9.50877 24.6812 9.37515 24.4987 9.24546 24.3133C9.11582 24.1279 8.99025 23.9398 8.86881 23.749C8.74737 23.5581 8.63016 23.3648 8.51712 23.1688C8.40413 22.9728 8.29542 22.7745 8.19103 22.5738C8.08668 22.3731 7.98671 22.1703 7.89121 21.9653C7.79571 21.7602 7.70468 21.5531 7.61817 21.3441C7.53171 21.1351 7.44982 20.9243 7.37249 20.7117C7.29517 20.4992 7.22256 20.285 7.15457 20.0693C7.08663 19.8535 7.02341 19.6364 6.9649 19.4179C6.90639 19.1994 6.85269 18.9797 6.80376 18.7589C6.75484 18.5381 6.71077 18.3162 6.67152 18.0935C6.63227 17.8707 6.59788 17.6472 6.5684 17.423C6.53893 17.1987 6.51432 16.9739 6.49457 16.7486C6.47492 16.5232 6.46013 16.2976 6.45026 16.0717C6.44043 15.8457 6.43547 15.6196 6.43547 15.3934C6.43547 15.1672 6.44043 14.9412 6.45026 14.7152C6.46013 14.4892 6.47492 14.2635 6.49457 14.0382C6.51432 13.8129 6.53893 13.5881 6.5684 13.3638C6.59788 13.1396 6.63227 12.9161 6.67152 12.6933C6.71077 12.4705 6.75484 12.2487 6.80376 12.0279C6.85269 11.807 6.90639 11.5874 6.9649 11.3689C7.02341 11.1504 7.08663 10.9333 7.15457 10.7175C7.22256 10.5018 7.29517 10.2876 7.37249 10.0751C7.44982 9.86244 7.53171 9.65167 7.61817 9.44267C7.70468 9.23367 7.79571 9.02664 7.89121 8.82157C7.98671 8.6165 8.08668 8.41363 8.19103 8.21298C8.29542 8.01228 8.40413 7.81394 8.51712 7.618C8.63016 7.42206 8.74737 7.22863 8.86881 7.0378C8.99025 6.84697 9.11582 6.65884 9.24546 6.47351C9.37515 6.28808 9.50877 6.10564 9.64638 5.92611C9.78398 5.74652 9.92541 5.57003 10.0707 5.39668C10.2802 5.14663 10.4974 4.90347 10.7222 4.66714C10.8718 4.5099 11.121 4.51024 11.2745 4.66365L12.855 6.24359C12.9901 6.37858 13.0058 6.58719 12.9064 6.7431C12.8926 6.76466 12.8769 6.7848 12.8593 6.80351C12.7291 6.94209 12.6021 7.08361 12.4783 7.22799C12.3545 7.37236 12.2341 7.51949 12.117 7.66936C11.9998 7.81919 11.8862 7.97162 11.776 8.12665C11.6659 8.28163 11.5593 8.43907 11.4563 8.59896C11.3532 8.75886 11.2539 8.92096 11.1583 9.08537C11.0627 9.24973 10.9708 9.41621 10.8827 9.58474C10.7947 9.75328 10.7105 9.92378 10.6302 10.0961C10.5499 10.2685 10.4735 10.4426 10.4011 10.6185C10.3287 10.7943 10.2604 10.9717 10.196 11.1507C10.1317 11.3297 10.0715 11.51 10.0154 11.6917C9.95926 11.8734 9.90728 12.0563 9.85948 12.2403C9.81168 12.4244 9.76806 12.6094 9.72866 12.7954C9.68931 12.9814 9.65419 13.1683 9.62324 13.3559C9.59239 13.5436 9.56576 13.7318 9.54341 13.9207C9.5211 14.1095 9.50312 14.2987 9.48937 14.4884C9.47566 14.6781 9.46623 14.8679 9.46112 15.058C9.45606 15.2481 9.45533 15.4382 9.45886 15.6284C9.46245 15.8185 9.47031 16.0084 9.48249 16.1982C9.49472 16.388 9.51123 16.5773 9.53201 16.7664C9.55284 16.9554 9.57794 17.1438 9.60732 17.3317C9.6367 17.5196 9.67035 17.7067 9.70827 17.893C9.7462 18.0794 9.7883 18.2648 9.83458 18.4492C9.88095 18.6336 9.93145 18.8169 9.98608 18.9991C10.0408 19.1812 10.0995 19.362 10.1624 19.5415C10.2253 19.7209 10.2923 19.8989 10.3632 20.0753C10.4342 20.2517 10.5092 20.4264 10.5881 20.5995C10.667 20.7724 10.7498 20.9436 10.8365 21.1129C10.9233 21.2821 11.0138 21.4493 11.1081 21.6144C11.2024 21.7796 11.3004 21.9425 11.4022 22.1032C11.5039 22.2639 11.6092 22.4221 11.7182 22.5781C11.8271 22.7339 11.9395 22.8873 12.0554 23.0381ZM34.5399 15.689C34.5423 15.5905 34.5434 15.4919 34.5434 15.3934C34.5434 15.2948 34.5423 15.1963 34.5399 15.0978C34.5376 14.9992 34.5341 14.9007 34.5294 14.8023C34.5248 14.7038 34.519 14.6055 34.512 14.5071C34.5051 14.4088 34.497 14.3106 34.4877 14.2125C34.4784 14.1143 34.4679 14.0163 34.4563 13.9185C34.4448 13.8206 34.4321 13.7229 34.4181 13.6253C34.4043 13.5277 34.3892 13.4303 34.373 13.3331C34.3568 13.2359 34.3395 13.1388 34.321 13.042C34.3025 12.9452 34.2829 12.8487 34.2621 12.7523C34.2414 12.656 34.2196 12.5599 34.1965 12.464C34.1735 12.3681 34.1493 12.2726 34.1241 12.1774C34.0988 12.0821 34.0724 11.9871 34.0449 11.8925C34.0173 11.7978 33.9888 11.7035 33.959 11.6096C33.9293 11.5156 33.8984 11.4219 33.8665 11.3287C33.8346 11.2355 33.8015 11.1426 33.7674 11.0501C33.7333 10.9577 33.6981 10.8657 33.6617 10.774C33.6255 10.6824 33.5881 10.5911 33.5496 10.5004C33.5112 10.4096 33.4717 10.3193 33.4311 10.2295C33.3905 10.1397 33.3488 10.0504 33.3062 9.96154C33.2635 9.87266 33.2198 9.78436 33.175 9.69656C33.1302 9.60871 33.0845 9.52144 33.0376 9.43472C32.9908 9.34795 32.9429 9.26176 32.8941 9.17617C32.8453 9.09053 32.7954 9.00552 32.7445 8.92111C32.6937 8.83664 32.6418 8.75282 32.5889 8.66963C32.5361 8.58639 32.4823 8.50379 32.4275 8.42188C32.3728 8.33992 32.317 8.25865 32.2603 8.17802C32.2036 8.09738 32.146 8.01744 32.0873 7.93818C32.0288 7.85887 31.9692 7.7803 31.9088 7.70241C31.8484 7.62453 31.787 7.54738 31.7248 7.47097C31.6626 7.39456 31.5994 7.31884 31.5353 7.2439C31.4713 7.16896 31.4064 7.09476 31.3406 7.0214C31.2748 6.94793 31.2081 6.8753 31.1406 6.80351C31.1229 6.78455 31.1072 6.76432 31.0936 6.7431C30.9942 6.58719 31.0099 6.37858 31.145 6.24359L32.7255 4.66365C32.879 4.51024 33.1282 4.5099 33.2778 4.66714C33.447 4.84513 33.6121 5.027 33.7727 5.21283C33.9334 5.3986 34.0896 5.5881 34.2413 5.78129C34.393 5.97443 34.54 6.1711 34.6824 6.37126C34.8248 6.57138 34.9623 6.77478 35.0951 6.98142C35.2279 7.18806 35.3557 7.3977 35.4785 7.61044C35.6013 7.82312 35.7191 8.0386 35.8317 8.25688C35.9443 8.47511 36.0517 8.69595 36.1539 8.91929C36.2561 9.14263 36.3529 9.36823 36.4444 9.59618C36.5359 9.82409 36.6219 10.0541 36.7025 10.286C36.7831 10.518 36.8582 10.7518 36.9277 10.9874C36.9973 11.2229 37.0612 11.46 37.1195 11.6986C37.1778 11.9371 37.2304 12.1769 37.2774 12.418C37.3243 12.659 37.3656 12.9011 37.4011 13.1441C37.4366 13.3871 37.4663 13.6308 37.4902 13.8753C37.5142 14.1197 37.5324 14.3645 37.5448 14.6098C37.5572 14.8551 37.5637 15.1005 37.5644 15.3461C37.5652 15.5917 37.5602 15.8372 37.5492 16.0825C37.5384 16.3278 37.5217 16.5728 37.4992 16.8174C37.4767 17.0619 37.4485 17.3058 37.4145 17.549C37.3805 17.7923 37.3407 18.0346 37.2952 18.2759C37.2497 18.5172 37.1986 18.7573 37.1417 18.9963C37.0848 19.2352 37.0223 19.4726 36.9542 19.7086C36.8861 19.9446 36.8125 20.1788 36.7333 20.4113C36.6541 20.6438 36.5694 20.8742 36.4793 21.1027C36.3892 21.3312 36.2938 21.5574 36.193 21.7814C36.0922 22.0053 35.9861 22.2268 35.8748 22.4458C35.7635 22.6647 35.647 22.8809 35.5255 23.0943C35.404 23.3077 35.2775 23.5182 35.146 23.7256C35.0145 23.9331 34.8782 24.1373 34.737 24.3383C34.5958 24.5393 34.45 24.7369 34.2994 24.9309C34.1489 25.125 33.9939 25.3154 33.8344 25.5022C33.6748 25.689 33.511 25.8719 33.3428 26.0509L33.3045 26.0915C33.2956 26.1009 33.2867 26.1103 33.2778 26.1196C33.1282 26.2769 32.879 26.2766 32.7255 26.1231L31.145 24.5432C31.0099 24.4082 30.9942 24.1996 31.0936 24.0437C31.1074 24.0221 31.1231 24.002 31.1406 23.9833C31.2081 23.9115 31.2748 23.8388 31.3406 23.7654C31.4064 23.692 31.4713 23.6179 31.5353 23.5429C31.5994 23.468 31.6625 23.3923 31.7248 23.3158C31.787 23.2394 31.8484 23.1622 31.9088 23.0844C31.9692 23.0065 32.0288 22.9279 32.0873 22.8486C32.146 22.7694 32.2036 22.6894 32.2603 22.6088C32.317 22.5282 32.3727 22.4468 32.4275 22.3649C32.4823 22.283 32.5361 22.2004 32.5889 22.1172C32.6418 22.034 32.6937 21.9501 32.7445 21.8657C32.7954 21.7812 32.8452 21.6962 32.894 21.6106C32.9429 21.525 32.9908 21.4388 33.0376 21.3521C33.0845 21.2654 33.1302 21.1781 33.175 21.0903C33.2198 21.0025 33.2635 20.9141 33.3062 20.8253C33.3488 20.7364 33.3905 20.6471 33.431 20.5573C33.4716 20.4674 33.5112 20.3772 33.5496 20.2864C33.5881 20.1956 33.6255 20.1044 33.6617 20.0128C33.698 19.9212 33.7333 19.8291 33.7673 19.7367C33.8015 19.6442 33.8346 19.5513 33.8665 19.4581C33.8984 19.3648 33.9293 19.2712 33.959 19.1772C33.9888 19.0833 34.0173 18.989 34.0449 18.8943C34.0724 18.7997 34.0988 18.7047 34.1241 18.6095C34.1493 18.5142 34.1735 18.4186 34.1965 18.3228C34.2195 18.2269 34.2414 18.1309 34.2621 18.0345C34.2829 17.9382 34.3025 17.8416 34.321 17.7447C34.3395 17.6479 34.3568 17.5509 34.373 17.4537C34.3892 17.3565 34.4043 17.2591 34.4181 17.1615C34.432 17.0639 34.4447 16.9662 34.4563 16.8683C34.4679 16.7704 34.4784 16.6724 34.4877 16.5743C34.497 16.4762 34.5051 16.378 34.512 16.2797C34.519 16.1814 34.5248 16.0829 34.5294 15.9845C34.5341 15.886 34.5376 15.7875 34.5399 15.689ZM17.3576 19.624L17.3581 19.625C17.3635 19.635 17.3685 19.6453 17.373 19.6558C17.4385 19.8063 17.4136 19.9863 17.2925 20.1074L15.6166 21.7826C15.4632 21.9361 15.2136 21.9366 15.0667 21.7769C14.9082 21.6046 14.7563 21.4267 14.611 21.2432C14.4658 21.0597 14.3275 20.871 14.1963 20.6772C14.0651 20.4833 13.9413 20.2849 13.8249 20.0818C13.7084 19.8788 13.5998 19.6717 13.4988 19.4605L13.497 19.4568C13.4215 19.2988 13.3505 19.1388 13.2839 18.9769C13.2174 18.8149 13.1553 18.6513 13.0978 18.4859C13.0404 18.3205 12.9876 18.1536 12.9395 17.9853C12.8913 17.8169 12.8479 17.6474 12.8092 17.4766C12.7705 17.3058 12.7366 17.1341 12.7074 16.9615C12.6784 16.7888 12.654 16.6155 12.6345 16.4415C12.6151 16.2675 12.6005 16.0931 12.5907 15.9183C12.581 15.7435 12.5761 15.5685 12.5761 15.3934C12.5761 15.2183 12.581 15.0434 12.5907 14.8686C12.6005 14.6938 12.6151 14.5193 12.6345 14.3453C12.654 14.1713 12.6784 13.998 12.7074 13.8253C12.7366 13.6527 12.7705 13.481 12.8092 13.3102C12.8479 13.1394 12.8913 12.9699 12.9395 12.8016C12.9876 12.6332 13.0404 12.4664 13.0978 12.301C13.1553 12.1356 13.2174 11.9719 13.2839 11.8099C13.3505 11.648 13.4215 11.488 13.497 11.33L13.4988 11.3263C13.5998 11.1151 13.7084 10.908 13.8249 10.705C13.9413 10.5019 14.0651 10.3035 14.1963 10.1096C14.3275 9.91577 14.4658 9.7271 14.611 9.54359C14.7563 9.36003 14.9082 9.18216 15.0667 9.00994C15.2136 8.85029 15.4632 8.85079 15.6166 9.0042L17.2925 10.6794C17.4136 10.8005 17.4385 10.9805 17.373 11.131C17.3685 11.1414 17.3635 11.1518 17.3581 11.1619L17.3576 11.1628C17.342 11.1919 17.3232 11.2188 17.3013 11.2436C17.2389 11.3144 17.1779 11.3867 17.1187 11.4603C17.0594 11.5339 17.0019 11.6088 16.946 11.685C16.8901 11.7612 16.836 11.8387 16.7836 11.9173C16.7312 11.996 16.6807 12.0758 16.6319 12.1567C16.5832 12.2377 16.5363 12.3196 16.4912 12.4027C16.4462 12.4857 16.403 12.5698 16.3617 12.6548C16.3204 12.7398 16.2811 12.8257 16.2438 12.9125C16.2064 12.9993 16.171 13.0868 16.1376 13.1752C16.1041 13.2636 16.0728 13.3527 16.0433 13.4425C16.014 13.5323 15.9866 13.6227 15.9613 13.7138C15.936 13.8048 15.9128 13.8963 15.8916 13.9884C15.8705 14.0805 15.8513 14.173 15.8343 14.266C15.8174 14.3589 15.8025 14.4522 15.7897 14.5458C15.777 14.6394 15.7663 14.7333 15.7578 14.8274C15.7493 14.9215 15.7429 15.0158 15.7386 15.1101C15.7343 15.2045 15.7322 15.299 15.7322 15.3934C15.7322 15.4879 15.7343 15.5823 15.7386 15.6767C15.7429 15.7711 15.7493 15.8654 15.7578 15.9595C15.7663 16.0536 15.777 16.1474 15.7897 16.241C15.8025 16.3346 15.8174 16.4279 15.8343 16.5209C15.8513 16.6138 15.8705 16.7063 15.8916 16.7984C15.9128 16.8905 15.936 16.9821 15.9613 17.0731C15.9866 17.1641 16.014 17.2545 16.0433 17.3444C16.0728 17.4341 16.1041 17.5233 16.1376 17.6117C16.171 17.7 16.2064 17.7876 16.2438 17.8744C16.2811 17.9612 16.3204 18.047 16.3617 18.132C16.403 18.217 16.4462 18.3011 16.4912 18.3842C16.5363 18.4672 16.5832 18.5492 16.6319 18.6301C16.6807 18.7111 16.7312 18.7909 16.7836 18.8695C16.836 18.9482 16.8901 19.0256 16.946 19.1019C17.0019 19.1781 17.0594 19.253 17.1187 19.3266C17.1779 19.4001 17.2389 19.4724 17.3013 19.5433C17.3232 19.568 17.342 19.5949 17.3576 19.624ZM26.6419 19.625L26.6424 19.624C26.6581 19.5949 26.6768 19.568 26.6986 19.5433C26.7612 19.4724 26.8221 19.4001 26.8813 19.3266C26.9406 19.2529 26.9982 19.178 27.054 19.1019C27.1099 19.0256 27.164 18.9482 27.2163 18.8695C27.2688 18.7909 27.3193 18.7111 27.368 18.6301C27.4168 18.5492 27.4637 18.4672 27.5088 18.3842C27.5539 18.3011 27.597 18.217 27.6383 18.132C27.6795 18.047 27.7189 17.9612 27.7562 17.8744C27.7936 17.7876 27.829 17.7 27.8624 17.6117C27.8958 17.5233 27.9272 17.4341 27.9566 17.3444C27.986 17.2545 28.0134 17.1641 28.0387 17.0731C28.064 16.9821 28.0872 16.8905 28.1084 16.7984C28.1296 16.7063 28.1486 16.6138 28.1656 16.5209C28.1826 16.4279 28.1975 16.3346 28.2102 16.241C28.223 16.1474 28.2337 16.0535 28.2422 15.9594C28.2507 15.8654 28.2572 15.7711 28.2614 15.6767C28.2657 15.5823 28.2678 15.4879 28.2678 15.3934C28.2678 15.299 28.2657 15.2045 28.2614 15.1101C28.2572 15.0158 28.2507 14.9215 28.2422 14.8274C28.2337 14.7333 28.223 14.6394 28.2102 14.5458C28.1975 14.4522 28.1826 14.3589 28.1656 14.266C28.1486 14.173 28.1296 14.0805 28.1084 13.9884C28.0872 13.8963 28.064 13.8048 28.0387 13.7138C28.0134 13.6227 27.986 13.5323 27.9566 13.4425C27.9272 13.3527 27.8958 13.2636 27.8624 13.1752C27.829 13.0868 27.7936 12.9993 27.7562 12.9125C27.7189 12.8257 27.6795 12.7398 27.6383 12.6548C27.597 12.5698 27.5539 12.4857 27.5088 12.4027C27.4637 12.3196 27.4168 12.2377 27.368 12.1567C27.3193 12.0758 27.2688 11.996 27.2163 11.9173C27.164 11.8387 27.1099 11.7612 27.054 11.685C26.9982 11.6088 26.9406 11.5339 26.8813 11.4603C26.8221 11.3866 26.7612 11.3144 26.6986 11.2436C26.6765 11.2185 26.6577 11.1913 26.6424 11.1628L26.6419 11.1619C26.6365 11.1518 26.6315 11.1414 26.627 11.131C26.5615 10.9805 26.5863 10.8005 26.7075 10.6794L28.3834 9.0042C28.5368 8.85079 28.7864 8.85029 28.9333 9.00994C29.0919 9.18216 29.2438 9.36003 29.389 9.54359C29.5343 9.7271 29.6725 9.91577 29.8037 10.1096C29.9349 10.3035 30.0587 10.5019 30.1751 10.705C30.2916 10.908 30.4003 11.1151 30.5012 11.3263L30.503 11.33C31.1036 12.5871 31.4239 13.9737 31.4239 15.3934C31.4239 15.5685 31.419 15.7435 31.4092 15.9183C31.3995 16.0931 31.3849 16.2675 31.3654 16.4415C31.3459 16.6155 31.3217 16.7888 31.2925 16.9615C31.2634 17.1341 31.2295 17.3058 31.1908 17.4766C31.1521 17.6474 31.1087 17.8169 31.0605 17.9853Q30.9883 18.2378 30.9021 18.4859C30.8447 18.6513 30.7827 18.8149 30.7161 18.9769C30.6495 19.1388 30.5785 19.2988 30.503 19.4568L30.5012 19.4605C30.4003 19.6717 30.2916 19.8787 30.1751 20.0818C30.0587 20.2849 29.9349 20.4833 29.8037 20.6772C29.6725 20.8709 29.5343 21.0597 29.389 21.2432C29.2438 21.4267 29.0919 21.6046 28.9333 21.7769C28.7864 21.9366 28.5368 21.9361 28.3834 21.7826L26.7075 20.1074C26.5863 19.9863 26.5615 19.8063 26.627 19.6558C26.6315 19.6453 26.6365 19.635 26.6419 19.625ZM23.5806 18.1647C24.5202 17.6213 25.1523 16.6057 25.1523 15.4425C25.1523 13.7067 23.7447 12.2996 22.0083 12.2996C20.2719 12.2996 18.8642 13.7067 18.8642 15.4425C18.8642 16.6059 19.4966 17.6217 20.4365 18.165L20.4365 43.6073C20.4365 43.6137 20.4367 43.6201 20.437 43.6266C20.4373 43.633 20.4378 43.6394 20.4384 43.6458C20.439 43.6522 20.4398 43.6585 20.4408 43.6649C20.4417 43.6713 20.4428 43.6776 20.4441 43.6839C20.4453 43.6902 20.4467 43.6965 20.4483 43.7027Q20.4506 43.7121 20.4534 43.7213C20.4553 43.7274 20.4573 43.7336 20.4595 43.7396C20.4617 43.7457 20.464 43.7517 20.4664 43.7576C20.4689 43.7635 20.4715 43.7694 20.4742 43.7752C20.477 43.7811 20.4799 43.7868 20.4829 43.7925C20.4859 43.7981 20.4891 43.8037 20.4924 43.8093C20.4957 43.8148 20.4992 43.8202 20.5027 43.8255C20.5063 43.8309 20.51 43.8361 20.5138 43.8413C20.5177 43.8464 20.5216 43.8515 20.5257 43.8565C20.5298 43.8615 20.534 43.8663 20.5383 43.8711C20.5426 43.8758 20.5471 43.8805 20.5516 43.8851C20.5562 43.8896 20.5608 43.8941 20.5656 43.8983C20.5704 43.9027 20.5752 43.9069 20.5802 43.911C20.5852 43.915 20.5902 43.919 20.5954 43.9228C20.6005 43.9266 20.6058 43.9304 20.6111 43.9339C20.6165 43.9375 20.622 43.941 20.6275 43.9443C20.633 43.9475 20.6386 43.9507 20.6443 43.9537C20.6499 43.9568 20.6557 43.9597 20.6615 43.9624C20.6673 43.9652 20.6732 43.9678 20.6791 43.9702C20.685 43.9727 20.6911 43.975 20.6971 43.9772C20.7032 43.9793 20.7093 43.9813 20.7154 43.9832C20.7216 43.9851 20.7278 43.9868 20.734 43.9883C20.7403 43.9899 20.7465 43.9913 20.7528 43.9926C20.7591 43.9939 20.7655 43.9949 20.7718 43.9959C20.7782 43.9968 20.7846 43.9976 20.791 43.9982C20.7974 43.9989 20.8038 43.9994 20.8102 43.9996C20.8167 44 20.8231 44.0001 20.8295 44.0001L23.1875 44.0001C23.194 44.0001 23.2004 44 23.2069 43.9996C23.2133 43.9994 23.2197 43.9989 23.2261 43.9982C23.2325 43.9976 23.2389 43.9968 23.2452 43.9959C23.2516 43.9949 23.2579 43.9939 23.2642 43.9926C23.2705 43.9913 23.2768 43.9899 23.283 43.9883C23.2893 43.9868 23.2955 43.9851 23.3016 43.9832C23.3078 43.9813 23.3139 43.9793 23.3199 43.9772C23.326 43.975 23.332 43.9727 23.3379 43.9702C23.3439 43.9678 23.3498 43.9652 23.3556 43.9624C23.3614 43.9597 23.3671 43.9568 23.3728 43.9537C23.3785 43.9507 23.3841 43.9475 23.3896 43.9443C23.3951 43.941 23.4005 43.9375 23.4059 43.9339C23.4112 43.9304 23.4165 43.9266 23.4217 43.9228C23.4268 43.919 23.4319 43.915 23.4369 43.911C23.4418 43.9069 23.4467 43.9027 23.4515 43.8983C23.4562 43.8941 23.4609 43.8896 23.4655 43.8851C23.47 43.8805 23.4744 43.8758 23.4788 43.8711C23.4831 43.8663 23.4873 43.8615 23.4913 43.8565C23.4954 43.8515 23.4994 43.8465 23.5032 43.8413C23.5071 43.8362 23.5108 43.8309 23.5143 43.8255C23.5179 43.8202 23.5213 43.8148 23.5246 43.8093C23.528 43.8037 23.5311 43.7981 23.5341 43.7925C23.5372 43.7868 23.5401 43.7811 23.5428 43.7752C23.5456 43.7694 23.5482 43.7635 23.5506 43.7576C23.5531 43.7517 23.5554 43.7457 23.5576 43.7396C23.5598 43.7336 23.5618 43.7274 23.5637 43.7213C23.5655 43.7152 23.5672 43.709 23.5688 43.7027C23.5703 43.6965 23.5717 43.6902 23.573 43.6839C23.5743 43.6776 23.5754 43.6713 23.5763 43.6649C23.5772 43.6585 23.578 43.6522 23.5787 43.6458C23.5793 43.6394 23.5798 43.633 23.5801 43.6266C23.5804 43.6201 23.5806 43.6137 23.5806 43.6073L23.5806 18.1647Z" fill-rule="evenodd"  fill="url(#linear_fill_21_131)" >
</path>
<defs>
<linearGradient id="linear_fill_21_131" x1="0" y1="22.0001220703125" x2="44" y2="22.0001220703125" gradientUnits="userSpaceOnUse">
<stop offset="0" stop-color="#FFFFFF"  />
<stop offset="1" stop-color="#EDEDED" stop-opacity="0.2" />
</linearGradient>
</defs>
</svg>
