<svg xmlns="http://www.w3.org/2000/svg" xmlns:xlink="http://www.w3.org/1999/xlink" width="169.76904296875" height="36.53570556640625" viewBox="0 0 169.76904296875 36.53570556640625" fill="none">
<g opacity="0.9">
<g  opacity="0.9">
<path     fill="#FFFFFF"  d="M48.6606 7.08Q48.6606 6.744 48.9006 6.504Q49.1406 6.264 49.4766 6.264L59.6286 6.264Q59.9646 6.264 60.2166 6.504Q60.4686 6.744 60.4686 7.08L60.4686 25.224Q60.4686 25.584 60.7206 25.824Q60.9726 26.064 61.3086 26.064L63.8526 26.064Q64.1886 26.064 64.4286 26.304Q64.6686 26.544 64.6686 26.904L64.6686 27.456Q64.6686 27.792 64.4286 28.044Q64.1886 28.296 63.8526 28.296L59.1006 28.296Q58.7406 28.296 58.4886 28.044Q58.2366 27.792 58.2366 27.456L58.2366 27.336L58.2366 25.68L58.2366 9.312Q58.2366 8.976 57.9966 8.724Q57.7566 8.472 57.3966 8.472L49.4766 8.472Q49.1406 8.472 48.9006 8.232Q48.6606 7.992 48.6606 7.632L48.6606 7.08ZM64.6446 12.48L64.6446 14.136L64.6446 14.256Q64.6446 14.592 64.4046 14.844Q64.1646 15.096 63.8046 15.096L61.7886 15.096Q61.4286 15.096 61.1886 14.844Q60.9486 14.592 60.9486 14.256L60.9486 13.704Q60.9486 13.344 61.1646 13.104Q61.3806 12.864 61.6926 12.864Q62.0046 12.864 62.2086 12.624Q62.4126 12.384 62.4126 12.024L62.4126 7.08Q62.4126 6.744 62.6646 6.504Q62.9166 6.264 63.2766 6.264L63.8046 6.264Q64.1646 6.264 64.4046 6.504Q64.6446 6.744 64.6446 7.08L64.6446 12.48ZM62.3406 15.936Q62.6766 15.936 62.9286 16.188Q63.1806 16.44 63.1806 16.776L63.1806 21.456Q63.1806 21.792 63.3966 22.044Q63.6126 22.296 63.9006 22.296Q64.2366 22.296 64.4406 22.548Q64.6446 22.8 64.6446 23.136L64.6446 23.688Q64.6446 24.024 64.4046 24.264Q64.1646 24.504 63.8046 24.504L61.7886 24.504Q61.4286 24.504 61.1886 24.264Q60.9486 24.024 60.9486 23.688L60.9486 23.544L60.9486 21.912L60.9486 16.776Q60.9486 16.44 61.1886 16.188Q61.4286 15.936 61.7886 15.936L62.3406 15.936ZM70.0206 26.904Q70.0206 26.544 70.2606 26.304Q70.5006 26.064 70.8366 26.064L85.2126 26.064Q85.5486 26.064 85.7886 26.304Q86.0286 26.544 86.0286 26.904L86.0286 27.456Q86.0286 27.792 85.7886 28.044Q85.5486 28.296 85.2126 28.296L70.8366 28.296Q70.5006 28.296 70.2606 28.044Q70.0206 27.792 70.0206 27.456L70.0206 26.904ZM81.5646 11.256Q81.9006 11.256 82.1526 11.016Q82.4046 10.776 82.4046 10.416L82.4046 10.344Q82.4046 10.008 82.1526 9.768Q81.9006 9.528 81.5646 9.528L72.8526 9.528Q72.5166 9.528 72.0846 9.36Q71.6526 9.192 71.3886 8.976L70.6686 8.304Q70.4046 8.064 70.2126 7.68Q70.0206 7.296 70.0206 7.008Q70.0206 6.696 70.2606 6.48Q70.5006 6.264 70.8366 6.264L71.6286 6.264Q71.9886 6.264 72.2286 6.42Q72.4686 6.576 72.4686 6.792Q72.4686 6.984 72.7086 7.128Q72.9486 7.272 73.2846 7.272L84.0126 7.272Q84.3486 7.272 84.6006 7.536Q84.8526 7.8 84.8526 8.136L84.8526 10.416Q84.8526 10.776 85.0206 11.016Q85.1886 11.256 85.4526 11.256Q85.6926 11.256 85.8606 11.508Q86.0286 11.76 86.0286 12.12L86.0286 21.936Q86.0286 22.296 85.8486 22.704Q85.6686 23.112 85.3806 23.352L84.6606 24Q84.3966 24.264 83.9646 24.42Q83.5326 24.576 83.1966 24.576L73.0926 24.576L71.4126 24.576L70.8366 24.576Q70.5006 24.576 70.2606 24.336Q70.0206 24.096 70.0206 23.736L70.0206 23.16L70.0206 21.504L70.0206 12.12Q70.0206 11.76 70.2606 11.508Q70.5006 11.256 70.8366 11.256L71.1246 11.256L72.1086 11.256L73.0926 11.256L81.5646 11.256ZM80.0526 13.488Q79.7166 13.488 79.4766 13.728Q79.2366 13.968 79.2366 14.304L79.2366 16.056Q79.2366 16.392 79.4766 16.644Q79.7166 16.896 80.0526 16.896L82.9566 16.896Q83.3166 16.896 83.5566 16.644Q83.7966 16.392 83.7966 16.056L83.7966 14.304Q83.7966 13.968 83.5566 13.728Q83.3166 13.488 82.9566 13.488L80.0526 13.488ZM73.0926 13.488Q72.7326 13.488 72.4926 13.728Q72.2526 13.968 72.2526 14.304L72.2526 16.056Q72.2526 16.392 72.4926 16.644Q72.7326 16.896 73.0926 16.896L76.1646 16.896Q76.5246 16.896 76.7646 16.644Q77.0046 16.392 77.0046 16.056L77.0046 14.304Q77.0046 13.968 76.7646 13.728Q76.5246 13.488 76.1646 13.488L73.0926 13.488ZM72.2526 21.504Q72.2526 21.84 72.4926 22.08Q72.7326 22.32 73.0926 22.32L76.1646 22.32Q76.5246 22.32 76.7646 22.08Q77.0046 21.84 77.0046 21.504L77.0046 19.968Q77.0046 19.608 76.7646 19.368Q76.5246 19.128 76.1646 19.128L73.0926 19.128Q72.7326 19.128 72.4926 19.368Q72.2526 19.608 72.2526 19.968L72.2526 21.504ZM82.9566 22.32Q83.3166 22.32 83.5566 22.08Q83.7966 21.84 83.7966 21.504L83.7966 19.968Q83.7966 19.608 83.5566 19.368Q83.3166 19.128 82.9566 19.128L80.0526 19.128Q79.7166 19.128 79.4766 19.368Q79.2366 19.608 79.2366 19.968L79.2366 21.504Q79.2366 21.84 79.4766 22.08Q79.7166 22.32 80.0526 22.32L82.9566 22.32ZM98.4846 12.576Q98.1486 12.576 97.8966 12.828Q97.6446 13.08 97.6446 13.44L97.6446 13.752Q97.6446 14.088 97.8966 14.328Q98.1486 14.568 98.4846 14.568L100.093 14.568Q100.453 14.568 100.705 14.82Q100.957 15.072 100.957 15.408L100.957 25.68Q100.957 26.016 100.801 26.448Q100.645 26.88 100.381 27.144L99.9246 27.648Q99.7086 27.912 99.3486 28.104Q98.9886 28.296 98.7246 28.296Q98.4126 28.296 98.2326 28.044Q98.0526 27.792 98.0526 27.456L98.0526 26.928Q98.0526 26.568 98.1846 26.328Q98.3166 26.088 98.5086 26.088Q98.7006 26.088 98.8206 25.848Q98.9406 25.608 98.9406 25.248L98.9406 17.64Q98.9406 17.28 98.7486 17.04Q98.5566 16.8 98.2926 16.8Q98.0046 16.8 97.8246 17.04Q97.6446 17.28 97.6446 17.64L97.6446 25.68Q97.6446 26.016 97.4886 26.448Q97.3326 26.88 97.0686 27.144L96.6606 27.648Q96.3966 27.912 96.0846 28.104Q95.7726 28.296 95.5086 28.296Q95.2926 28.296 95.1366 28.044Q94.9806 27.792 94.9806 27.456L94.9806 26.928Q94.9806 26.568 95.0766 26.328Q95.1726 26.088 95.2926 26.088Q95.4126 26.088 95.5206 25.848Q95.6286 25.608 95.6286 25.248L95.6286 13.44Q95.6286 13.08 95.5206 12.828Q95.4126 12.576 95.2926 12.576Q95.1726 12.576 95.0766 12.336Q94.9806 12.096 94.9806 11.736L94.9806 11.184Q94.9806 10.848 95.2206 10.596Q95.4606 10.344 95.8206 10.344L100.093 10.344Q100.453 10.344 100.705 10.596Q100.957 10.848 100.957 11.184L100.957 11.736Q100.957 12.096 100.705 12.336Q100.453 12.576 100.093 12.576L98.4846 12.576ZM92.5326 11.52Q92.7726 11.256 93.1206 11.256Q93.4686 11.256 93.7086 11.52L94.0926 11.88Q94.3326 12.144 94.3326 12.492Q94.3326 12.84 94.0926 13.08L93.7086 13.488Q93.4686 13.752 93.1206 13.752Q92.7726 13.752 92.5326 13.488L92.1486 13.08Q91.8846 12.84 91.8846 12.492Q91.8846 12.144 92.1486 11.88L92.5326 11.52ZM103.141 26.064Q103.477 26.064 103.717 25.824Q103.957 25.584 103.957 25.224L103.957 21.024Q103.957 20.664 103.717 20.424Q103.477 20.184 103.141 20.184L102.469 20.184Q102.109 20.184 101.857 19.944Q101.605 19.704 101.605 19.344L101.605 18.792Q101.605 18.456 101.857 18.216Q102.109 17.976 102.469 17.976L103.141 17.976Q103.477 17.976 103.717 17.76Q103.957 17.544 103.957 17.28Q103.957 17.016 104.053 16.596Q104.149 16.176 104.269 15.84L104.941 14.304Q105.085 13.968 104.941 13.74Q104.797 13.512 104.437 13.512L102.469 13.512Q102.109 13.512 101.857 13.272Q101.605 13.032 101.605 12.696L101.605 12.12Q101.605 11.784 101.857 11.544Q102.109 11.304 102.469 11.304L106.573 11.304Q106.909 11.304 107.149 11.544Q107.389 11.784 107.389 12.12L107.389 12.696Q107.389 13.032 107.293 13.5Q107.197 13.968 107.077 14.304L106.285 16.176Q106.165 16.488 106.069 16.86Q105.973 17.232 105.973 17.424Q105.973 17.664 106.177 17.82Q106.381 17.976 106.693 17.976Q106.981 17.976 107.185 18.216Q107.389 18.456 107.389 18.792L107.389 19.32Q107.389 19.68 107.185 19.92Q106.981 20.16 106.693 20.16Q106.381 20.16 106.177 20.412Q105.973 20.664 105.973 21.024L105.973 25.632Q105.973 25.992 105.817 26.424Q105.661 26.856 105.397 27.096L104.941 27.624Q104.725 27.888 104.317 28.08Q103.909 28.272 103.573 28.272L102.469 28.272Q102.109 28.272 101.857 28.02Q101.605 27.768 101.605 27.432L101.605 26.904Q101.605 26.544 101.857 26.304Q102.109 26.064 102.469 26.064L103.141 26.064ZM102.925 6.264Q103.261 6.264 103.501 6.444Q103.741 6.624 103.717 6.864Q103.717 7.128 103.957 7.308Q104.197 7.488 104.557 7.488L106.573 7.488Q106.909 7.488 107.149 7.74Q107.389 7.992 107.389 8.328L107.389 8.856Q107.389 9.216 107.149 9.456Q106.909 9.696 106.573 9.696L104.125 9.696Q103.765 9.696 103.369 9.516Q102.973 9.336 102.709 9.072L102.277 8.592Q102.037 8.304 101.881 7.872Q101.725 7.44 101.725 7.08Q101.725 6.744 101.977 6.504Q102.229 6.264 102.565 6.264L102.925 6.264ZM94.0926 7.32Q94.3326 7.56 94.3326 7.908Q94.3326 8.256 94.0926 8.496L93.7086 8.856Q93.4686 9.12 93.1206 9.12Q92.7726 9.12 92.5326 8.856L92.1486 8.496Q91.8846 8.256 91.8846 7.908Q91.8846 7.56 92.1486 7.32L92.5326 6.96Q92.7726 6.696 93.1206 6.696Q93.4686 6.696 93.7086 6.96L94.0926 7.32ZM91.3806 26.904Q91.3806 26.544 91.4646 26.304Q91.5486 26.064 91.6926 26.064Q91.8366 26.064 91.9206 25.824Q92.0046 25.584 92.0046 25.224L92.0046 16.2Q92.0046 15.864 92.2446 15.624Q92.4846 15.384 92.8206 15.384L93.3966 15.384Q93.7326 15.384 93.9726 15.624Q94.2126 15.864 94.2126 16.2L94.2126 25.68Q94.2126 26.016 94.0446 26.436Q93.8766 26.856 93.6366 27.072L93.0126 27.672Q92.7726 27.936 92.4366 28.104Q92.1006 28.272 91.9086 28.272Q91.6926 28.272 91.5366 28.02Q91.3806 27.768 91.3806 27.432L91.3806 26.904ZM100.957 6.984Q100.957 7.272 100.801 7.68Q100.645 8.088 100.381 8.352L99.9246 8.856Q99.7086 9.12 99.2886 9.3Q98.8686 9.48 98.5326 9.48L95.8206 9.48Q95.4606 9.48 95.2206 9.24Q94.9806 9 94.9806 8.664L94.9806 8.112Q94.9806 7.752 95.2206 7.5Q95.4606 7.248 95.8206 7.248L98.0766 7.248Q98.4366 7.248 98.6886 7.104Q98.9406 6.96 98.9406 6.768Q98.9406 6.552 99.1806 6.408Q99.4206 6.264 99.7806 6.264L100.093 6.264Q100.453 6.264 100.705 6.48Q100.957 6.696 100.957 6.984ZM126.013 11.016Q125.653 11.016 125.413 11.256Q125.173 11.496 125.173 11.856L125.173 20.832Q125.173 21.168 125.341 21.408Q125.509 21.648 125.773 21.648Q126.037 21.648 126.217 21.408Q126.397 21.168 126.397 20.832L126.397 14.832Q126.397 14.496 126.637 14.256Q126.877 14.016 127.237 14.016L127.813 14.016Q128.125 14.016 128.365 14.256Q128.605 14.496 128.605 14.832L128.605 21.264Q128.605 21.6 128.437 22.02Q128.269 22.44 128.053 22.68L127.429 23.28Q127.189 23.52 126.769 23.688Q126.349 23.856 126.013 23.856Q125.653 23.856 125.413 24.096Q125.173 24.336 125.173 24.696L125.173 25.248Q125.173 25.608 125.413 25.848Q125.653 26.088 126.013 26.088L127.813 26.088Q128.125 26.088 128.365 26.328Q128.605 26.568 128.605 26.928L128.605 27.456Q128.605 27.792 128.365 28.044Q128.125 28.296 127.813 28.296L125.557 28.296Q125.221 28.296 124.801 28.128Q124.381 27.96 124.141 27.696L123.565 27.096Q123.301 26.88 123.133 26.472Q122.965 26.064 122.965 25.728L122.965 24.696Q122.965 24.336 122.713 24.096Q122.461 23.856 122.101 23.856L121.525 23.856Q121.189 23.856 120.949 23.616Q120.709 23.376 120.709 23.016L120.709 22.488Q120.709 22.152 120.949 21.9Q121.189 21.648 121.525 21.648L122.101 21.648Q122.461 21.648 122.713 21.408Q122.965 21.168 122.965 20.832L122.965 11.856Q122.965 11.496 122.713 11.256Q122.461 11.016 122.101 11.016L121.093 11.016Q120.733 11.016 120.493 10.764Q120.253 10.512 120.253 10.152L120.253 9.648Q120.253 9.288 120.493 9.048Q120.733 8.808 121.093 8.808L122.101 8.808Q122.461 8.808 122.713 8.556Q122.965 8.304 122.965 7.944L122.965 7.104Q122.965 6.768 123.205 6.516Q123.445 6.264 123.805 6.264L124.309 6.264Q124.669 6.264 124.921 6.516Q125.173 6.768 125.173 7.104L125.173 7.944Q125.173 8.304 125.341 8.556Q125.509 8.808 125.773 8.808Q126.037 8.808 126.217 8.556Q126.397 8.304 126.397 7.944Q126.397 7.608 126.637 7.356Q126.877 7.104 127.237 7.104L127.813 7.104Q128.125 7.104 128.365 7.356Q128.605 7.608 128.605 7.944L128.605 8.424Q128.605 8.76 128.437 9.18Q128.269 9.6 128.005 9.84L127.429 10.392Q127.189 10.656 126.769 10.836Q126.349 11.016 126.013 11.016ZM113.149 26.088Q113.341 26.088 113.605 25.872Q113.869 25.656 114.061 25.368L114.229 25.104Q114.421 24.84 114.421 24.42Q114.421 24 114.229 23.736L113.197 22.128Q113.005 21.816 112.873 21.372Q112.741 20.928 112.741 20.568L112.741 10.896Q112.741 10.56 112.981 10.308Q113.221 10.056 113.557 10.056L114.277 10.056Q114.637 10.056 114.877 10.308Q115.117 10.56 115.117 10.896L115.117 19.92Q115.117 20.256 115.249 20.724Q115.381 21.192 115.573 21.456L115.693 21.6Q115.885 21.936 116.137 21.936Q116.389 21.936 116.581 21.648L116.677 21.456Q116.869 21.192 117.013 20.724Q117.157 20.256 117.157 19.92L117.157 9.288Q117.157 8.952 116.917 8.7Q116.677 8.448 116.317 8.448L113.557 8.448Q113.221 8.448 112.981 8.208Q112.741 7.968 112.741 7.632L112.741 7.08Q112.741 6.744 112.981 6.504Q113.221 6.264 113.557 6.264L118.525 6.264Q118.861 6.264 119.113 6.504Q119.365 6.744 119.365 7.08L119.365 20.592Q119.365 20.952 119.221 21.408Q119.077 21.864 118.885 22.128L117.853 23.688Q117.661 24 117.661 24.396Q117.661 24.792 117.853 25.104L118.021 25.368Q118.213 25.656 118.453 25.872Q118.693 26.088 118.885 26.088Q119.077 26.088 119.185 26.328Q119.293 26.568 119.293 26.928L119.293 27.456Q119.293 27.792 119.053 28.044Q118.813 28.296 118.453 28.296L118.045 28.296Q117.709 28.296 117.337 28.08Q116.965 27.864 116.749 27.576L116.485 27.168Q116.293 26.88 116.029 26.88Q115.765 26.88 115.573 27.168L115.261 27.576Q115.069 27.864 114.685 28.08Q114.301 28.296 113.965 28.296L113.557 28.296Q113.221 28.296 112.981 28.044Q112.741 27.792 112.741 27.456L112.741 26.928Q112.741 26.568 112.861 26.328Q112.981 26.088 113.149 26.088ZM150.013 15.6Q150.013 15.936 149.761 16.188Q149.509 16.44 149.173 16.44L139.069 16.44Q138.733 16.44 138.433 16.68Q138.133 16.92 138.061 17.256L136.333 25.272Q136.261 25.608 136.453 25.848Q136.645 26.088 136.981 26.088L146.533 26.088Q146.869 26.088 147.121 25.848Q147.373 25.608 147.373 25.248L147.373 21.264Q147.373 20.928 147.613 20.676Q147.853 20.424 148.213 20.424L148.741 20.424Q149.077 20.424 149.329 20.676Q149.581 20.928 149.581 21.264L149.581 25.728Q149.581 26.064 149.401 26.472Q149.221 26.88 148.957 27.096L148.381 27.696Q148.165 27.96 147.733 28.128Q147.301 28.296 146.989 28.296L134.917 28.296Q134.581 28.296 134.341 28.044Q134.101 27.792 134.101 27.456L134.101 26.04Q134.101 25.704 134.161 25.212Q134.221 24.72 134.269 24.384L135.781 17.256Q135.877 16.92 135.673 16.68Q135.469 16.44 135.133 16.44L134.917 16.44Q134.581 16.44 134.341 16.188Q134.101 15.936 134.101 15.6L134.101 15.072Q134.101 14.712 134.341 14.472Q134.581 14.232 134.917 14.232L149.173 14.232Q149.509 14.232 149.761 14.472Q150.013 14.712 150.013 15.072L150.013 15.6ZM150.013 7.632Q150.013 7.968 149.761 8.208Q149.509 8.448 149.173 8.448L134.917 8.448Q134.581 8.448 134.341 8.208Q134.101 7.968 134.101 7.632L134.101 7.08Q134.101 6.744 134.341 6.504Q134.581 6.264 134.917 6.264L149.173 6.264Q149.509 6.264 149.761 6.504Q150.013 6.744 150.013 7.08L150.013 7.632Z">
</path>
</g>
<g opacity="0.9">
<path d="M25.9449 17.5496C25.9411 17.5496 25.9449 17.5496 25.9449 17.5496C31.3389 16.9666 34.8929 8.65076 35 7.02977C31.4575 2.76229 25.8034 0 19.4338 0C8.69931 0 0 7.83613 0 17.5C0 27.1639 8.69931 35 19.43 35C25.7957 35 31.4461 32.2377 34.9923 27.9785C34.759 26.1425 31.2357 18.1203 25.9449 17.5496ZM12.8118 23.6821C6.75593 23.6821 4.67865 19.9397 4.69013 17.5496C4.67865 15.0396 6.72533 11.4172 12.8118 11.4172C19.7246 11.4172 20.9373 16.9376 25.7192 17.5414C20.9373 18.0417 19.7896 23.6821 12.8118 23.6821Z"   fill="#FFFFFF" >
</path>
</g>
</g>
</svg>
